<svg id="_x31__x2C_5" enable-background="new 0 0 36 36" height="512" viewBox="0 0 36 36" width="512" xmlns="http://www.w3.org/2000/svg"><path d="m4.167 8.377c0 6.917-3.583 11.667-3.583 15s1.916 10.333 17.249 10.333 17.583-9.417 17.583-13.083c.001-17.167-31.249-24.5-31.249-12.25z" fill="#efefef"/><g fill="#EF2929"><path d="m7.033 4.467h2v1h-2z" transform="matrix(.707 -.707 .707 .707 -1.159 7.135)"/><path d="m2.967 8.533h2v1h-2z" transform="matrix(.707 -.707 .707 .707 -5.225 5.451)"/><path d="m3.644 3.967h1v2h-1z" transform="matrix(.707 -.707 .707 .707 -2.299 4.385)"/></g><path d="m11.761 19.25c-2.219 0-4.011-1.675-4.011-3.75s1.792-3.75 4.011-3.75h.071c.428-2.833 3.021-5 6.168-5 2.496 0 4.653 1.367 5.642 3.35 2.576.133 4.608 2.125 4.608 4.567 0 2.533-2.193 4.583-4.902 4.583z" fill="#f3f3f1"/><path d="m20.25 29.25h-4.5c-.552 0-1-.448-1-1v-3.5c0-.552.448-1 1-1h4.5c.552 0 1 .448 1 1v3.5c0 .552-.448 1-1 1z" fill="#EF2929"/><path d="m17 28.25v-3.5c0-.552.448-1 1-1h-2.25c-.552 0-1 .448-1 1v3.5c0 .552.448 1 1 1h2.25c-.552 0-1-.448-1-1z" fill="#941E1E"/><path d="m10 15.5c0-2.075 1.792-3.75 4.011-3.75h.071c.374-2.478 2.405-4.446 5.014-4.901-.357-.059-.721-.099-1.096-.099-3.146 0-5.74 2.167-6.168 5h-.071c-2.219 0-4.011 1.675-4.011 3.75s1.792 3.75 4.011 3.75h2.25c-2.219 0-4.011-1.675-4.011-3.75z" fill="#d5dbe1"/><path d="m23.348 20h-11.587c-2.625 0-4.761-2.019-4.761-4.5 0-2.307 1.846-4.213 4.214-4.471.745-2.906 3.554-5.029 6.786-5.029 2.543 0 4.894 1.317 6.109 3.389 2.775.343 4.891 2.588 4.891 5.278 0 2.94-2.536 5.333-5.652 5.333zm-5.348-12.5c-2.718 0-5.051 1.875-5.426 4.362-.056.367-.371.638-.742.638-1.869 0-3.332 1.346-3.332 3s1.463 3 3.261 3h11.587c2.29 0 4.152-1.72 4.152-3.833 0-2.027-1.711-3.704-3.896-3.817-.27-.014-.512-.172-.632-.414-.89-1.784-2.842-2.936-4.972-2.936z"/><path d="m20.25 30h-4.5c-.965 0-1.75-.785-1.75-1.75v-3.5c0-.965.785-1.75 1.75-1.75h4.5c.965 0 1.75.785 1.75 1.75v3.5c0 .965-.785 1.75-1.75 1.75zm-4.5-5.5c-.138 0-.25.112-.25.25v3.5c0 .138.112.25.25.25h4.5c.138 0 .25-.112.25-.25v-3.5c0-.138-.112-.25-.25-.25z"/><path d="m17.25 19.25h1.5v4h-1.5z"/><path d="m20.75 26h9.25v1.5h-9.25z"/><path d="m6 26h9.25v1.5h-9.25z"/></svg>