<svg id="LINE" enable-background="new 0 0 36 36" height="512" viewBox="0 0 36 36" width="512" xmlns="http://www.w3.org/2000/svg"><g><path d="m7.678 5.564c-1.805 6.677-6.504 10.327-7.374 13.545s-.847 10.475 13.955 14.477 19.432-4.501 20.388-8.041c4.481-16.572-23.772-31.807-26.969-19.981z" fill="#efefef"/></g><g><path d="m7.033 3.677h2v1h-2z" fill="#EF2929" transform="matrix(.707 -.707 .707 .707 -.601 6.904)"/></g><g><path d="m2.967 7.743h2v1h-2z" fill="#EF2929" transform="matrix(.707 -.707 .707 .707 -4.667 5.219)"/></g><g><path d="m3.467 3h1v2h-1z" fill="#EF2929" transform="matrix(.707 -.707 .707 .707 -1.667 3.977)"/></g><g><path d="m31 6.677c-.827 0-1.5-.673-1.5-1.5s.673-1.5 1.5-1.5 1.5.673 1.5 1.5-.673 1.5-1.5 1.5zm0-2c-.275 0-.5.225-.5.5s.225.5.5.5.5-.225.5-.5-.225-.5-.5-.5z" fill="#EF2929"/></g><g><path d="m16.75 10.75h10.5c1.105 0 2 .895 2 2v10.5c0 1.105-.895 2-2 2h-18.5c-1.105 0-2-.895-2-2v-2.5-9.717z" fill="#f3f3f1"/></g><g><path d="m28.62 11.3-9.306 8.064c-.753.653-1.873.651-2.624-.004l-1.525-1.33-8.415-7.245 20.5-.035z" fill="#EF2929"/></g><g><path d="m8.75 23.25v-12.124h-2v12.124c0 1.1.9 2 2 2h2c-1.1 0-2-.9-2-2z" fill="#d5dbe1"/></g><g><circle cx="10.993" cy="10" fill="#EF2929" r="3.25"/></g><g><path d="m8.813 12.42-2.063 3.51 1.613-.101.713 1.421 1.922-3.264z" fill="#f3f3f1"/></g><g><path d="m13.181 12.409 2.069 3.521-1.613-.101-.717 1.421-1.922-3.264-.439-.76z" fill="#f3f3f1"/></g><g><path d="m9.743 10c0-1.444.948-2.653 2.25-3.077-.317-.103-.649-.173-1-.173-1.795 0-3.25 1.455-3.25 3.25s1.455 3.25 3.25 3.25c.351 0 .683-.07 1-.173-1.302-.424-2.25-1.633-2.25-3.077z" fill="#941E1E"/></g><g><path d="m27.25 26h-18.5c-1.517 0-2.75-1.233-2.75-2.75v-2.5h1.5v2.5c0 .689.561 1.25 1.25 1.25h18.5c.689 0 1.25-.561 1.25-1.25v-10.5c0-.689-.561-1.25-1.25-1.25h-9.5v-1.5h9.5c1.517 0 2.75 1.233 2.75 2.75v10.5c0 1.517-1.233 2.75-2.75 2.75z"/></g><g><path d="m18.005 20.598c-.646 0-1.293-.224-1.809-.673l.986-1.131c.466.408 1.172.407 1.64.003l9.307-8.063.982 1.133-9.307 8.063c-.513.445-1.157.668-1.799.668z"/></g><g><path d="m10.993 14c-2.206 0-4-1.794-4-4s1.794-4 4-4 4 1.794 4 4-1.794 4-4 4zm0-6.5c-1.379 0-2.5 1.121-2.5 2.5s1.121 2.5 2.5 2.5 2.5-1.121 2.5-2.5-1.121-2.5-2.5-2.5z"/></g><g><path d="m9.075 18c-.009 0-.017 0-.025 0-.274-.01-.522-.168-.646-.414l-.489-.978-1.118.07c-.274.019-.54-.119-.686-.355s-.148-.533-.008-.772l2.063-3.511 1.294.76-1.348 2.294.204-.013c.298-.035.583.143.718.412l.095.188 1.223-2.076 1.293.762-1.923 3.264c-.136.229-.382.369-.647.369z"/></g><g><path d="m12.92 18c-.265 0-.511-.14-.646-.369l-2.364-4.03 1.299-.75 1.661 2.835.098-.194c.135-.269.416-.443.717-.41l.205.013-1.354-2.306 1.293-.76 2.069 3.522c.141.239.138.536-.008.772-.145.236-.407.393-.686.355l-1.12-.07-.493.979c-.124.245-.371.402-.646.412-.008.001-.017.001-.025.001z"/></g></svg>