<svg enable-background="new 0 0 36 36" height="512" viewBox="0 0 36 36" width="512" xmlns="http://www.w3.org/2000/svg"><g id="BG"><g><path d="m1.063 15.31c3.655 5.872 3.123 11.798 4.885 14.628s7.088 7.76 20.105-.343 9.951-17.286 8.014-20.399c-9.072-14.574-39.477-4.285-33.004 6.114z" fill="#efefef"/></g></g><g id="effect"><g><g><path d="m6.384 2.967h1v2h-1z" fill="#EF2929" transform="matrix(.707 -.707 .707 .707 -.789 6.028)"/></g><g><path d="m5.707 7.533h2v1h-2z" fill="#EF2929" transform="matrix(.707 -.707 .707 .707 -3.716 7.095)"/></g><g><path d="m9.773 3.467h2.001v1h-2.001z" fill="#EF2929" transform="matrix(.707 -.707 .707 .707 .35 8.78)"/></g></g><g><path d="m30 10.812c-.827 0-1.5-.673-1.5-1.5s.673-1.5 1.5-1.5 1.5.673 1.5 1.5-.673 1.5-1.5 1.5zm0-2c-.275 0-.5.224-.5.5s.225.5.5.5.5-.224.5-.5-.225-.5-.5-.5z" fill="#EF2929"/></g></g><g id="color"><g><path d="m28.46 14.33-2.21-1.18h-16.5l-2.21 1.18c-.48.26-.79.77-.79 1.32v12.1c0 .83.67 1.5 1.5 1.5h19.5c.83 0 1.5-.67 1.5-1.5v-12.1c0-.55-.31-1.06-.79-1.32z" fill="#f3f3f1"/></g><g><path d="m17.07 23.02c.58.3 1.28.3 1.86 0l7.32-3.823v-10.447c0-1.1-.9-2-2-2h-12.5c-1.1 0-2 .9-2 2v10.447z" fill="#f3f3f1"/></g><g><path d="m19.43 18.25h-4.87c-.447 0-.81-.362-.81-.81v-6.88c0-.447.362-.81.81-.81h6.881c.447 0 .81.362.81.81v4.871c0 .25-.1.491-.277.668l-1.875 1.875c-.178.176-.418.276-.669.276z" fill="#EF2929"/></g></g><g id="shadow"><g><path d="m9 27.75v-12.1c0-.55.31-1.06.79-1.32l2.21-1.18h-2.25l-2.21 1.18c-.48.26-.79.77-.79 1.32v12.1c0 .83.67 1.5 1.5 1.5h2.25c-.83 0-1.5-.67-1.5-1.5z" fill="#d5dbe1"/></g><g><path d="m12 19.197v-10.447c0-1.1.9-2 2-2h-2.25c-1.1 0-2 .9-2 2v10.447l7.32 3.823c.58.3 1.28.3 1.86 0l.195-.102z" fill="#d5dbe1"/></g><g><path d="m16 17.44v-6.88c0-.447.362-.81.81-.81h-2.25c-.447 0-.81.362-.81.81v6.881c0 .447.362.81.81.81h2.25c-.448-.001-.81-.363-.81-.811z" fill="#941E1E"/></g></g><g id="_x31_.5"><g><g><path d="m27.75 30h-19.5c-1.24 0-2.25-1.01-2.25-2.25v-12.1c0-.827.453-1.585 1.184-1.979l2.213-1.182.707 1.323-2.21 1.18c-.239.128-.394.387-.394.658v12.1c0 .413.337.75.75.75h19.5c.413 0 .75-.337.75-.75v-12.1c0-.271-.155-.53-.396-.66l-2.207-1.178.707-1.323 2.21 1.18c.733.396 1.186 1.154 1.186 1.981v12.1c0 1.24-1.01 2.25-2.25 2.25z"/></g></g><g><g><path d="m17.999 23.996c-.438 0-.875-.104-1.274-.311l-10.323-5.39.695-1.33 10.32 5.39c.365.19.803.188 1.166-.001l10.318-5.389.695 1.33-10.32 5.39c-.399.207-.838.311-1.277.311z"/></g></g><g><g><path d="m27 19.2h-1.5v-10.45c0-.689-.561-1.25-1.25-1.25h-12.5c-.689 0-1.25.561-1.25 1.25v10.45h-1.5v-10.45c0-1.516 1.233-2.75 2.75-2.75h12.5c1.517 0 2.75 1.234 2.75 2.75z"/></g></g><g><g><path d="m19.431 19h-4.871c-.86 0-1.56-.7-1.56-1.56v-6.88c0-.86.699-1.56 1.56-1.56h6.881c.86 0 1.559.7 1.559 1.56v4.871c0 .452-.176.877-.495 1.198l-1.877 1.875c-.315.315-.751.496-1.197.496zm-4.871-8.5-.06 6.94 4.931.06c.051 0 .101-.021.136-.057l1.877-1.875c.036-.036.057-.086.057-.138v-4.87z"/></g></g><g><g><path d="m17.244 16.266c-.253-.005-.434-.099-.575-.269l-1.266-1.516 1.15-.962.694.831 2.201-2.6 1.145.969-2.777 3.281c-.142.168-.351.266-.572.266z"/></g></g></g></svg>