<svg id="_x31__x2C_5" enable-background="new 0 0 36 36" height="512" viewBox="0 0 36 36" width="512" xmlns="http://www.w3.org/2000/svg"><path d="m31.833 27.623c0-6.917 3.583-11.667 3.583-15s-1.916-10.333-17.249-10.333-17.584 9.417-17.584 13.083c0 17.167 31.25 24.5 31.25 12.25z" fill="#efefef"/><path d="m31.5 5c-.827 0-1.5-.673-1.5-1.5s.673-1.5 1.5-1.5 1.5.673 1.5 1.5-.673 1.5-1.5 1.5zm0-2c-.276 0-.5.224-.5.5s.224.5.5.5.5-.224.5-.5-.224-.5-.5-.5z" fill="#EF2929"/><path d="m9.75 28v-1.25c0-1.105.895-2 2-2h2.5c1.105 0 2 .895 2 2v1.25z" fill="#EF2929"/><path d="m19.75 28v-1.25c0-1.105.895-2 2-2h2.5c1.105 0 2 .895 2 2v1.25z" fill="#EF2929"/><path d="m11.152 21.25c-2.436 0-4.402-1.943-4.402-4.35s1.966-4.35 4.402-4.35h.078c.47-3.287 3.316-5.8 6.77-5.8 2.739 0 5.106 1.585 6.192 3.886 2.827.155 5.058 2.465 5.058 5.297 0 2.939-2.407 5.317-5.38 5.317z" fill="#f3f3f1"/><path d="m14.75 30v-2.25c0-1.105.895-2 2-2h2.5c1.105 0 2 .895 2 2v2.25z" fill="#f3f3f1"/><path d="m14 24.75h-2.25c-1.105 0-2 .895-2 2v1.25h2.25v-1.25c0-1.105.895-2 2-2z" fill="#941E1E"/><path d="m24 24.75h-2.25c-1.105 0-2 .145-2 1.25l2.25 2v-1.25c0-1.105.895-2 2-2z" fill="#941E1E"/><path d="m9 16.9c0-2.407 1.966-4.35 4.402-4.35h.078c.417-2.919 2.71-5.223 5.637-5.703-.364-.06-.736-.097-1.117-.097-3.453 0-6.3 2.513-6.77 5.8h-.078c-2.436 0-4.402 1.943-4.402 4.35s1.966 4.35 4.402 4.35h2.25c-2.436 0-4.402-1.943-4.402-4.35z" fill="#d5dbe1"/><path d="m19 25.75h-2.25c-1.105 0-2 .895-2 2v2.25h2.25v-2.25c0-1.105.895-2 2-2z" fill="#d5dbe1"/><circle cx="18" cy="22" r="2"/><path d="m22 30h-1.5v-2.25c0-.689-.561-1.25-1.25-1.25h-2.5c-.689 0-1.25.561-1.25 1.25v2.25h-1.5v-2.25c0-1.517 1.233-2.75 2.75-2.75h2.5c1.517 0 2.75 1.233 2.75 2.75z"/><circle cx="13" cy="21" r="2"/><path d="m10.5 28h-1.5v-1.25c0-1.517 1.233-2.75 2.75-2.75h1.25v1.5h-1.25c-.689 0-1.25.561-1.25 1.25z"/><circle cx="23" cy="21" r="2"/><path d="m27 28h-1.5v-1.25c0-.689-.561-1.25-1.25-1.25h-1.25v-1.5h1.25c1.517 0 2.75 1.233 2.75 2.75z"/><path d="m8.274 21.134c-1.424-.949-2.274-2.532-2.274-4.234 0-2.629 2.019-4.8 4.603-5.071.777-3.364 3.852-5.829 7.397-5.829 2.792 0 5.363 1.529 6.671 3.93 3.022.377 5.329 2.933 5.329 6 0 1.768-.778 3.445-2.134 4.601l-.973-1.142c1.021-.87 1.606-2.131 1.606-3.459 0-2.417-1.911-4.412-4.35-4.541-.276-.015-.522-.18-.639-.43-.986-2.101-3.149-3.459-5.51-3.459-3.016 0-5.607 2.217-6.027 5.156-.053.37-.37.644-.743.644-2.093 0-3.73 1.615-3.73 3.6 0 1.199.6 2.315 1.606 2.986z"/></svg>