<svg id="_x31__x2C_5" enable-background="new 0 0 36 36" height="512" viewBox="0 0 36 36" width="512" xmlns="http://www.w3.org/2000/svg"><path d="m8.377 4.167c6.917 0 11.667-3.583 15-3.583s10.333 1.916 10.333 17.249-9.417 17.583-13.083 17.583c-17.167.001-24.5-31.249-12.25-31.249z" fill="#efefef"/><g fill="#EF2929"><path d="m6.033 2.467h2v1h-2z" transform="matrix(.707 -.707 .707 .707 -.038 5.842)"/><path d="m1.967 6.533h2v1h-2z" transform="matrix(.707 -.707 .707 .707 -4.104 4.158)"/><path d="m2.644 1.967h1v2h-1z" transform="matrix(.707 -.707 .707 .707 -1.177 3.092)"/></g><path d="m26.5 13.25h-12c-1.519 0-2.75-1.231-2.75-2.75 0-1.519 1.231-2.75 2.75-2.75h12c1.519 0 2.75 1.231 2.75 2.75 0 1.519-1.231 2.75-2.75 2.75z" fill="#f3f3f1"/><path d="m26.5 21.25h-12c-1.519 0-2.75-1.231-2.75-2.75 0-1.519 1.231-2.75 2.75-2.75h12c1.519 0 2.75 1.231 2.75 2.75 0 1.519-1.231 2.75-2.75 2.75z" fill="#EF2929"/><path d="m26.5 29.25h-12c-1.519 0-2.75-1.231-2.75-2.75 0-1.519 1.231-2.75 2.75-2.75h12c1.519 0 2.75 1.231 2.75 2.75 0 1.519-1.231 2.75-2.75 2.75z" fill="#f3f3f1"/><path d="m14 18.5c0-1.519 1.231-2.75 2.75-2.75h-2.25c-1.519 0-2.75 1.231-2.75 2.75s1.231 2.75 2.75 2.75h2.25c-1.519 0-2.75-1.231-2.75-2.75z" fill="#941E1E"/><path d="m14 10.5c0-1.519 1.231-2.75 2.75-2.75h-2.25c-1.519 0-2.75 1.231-2.75 2.75s1.231 2.75 2.75 2.75h2.25c-1.519 0-2.75-1.231-2.75-2.75z" fill="#d5dbe1"/><path d="m14 26.5c0-1.519 1.231-2.75 2.75-2.75h-2.25c-1.519 0-2.75 1.231-2.75 2.75s1.231 2.75 2.75 2.75h2.25c-1.519 0-2.75-1.231-2.75-2.75z" fill="#d5dbe1"/><path d="m26.5 14h-12c-1.93 0-3.5-1.57-3.5-3.5s1.57-3.5 3.5-3.5h12c1.93 0 3.5 1.57 3.5 3.5s-1.57 3.5-3.5 3.5zm-12-5.5c-1.103 0-2 .897-2 2s.897 2 2 2h12c1.103 0 2-.897 2-2s-.897-2-2-2z"/><circle cx="16" cy="10.5" r="1"/><circle cx="20" cy="10.5" r="1"/><path d="m26.5 22h-12c-1.93 0-3.5-1.57-3.5-3.5s1.57-3.5 3.5-3.5h12c1.93 0 3.5 1.57 3.5 3.5s-1.57 3.5-3.5 3.5zm-12-5.5c-1.103 0-2 .897-2 2s.897 2 2 2h12c1.103 0 2-.897 2-2s-.897-2-2-2z"/><circle cx="16" cy="18.5" r="1"/><circle cx="20" cy="18.5" r="1"/><path d="m26.5 30h-12c-1.93 0-3.5-1.57-3.5-3.5s1.57-3.5 3.5-3.5h12c1.93 0 3.5 1.57 3.5 3.5s-1.57 3.5-3.5 3.5zm-12-5.5c-1.103 0-2 .897-2 2s.897 2 2 2h12c1.103 0 2-.897 2-2s-.897-2-2-2z"/><circle cx="16" cy="26.5" r="1"/><circle cx="20" cy="26.5" r="1"/><path d="m11.75 27.25h-3c-1.517 0-2.75-1.233-2.75-2.75v-12c0-1.517 1.233-2.75 2.75-2.75h3v1.5h-3c-.689 0-1.25.561-1.25 1.25v12c0 .689.561 1.25 1.25 1.25h3z"/><path d="m6.75 17.75h5v1.5h-5z"/></svg>