<svg id="_x31__x2C_5" enable-background="new 0 0 36 36" height="512" viewBox="0 0 36 36" width="512" xmlns="http://www.w3.org/2000/svg"><path d="m31.833 8.377c0 6.917 3.583 11.667 3.583 15s-1.916 10.333-17.249 10.333-17.584-9.417-17.584-13.083c0-17.167 31.25-24.5 31.25-12.25z" fill="#efefef"/><g fill="#EF2929"><path d="m26.467 3.967h1v2h-1z" transform="matrix(.707 -.707 .707 .707 4.386 20.523)"/><path d="m30.533 8.033h1v2h-1z" transform="matrix(.707 -.707 .707 .707 2.702 24.589)"/><path d="m29.856 4.467h2v1h-2z" transform="matrix(.707 -.707 .707 .707 5.525 23.273)"/></g><path d="m11.75 14.5v8c0 .966 2.798 1.75 6.25 1.75s6.25-.784 6.25-1.75v-8z" fill="#f3f3f1"/><path d="m11.75 14.5v4c0 .966 2.798 1.75 6.25 1.75s6.25-.784 6.25-1.75v-4z" fill="#EF2929"/><ellipse cx="18" cy="14.5" fill="#f3f3f1" rx="6.25" ry="1.75"/><path d="m14 18.5v-4h-2.25v4c0 .966 2.798 1.75 6.25 1.75.385 0 .76-.011 1.125-.03-2.914-.148-5.125-.861-5.125-1.72z" fill="#941E1E"/><path d="m14 22.5v-2.5l-2.25-.5v3c0 .966 2.798 1.75 6.25 1.75.385 0 .76-.011 1.125-.03-2.914-.148-5.125-.861-5.125-1.72z" fill="#d5dbe1"/><path d="m14 14.5c0-.859 2.211-1.572 5.125-1.72-.365-.019-.74-.03-1.125-.03-3.452 0-6.25.784-6.25 1.75s2.798 1.75 6.25 1.75c.385 0 .76-.011 1.125-.03-2.914-.148-5.125-.861-5.125-1.72z" fill="#d5dbe1"/><path d="m18 17c-.716 0-7-.07-7-2.5s6.284-2.5 7-2.5 7 .07 7 2.5-6.284 2.5-7 2.5zm-5.436-2.5c.471.401 2.447 1 5.436 1s4.965-.599 5.436-1c-.471-.401-2.447-1-5.436-1s-4.965.599-5.436 1z"/><path d="m18 21c-.716 0-7-.07-7-2.5h1.5c.218.299 2.268 1 5.5 1s5.282-.701 5.521-1.094l1.479.094c0 2.43-6.284 2.5-7 2.5z"/><path d="m18 25c-.716 0-7-.07-7-2.5v-8h1.5v8c.218.299 2.268 1 5.5 1s5.282-.701 5.521-1.094l-.021-7.906h1.5v8c0 2.43-6.284 2.5-7 2.5z"/><path d="m18 30c-.192 0-.384-.073-.53-.22l-2.28-2.28 1.061-1.061 1.75 1.75 1.75-1.75 1.061 1.061-2.28 2.28c-.148.147-.34.22-.532.22z"/><path d="m19.75 10.561-1.75-1.75-1.75 1.75-1.061-1.061 2.28-2.28c.293-.293.768-.293 1.061 0l2.28 2.28z"/><path d="m27.5 21.311-1.061-1.061 1.75-1.75-1.75-1.75 1.061-1.061 2.28 2.28c.293.293.293.768 0 1.061z"/><path d="m8.5 21.311-2.28-2.28c-.293-.293-.293-.768 0-1.061l2.28-2.28 1.061 1.061-1.75 1.75 1.75 1.75z"/></svg>