<svg id="_x31__x2C_5" enable-background="new 0 0 36 36" height="512" viewBox="0 0 36 36" width="512" xmlns="http://www.w3.org/2000/svg"><path d="m8.377 4.167c6.917 0 11.667-3.583 15-3.583s10.333 1.916 10.333 17.249-9.417 17.583-13.083 17.583c-17.167.001-24.5-31.249-12.25-31.249z" fill="#efefef"/><path d="m30.5 11c-.827 0-1.5-.673-1.5-1.5s.673-1.5 1.5-1.5 1.5.673 1.5 1.5-.673 1.5-1.5 1.5zm0-2c-.275 0-.5.224-.5.5s.225.5.5.5.5-.224.5-.5-.225-.5-.5-.5z" fill="#EF2929"/><path d="m7.75 21v4c0 1.243 3.47 2.25 7.75 2.25s7.75-1.007 7.75-2.25v-4z" fill="#f3f3f1"/><path d="m7.75 17v4c0 1.243 3.47 2.25 7.75 2.25s7.75-1.007 7.75-2.25v-4z" fill="#EF2929"/><path d="m7.75 13v4c0 1.243 3.47 2.25 7.75 2.25s7.75-1.007 7.75-2.25v-4z" fill="#f3f3f1"/><path d="m7.75 9v4c0 1.243 3.47 2.25 7.75 2.25s7.75-1.007 7.75-2.25v-4z" fill="#EF2929"/><ellipse cx="15.5" cy="9" fill="#f3f3f1" rx="7.75" ry="2.25"/><path d="m28.25 20.75-3.75-4-3.75 4h2v4.5h-2l3.75 4 3.75-4h-2v-4.5z" fill="#EF2929"/><path d="m23 25.25h2v-4.5h-2l2.625-2.8-1.125-1.2-3.75 4h2v4.5h-2l3.75 4 1.125-1.2z" fill="#941E1E"/><path d="m10 25v-4h-2.25v4c0 1.243 3.47 2.25 7.75 2.25.383 0 .757-.011 1.125-.026-3.746-.159-6.625-1.093-6.625-2.224z" fill="#d5dbe1"/><path d="m10 21v-4h-2.25v4c0 1.243 3.47 2.25 7.75 2.25.383 0 .757-.011 1.125-.026-3.746-.159-6.625-1.093-6.625-2.224z" fill="#941E1E"/><path d="m10 17v-4h-2.25v4c0 1.243 3.47 2.25 7.75 2.25.383 0 .757-.011 1.125-.026-3.746-.159-6.625-1.093-6.625-2.224z" fill="#d5dbe1"/><path d="m10 13v-4h-2.25v4c0 1.243 3.47 2.25 7.75 2.25.383 0 .757-.011 1.125-.026-3.746-.159-6.625-1.093-6.625-2.224z" fill="#941E1E"/><path d="m10 9c0-1.131 2.879-2.065 6.625-2.224-.368-.015-.742-.026-1.125-.026-4.28 0-7.75 1.007-7.75 2.25s3.47 2.25 7.75 2.25c.383 0 .757-.011 1.125-.026-3.746-.159-6.625-1.093-6.625-2.224z" fill="#d5dbe1"/><path d="m24.5 30c-.207 0-.405-.086-.547-.237l-3.75-4c-.205-.218-.26-.537-.142-.812.119-.274.39-.452.688-.452h1.25v-3h-1.25c-.299 0-.569-.178-.688-.452-.118-.274-.063-.593.142-.812l3.75-4c.283-.302.811-.302 1.094 0l3.75 4c.205.218.26.537.142.812-.119.274-.39.452-.688.452h-1.251v3h1.25c.299 0 .569.177.688.452.118.274.063.593-.142.812l-3.75 4c-.141.151-.339.237-.546.237zm-2.019-4 2.019 2.153 2.019-2.153h-.269c-.199 0-.39-.079-.53-.22s-.22-.332-.22-.53v-4.5c0-.414.336-.75.75-.75h.269l-2.019-2.153-2.019 2.153h.269c.414 0 .75.336.75.75v4.5c0 .199-.079.39-.22.53s-.331.22-.53.22z"/><path d="m15.5 12c-3.157 0-8.5-.632-8.5-3s5.343-3 8.5-3 8.5.632 8.5 3-5.343 3-8.5 3zm0-4.5c-4.578 0-6.864 1.086-7.002 1.518.138.396 2.424 1.482 7.002 1.482 4.517 0 6.802-1.057 6.995-1.5-.193-.443-2.478-1.5-6.995-1.5z"/><path d="m15.5 20c-3.157 0-8.5-.632-8.5-3h1.5c0-.009-.002-.017-.002-.019.14.432 2.428 1.519 7.002 1.519.786 0 1.581-.036 2.362-.107l.135 1.494c-.825.075-1.666.113-2.497.113z"/><path d="m15.5 24c-3.157 0-8.5-.632-8.5-3h1.5c0-.009-.002-.017-.002-.019.14.432 2.428 1.519 7.002 1.519.999 0 1.92-.052 2.736-.154l.188 1.488c-.879.11-1.862.166-2.924.166z"/><path d="m15.5 16c-3.157 0-8.5-.632-8.5-3h1.5c.136.414 2.422 1.5 7 1.5s6.864-1.086 7.002-1.518l-.002-3.982h1.5v4c0 2.368-5.343 3-8.5 3z"/><path d="m15.5 28c-3.157 0-8.5-.632-8.5-3v-16h1.5v16c.138.414 2.426 1.5 7 1.5.829 0 1.679-.042 2.525-.126l.148 1.493c-.896.088-1.795.133-2.673.133z"/></svg>