<svg id="_x31__x2C_5" enable-background="new 0 0 36 36" height="512" viewBox="0 0 36 36" width="512" xmlns="http://www.w3.org/2000/svg"><path d="m8.377 4.167c6.917 0 11.667-3.583 15-3.583s10.333 1.916 10.333 17.249-9.417 17.583-13.083 17.583c-17.167.001-24.5-31.249-12.25-31.249z" fill="#efefef"/><path d="m31.5 6c-.827 0-1.5-.673-1.5-1.5s.673-1.5 1.5-1.5 1.5.673 1.5 1.5-.673 1.5-1.5 1.5zm0-2c-.276 0-.5.224-.5.5s.224.5.5.5.5-.224.5-.5-.224-.5-.5-.5z" fill="#EF2929"/><circle cx="18" cy="16" fill="#f3f3f1" r="9.25"/><circle cx="18" cy="16" fill="#f3f3f1" r="4.25"/><path d="m22.75 29.25v-1.5c0-1.105-.895-2-2-2h-5.5c-1.105 0-2 .895-2 2v1.5z" fill="#EF2929"/><circle cx="18" cy="20.5" fill="#EF2929" r="2.25"/><path d="m17.5 25.75h-2.25c-1.105 0-2 .895-2 2v1.5h2.25v-1.5c0-1.105.895-2 2-2z" fill="#941E1E"/><path d="m18 20.5c0-.831.455-1.548 1.125-1.938-.332-.193-.713-.312-1.125-.312-1.243 0-2.25 1.007-2.25 2.25s1.007 2.25 2.25 2.25c.412 0 .793-.119 1.125-.312-.67-.39-1.125-1.107-1.125-1.938z" fill="#941E1E"/><path d="m11 16c0-4.727 3.548-8.619 8.125-9.175-.37-.045-.743-.075-1.125-.075-5.109 0-9.25 4.141-9.25 9.25s4.141 9.25 9.25 9.25c.382 0 .755-.03 1.125-.075-4.577-.556-8.125-4.448-8.125-9.175z" fill="#d5dbe1"/><path d="m16.873 18.563c-.546-.71-.873-1.596-.873-2.563 0-1.955 1.328-3.585 3.125-4.08-.361-.099-.733-.17-1.125-.17-2.347 0-4.25 1.903-4.25 4.25 0 1.583.876 2.948 2.16 3.679.186-.473.528-.862.963-1.116z" fill="#d5dbe1"/><path d="m22.832 17.149-1.446-.396c.077-.282.115-.567.115-.871 0-1.893-1.57-3.434-3.5-3.434s-3.5 1.541-3.5 3.434c0 .304.038.588.115.871l-1.446.396c-.115-.413-.17-.827-.17-1.267 0-2.72 2.243-4.934 5-4.934s5 2.213 5 4.934c0 .44-.055.854-.168 1.267z"/><path d="m24.22 23.785-.932-1.176c2.041-1.617 3.211-4.037 3.211-6.639 0-4.675-3.813-8.478-8.5-8.478s-8.5 3.803-8.5 8.478c0 2.602 1.17 5.021 3.211 6.639l-.932 1.176c-2.401-1.904-3.778-4.752-3.778-7.814 0-5.502 4.486-9.978 10-9.978s10 4.476 10 9.978c0 3.062-1.377 5.91-3.78 7.814z"/><path d="m18 23.5c-1.654 0-3-1.346-3-3s1.346-3 3-3 3 1.346 3 3-1.346 3-3 3zm0-4.5c-.827 0-1.5.673-1.5 1.5s.673 1.5 1.5 1.5 1.5-.673 1.5-1.5-.673-1.5-1.5-1.5z"/><path d="m23.5 30h-1.5v-2.25c0-.689-.561-1.25-1.25-1.25h-5.5c-.689 0-1.25.561-1.25 1.25v2.25h-1.5v-2.25c0-1.517 1.233-2.75 2.75-2.75h5.5c1.517 0 2.75 1.233 2.75 2.75z"/><path d="m2 28.5h32v1.5h-32z"/></svg>