<svg id="_x31__x2C_5" enable-background="new 0 0 36 36" height="512" viewBox="0 0 36 36" width="512" xmlns="http://www.w3.org/2000/svg"><path d="m31.833 8.377c0 6.917 3.583 11.667 3.583 15s-1.916 10.333-17.249 10.333-17.584-9.417-17.584-13.083c0-17.167 31.25-24.5 31.25-12.25z" fill="#efefef"/><g fill="#EF2929"><path d="m28.467 1.967h1v2h-1z" transform="matrix(.707 -.707 .707 .707 6.386 21.352)"/><path d="m32.533 6.033h1v2h-1z" transform="matrix(.707 -.707 .707 .707 4.702 25.418)"/><path d="m31.856 2.467h2v1h-2z" transform="matrix(.707 -.707 .707 .707 7.525 24.102)"/></g><path d="m26.5 14.25h-17c-1.519 0-2.75-1.231-2.75-2.75 0-1.519 1.231-2.75 2.75-2.75h17c1.519 0 2.75 1.231 2.75 2.75 0 1.519-1.231 2.75-2.75 2.75z" fill="#f3f3f1"/><path d="m26.5 19.75h-17c-1.519 0-2.75-1.231-2.75-2.75 0-1.519 1.231-2.75 2.75-2.75h17c1.519 0 2.75 1.231 2.75 2.75 0 1.519-1.231 2.75-2.75 2.75z" fill="#EF2929"/><path d="m9 17c0-1.519 1.231-2.75 2.75-2.75h-2.25c-1.519 0-2.75 1.231-2.75 2.75s1.231 2.75 2.75 2.75h2.25c-1.519 0-2.75-1.231-2.75-2.75z" fill="#941E1E"/><path d="m9 11.5c0-1.519 1.231-2.75 2.75-2.75h-2.25c-1.519 0-2.75 1.231-2.75 2.75s1.231 2.75 2.75 2.75h2.25c-1.519 0-2.75-1.231-2.75-2.75z" fill="#d5dbe1"/><path d="m17.25 20.5h1.5v4.25h-1.5z"/><path d="m19.25 28h-2.5c-.414 0-.75-.336-.75-.75v-2.5c0-.414.336-.75.75-.75h2.5c.414 0 .75.336.75.75v2.5c0 .414-.336.75-.75.75z"/><path d="m9 25.25h8.5v1.5h-8.5z"/><path d="m18.5 25.25h8.5v1.5h-8.5z"/><path d="m26.5 15h-17c-1.93 0-3.5-1.57-3.5-3.5s1.57-3.5 3.5-3.5h17c1.93 0 3.5 1.57 3.5 3.5s-1.57 3.5-3.5 3.5zm-17-5.5c-1.103 0-2 .897-2 2s.897 2 2 2h17c1.103 0 2-.897 2-2s-.897-2-2-2z"/><circle cx="11" cy="11.5" r="1"/><circle cx="15" cy="11.5" r="1"/><path d="m26.5 20.5h-17c-1.93 0-3.5-1.57-3.5-3.5s1.57-3.5 3.5-3.5h17c1.93 0 3.5 1.57 3.5 3.5s-1.57 3.5-3.5 3.5zm-17-5.5c-1.103 0-2 .897-2 2s.897 2 2 2h17c1.103 0 2-.897 2-2s-.897-2-2-2z"/><circle cx="11" cy="17" r="1"/><circle cx="15" cy="17" r="1"/></svg>