<svg id="_x31__x2C_5" enable-background="new 0 0 36 36" height="512" viewBox="0 0 36 36" width="512" xmlns="http://www.w3.org/2000/svg"><g><path d="m4.167 27.623c0-6.917-3.583-11.667-3.583-15s1.916-10.333 17.249-10.333 17.583 9.417 17.583 13.083c.001 17.167-31.249 24.5-31.249 12.25z" fill="#efefef"/></g><g><path d="m3.5 6c-.827 0-1.5-.673-1.5-1.5s.673-1.5 1.5-1.5 1.5.673 1.5 1.5-.673 1.5-1.5 1.5zm0-2c-.275 0-.5.224-.5.5s.225.5.5.5.5-.224.5-.5-.225-.5-.5-.5z" fill="#EF2929"/></g><g><path d="m27.25 28.25h-18.5c-1.105 0-2-.895-2-2v-15h22.5v15c0 1.105-.895 2-2 2z" fill="#f3f3f1"/></g><g><path d="m29.25 11.25h-22.5v-1.5c0-1.105.895-2 2-2h18.5c1.105 0 2 .895 2 2z" fill="#EF2929"/></g><g><path d="m25.25 18.25h-14.5c-.552 0-1-.448-1-1v-1.5c0-.552.448-1 1-1h14.5c.552 0 1 .448 1 1v1.5c0 .552-.448 1-1 1z" fill="#EF2929"/></g><g><path d="m25.75 25.25h-2.5c-.276 0-.5-.224-.5-.5v-2.5c0-.276.224-.5.5-.5h2.5c.276 0 .5.224.5.5v2.5c0 .276-.224.5-.5.5z" fill="#EF2929"/></g><g><path d="m19.25 25.25h-2.5c-.276 0-.5-.224-.5-.5v-2.5c0-.276.224-.5.5-.5h2.5c.276 0 .5.224.5.5v2.5c0 .276-.224.5-.5.5z" fill="#EF2929"/></g><g><path d="m12.75 25.25h-2.5c-.276 0-.5-.224-.5-.5v-2.5c0-.276.224-.5.5-.5h2.5c.276 0 .5.224.5.5v2.5c0 .276-.224.5-.5.5z" fill="#EF2929"/></g><g><path d="m12 17.25v-1.5c0-.552.448-1 1-1h-2.25c-.552 0-1 .448-1 1v1.5c0 .552.448 1 1 1h2.25c-.552 0-1-.448-1-1z" fill="#941E1E"/></g><g><path d="m25 24.75v-2.5c0-.276.224-.5.5-.5h-2.25c-.276 0-.5.224-.5.5v2.5c0 .276.224.5.5.5h2.25c-.276 0-.5-.224-.5-.5z" fill="#941E1E"/></g><g><path d="m18.5 24.75v-2.5c0-.276.224-.5.5-.5h-2.25c-.276 0-.5.224-.5.5v2.5c0 .276.224.5.5.5h2.25c-.276 0-.5-.224-.5-.5z" fill="#941E1E"/></g><g><path d="m12 24.75v-2.5c0-.276.224-.5.5-.5h-2.25c-.276 0-.5.224-.5.5v2.5c0 .276.224.5.5.5h2.25c-.276 0-.5-.224-.5-.5z" fill="#941E1E"/></g><g><path d="m9.25 26.25v-15h-2.5v15c0 1.105.895 2 2 2h2.5c-1.105 0-2-.895-2-2z" fill="#d5dbe1"/></g><g><path d="m11 7.75h-2.25c-1.105 0-2 .895-2 2v1.5h2.25v-1.5c0-1.105.895-2 2-2z" fill="#941E1E"/></g><g><path d="m25.25 19h-14.5c-.965 0-1.75-.785-1.75-1.75v-1.5c0-.965.785-1.75 1.75-1.75h14.5c.965 0 1.75.785 1.75 1.75v1.5c0 .965-.785 1.75-1.75 1.75zm-14.5-3.5c-.138 0-.25.112-.25.25v1.5c0 .138.112.25.25.25h14.5c.138 0 .25-.112.25-.25v-1.5c0-.138-.112-.25-.25-.25z"/></g><g><path d="m25.75 26h-2.5c-.689 0-1.25-.561-1.25-1.25v-2.5c0-.689.561-1.25 1.25-1.25h2.5c.689 0 1.25.561 1.25 1.25v2.5c0 .689-.561 1.25-1.25 1.25zm-2.25-1.5h2v-2h-2z"/></g><g><path d="m19.25 26h-2.5c-.689 0-1.25-.561-1.25-1.25v-2.5c0-.689.561-1.25 1.25-1.25h2.5c.689 0 1.25.561 1.25 1.25v2.5c0 .689-.561 1.25-1.25 1.25zm-2.25-1.5h2v-2h-2z"/></g><g><path d="m12.75 26h-2.5c-.689 0-1.25-.561-1.25-1.25v-2.5c0-.689.561-1.25 1.25-1.25h2.5c.689 0 1.25.561 1.25 1.25v2.5c0 .689-.561 1.25-1.25 1.25zm-2.25-1.5h2v-2h-2z"/></g><g><path d="m27.25 29h-18.5c-1.517 0-2.75-1.233-2.75-2.75v-16.5c0-1.517 1.233-2.75 2.75-2.75h18.5c1.517 0 2.75 1.233 2.75 2.75v16.5c0 1.517-1.233 2.75-2.75 2.75zm-18.5-20.5c-.689 0-1.25.561-1.25 1.25v16.5c0 .689.561 1.25 1.25 1.25h18.5c.689 0 1.25-.561 1.25-1.25v-16.5c0-.689-.561-1.25-1.25-1.25z"/></g><g><path d="m6.75 10.5h22.5v1.5h-22.5z"/></g><g><path d="m2 27.5h32v1.5h-32z"/></g></svg>