<svg enable-background="new 0 0 36 36" height="512" viewBox="0 0 36 36" width="512" xmlns="http://www.w3.org/2000/svg"><g id="BG"><g><path d="m4.167 27.623c0-6.917-3.583-11.667-3.583-15s1.916-10.333 17.249-10.333 17.583 9.417 17.583 13.083c.001 17.167-31.249 24.5-31.249 12.25z" fill="#efefef"/></g></g><g id="effect"><g><g><path d="m5.676 11.438h1v2h-1z" fill="#EF2929" transform="matrix(.707 -.707 .707 .707 -6.988 8.015)"/></g><g><path d="m4.999 16.004h2v1h-2z" fill="#EF2929" transform="matrix(.707 -.707 .707 .707 -9.913 9.076)"/></g><g><path d="m9.066 11.938h2v1h-2z" fill="#EF2929" transform="matrix(.707 -.707 .707 .707 -5.847 10.76)"/></g></g><g><path d="m27.25 13.938c-.827 0-1.5-.673-1.5-1.5s.673-1.5 1.5-1.5 1.5.673 1.5 1.5-.673 1.5-1.5 1.5zm0-2c-.275 0-.5.224-.5.5s.225.5.5.5.5-.224.5-.5-.225-.5-.5-.5z" fill="#EF2929"/></g></g><g id="color"><g><path d="m24.75 15.75h-13.5c-.828 0-1.5.672-1.5 1.5v10.5c0 .828.672 1.5 1.5 1.5h13.5c.828 0 1.5-.672 1.5-1.5v-10.5c0-.828-.672-1.5-1.5-1.5z" fill="#f3f3f1"/></g><g><path d="m19.43 26.75h-4.87c-.447 0-.81-.362-.81-.81v-6.88c0-.447.362-.81.81-.81h6.881c.447 0 .81.362.81.81v4.871c0 .25-.1.491-.277.668l-1.875 1.875c-.178.176-.418.276-.669.276z" fill="#EF2929"/></g></g><g id="shadow"><g><path d="m12 27.75v-10.5c0-.828.672-1.5 1.5-1.5h-2.25c-.828 0-1.5.672-1.5 1.5v10.5c0 .828.672 1.5 1.5 1.5h2.25c-.828 0-1.5-.672-1.5-1.5z" fill="#d5dbe1"/></g><g><path d="m16 25.94v-6.88c0-.447.362-.81.81-.81h-2.25c-.447 0-.81.362-.81.81v6.881c0 .447.362.81.81.81h2.25c-.448-.001-.81-.363-.81-.811z" fill="#941E1E"/></g></g><g id="_x31_.5"><g><g><path d="m25 30h-14c-1.103 0-2-.897-2-2v-11c0-1.103.897-2 2-2h14c1.103 0 2 .897 2 2v11c0 1.103-.897 2-2 2zm-14-14c-.552 0-1 .449-1 1v11c0 .552.448 1 1 1h14c.552 0 1-.448 1-1v-11c0-.551-.448-1-1-1z"/></g></g><g><g><path d="m24 15.5h-1v-3.5c0-2.757-2.243-5-5-5s-5 2.243-5 5v3.5h-1v-3.5c0-3.309 2.691-6 6-6s6 2.691 6 6z"/></g></g><g><g><path d="m24.75 30h-13.5c-1.24 0-2.25-1.01-2.25-2.25v-10.5c0-1.241 1.01-2.25 2.25-2.25h13.5c1.24 0 2.25 1.009 2.25 2.25v10.5c0 1.24-1.01 2.25-2.25 2.25zm-13.5-13.5c-.413 0-.75.336-.75.75v10.5c0 .413.337.75.75.75h13.5c.413 0 .75-.337.75-.75v-10.5c0-.414-.337-.75-.75-.75z"/></g></g><g><g><path d="m24 15.75h-1.5v-3.75c0-2.481-2.019-4.5-4.5-4.5s-4.5 2.019-4.5 4.5v3.75h-1.5v-3.75c0-3.309 2.691-6 6-6s6 2.691 6 6z"/></g></g><g><g><path d="m19.431 27.5h-4.871c-.86 0-1.56-.699-1.56-1.56v-6.88c0-.86.699-1.56 1.56-1.56h6.881c.86 0 1.56.7 1.56 1.56v4.871c0 .445-.181.882-.496 1.197l-1.876 1.876c-.317.315-.753.496-1.198.496zm-4.871-8.5-.06 6.94 4.931.06c.051 0 .101-.021.137-.057l1.876-1.876c.036-.036.057-.086.057-.137v-4.87z"/></g></g><g><g><path d="m17.244 24.766c-.182.029-.433-.099-.575-.27l-1.266-1.516 1.15-.961.694.831 2.201-2.601 1.145.969-2.777 3.282c-.142.169-.351.266-.572.266z"/></g></g></g></svg>