<?xml version="1.0" encoding="utf-8"?>
<!-- Generator: Adobe Illustrator 23.0.0, SVG Export Plug-In . SVG Version: 6.00 Build 0)  -->
<svg version="1.1" id="_x31__x2C_5" xmlns="http://www.w3.org/2000/svg" xmlns:xlink="http://www.w3.org/1999/xlink" x="0px"
	 y="0px" viewBox="0 0 512 512" style="enable-background:new 0 0 512 512;" xml:space="preserve">
<style type="text/css">
	.st0{fill:#EFEFEF;}
	.st1{fill:#EF2929;}
	.st2{fill:none;stroke:#000000;stroke-width:15;stroke-miterlimit:10;}
</style>
<path class="st0" d="M392.9,452.7c-98.4,0-165.9,51-213.3,51s-147-27.2-147-245.3S166.5,8.3,218.6,8.3
	C462.8,8.3,567.1,452.7,392.9,452.7z"/>
<path class="st1" d="M396.8,37.2l10.1-10.1L427,47.2l-10.1,10.1L396.8,37.2z"/>
<path class="st1" d="M454.6,95l10.1-10.1l20.1,20.1l-10.1,10.1L454.6,95z"/>
<path class="st1" d="M452.1,47.3l20.1-20.1l10.1,10.1l-20.1,20.1L452.1,47.3z"/>
<g>
	<g>
		<path class="st2" d="M420.4,237.2L393,200.8l-8.2-44.9c-2.5-13.9-13.7-24.6-27.7-26.6l-45.2-6.4l-37.5-26
			c-9.4-6.5-21.3-7.7-31.8-3.1c-2.3,1-4.5,2.3-6.6,3.8L199.6,125l-44.9,8.2c-2.5,0.5-4.9,1.2-7.3,2.2c-10.3,4.5-17.8,14.3-19.3,25.5
			l-6.4,45.2l-26,37.5c-8.1,11.6-7.8,27.1,0.7,38.4l27.4,36.5l8.2,44.9c2.5,13.9,13.7,24.6,27.7,26.6l45.2,6.4l37.5,26
			c9.3,6.4,21.5,7.6,31.8,3.1c2.3-1,4.5-2.3,6.6-3.8l36.5-27.4l44.9-8.2c2.5-0.5,4.9-1.2,7.3-2.2c10.3-4.5,17.8-14.3,19.3-25.5
			l6.4-45.2l26-37.5C429.2,264,428.9,248.5,420.4,237.2z M258.4,379.5c-66.2,0-120-53.8-120-120c0-66.2,53.8-120,120-120
			c66.1,0,120,53.8,120,120C378.3,325.7,324.5,379.5,258.4,379.5z"/>
	</g>
</g>
<g>
	<ellipse class="st1" cx="258.4" cy="260.1" rx="112.5" ry="112"/>
</g>
<g>
	<g>
		<path d="M145,259.5c0,44.6,26,83.1,63.7,101.3l-53.9-147.1C148.6,227.7,145,243.2,145,259.5z"/>
		<path d="M260,269.4l-33.9,98.1c10.1,3,20.8,4.6,31.9,4.6c13.1,0,25.8-2.3,37.5-6.4c-0.3-0.5-0.6-1-0.8-1.6L260,269.4z"/>
		<path d="M334.2,253.8c0-13.9-5-23.5-9.3-31c-5.7-9.3-11.1-17.1-11.1-26.4c0-10.4,7.9-20,19-20c0.5,0,1,0.1,1.5,0.1
			c-20.1-18.4-46.9-29.6-76.3-29.6c-39.5,0-74.2,20.2-94.4,50.7c2.7,0.1,5.1,0.1,7.3,0.1c11.8,0,30.1-1.4,30.1-1.4
			c6.1-0.4,6.8,8.6,0.7,9.3c0,0-6.1,0.7-12.9,1.1l41.1,121.9l24.7-73.9l-17.6-48c-6.1-0.4-11.9-1.1-11.9-1.1
			c-6.1-0.4-5.4-9.6,0.7-9.3c0,0,18.7,1.4,29.7,1.4c11.8,0,30.1-1.4,30.1-1.4c6.1-0.4,6.8,8.6,0.7,9.3c0,0-6.1,0.7-12.9,1.1
			l40.8,121l11.3-37.5C330.5,274.6,334.2,263.5,334.2,253.8z"/>
		<path d="M357.9,217.1c0,11.4-2.1,24.3-8.6,40.3l-34.5,99.4c33.6-19.5,56.2-55.8,56.2-97.3c0-19.6-5-38-13.8-54
			C357.6,209.1,357.9,212.9,357.9,217.1z"/>
	</g>
	<path d="M313.8,196.4c0-10.4,7.9-20,19-20c0.5,0,1,0.1,1.5,0.1c-20.1-18.3-46.9-29.6-76.3-29.6c-39.5,0-74.2,20.2-94.4,50.7
		c2.7,0.1,5.1,0.1,7.3,0.1c11.8,0,30.1-1.4,30.1-1.4c6.1-0.4,6.8,8.6,0.7,9.3c0,0-6.1,0.7-12.9,1.1l15.7,46.5
		c10.7,3.8,22.2,5.8,34.3,5.8c5,0,10-0.4,14.8-1l1.1-3.2l-17.6-48c-6.1-0.4-11.9-1.1-11.9-1.1c-6.1-0.4-5.4-9.6,0.7-9.3
		c0,0,18.7,1.4,29.7,1.4c11.8,0,30.1-1.4,30.1-1.4c6.1-0.4,6.8,8.6,0.7,9.3c0,0-6.1,0.7-12.9,1.1l13.6,40.3
		c13.8-7.4,25.5-17.8,34-30.4C317.1,209.9,313.8,203.5,313.8,196.4z"/>
	<path d="M258,146.9c-35.4,0-67,16.3-87.7,41.8c18.2,3.8,38.1,5.9,59.1,5.9c39.7,0,75.8-7.5,103-19.7
		C312.5,157.5,286.5,146.9,258,146.9z"/>
</g>
</svg>
