<?xml version="1.0" encoding="UTF-8" standalone="no"?>
<svg
   xmlns:dc="http://purl.org/dc/elements/1.1/"
   xmlns:cc="http://creativecommons.org/ns#"
   xmlns:rdf="http://www.w3.org/1999/02/22-rdf-syntax-ns#"
   xmlns:svg="http://www.w3.org/2000/svg"
   xmlns="http://www.w3.org/2000/svg"
   xmlns:sodipodi="http://sodipodi.sourceforge.net/DTD/sodipodi-0.dtd"
   xmlns:inkscape="http://www.inkscape.org/namespaces/inkscape"
   version="1.1"
   id="Layer_1"
   x="0px"
   y="0px"
   width="150px"
   height="190px"
   viewBox="0 0 150 190"
   style="enable-background:new 0 0 150 190;"
   xml:space="preserve"
   sodipodi:docname="img-generatecsr.svg"
   inkscape:version="1.0 (4035a4fb49, 2020-05-01)"><metadata
   id="metadata31"><rdf:RDF><cc:Work
       rdf:about=""><dc:format>image/svg+xml</dc:format><dc:type
         rdf:resource="http://purl.org/dc/dcmitype/StillImage" /></cc:Work></rdf:RDF></metadata><defs
   id="defs29" /><sodipodi:namedview
   inkscape:document-rotation="0"
   pagecolor="#ffffff"
   bordercolor="#666666"
   borderopacity="1"
   objecttolerance="10"
   gridtolerance="10"
   guidetolerance="10"
   inkscape:pageopacity="0"
   inkscape:pageshadow="2"
   inkscape:window-width="2560"
   inkscape:window-height="1017"
   id="namedview27"
   showgrid="false"
   inkscape:zoom="2.8315789"
   inkscape:cx="75"
   inkscape:cy="95"
   inkscape:window-x="-8"
   inkscape:window-y="-8"
   inkscape:window-maximized="1"
   inkscape:current-layer="g24" />
<style
   type="text/css"
   id="style2">
	.st0{fill:#2A2F6C;}
	.st1{fill:#54A446;}
</style>
<g
   id="g24">
	<g
   id="g6">
		<path
   class="st0"
   d="M59.3,114.6c-17.2-3.7-30.1-18.9-30.1-37.2c0-21,17.1-38.1,38.1-38.1c18.8,0,34.4,13.6,37.5,31.5h27.6    c-0.1-2.7-1-2.5-7.3-3.9c-5-1.2-7.3-3.8-9.8-8.4c-3.5-6.8-2.2-11.7,1.7-17c0.8-1.1,1.3-2.4,1.9-3.4c0.1-0.9-0.4-1.4-0.8-1.8    c-3.4-3.4-6.8-6.8-10.2-10.2c-1.1-1.1-2.2-0.9-3.4-0.2c-2.8,1.6-5.7,3.1-8.4,4.8c-1.8,1.1-3.3,1.2-5.1,0.2c-2.9-1.7-6-2.9-9.3-3.7    c-1.9-0.5-2.7-1.5-3.2-3.3c-0.8-3.2-1.9-6.4-2.7-9.6c-0.5-1.8-1.3-2.6-3.3-2.6c-4.2,0.1-8.4,0.1-12.7,0c-2.1-0.1-3,0.9-3.4,2.8    c-0.8,3.2-1.8,6.4-2.7,9.6c-0.4,1.6-1.2,2.6-2.8,3c-3.6,1-7.1,2.4-10.3,4.3c-1.4,0.8-2.6,0.5-3.8-0.2c-3-1.7-6-3.3-9-5.1    c-1.5-0.9-2.6-0.7-3.9,0.6c-3.1,3.2-6.2,6.3-9.4,9.4c-1.2,1.2-1.4,2.2-0.5,3.6c1.8,3,3.5,6.2,5.2,9.2c0.7,1.3,0.9,2.5,0.1,3.9    c-1.9,3.1-3.2,6.5-4.2,10c-0.4,1.6-1.4,2.4-3,2.8c-3.3,0.9-6.6,1.9-9.9,2.8C0.7,68.6,0,69.5,0,71.3c0.1,4.3,0.1,8.6,0,12.9    C0,86,0.8,87,2.4,87.4c3.2,0.8,6.4,1.8,9.6,2.6c1.7,0.4,2.7,1.3,3.2,3c0.9,3.3,2.2,6.5,3.9,9.5c1,1.8,0.9,3.3-0.1,4.9    c-1.7,2.9-3.2,5.8-5,8.7c-0.9,1.4-0.8,2.4,0.4,3.6c3.3,3.1,6.5,6.3,9.6,9.6c1.2,1.2,2.2,1.2,3.6,0.4c3-1.8,6.2-3.4,9.2-5.2    c1.4-0.8,2.6-0.8,4.1,0c3.1,1.7,6.3,3.2,9.8,4c1.7,0.4,2.6,1.4,3.1,3.1c0.8,3.2,1.9,6.4,2.7,9.6c0.4,1.6,1.2,2.4,2.7,2.5v-29.1    L59.3,114.6L59.3,114.6z"
   id="path4"
   style="fill:#333333;fill-opacity:1" />
	</g>
	<g
   id="g10">
		<path
   class="st0"
   d="M59.3,77.6v-6.9h6.9H94c-3-12-13.8-20.9-26.7-20.9c-15.2,0-27.5,12.3-27.5,27.5c0,12.4,8.2,22.9,19.5,26.3    C59.3,103.6,59.3,77.6,59.3,77.6z"
   id="path8"
   style="fill:#333333;fill-opacity:1" />
	</g>
	<g
   style="fill:#ef2929;fill-opacity:1"
   id="g16">
		<g
   id="g14"
   style="fill:#ef2929;fill-opacity:1">
			<path
   class="st1"
   d="M131.4,92.4h-5.3v6.2h5.3c2.2,0,3.3-0.9,3.3-3.1C134.8,93.4,133.6,92.4,131.4,92.4z"
   id="path12"
   style="fill:#ef2929;fill-opacity:1" />
		</g>
	</g>
	<g
   id="g22">
		<g
   id="g20">
			<path
   class="st1"
   d="M66.2,77.6v101.1H150V77.6H66.2z M107.2,101.1c-3.3-0.9-6.6-2.1-6.6-6.3c0-4.5,4.3-6.7,8.2-6.7     c4.6,0,8.8,2,8.8,7.1H113c-0.2-2.6-2-3.3-4.3-3.3c-1.5,0-3.3,0.6-3.3,2.5c0,1.7,1,1.9,6.6,3.3c1.6,0.4,6.5,1.4,6.5,6.4     c0,4-3.2,7.1-9.2,7.1c-4.9,0-9.4-2.4-9.4-7.8h4.7c0,2.9,2.3,4.1,4.9,4.1c1.7,0,4.3-0.5,4.3-2.7     C113.7,102.3,110.4,101.9,107.2,101.1z M88.3,88.1c4.8,0,8.9,2.8,9.5,7.9h-4.7c-0.3-2.2-2.4-3.9-4.8-3.9c-4.3,0-6,3.7-6,7.6     c0,3.7,1.6,7.4,6,7.4c3,0,4.6-2,5-4.9H98c-0.5,5.5-4.3,9-9.7,9c-6.8,0-10.8-5.1-10.8-11.4C77.5,93.2,81.5,88.1,88.3,88.1z      M140.3,168.1H76v-5.3h64.3V168.1z M140.3,148.6H76v-5.3h64.3V148.6z M140.3,129.1H76v-5.3h64.3V129.1z M135.4,110.7     c-0.6-1.4-0.5-3.5-0.8-5.3c-0.3-2.3-1.2-3.3-3.7-3.3h-4.8v8.6h-4.8v-22h11.9c3.9,0,6.4,2.7,6.4,6.1c0,2.6-1,4.5-3.5,5.5v0.1     c2.4,0.6,3.1,2.9,3.2,5.1c0.1,1.4,0.1,4,0.9,5.2L135.4,110.7L135.4,110.7z"
   id="path18"
   style="fill:#ef2929;fill-opacity:1" />
		</g>
	</g>
</g>
</svg>
