<?xml version="1.0" encoding="UTF-8" standalone="no"?>
<svg
   xmlns:dc="http://purl.org/dc/elements/1.1/"
   xmlns:cc="http://creativecommons.org/ns#"
   xmlns:rdf="http://www.w3.org/1999/02/22-rdf-syntax-ns#"
   xmlns:svg="http://www.w3.org/2000/svg"
   xmlns="http://www.w3.org/2000/svg"
   xmlns:sodipodi="http://sodipodi.sourceforge.net/DTD/sodipodi-0.dtd"
   xmlns:inkscape="http://www.inkscape.org/namespaces/inkscape"
   inkscape:version="1.0 (4035a4fb49, 2020-05-01)"
   sodipodi:docname="img-sslconvertor.svg"
   xml:space="preserve"
   style="enable-background:new 0 0 150 190;"
   viewBox="0 0 150 190"
   height="190px"
   width="150px"
   y="0px"
   x="0px"
   id="Layer_1"
   version="1.1"><metadata
   id="metadata25"><rdf:RDF><cc:Work
       rdf:about=""><dc:format>image/svg+xml</dc:format><dc:type
         rdf:resource="http://purl.org/dc/dcmitype/StillImage" /></cc:Work></rdf:RDF></metadata><defs
   id="defs23" /><sodipodi:namedview
   inkscape:current-layer="g8"
   inkscape:window-maximized="1"
   inkscape:window-y="-8"
   inkscape:window-x="-8"
   inkscape:cy="95"
   inkscape:cx="75"
   inkscape:zoom="4.4736842"
   showgrid="false"
   id="namedview21"
   inkscape:window-height="1017"
   inkscape:window-width="2560"
   inkscape:pageshadow="2"
   inkscape:pageopacity="0"
   guidetolerance="10"
   gridtolerance="10"
   objecttolerance="10"
   borderopacity="1"
   bordercolor="#666666"
   pagecolor="#ffffff" />
<style
   id="style2"
   type="text/css">
	.st0{fill:#2A2F6C;}
	.st1{fill:#54A446;}
</style>
<g
   id="g18">
	<path
   style="fill:#333333;fill-opacity:1"
   id="path4"
   d="M35.8,130.9c-2.4-2.3-2.8-5.4-1-8.2c0.4-0.7,0.8-1.4,1.3-2.2c0.2-0.3,0.3-0.6,0.5-0.8   c-0.4-0.9-0.8-1.9-1.2-2.9c-0.4-0.1-0.8-0.2-1.1-0.3c-0.8-0.2-1.5-0.4-2.2-0.6c-3.2-0.8-5.1-3.4-5.1-6.6c0-2.5,0-4.5,0-6.3   c0-1,0.1-1.9,0.5-2.8c1.1-3.3,4.1-4,6.2-4.4l0.3-0.1l0.5-0.1c0.3-0.1,0.6-0.2,0.9-0.2l0.1-0.1c0.3-0.9,0.7-1.8,1.1-2.7   c-0.1-0.1-0.1-0.2-0.2-0.4c-0.5-0.9-1-1.8-1.5-2.7c-1.7-2.8-1.2-5.9,1.1-8.1c1.6-1.5,3.1-3.1,4.6-4.6c0.3-0.3,0.6-0.5,0.8-0.8   c1.2-1.1,2.6-1.6,4.1-1.6c0.2,0,0.4,0,0.5,0l1.1,0.1L48,75c0.1,0.1,0.2,0.1,0.3,0.2c0.5,0.3,1.2,0.6,2,1.1c0.1,0.1,0.2,0.1,0.2,0.2   c0.4,0.2,0.8,0.4,1.2,0.6c0.2,0.1,0.3,0.1,0.4,0.1c0.8-0.4,1.5-0.7,2.3-1c0.1-0.1,0.2-0.1,0.3-0.2c0-0.2,0.1-0.3,0.1-0.5   c0.3-0.9,0.5-1.7,0.7-2.5c0.2-1,0.6-1.8,1.2-2.6c0.8-1.2,2.3-2.7,5.2-2.8l5.3-0.2v0.2c0.5,0,0.9,0,1.4,0c0.1,0,0.2,0,0.2,0   c3.3,0,5.8,2,6.6,5.3c0.2,0.8,0.4,1.6,0.7,2.5c0.1,0.2,0.1,0.5,0.2,0.7c1,0.3,1.9,0.7,2.8,1.1c0.5-0.3,1-0.5,1.4-0.8   c0.6-0.3,1.1-0.6,1.6-0.9c1.2-0.7,2.3-1,3.5-1c0.4,0,0.8,0,1.2,0.1c1,0.2,2.4,0.7,3.7,2c1.4,1.5,3,3,4.6,4.6   c2.3,2.2,2.8,5.4,1.1,8.1c-0.5,0.9-1,1.8-1.5,2.7c-0.1,0.1-0.1,0.2-0.2,0.4c0.4,0.9,0.8,1.9,1.2,2.8c0.4,0.1,0.8,0.2,1.2,0.3   c0.5,0.1,0.9,0.3,1.4,0.4c1.2,0.3,3.2,0.8,4.6,2.8c0.6,0.9,1.3,2.2,1.2,4.1c0,1.8,0,3.9,0,6.3c0,3.3-1.9,5.8-5.1,6.6   c-0.7,0.2-1.4,0.4-2.2,0.6c-0.4,0.1-0.7,0.2-1.1,0.3c-0.3,1-0.7,1.9-1.2,2.8c0.1,0.2,0.3,0.5,0.4,0.7c0.5,0.8,0.9,1.6,1.3,2.3   c0.8,1.4,1.2,2.8,1,4.3c0,0.2,0,0.3-0.1,0.5c0,0.2-0.1,0.4-0.2,0.8c-0.1,0.2-0.2,0.4-0.3,0.7l-0.1,0.3l-0.2,0.3   c-0.3,0.5-0.7,1-1.2,1.5c-0.1,0-0.1,0.1-0.2,0.1h6.8c-0.2-0.2-0.3-0.4-0.5-0.5c-2.1-2.1-2.4-5.1-0.8-7.7c0.8-1.3,1.6-2.6,2.4-3.9   c0.2-0.3,0.3-0.5,0.5-0.8c1.2-1.7,2.8-2.3,3.9-2.5l1.1-0.2l1.1,0.3c0.1,0,0.1,0,0.2,0c0.4,0.1,1.1,0.2,1.8,0.5h0.1   c0.1,0,0.2,0.1,0.3,0.1c0.2-0.1,0.4-0.3,0.6-0.4c0-0.5,0-1.1,0-1.5c0-0.9,0.2-1.7,0.5-2.5c0.4-1.3,1.5-3,4.2-3.7l5.1-1.3v0.1   c0.4-0.1,0.9-0.1,1.3-0.1l0,0l0,0c1.1,0,3.9,0.3,5.6,3.5c0.2,0.3,0.4,0.7,0.6,1.1V49.9c0-1.7-1.4-3.2-3.1-3.2h-65l-1.2-9.1   c-0.2-1.6-1.5-2.7-3.1-2.7H11c-1.6,0-2.9,1.2-3.1,2.7l-1.2,9.1H3.2c-1.7,0-3.2,1.4-3.2,3.2v78c0,1.7,1.4,3.1,3.2,3.1h32.7   L35.8,130.9z"
   class="st0" />
	<g
   id="g10">
		<g
   id="g8">
			<path
   style="fill:#ef2929;fill-opacity:1"
   id="path6"
   d="M149.9,132.6c-0.4-1.5-0.7-3-1.1-4.5c-0.1-0.3-0.2-0.5-0.4-0.7s-0.6-0.2-1.3-0.2c-0.8,0-1.7-0.1-2.5-0.1     c-0.8-0.2-1.5-0.6-2.1-1.2c-0.5-0.9-1.2-1.8-1.9-2.6c-0.2-0.6-0.3-1.2-0.3-1.8c0.3-1.1,0.6-2.2,1-3.3c0.2-0.6,0-0.9-0.5-1.2     c-1.4-0.8-2.7-1.6-4.1-2.5c-0.3-0.2-0.5-0.3-0.8-0.2c-0.3,0-0.5,0.1-0.7,0.4c-0.8,0.8-1.7,1.6-2.6,2.4c-0.3,0.3-0.6,0.5-1,0.6     c-0.1,0-0.2,0-0.4-0.1c-1.3-0.4-2.6-0.6-4-0.6c-0.6,0-1-0.3-1.2-0.8c-0.6-1.1-1.2-2.1-1.7-3.2c-0.3-0.6-0.7-0.9-1.4-0.7     c-1.5,0.4-2.9,0.7-4.4,1.1c-0.1,0-0.1,0-0.2,0.1l0,0c-0.4,0.1-0.6,0.2-0.7,0.6c-0.1,0.2-0.1,0.4-0.1,0.7c0,1-0.1,2-0.1,3.1     c-0.3,0.9-0.7,1.5-1.5,2.3c-0.6,0.3-1.1,0.7-1.6,1.1c-0.1,0.1-0.2,0.2-0.3,0.2c-1,0.5-2,0.6-3,0.4c-0.4-0.1-0.8-0.2-1.2-0.3     c-0.2-0.1-0.3-0.1-0.5-0.2c-0.5-0.2-1-0.3-1.3-0.4c-0.3,0.1-0.4,0.2-0.6,0.4c0,0,0,0,0,0.1c-0.1,0.1-0.2,0.2-0.2,0.3     c-0.8,1.4-1.6,2.7-2.5,4.1c-0.3,0.5-0.3,0.9,0.1,1.3c0.8,0.8,1.6,1.7,2.4,2.6c0.3,0.5,0.4,1.1,0.5,1.8c-0.3,1-0.5,2-0.5,3     c-0.3,1-0.8,1.7-1.6,2.3c-0.4,0.2-0.8,0.5-1.2,0.7c-1.4,0.7-1.8,0.9-1.8,1.4c0,0.2,0,0.4,0,0.6c0.4,1.5,0.7,3,1.1,4.5     c0.1,0.6,0.5,0.9,1.1,0.9c1.2,0,2.4,0.1,3.6,0.1c0.6,0,1.1,0.2,1.4,0.8c0.6,1.1,1.3,2.1,2.2,3c0.5,0.5,0.6,1.1,0.4,1.7     c-0.4,1.1-0.6,2.3-1,3.5c-0.2,0.6-0.1,0.9,0.5,1.2c1.4,0.8,2.8,1.7,4.2,2.5c0.4,0.3,0.7,0.3,1,0.1c0.2-0.1,0.3-0.2,0.5-0.3     c0.9-0.9,1.9-1.7,2.8-2.6c0.1-0.1,0.3-0.2,0.4-0.3c0.2-0.1,0.5-0.1,0.8,0c1.2,0.3,2.5,0.6,3.8,0.6c0.6,0,1,0.3,1.3,0.8     c0.6,1.1,1.2,2.1,1.8,3.1c0.3,0.5,0.6,0.7,1.2,0.7l0,0c0.1,0,0.2,0,0.3,0c1.5-0.4,3-0.7,4.5-1.1c0.6-0.1,0.9-0.5,0.9-1.1     c0-1.2,0.1-2.4,0.1-3.6c0-0.6,0.2-1.1,0.8-1.4c1.1-0.6,2.1-1.3,3-2.2c0.4-0.4,0.8-0.5,1.3-0.5c0.1,0,0.1,0,0.2,0     c1.2,0.4,2.5,0.7,3.7,1.1c0.3,0.1,0.5,0.1,0.7,0l0,0h0.1c0,0,0.1,0,0.1-0.1l0,0c0.1-0.1,0.2-0.2,0.3-0.3c0.4-0.7,0.8-1.4,1.2-2.1     c0.4-0.7,0.9-1.4,1.3-2c0.1-0.1,0.1-0.3,0.2-0.4l0,0v-0.1V146l0,0c0-0.2-0.1-0.4-0.4-0.6c-0.9-0.9-1.7-1.9-2.6-2.8l-0.1-0.1     c-0.3-0.4-0.4-0.8-0.2-1.4c0.4-1.2,0.5-2.4,0.6-3.7c0-0.6,0.3-1,0.9-1.3c1.1-0.6,2.1-1.2,3.2-1.7     C149.9,133.6,150.1,133.2,149.9,132.6z M126.7,141.4c-3.1,0.3-5.8-2-6.1-5.1c-0.3-3.1,2-5.8,5.1-6.1c3.1-0.3,5.8,2,6.1,5.1     C132,138.4,129.8,141.1,126.7,141.4z"
   class="st1" />
		</g>
	</g>
	<g
   id="g16">
		<g
   id="g14">
			<path
   style="fill:#ef2929;fill-opacity:1"
   id="path12"
   d="M98.7,102.8c0-0.5-0.1-0.8-0.3-1.1c-0.2-0.3-0.7-0.5-1.6-0.7c-1.1-0.3-2.3-0.6-3.4-1     c-1.1-0.5-1.8-1.3-2.5-2.3c-0.4-1.4-1-2.8-1.8-4.2c-0.1-0.9-0.1-1.8,0.2-2.6c0.8-1.4,1.6-2.8,2.4-4.2c0.4-0.7,0.3-1.2-0.3-1.8     c-1.6-1.5-3.2-3.1-4.7-4.7c-0.3-0.3-0.6-0.5-1-0.6s-0.7,0-1.1,0.3c-1.4,0.8-2.9,1.5-4.2,2.4c-0.5,0.3-1,0.5-1.6,0.4     c-0.2,0-0.3-0.1-0.5-0.2c-1.6-0.9-3.4-1.6-5.2-2.1c-0.8-0.2-1.2-0.7-1.4-1.5c-0.4-1.6-0.9-3.2-1.3-4.8c-0.2-1-0.7-1.4-1.7-1.4     c-2.1,0.1-4.2,0.1-6.4,0c-0.1,0-0.2,0-0.3,0l0,0c-0.6,0-0.9,0.1-1.2,0.6c-0.2,0.2-0.3,0.5-0.4,0.9c-0.3,1.4-0.8,2.8-1.1,4.1     c-0.6,1.1-1.5,1.8-2.8,2.6c-0.9,0.3-1.7,0.6-2.5,1c-0.2,0.1-0.3,0.2-0.5,0.2c-1.5,0.3-2.8,0.1-4.2-0.4c-0.5-0.3-1-0.6-1.6-0.9     c-0.2-0.1-0.4-0.3-0.6-0.4c-0.6-0.4-1.2-0.7-1.7-0.9c-0.5,0-0.7,0.2-0.9,0.4c0,0,0,0-0.1,0.1s-0.3,0.2-0.4,0.4     c-1.5,1.6-3.1,3.2-4.7,4.7c-0.6,0.6-0.7,1.1-0.3,1.8c0.8,1.4,1.6,2.9,2.4,4.3c0.2,0.8,0.2,1.7,0.1,2.6c-0.7,1.2-1.3,2.6-1.7,3.9     c-0.8,1.2-1.6,2-2.9,2.5c-0.6,0.2-1.2,0.4-1.9,0.5c-2.1,0.5-2.8,0.6-3,1.3c-0.1,0.2-0.2,0.5-0.2,0.9c0,2.2,0,4.3,0,6.5     c0,0.9,0.4,1.4,1.2,1.6c1.6,0.4,3.2,0.9,4.8,1.3c0.8,0.2,1.4,0.7,1.6,1.5c0.5,1.7,1.1,3.3,2,4.8c0.5,0.9,0.4,1.6-0.1,2.5     c-0.9,1.4-1.6,2.9-2.5,4.4c-0.4,0.7-0.4,1.2,0.2,1.8c1.6,1.6,3.2,3.2,4.8,4.8c0.5,0.5,0.8,0.6,1.3,0.4c0.2,0,0.5-0.1,0.7-0.3     c1.5-0.9,3.1-1.7,4.6-2.6c0.2-0.1,0.5-0.2,0.7-0.3c0.4,0,0.7,0.1,1.1,0.3c1.6,0.9,3.2,1.6,4.9,2c0.9,0.2,1.3,0.7,1.5,1.6     c0.4,1.6,0.9,3.2,1.4,4.8c0.2,0.8,0.6,1.2,1.4,1.3v-0.1c0.1,0,0.3,0,0.4,0c2.2,0,4.3,0,6.5,0c0.9,0,1.4-0.4,1.6-1.2     c0.4-1.6,0.9-3.2,1.3-4.8c0.2-0.9,0.7-1.4,1.5-1.6c1.7-0.5,3.3-1.1,4.8-2c0.7-0.4,1.3-0.4,2-0.2c0.1,0,0.1,0.1,0.2,0.1     c1.5,0.9,3.1,1.7,4.6,2.6c0.4,0.2,0.7,0.3,1,0.3c0,0,0,0,0.1,0h0.1c0.1,0,0.1,0,0.2-0.1l0,0c0.2-0.1,0.3-0.2,0.5-0.4     c0.8-0.8,1.6-1.6,2.4-2.4c0.8-0.8,1.6-1.6,2.4-2.4c0.2-0.2,0.3-0.3,0.4-0.5l0,0c0-0.1,0.1-0.1,0.1-0.2v-0.1c0,0,0,0,0-0.1     c0-0.3-0.1-0.6-0.3-1c-0.9-1.5-1.7-3.1-2.6-4.6c0-0.1-0.1-0.1-0.1-0.2c-0.2-0.6-0.2-1.3,0.2-2c0.9-1.5,1.5-3.1,2-4.8     c0.2-0.9,0.8-1.3,1.6-1.5c1.6-0.4,3.2-0.9,4.8-1.3c0.8-0.2,1.2-0.7,1.2-1.6C98.6,107.1,98.6,105,98.7,102.8z M70.9,117.1H59.7     l2.6-12.6c-1.6-1-2.6-2.7-2.6-4.7c0-3.1,2.5-5.6,5.6-5.6c3.1,0,5.6,2.5,5.6,5.6c0,2-1.1,3.8-2.6,4.7L70.9,117.1z"
   class="st1" />
		</g>
	</g>
</g>
</svg>
