<?xml version="1.0" encoding="UTF-8" standalone="no"?>
<svg
   xmlns:dc="http://purl.org/dc/elements/1.1/"
   xmlns:cc="http://creativecommons.org/ns#"
   xmlns:rdf="http://www.w3.org/1999/02/22-rdf-syntax-ns#"
   xmlns:svg="http://www.w3.org/2000/svg"
   xmlns="http://www.w3.org/2000/svg"
   xmlns:sodipodi="http://sodipodi.sourceforge.net/DTD/sodipodi-0.dtd"
   xmlns:inkscape="http://www.inkscape.org/namespaces/inkscape"
   inkscape:version="1.0 (4035a4fb49, 2020-05-01)"
   sodipodi:docname="img-whynopadlock.svg"
   xml:space="preserve"
   style="enable-background:new 0 0 150 190;"
   viewBox="0 0 150 190"
   height="190px"
   width="150px"
   y="0px"
   x="0px"
   id="Layer_1"
   version="1.1"><metadata
   id="metadata39"><rdf:RDF><cc:Work
       rdf:about=""><dc:format>image/svg+xml</dc:format><dc:type
         rdf:resource="http://purl.org/dc/dcmitype/StillImage" /></cc:Work></rdf:RDF></metadata><defs
   id="defs37" /><sodipodi:namedview
   inkscape:current-layer="g26"
   inkscape:window-maximized="1"
   inkscape:window-y="-8"
   inkscape:window-x="-8"
   inkscape:cy="95"
   inkscape:cx="75"
   inkscape:zoom="4.4736842"
   showgrid="false"
   id="namedview35"
   inkscape:window-height="1017"
   inkscape:window-width="2560"
   inkscape:pageshadow="2"
   inkscape:pageopacity="0"
   guidetolerance="10"
   gridtolerance="10"
   objecttolerance="10"
   borderopacity="1"
   bordercolor="#666666"
   pagecolor="#ffffff" />
<style
   id="style2"
   type="text/css">
	.st0{fill:none;}
	.st1{fill:#2A2F6C;}
	.st2{fill:#54A446;}
</style>
<g
   id="g32">
	<g
   id="g6">
		<path
   id="path4"
   d="M131.5,45.7h-9.6v9.6h9.6V45.7z M130.1,53.9h-6.8v-6.8h6.8V53.9z"
   class="st0" />
	</g>
	<g
   id="g10">
		<polygon
   id="polygon8"
   points="138.6,55.3 141.4,52.4 144.3,55.3 146.2,53.3 143.4,50.5 146.2,47.6 144.3,45.7 141.4,48.5     138.6,45.7 136.6,47.6 139.5,50.5 136.6,53.3   "
   class="st0" />
	</g>
	<g
   id="g14">
		<rect
   id="rect12"
   height="2.8"
   width="10.8"
   class="st0"
   y="49.1"
   x="107.1" />
	</g>
	<rect
   style="fill:#333333;fill-opacity:1"
   id="rect16"
   height="6.8000002"
   width="6.8000002"
   class="st1"
   y="47.099998"
   x="123.3" />
	<g
   id="g22">
		<path
   style="fill:#333333;fill-opacity:1"
   id="path18"
   d="M120.9,82.7c-0.8,0-1.5,0.4-2.1,1.1c-0.6,0.8-0.9,1.8-0.9,3.3c0,1.4,0.3,2.5,0.9,3.2s1.3,1,2.1,1    c0.8,0,1.6-0.4,2.2-1.1s0.9-1.8,0.9-3.3c0-1.4-0.3-2.5-0.9-3.2C122.4,83,121.7,82.7,120.9,82.7z"
   class="st1" />
		<path
   style="fill:#333333;fill-opacity:1"
   id="path20"
   d="M24.9,41.4v17.2V74c1.4-2.9,3.3-5.6,5.7-7.9c1.1-1.1,2.3-2.1,3.5-3V60h5.2c3.9-1.8,8.1-2.7,12.5-2.7    s8.6,0.9,12.5,2.7h76.3v10.1H76.5c6.5,9.2,7.2,21.2,2.1,31h62.1v29.5H34.1v-9.1l-9.3,10.2v8.2l0,0h9.3h106.6h9.3v-9.3v-29.5V79.4    l0,0v-38H24.9z M100.5,92.6h-1.9v-7c0-0.9-0.2-1.6-0.6-2.1c-0.4-0.4-1-0.6-1.7-0.6c-0.6,0-1.1,0.1-1.6,0.4s-0.8,0.7-1.1,1.2    c-0.2,0.5-0.3,1.2-0.3,2.1v6.1h-1.9V77.2h1.9v5.5c0.9-1,2-1.5,3.3-1.5c0.8,0,1.5,0.2,2.1,0.5s1,0.8,1.3,1.3    c0.3,0.6,0.4,1.4,0.4,2.5L100.5,92.6L100.5,92.6z M106.3,92.7c-0.7,0-1.2-0.1-1.6-0.3c-0.4-0.2-0.6-0.5-0.8-0.9    c-0.2-0.4-0.2-1.1-0.2-2.2v-6.4h-1.4v-1.5h1.4v-2.8l1.9-1.1v3.9h1.9v1.5h-1.9v6.5c0,0.5,0,0.9,0.1,1c0.1,0.2,0.2,0.3,0.3,0.4    c0.2,0.1,0.4,0.1,0.6,0.1s0.5,0,0.8-0.1l0.3,1.7C107.2,92.6,106.7,92.7,106.3,92.7z M113.1,92.7c-0.7,0-1.2-0.1-1.6-0.3    c-0.4-0.2-0.6-0.5-0.8-0.9c-0.2-0.4-0.2-1.1-0.2-2.2v-6.4h-1.4v-1.5h1.4v-2.8l1.9-1.1v3.9h1.9v1.5h-1.9v6.5c0,0.5,0,0.9,0.1,1    c0.1,0.2,0.2,0.3,0.3,0.4c0.1,0.1,0.4,0.1,0.6,0.1s0.5,0,0.8-0.1l0.3,1.7C114,92.6,113.5,92.7,113.1,92.7z M125.2,90    c-0.4,0.9-1,1.6-1.8,2.1s-1.6,0.7-2.5,0.7c-0.6,0-1.2-0.1-1.7-0.4s-0.9-0.6-1.2-1v5.4h-1.9V81.4h1.7v1.4c0.4-0.6,0.9-1,1.4-1.3    s1.1-0.4,1.9-0.4c0.9,0,1.8,0.2,2.5,0.7s1.3,1.2,1.6,2.1c0.4,0.9,0.6,1.9,0.6,2.9C125.8,88,125.6,89.1,125.2,90z M136,91.1    c-0.4,0.6-0.9,1-1.6,1.3c-0.7,0.3-1.5,0.5-2.3,0.5c-1.4,0-2.5-0.3-3.3-0.9s-1.2-1.5-1.4-2.7l1.9-0.3c0.1,0.7,0.4,1.3,0.9,1.7    c0.5,0.4,1.1,0.6,2,0.6s1.5-0.2,1.9-0.5c0.4-0.4,0.6-0.8,0.6-1.2c0-0.4-0.2-0.8-0.6-1c-0.3-0.2-0.9-0.4-1.9-0.6    c-1.4-0.3-2.3-0.7-2.9-0.9c-0.5-0.3-0.9-0.6-1.2-1.1c-0.3-0.4-0.4-0.9-0.4-1.5c0-0.5,0.1-1,0.3-1.4s0.5-0.8,0.9-1.1    c0.3-0.2,0.7-0.4,1.2-0.5s1-0.2,1.6-0.2c0.9,0,1.6,0.1,2.3,0.4s1.1,0.6,1.5,1c0.3,0.4,0.5,1,0.7,1.7l-1.8,0.3    c-0.1-0.6-0.3-1-0.7-1.3s-1-0.5-1.7-0.5c-0.9,0-1.5,0.1-1.9,0.4s-0.6,0.6-0.6,1c0,0.2,0.1,0.5,0.2,0.7c0.2,0.2,0.4,0.4,0.7,0.5    c0.2,0.1,0.7,0.2,1.7,0.5c1.3,0.4,2.3,0.6,2.8,0.9c0.5,0.2,0.9,0.6,1.2,1s0.4,1,0.4,1.6C136.5,89.9,136.4,90.5,136,91.1z     M117.9,51.9h-10.8v-2.8h10.8V51.9z M131.5,55.3h-9.6v-9.6h9.6V55.3z M146.2,53.3l-2,2l-2.8-2.8l-2.8,2.8l-2-2l2.8-2.8l-2.8-2.8    l2-2l2.8,2.8l2.8-2.8l2,2l-2.8,2.8L146.2,53.3z"
   class="st1" />
	</g>
	<g
   id="g26">
		<path
   style="fill:#ef2929;fill-opacity:1"
   id="path24"
   d="M69.1,104.6c9.5-9.5,9.5-24.9,0-34.4s-24.9-9.5-34.4,0c-7.6,7.6-9.1,19.1-4.5,28.3l-3.2,3.2l1.5,1.5    L0.3,128.8l0,0l0,0c-0.9,0.9,0.6,4,3.4,6.8s5.9,4.4,6.8,3.4l0,0l0,0l25.6-28.2l1.5,1.5l3.2-3.2C50,113.7,61.4,112.2,69.1,104.6z     M38.5,100.7c-7.4-7.4-7.4-19.3,0-26.7c7.4-7.4,19.3-7.4,26.7,0s7.4,19.3,0,26.7C57.9,108.1,45.9,108.1,38.5,100.7z"
   class="st2" />
	</g>
	<g
   id="g30">
		<path
   style="fill:#333333;fill-opacity:1"
   id="path28"
   d="M54.2,94h-4.9c0-0.7,0-1.1,0-1.3c0-1.6,0.3-2.9,0.8-4c0.5-1,1.6-2.2,3.2-3.5c1.6-1.3,2.5-2.1,2.9-2.5    c0.5-0.6,0.7-1.3,0.7-2.1c0-1.1-0.4-2-1.3-2.7c-0.8-0.8-2-1.1-3.4-1.1s-2.5,0.4-3.5,1.2c-0.9,0.8-1.6,2-1.9,3.6l-5-0.6    c0.1-2.3,1.1-4.3,3-5.9c1.8-1.6,4.2-2.4,7.2-2.4c3.1,0,5.6,0.8,7.5,2.5c1.9,1.6,2.8,3.5,2.8,5.7c0,1.2-0.3,2.3-1,3.4    s-2.1,2.5-4.4,4.4c-1.2,1-1.9,1.7-2.1,2.3C54.3,91.5,54.2,92.5,54.2,94z M49.2,101.4v-5.5h5.5v5.5H49.2z"
   class="st1" />
	</g>
</g>
</svg>
