<?xml version="1.0" encoding="UTF-8" standalone="no"?>
<svg
   xmlns:dc="http://purl.org/dc/elements/1.1/"
   xmlns:cc="http://creativecommons.org/ns#"
   xmlns:rdf="http://www.w3.org/1999/02/22-rdf-syntax-ns#"
   xmlns:svg="http://www.w3.org/2000/svg"
   xmlns="http://www.w3.org/2000/svg"
   xmlns:sodipodi="http://sodipodi.sourceforge.net/DTD/sodipodi-0.dtd"
   xmlns:inkscape="http://www.inkscape.org/namespaces/inkscape"
   version="1.1"
   id="Layer_1"
   x="0px"
   y="0px"
   width="150px"
   height="190px"
   viewBox="0 0 150 190"
   style="enable-background:new 0 0 150 190;"
   xml:space="preserve"
   sodipodi:docname="img-certificatekeymatcher.svg"
   inkscape:version="1.0 (4035a4fb49, 2020-05-01)"><metadata
   id="metadata21"><rdf:RDF><cc:Work
       rdf:about=""><dc:format>image/svg+xml</dc:format><dc:type
         rdf:resource="http://purl.org/dc/dcmitype/StillImage" /></cc:Work></rdf:RDF></metadata><defs
   id="defs19" /><sodipodi:namedview
   inkscape:document-rotation="0"
   pagecolor="#ffffff"
   bordercolor="#666666"
   borderopacity="1"
   objecttolerance="10"
   gridtolerance="10"
   guidetolerance="10"
   inkscape:pageopacity="0"
   inkscape:pageshadow="2"
   inkscape:window-width="2560"
   inkscape:window-height="1017"
   id="namedview17"
   showgrid="false"
   inkscape:zoom="2.8315789"
   inkscape:cx="7.0167286"
   inkscape:cy="95"
   inkscape:window-x="-8"
   inkscape:window-y="-8"
   inkscape:window-maximized="1"
   inkscape:current-layer="g8" />
<style
   type="text/css"
   id="style2">
	.st0{fill:#2A2F6C;}
	.st1{fill:#54A446;}
</style>
<g
   id="g14">
	<path
   class="st0"
   d="M29.5,39.2v50.6c0.9,0.2,1.8,0.5,2.7,0.8c1.3-0.4,2.5-0.7,3.9-0.7c0.2,0,0.4,0,0.6,0l47.3-36   c1-0.8,2.3-1.2,3.6-1.2c0.2,0,0.5,0,0.7,0l0,0l0,0l7.1,1l0,0l0,0c0.7,0.1,1.4,0.3,2,0.7l0.1,0.1l0.1,0.1c2.4,1.4,4.9,4.5,4.3,8.7   l-1.7,12.4l0,0l0,0c-0.2,1.5-1,2.9-2.3,3.9l-4.8,3.7l0,0l0,0c-1,0.8-2.2,1.2-3.5,1.2h-2.2c0,1.9-0.8,3.7-2.4,4.9L79,94   c-0.7,0.6-1.6,0.9-2.5,1.1c-0.8,0.2-2,0.5-2.6,0.9c-0.4,0.9-1,1.7-1.9,2.3c-0.8,0.6-1.8,1-2.9,1.2L68,99.6l-0.3,1   c-0.3,1.3-1.1,2.5-2.2,3.3l0,0l0,0l-7.7,5.8c-0.4,2.1-1.7,4.1-3.7,5.7c-0.4,0.3-0.7,0.5-1.1,0.7l-0.8,0.6c0.2,2.9-0.1,5.7-0.8,8.4   h46.3l0.3-4c-5.4-4.4-8.5-10.9-8.5-18c0-12.8,10.4-23.2,23.2-23.2s23.2,10.4,23.2,23.2c0,3.8-0.9,7.5-2.6,10.7h0.2v2.1h-1.4   c-1.3,1.9-2.9,3.7-4.7,5.2l0.3,4H150V39.2H29.5z M40.8,84.3h-2.1v-4.1h2.1V84.3z M40.8,76.1h-2.1V72h2.1V76.1z M40.8,67.9h-2.1   v-4.1h2.1V67.9z M40.8,59.7h-2.1v-4.1h2.1V59.7z M41.8,50.5h-1v1h-2.1v-3.1h3.1V50.5z M50.2,50.5H46v-2.1h4.2V50.5z M58.5,50.5   h-4.2v-2.1h4.2V50.5z M66.8,50.5h-4.2v-2.1h4.2V50.5z M75.2,50.5H71v-2.1h4.2V50.5z M83.5,50.5h-4.2v-2.1h4.2V50.5z M91.8,50.5   h-4.2v-2.1h4.2V50.5z M100.2,50.5H96v-2.1h4.2V50.5z M66.8,116.1h-4.2V114h4.2V116.1z M75.2,116.1H71V114h4.2V116.1z M83.5,116.1   h-4.2V114h4.2V116.1z M91.8,114v2.1h-4.2V114H91.8z M108.5,50.5h-4.2v-2.1h4.2V50.5z M116.9,50.5h-4.2v-2.1h4.2V50.5z M125.2,50.5   H121v-2.1h4.2V50.5z M133.5,50.5h-4.2v-2.1h4.2V50.5z M140.8,116.1h-3.1V114h1v-1h2v3.1H140.8z M140.8,108.9h-2v-4.1h2V108.9z    M140.8,100.7h-2v-4.1h2V100.7z M140.8,92.5h-2v-4.1h2V92.5z M140.8,84.3h-2v-4.1h2V84.3z M140.8,76.1h-2V72h2V76.1z M140.8,67.9   h-2v-4.1h2V67.9z M140.8,59.7h-2v-4.1h2V59.7z M140.8,51.5h-2v-1h-1v-2.1h3.1v3.1H140.8z"
   id="path4"
   style="fill:#333333;fill-opacity:1" />
	<g
   id="g10">
		<g
   id="g8">
			<path
   class="st1"
   d="M96.8,59c-0.1,0-0.2-0.1-0.3-0.1l-7.1-1c-0.2,0-0.4,0-0.6,0.2L39.7,95.4c-1.2-0.4-3.2-0.7-5.6,0.8     c-8.1-3.5-17.4-2.4-24.5,2.9c-10.7,8.1-12.8,23.4-4.7,34.1S28.3,146,39,137.9c7.2-5.5,10.7-14.4,9.3-23.3l3.4-2.6     c0.1-0.1,0.5-0.3,0.9-0.6c1.6-1.2,2.1-2.7,1.6-4.1l9.8-7.4c0.1-0.1,0.2-0.3,0.3-0.4l0.8-3.2l2-1.5l3.3-0.4c0.1,0,0.3-0.1,0.4-0.2     S71,94,71,93.9c0.1-0.2,0.1-0.3,0-0.5c0.1-0.1,0.3-0.6,1.3-1.3c1.8-1.4,5-2,5-2c0.1,0,0.2-0.1,0.3-0.1l6-4.6     c0.3-0.2,0.4-0.5,0.3-0.9c0-0.1-0.4-1.3,0.4-3c0.2-0.4,0.5-0.7,0.8-1c1-0.8,2.4-1.1,2.7-1.1l3.4-0.1c0.2,0,0.3-0.1,0.5-0.2     l4.8-3.7c0.2-0.1,0.3-0.3,0.3-0.5l1.7-12.4C98.9,60.2,96.9,59.1,96.8,59z M21.9,126.3c-2.3,1.7-5.5,1.3-7.3-1     c-1.7-2.3-1.3-5.5,1-7.3c2.3-1.7,5.5-1.3,7.2,1C24.6,121.4,24.2,124.6,21.9,126.3z M44.7,100.4l-1-1.8l46.6-35.4L94,63     L44.7,100.4z"
   id="path6"
   style="fill:#ef2929;fill-opacity:1" />
		</g>
	</g>
	<path
   class="st0"
   d="M130.7,103.3c0-10-8.1-18-18-18c-10,0-18,8.1-18,18c0,6.6,3.5,12.3,8.8,15.5l-3,34.9l12.3-11.9l12.3,11.9   l-3-34.9C127.2,115.6,130.7,109.9,130.7,103.3z"
   id="path12"
   style="fill:#ef2929;fill-opacity:1" />
</g>
</svg>
