<?xml version="1.0" encoding="UTF-8" standalone="no"?>
<svg
   xmlns:dc="http://purl.org/dc/elements/1.1/"
   xmlns:cc="http://creativecommons.org/ns#"
   xmlns:rdf="http://www.w3.org/1999/02/22-rdf-syntax-ns#"
   xmlns:svg="http://www.w3.org/2000/svg"
   xmlns="http://www.w3.org/2000/svg"
   xmlns:sodipodi="http://sodipodi.sourceforge.net/DTD/sodipodi-0.dtd"
   xmlns:inkscape="http://www.inkscape.org/namespaces/inkscape"
   version="1.1"
   id="Layer_1"
   x="0px"
   y="0px"
   width="150px"
   height="190px"
   viewBox="0 0 150 190"
   style="enable-background:new 0 0 150 190;"
   xml:space="preserve"
   sodipodi:docname="img-caagenerator.svg"
   inkscape:version="1.0 (4035a4fb49, 2020-05-01)"><metadata
   id="metadata35"><rdf:RDF><cc:Work
       rdf:about=""><dc:format>image/svg+xml</dc:format><dc:type
         rdf:resource="http://purl.org/dc/dcmitype/StillImage" /></cc:Work></rdf:RDF></metadata><defs
   id="defs33" /><sodipodi:namedview
   inkscape:document-rotation="0"
   pagecolor="#ffffff"
   bordercolor="#666666"
   borderopacity="1"
   objecttolerance="10"
   gridtolerance="10"
   guidetolerance="10"
   inkscape:pageopacity="0"
   inkscape:pageshadow="2"
   inkscape:window-width="2560"
   inkscape:window-height="1017"
   id="namedview31"
   showgrid="false"
   inkscape:zoom="2.8315789"
   inkscape:cx="7.0167286"
   inkscape:cy="95"
   inkscape:window-x="-8"
   inkscape:window-y="-8"
   inkscape:window-maximized="1"
   inkscape:current-layer="g16" />
<style
   type="text/css"
   id="style2">
	.st0{fill:#29316C;}
	.st1{fill:#54A446;}
</style>
<g
   id="g28">
	<path
   class="st0"
   d="M6.7,26.8v39.6c0.1-0.1,0.1-0.1,0.3-0.3c3.2-3.2,6.8-5.8,10.8-7.7V56h2.5v1.3c4.9-2,10-3.1,15.4-3.1   c10.8,0,20.9,4.2,28.6,11.8c13.5,13.5,15.4,34.2,5.9,49.7H71v2.5h-2.6c-1.3,1.7-2.7,3.5-4.3,5c-2.3,2.3-4.9,4.3-7.6,6h32.6l0.4-4.8   c-6.4-5.2-10.2-13-10.2-21.4c0-15.2,12.4-27.7,27.7-27.7s27.7,12.4,27.7,27.7c0,5.4-1.5,10.5-4.3,14.8v0.4h-0.3   c-1.5,2.3-3.4,4.4-5.7,6.2l0.4,4.8H150V26.8H6.7z M20.1,51.2h-2.5v-4.9h2.5V51.2z M21.4,40.2h-1.2v1.2h-2.5v-3.7h3.7V40.2z    M31.3,40.2h-5v-2.5h5V40.2z M41.2,40.2h-5v-2.5h5V40.2z M51.1,40.2h-5v-2.5h5V40.2z M61,40.2h-5v-2.5h5V40.2z M71,40.2h-5v-2.5h5   V40.2z M80.9,115.9v2.5h-5v-2.5H80.9z M80.9,40.2h-5v-2.5h5V40.2z M90.8,40.2h-5v-2.5h5V40.2z M100.7,40.2h-5v-2.5h5V40.2z    M110.6,40.2h-4.9v-2.5h5L110.6,40.2L110.6,40.2z M120.6,40.2h-5v-2.5h5V40.2z M130.5,40.2h-5v-2.5h5V40.2z M139.1,118.2h-3.7v-2.4   h1.2v-1.2h2.5V118.2z M139.1,109.7h-2.5v-4.9h2.5V109.7z M139.1,100h-2.5v-4.9h2.5V100z M139.1,90.2h-2.5v-4.9h2.5V90.2z    M139.1,80.4h-2.5v-4.9h2.5V80.4z M139.1,70.7h-2.5v-4.9h2.5V70.7z M139.1,60.9h-2.5V56h2.5V60.9z M139.1,51.2h-2.5v-4.9h2.5V51.2z    M139.1,41.4h-2.5v-1.2h-1.2v-2.5h3.7V41.4z"
   id="path4"
   style="fill:#333333;fill-opacity:1" />
	<g
   id="g8">
		<path
   class="st0"
   d="M128.6,103.1c0-11.8-9.6-21.5-21.5-21.5s-21.5,9.6-21.5,21.5c0,7.8,4.2,14.6,10.4,18.4l-3.6,41.6l14.6-14.2    l14.6,14.2l-3.6-41.6C124.4,117.7,128.6,110.9,128.6,103.1z"
   id="path6"
   style="fill:#ef2929;fill-opacity:1" />
	</g>
	<g
   id="g26">
		<g
   id="g16">
			<path
   class="st0"
   d="M27.9,97.6L27.9,97.6c0.1,1.5-0.4,2.7-1.3,3.5c-0.9,0.9-2.2,1.3-3.8,1.3s-2.9-0.5-3.9-1.5     c-1-1.1-1.5-2.4-1.5-4v-2.7c0-1.7,0.5-3,1.5-4c1-1.1,2.3-1.6,3.9-1.6c1.7,0,2.9,0.4,3.9,1.3c0.9,0.9,1.4,2,1.4,3.5v0.1h-2.7     c0-0.9-0.2-1.6-0.7-2.1c-0.4-0.5-1.1-0.7-2-0.7c-0.8,0-1.5,0.3-1.9,1c-0.5,0.7-0.7,1.5-0.7,2.5v2.7c0,1,0.3,1.9,0.7,2.5     s1.2,1,2,1c0.9,0,1.5-0.2,1.9-0.7s0.6-1.1,0.6-2L27.9,97.6L27.9,97.6z"
   id="path10"
   style="fill:#333333;fill-opacity:1" />
			<path
   class="st0"
   d="M37,99.3h-4.7l-0.9,2.9h-2.7l4.7-13.4H36l4.6,13.4h-2.7L37,99.3z M33,97.2h3.4l-1.7-5.3h-0.1L33,97.2z"
   id="path12"
   style="fill:#333333;fill-opacity:1" />
			<path
   class="st0"
   d="M49.1,99.3h-4.7l-0.9,2.9h-2.7l4.7-13.4h2.7l4.6,13.4H50L49.1,99.3z M45.1,97.2h3.4l-1.7-5.3h-0.1L45.1,97.2     z"
   id="path14"
   style="fill:#333333;fill-opacity:1" />
		</g>
		<g
   id="g20">
			<path
   class="st1"
   d="M59.8,70.8C53,63.9,44.6,60.5,35,60.5s-17.9,3.5-24.7,10.2C3.5,77.5,0,85.9,0,95.4s3.5,17.9,10.2,24.7     c6.8,6.8,15.1,10.2,24.7,10.3c9.6-0.1,17.9-3.5,24.7-10.2c6.8-6.8,10.3-15.2,10.3-24.7C70,85.9,66.6,77.6,59.8,70.8z M57.9,118.9     c-6.9,6.7-15.3,9.8-24.9,9.3c-16.2-0.8-31-14.5-30.9-32.8c0.1-9.2,3.3-17,9.9-23.5c6.9-6.6,15.3-9.8,24.9-9.2     c8.4,0.5,15.8,3.8,21.6,9.8c6.7,6.9,9.8,15.2,9.3,24.9C67.4,105.8,64,113.1,57.9,118.9z"
   id="path18"
   style="fill:#ef2929;fill-opacity:1" />
		</g>
		<g
   id="g24">
			<path
   class="st1"
   d="M37.6,64.9c-10.4,0.1-17.4,2.7-23.1,8c-6.5,6-9.9,13.6-9.9,22.5c0,7.8,2.7,14.8,8,20.6     c6,6.5,13.6,9.8,22.4,9.9c7.9,0.1,14.9-2.7,20.7-8.1c6.5-6.1,9.9-13.6,9.8-22.4C65.4,78.8,52.3,65.2,37.6,64.9z M58.5,79.6     c2.2,3.3,3.7,6.8,4.3,10.8c0.2,1.1,0.4,2.3,0.4,3.5c0,0.4-0.1,0.5-0.5,0.5c-1.2,0-2.4,0-3.6,0c-0.4,0-0.5-0.1-0.5-0.5     c0-1.6,0.1-3.1,0-4.7c-0.1-1.8-0.5-3.4-2-4.7c-1.1-1-2.5-1.4-4-1.5c-0.7-0.1-1.3,0-1.9,0c1.7-0.7,3.4-1.3,4.9-2.3     c0.7-0.4,1.4-0.8,2-1.2C58.1,79.3,58.2,79.2,58.5,79.6z M38.3,67.3c2.1,0.3,4.3,0.7,6.3,1.5c4.3,1.5,7.8,3.9,11,7.2     c0.3,0.3,0.5,0.5,0.7,0.8c0.7,0.7,0.7,0.8-0.1,1.3c-2.4,1.5-5.1,2.5-7.8,3.4c-0.3,0.1-0.5,0-0.6-0.3c-1.4-3.3-3.3-6.4-5.5-9.2     c-1.1-1.4-2.3-2.8-3.6-4.1c-0.1-0.1-0.3-0.3-0.5-0.3C38.2,67.4,38.3,67.4,38.3,67.3z M36.1,68.4c4.1,3.8,7.2,8.1,9.5,13     c0.2,0.5,0.1,0.7-0.3,0.7c-2,0.3-4,0.7-6.1,0.7c-0.9,0.1-1.7,0.1-2.6,0.1c-0.3,0-0.5-0.1-0.5-0.5C36.2,77.9,36.1,73.2,36.1,68.4z      M33.9,82.4c0,0.5-0.1,0.6-0.6,0.6c-2.9,0-5.7-0.4-8.6-0.9c-0.4-0.1-0.5-0.3-0.3-0.7c1.5-3.3,3.3-6.3,5.7-9     c1.2-1.4,2.5-2.7,3.9-4.1c0,0.3,0,0.4,0,0.5C33.8,73.4,33.8,77.9,33.9,82.4z M13.6,76.9c2.6-3.1,5.7-5.4,9.3-7     c2.5-1.2,5.1-2,7.8-2.3c0.3-0.1,0.5-0.3,0.9-0.1c-2.5,2.5-4.7,5.2-6.6,8.1c-1.1,1.7-2.1,3.6-2.9,5.5c-0.1,0.3-0.2,0.5-0.7,0.4     c-2.8-0.9-5.5-1.9-7.8-3.5C13,77.5,13.1,77.5,13.6,76.9z M6.7,93.7c0.2-2.7,0.7-5.3,1.6-7.8c0.8-2.2,1.8-4.2,3.1-6.1     c0.3-0.5,0.5-0.5,0.9-0.1c2.1,1.5,4.5,2.5,6.8,3.4c-1.3,0.1-2.6,0-3.9,0.3c-2.1,0.6-3.8,2.7-4,4.8c-0.2,1.9-0.1,3.7-0.1,5.7     c0,0.5-0.1,0.6-0.6,0.6c-1.1-0.1-2.3-0.1-3.4,0C6.8,94.3,6.7,94.2,6.7,93.7z M12.2,111.5c-0.3,0.3-0.5,0.1-0.7-0.2     c-1.9-2.8-3.3-5.9-4.1-9.2c-0.4-1.7-0.7-3.3-0.7-5c0-0.4,0.1-0.5,0.5-0.5c1.2,0,2.3,0.1,3.5,0c0.5,0,0.5,0.1,0.5,0.5     c0,1.6-0.1,3.1,0,4.7c0.1,2.1,0.9,3.9,2.7,5.1c1.1,0.7,2.2,0.9,3.5,0.9c0.6,0,1.2,0,1.9,0C16.7,108.8,14.3,109.9,12.2,111.5z      M28.2,123c-4.2-1.1-8-3-11.3-5.7c-1.3-1.1-2.5-2.3-3.6-3.6c-0.3-0.4,0.1-0.5,0.3-0.6c1.5-1,3.1-1.9,4.9-2.5     c1-0.4,2.1-0.7,3.1-1.1c0.5-0.1,0.6-0.1,0.8,0.3c1.7,3.8,3.9,7.3,6.5,10.4c0.9,1.1,1.9,2.1,3.1,3.3     C30.5,123.4,29.4,123.2,28.2,123z M33.8,122.5c-4.1-3.8-7.2-8.1-9.5-13.1c-0.2-0.4-0.1-0.6,0.3-0.7c1.5-0.2,2.9-0.5,4.3-0.6     s2.9-0.3,4.3-0.3c0.4,0,0.6,0.1,0.6,0.5C33.8,113.1,33.8,117.7,33.8,122.5z M16.7,105.6c-1.5,0-3.2-1.6-3.2-3.2     c0.1-4.7,0.1-9.4,0-14.1c0-1.5,1.6-3.2,3.1-3.1c6.1,0.1,12.2,0,18.4,0s12.2,0,18.3,0c1.6,0,3.3,1.7,3.2,3.2     c-0.1,4.7-0.1,9.3,0,14c0,1.6-1.7,3.2-3.2,3.2C41.1,105.6,28.9,105.6,16.7,105.6z M36.1,122.5c0-0.6,0-1.1,0-1.6     c0-4.1,0-8.3,0-12.4c0-0.5,0.1-0.6,0.6-0.6c2.9,0,5.7,0.4,8.6,0.9c0.3,0.1,0.5,0.2,0.3,0.6c-1.5,3.3-3.3,6.2-5.6,9     C38.9,119.8,37.6,121.1,36.1,122.5z M56.4,114c-2.7,3.1-5.8,5.4-9.4,7.1c-2.5,1.2-5.2,2-7.9,2.4c-0.1,0-0.3,0.1-0.4,0.1     c-0.1,0-0.3,0-0.5,0c1.6-1.6,3-3.1,4.3-4.9c2.1-2.7,3.9-5.5,5.2-8.6c0.2-0.5,0.4-0.7,1.1-0.5c2.7,0.8,5.3,1.9,7.6,3.4     C56.8,113.3,56.8,113.5,56.4,114z M61.7,104.9c-0.7,2.1-1.8,4.1-3,6.1c-0.3,0.5-0.5,0.7-1.1,0.3c-2-1.5-4.3-2.4-6.6-3.3     c-0.1,0-0.1,0-0.1-0.1c1-0.1,2,0,3-0.1c2.5-0.3,4.6-2.5,4.9-4.8c0.2-1.9,0.1-3.9,0.1-5.9c0-0.4,0.1-0.5,0.5-0.5     c1.1,0.1,2.3,0.1,3.5,0c0.5,0,0.6,0.2,0.5,0.6C63.2,99.8,62.6,102.4,61.7,104.9z"
   id="path22"
   style="fill:#ef2929;fill-opacity:1" />
		</g>
	</g>
</g>
</svg>
