<?xml version="1.0" encoding="UTF-8" standalone="no"?>
<svg
   xmlns:dc="http://purl.org/dc/elements/1.1/"
   xmlns:cc="http://creativecommons.org/ns#"
   xmlns:rdf="http://www.w3.org/1999/02/22-rdf-syntax-ns#"
   xmlns:svg="http://www.w3.org/2000/svg"
   xmlns="http://www.w3.org/2000/svg"
   xmlns:sodipodi="http://sodipodi.sourceforge.net/DTD/sodipodi-0.dtd"
   xmlns:inkscape="http://www.inkscape.org/namespaces/inkscape"
   version="1.1"
   id="Layer_1"
   x="0px"
   y="0px"
   width="150px"
   height="190px"
   viewBox="0 0 150 190"
   style="enable-background:new 0 0 150 190;"
   xml:space="preserve"
   sodipodi:docname="img-certificatedecoder.svg"
   inkscape:version="1.0 (4035a4fb49, 2020-05-01)"><metadata
   id="metadata31"><rdf:RDF><cc:Work
       rdf:about=""><dc:format>image/svg+xml</dc:format><dc:type
         rdf:resource="http://purl.org/dc/dcmitype/StillImage" /></cc:Work></rdf:RDF></metadata><defs
   id="defs29" /><sodipodi:namedview
   inkscape:document-rotation="0"
   pagecolor="#ffffff"
   bordercolor="#666666"
   borderopacity="1"
   objecttolerance="10"
   gridtolerance="10"
   guidetolerance="10"
   inkscape:pageopacity="0"
   inkscape:pageshadow="2"
   inkscape:window-width="2560"
   inkscape:window-height="1017"
   id="namedview27"
   showgrid="false"
   inkscape:zoom="2.8315789"
   inkscape:cx="7.0167286"
   inkscape:cy="95"
   inkscape:window-x="-8"
   inkscape:window-y="-8"
   inkscape:window-maximized="1"
   inkscape:current-layer="g22" />
<style
   type="text/css"
   id="style2">
	.st0{fill:#2A2F6C;}
	.st1{fill:#54A446;}
</style>
<g
   id="g24">
	<path
   class="st0"
   d="M35.3,38.3V70c0.1-0.1,0.1-0.1,0.2-0.2c2.5-2.5,5.5-4.6,8.6-6.2v-1.9h2v1c3.9-1.6,8-2.4,12.3-2.4   c8.6,0,16.8,3.4,22.9,9.5c10.8,10.8,12.3,27.3,4.7,39.8h0.8v2h-2.1c-1,1.4-2.1,2.8-3.4,4c-1.8,1.8-3.9,3.4-6.1,4.8h26.1l0.3-3.8   c-5.1-4.2-8.1-10.4-8.1-17.1c0-12.2,9.9-22.1,22.1-22.1s22.1,9.9,22.1,22.1c0,4.3-1.2,8.4-3.4,11.9v0.3h-0.2   c-1.2,1.9-2.7,3.5-4.5,5l0.3,3.8h20v-82H35.3V38.3z M46,57.8h-2v-3.9h2V57.8z M47,49h-1v1h-2v-2.9h3V49z M55,49h-4v-2h4V49z    M62.9,49h-4v-2h4V49z M70.8,49h-4v-2h4V49z M78.8,49h-4v-2h4V49z M86.7,49h-4v-2h4V49z M94.6,109.5v2h-4v-2H94.6z M94.6,49h-4v-2   h4V49z M102.6,49h-4v-2h4V49z M110.5,49h-4v-2h4V49z M118.4,49h-4v-2h4V49z M126.4,49h-4v-2h4V49z M134.3,49h-4v-2h4V49z    M141.2,111.5h-2.9v-2h1v-1h1.9V111.5z M141.2,104.6h-1.9v-3.9h1.9V104.6z M141.2,96.8h-1.9v-3.9h1.9V96.8z M141.2,89h-1.9v-3.9   h1.9V89z M141.2,81.2h-1.9v-3.9h1.9V81.2z M141.2,73.4h-1.9v-3.9h1.9V73.4z M141.2,65.6h-1.9v-3.9h1.9V65.6z M141.2,57.8h-1.9v-3.9   h1.9V57.8z M141.2,50h-1.9v-1h-1v-2h2.9V50z"
   id="path4"
   style="fill:#333333;fill-opacity:1" />
	<g
   id="g10">
		<g
   id="g8">
			<path
   class="st1"
   d="M34,105.1l-3.6,3.6l1.7,1.7L0.3,139.2l0,0l0,0c-1,1,0.7,4.5,3.9,7.6c3.2,3.2,6.6,4.9,7.6,3.9l0,0l0,0     l28.8-31.8l1.7,1.7l3.6-3.6c10.3,5.2,23.2,3.6,31.8-5c10.7-10.7,10.7-28,0-38.7s-28-10.7-38.7,0C30.4,81.9,28.7,94.8,34,105.1z      M43.3,77.6c8.3-8.3,21.8-8.3,30.1,0s8.3,21.8,0,30.1s-21.8,8.3-30.1,0C35.1,99.4,35.1,85.9,43.3,77.6z"
   id="path6"
   style="fill:#ef2929;fill-opacity:1" />
		</g>
	</g>
	<path
   class="st0"
   d="M132.8,99.3c0-9.5-7.7-17.2-17.2-17.2s-17.2,7.7-17.2,17.2c0,6.3,3.4,11.7,8.4,14.7l-2.9,33.3l11.7-11.3   l11.7,11.3l-2.9-33.3C129.5,111,132.8,105.6,132.8,99.3z"
   id="path12"
   style="fill:#ef2929;fill-opacity:1" />
	<g
   id="g22">
		<path
   class="st0"
   d="M66.2,99.7h-2.5v-9.6c-0.9,0.9-2,1.5-3.3,1.9v-2.3c0.7-0.2,1.4-0.6,2.2-1.2s1.3-1.3,1.6-2.1h2.1L66.2,99.7    L66.2,99.7z"
   id="path14"
   style="fill:#333333;fill-opacity:1" />
		<path
   class="st0"
   d="M54.4,86.4c1.3,0,2.3,0.5,3,1.4c0.9,1.1,1.3,2.9,1.3,5.4s-0.4,4.3-1.3,5.4c-0.7,0.9-1.7,1.4-3,1.4    s-2.3-0.5-3.1-1.5s-1.2-2.8-1.2-5.3s0.4-4.3,1.3-5.4C52.2,86.8,53.2,86.4,54.4,86.4z M54.4,88.5c-0.3,0-0.6,0.1-0.8,0.3    c-0.2,0.2-0.4,0.5-0.6,1.1c-0.2,0.7-0.3,1.8-0.3,3.3c0,1.6,0.1,2.6,0.2,3.2c0.2,0.6,0.4,1,0.6,1.2c0.2,0.2,0.5,0.3,0.8,0.3    s0.6-0.1,0.8-0.3c0.2-0.2,0.4-0.5,0.6-1.1c0.2-0.6,0.3-1.8,0.3-3.3c0-1.6-0.1-2.6-0.2-3.2c-0.2-0.6-0.4-1-0.6-1.2    C55,88.6,54.7,88.5,54.4,88.5z"
   id="path16"
   style="fill:#333333;fill-opacity:1" />
		<path
   class="st0"
   d="M44.1,86.4c1.3,0,2.3,0.5,3,1.4c0.9,1.1,1.3,2.9,1.3,5.4s-0.4,4.3-1.3,5.4c-0.7,0.9-1.7,1.4-3,1.4    s-2.3-0.5-3.1-1.5s-1.2-2.8-1.2-5.3s0.4-4.3,1.3-5.4C41.8,86.8,42.8,86.4,44.1,86.4z M44.1,88.5c-0.3,0-0.6,0.1-0.8,0.3    c-0.2,0.2-0.4,0.5-0.6,1.1c-0.2,0.7-0.3,1.8-0.3,3.3c0,1.6,0.1,2.6,0.2,3.2c0.2,0.6,0.4,1,0.6,1.2c0.2,0.2,0.5,0.3,0.8,0.3    s0.6-0.1,0.8-0.3c0.2-0.2,0.4-0.5,0.6-1.1c0.2-0.6,0.3-1.8,0.3-3.3c0-1.6-0.1-2.6-0.2-3.2c-0.2-0.6-0.4-1-0.6-1.2    C44.7,88.6,44.4,88.5,44.1,88.5z"
   id="path18"
   style="fill:#333333;fill-opacity:1" />
		<path
   class="st0"
   d="M72.9,86.4c1.3,0,2.3,0.5,3,1.4c0.9,1.1,1.3,2.9,1.3,5.4s-0.4,4.3-1.3,5.4c-0.7,0.9-1.7,1.4-3,1.4    s-2.3-0.5-3.1-1.5c-0.8-1-1.2-2.8-1.2-5.3s0.4-4.3,1.3-5.4C70.6,86.8,71.6,86.4,72.9,86.4z M72.9,88.5c-0.3,0-0.6,0.1-0.8,0.3    c-0.2,0.2-0.4,0.5-0.6,1.1c-0.2,0.7-0.3,1.8-0.3,3.3c0,1.6,0.1,2.6,0.2,3.2c0.2,0.6,0.4,1,0.6,1.2s0.5,0.3,0.8,0.3    s0.6-0.1,0.8-0.3c0.2-0.2,0.4-0.5,0.6-1.1s0.3-1.8,0.3-3.3c0-1.6-0.1-2.6-0.2-3.2c-0.2-0.6-0.4-1-0.6-1.2    C73.4,88.6,73.2,88.5,72.9,88.5z"
   id="path20"
   style="fill:#333333;fill-opacity:1" />
	</g>
</g>
</svg>
