<?xml version="1.0" encoding="UTF-8" standalone="no"?>
<svg
   xmlns:dc="http://purl.org/dc/elements/1.1/"
   xmlns:cc="http://creativecommons.org/ns#"
   xmlns:rdf="http://www.w3.org/1999/02/22-rdf-syntax-ns#"
   xmlns:svg="http://www.w3.org/2000/svg"
   xmlns="http://www.w3.org/2000/svg"
   xmlns:sodipodi="http://sodipodi.sourceforge.net/DTD/sodipodi-0.dtd"
   xmlns:inkscape="http://www.inkscape.org/namespaces/inkscape"
   inkscape:version="1.0 (4035a4fb49, 2020-05-01)"
   sodipodi:docname="img-testyourserver.svg"
   xml:space="preserve"
   style="enable-background:new 0 0 150 190;"
   viewBox="0 0 150 190"
   height="190px"
   width="150px"
   y="0px"
   x="0px"
   id="Layer_1"
   version="1.1"><metadata
   id="metadata33"><rdf:RDF><cc:Work
       rdf:about=""><dc:format>image/svg+xml</dc:format><dc:type
         rdf:resource="http://purl.org/dc/dcmitype/StillImage" /></cc:Work></rdf:RDF></metadata><defs
   id="defs31" /><sodipodi:namedview
   inkscape:current-layer="g18"
   inkscape:window-maximized="1"
   inkscape:window-y="-8"
   inkscape:window-x="-8"
   inkscape:cy="95"
   inkscape:cx="75"
   inkscape:zoom="4.4736842"
   showgrid="false"
   id="namedview29"
   inkscape:window-height="1017"
   inkscape:window-width="2560"
   inkscape:pageshadow="2"
   inkscape:pageopacity="0"
   guidetolerance="10"
   gridtolerance="10"
   objecttolerance="10"
   borderopacity="1"
   bordercolor="#666666"
   pagecolor="#ffffff" />
<style
   id="style2"
   type="text/css">
	.st0{fill:#2A2F6C;}
	.st1{fill:#54A446;}
</style>
<g
   id="g12">
	<g
   id="g6">
		<polygon
   style="fill:#333333;fill-opacity:1"
   id="polygon4"
   points="78.1,58.7 110.7,58.7 78.1,26.1   "
   class="st0" />
	</g>
	<g
   id="g10">
		<path
   style="fill:#333333;fill-opacity:1"
   id="path8"
   d="M78.1,61.6h-2.9v-2.9V26.1H17.8v109.2h37.8c1.4-5,4.1-9,8.2-12.1H29.3v-3h38.9c0.2-0.2,0.4-0.4,0.5-0.6    c3.8-6.4,9.8-11,16.6-13.1h-56v-2.9h69.8v2.1c4.4,0.8,8.2,2.3,11.5,4.6V61.6H78.1z M54.2,37.4h12.1v2.9H54.2V37.4z M54.2,53.9    h12.1v2.9H54.2V53.9z M29.3,51.9h4.7c0,2.4,1.5,4,3.5,4.4v-6.9c-0.2-0.1-0.6-0.2-1.1-0.3c-3.3-0.9-6.6-2.2-6.6-6.6    c0-4.5,3.7-6.8,7.6-7v-2.5h1.9v2.5c3.9,0.5,7.2,2.4,7.4,7h-4.7c0-1.8-1.2-3.1-2.7-3.1v5.8c0.5,0.2,1.1,0.2,1.7,0.5    c6.4,1.8,6.6,5.4,6.6,7.6c0,1.9-1.7,6.5-8.2,6.9v2.8h-1.9v-2.8C32.6,59.7,29.7,57.1,29.3,51.9z M99.1,90H29.3v-2.9h69.8V90z     M99.1,73.4H29.3v-2.9h69.8V73.4z"
   class="st0" />
	</g>
</g>
<g
   id="g18">
	<path
   style="fill:#ef2929;fill-opacity:1"
   id="path14"
   d="M56.5,143.1c0-1.1,0-2.1,0-3.1c0.1-0.2,0.2-0.4,0.2-0.5c1-8,5-13.9,12.2-17.6c0.5-0.2,0.9-0.7,1.2-1.1   c6-9.8,17.3-15.3,28.6-13.4c8.8,1.4,15.4,6,20.1,13.5c0.2,0.5,0.7,0.8,1.1,1.1c6.2,3.2,10.2,8.2,11.8,15c0.2,1.1,0.4,2.1,0.6,3.3   c0,1.1,0,2.1,0,3.1c-0.2,0.8-0.2,1.5-0.4,2.3c-2.4,13.3-15.8,21.3-28.6,17.2c-0.3-0.1-0.8-0.1-1.1,0c-5.2,1.5-10.3,1.5-15.5,0   c-0.4-0.1-0.8-0.1-1.3,0.1c-3.1,1-6.3,1.3-9.5,0.9c-9.2-1.1-16.8-8-18.8-17C56.9,145.3,56.8,144.2,56.5,143.1z M114,151   c-13.1,0-26.1,0-39.2,0C84,163.2,103.8,164,114,151z M94.4,141.6c2.7,0,5.1-1.8,6-4.4s0-5.3-2.1-7.1c-0.5-0.4-0.8-0.9-1-1.5   c-0.5-2.1-0.8-4.1-1.2-6.1c-0.2-1-0.8-1.6-1.7-1.6c-0.8,0-1.5,0.5-1.6,1.5c-0.4,1.9-0.8,3.8-1.1,5.8c-0.2,0.8-0.5,1.5-1.2,2   c-2.1,1.6-2.9,4.4-2,6.9C89.3,139.9,91.7,141.6,94.4,141.6z M94.4,116.3c0.8,0,1.6-0.7,1.7-1.5c0.1-0.8-0.7-1.6-1.5-1.7   c-0.9,0-1.7,0.7-1.7,1.5C92.8,115.5,93.5,116.3,94.4,116.3z M84.9,117.8c0-0.8-0.8-1.6-1.6-1.6c-0.9,0-1.6,0.8-1.6,1.7   s0.8,1.5,1.6,1.5C84.3,119.4,85,118.7,84.9,117.8z M107,117.9c0-0.9-0.7-1.6-1.5-1.6c-0.9,0-1.6,0.7-1.6,1.5c0,0.9,0.7,1.7,1.6,1.7   C106.3,119.5,107,118.8,107,117.9z M78.7,124.2c0-0.9-0.7-1.6-1.6-1.5c-0.9,0-1.6,0.7-1.6,1.6c0,0.9,0.8,1.6,1.7,1.6   C78,125.8,78.7,125.1,78.7,124.2z M113.3,124.2c0-0.9-0.7-1.6-1.6-1.6c-0.9,0-1.6,0.7-1.6,1.7c0,0.9,0.8,1.5,1.6,1.5   C112.6,125.8,113.3,125.1,113.3,124.2z M114.9,132.1c-0.9,0-1.6,0.7-1.6,1.5c0,0.9,0.7,1.7,1.6,1.6c0.9,0,1.6-0.7,1.6-1.6   C116.5,132.8,115.8,132.1,114.9,132.1z M78.7,143.1c0-0.9-0.7-1.5-1.6-1.5c-0.9,0-1.6,0.7-1.6,1.6c0,0.9,0.7,1.6,1.6,1.6   C78,144.7,78.7,144,78.7,143.1z M75.5,133.6c0-0.9-0.7-1.6-1.6-1.6s-1.6,0.7-1.6,1.6c0,0.9,0.7,1.6,1.6,1.6S75.5,134.5,75.5,133.6z    M113.3,143.1c0-0.9-0.7-1.6-1.6-1.5c-0.9,0-1.6,0.7-1.6,1.6c0,0.9,0.8,1.6,1.6,1.6C112.6,144.7,113.3,144,113.3,143.1z"
   class="st1" />
	<path
   style="fill:#333333;fill-opacity:1"
   id="path16"
   d="M94.3,157.3c-1.5,0-3,0-4.5,0c-1.1,0-1.7-0.6-1.8-1.5c0-0.9,0.7-1.6,1.8-1.6c3,0,6,0,9,0   c1.1,0,1.8,0.6,1.8,1.5s-0.7,1.5-1.8,1.5C97.4,157.3,95.9,157.3,94.3,157.3z"
   class="st0" />
</g>
<g
   id="g22">
	<path
   id="path20"
   d="M43.1,52.9c0-1.8-1-2.4-3.7-3.2v6.6C41,56.1,43.1,55.2,43.1,52.9z"
   class="st0" />
</g>
<g
   id="g26">
	<path
   id="path24"
   d="M37.5,39.3c-1.5,0-3.1,0.9-3.1,2.8c0,1.5,0.9,2.2,3.1,2.7V39.3z"
   class="st0" />
</g>
</svg>
