<?xml version="1.0" encoding="UTF-8" standalone="no"?>
<svg
   xmlns:dc="http://purl.org/dc/elements/1.1/"
   xmlns:cc="http://creativecommons.org/ns#"
   xmlns:rdf="http://www.w3.org/1999/02/22-rdf-syntax-ns#"
   xmlns:svg="http://www.w3.org/2000/svg"
   xmlns="http://www.w3.org/2000/svg"
   xmlns:sodipodi="http://sodipodi.sourceforge.net/DTD/sodipodi-0.dtd"
   xmlns:inkscape="http://www.inkscape.org/namespaces/inkscape"
   inkscape:version="1.0 (4035a4fb49, 2020-05-01)"
   sodipodi:docname="img-sslchecker.svg"
   xml:space="preserve"
   style="enable-background:new 0 0 150 190;"
   viewBox="0 0 150 190"
   height="190px"
   width="150px"
   y="0px"
   x="0px"
   id="Layer_1"
   version="1.1"><metadata
   id="metadata59"><rdf:RDF><cc:Work
       rdf:about=""><dc:format>image/svg+xml</dc:format><dc:type
         rdf:resource="http://purl.org/dc/dcmitype/StillImage" /></cc:Work></rdf:RDF></metadata><defs
   id="defs57" /><sodipodi:namedview
   inkscape:current-layer="g48"
   inkscape:window-maximized="1"
   inkscape:window-y="-8"
   inkscape:window-x="-8"
   inkscape:cy="95"
   inkscape:cx="75"
   inkscape:zoom="4.4736842"
   showgrid="false"
   id="namedview55"
   inkscape:window-height="1017"
   inkscape:window-width="2560"
   inkscape:pageshadow="2"
   inkscape:pageopacity="0"
   guidetolerance="10"
   gridtolerance="10"
   objecttolerance="10"
   borderopacity="1"
   bordercolor="#666666"
   pagecolor="#ffffff" />
<style
   id="style2"
   type="text/css">
	.st0{fill:none;}
	.st1{fill:#2A2F6C;}
	.st2{fill:#54A446;}
</style>
<g
   id="g52">
	<g
   id="g6">
		<path
   id="path4"
   d="M119.5,41h-10.8v10.8h10.8V41z M117.9,50.2h-7.6v-7.6h7.6V50.2z"
   class="st0" />
	</g>
	<g
   id="g10">
		<polygon
   id="polygon8"
   points="127.4,51.8 130.6,48.6 133.7,51.8 135.9,49.6 132.8,46.4 135.9,43.2 133.7,41 130.6,44.2 127.4,41     125.2,43.2 128.4,46.4 125.2,49.6   "
   class="st0" />
	</g>
	<g
   id="g14">
		<rect
   id="rect12"
   height="3.1"
   width="12.1"
   class="st0"
   y="44.8"
   x="92.1" />
	</g>
	<rect
   style="fill:#333333;fill-opacity:1"
   id="rect16"
   height="7.6"
   width="7.6"
   class="st1"
   y="42.6"
   x="110.3" />
	<path
   id="path18"
   d="M63.5,81.3c-0.7-0.4-1.5-0.5-2.4-0.5c-1.5,0-2.7,0.6-3.7,1.7v-6.2h-2.1v17.2h2.1v-6.8c0-1,0.1-1.7,0.4-2.3   c0.2-0.6,0.6-1,1.2-1.3c0.6-0.3,1.1-0.5,1.8-0.5c0.8,0,1.5,0.2,1.9,0.7c0.5,0.5,0.7,1.2,0.7,2.3v7.9h2.1v-7.9   c0-1.2-0.1-2.2-0.4-2.8C64.7,82.2,64.2,81.7,63.5,81.3z"
   class="st0" />
	<path
   id="path20"
   d="M72.3,91.7c-0.3,0-0.6-0.1-0.7-0.2c-0.2-0.1-0.3-0.2-0.4-0.4c-0.1-0.2-0.1-0.6-0.1-1.2v-7.3h2.1V81h-2.1v-4.4   L69,78v3.1h-1.5v1.6H69v7.2c0,1.3,0.1,2.1,0.3,2.5c0.2,0.4,0.5,0.7,0.9,1c0.4,0.2,1,0.4,1.8,0.4c0.5,0,1-0.1,1.6-0.2l-0.3-1.9   C72.8,91.7,72.5,91.7,72.3,91.7z"
   class="st0" />
	<path
   id="path22"
   d="M46.2,81.7h-12c-0.8,0-1.4,0.6-1.4,1.4v10c0,0.8,0.6,1.4,1.4,1.4h12c0.8,0,1.4-0.6,1.4-1.4v-10   C47.6,82.4,47,81.7,46.2,81.7z"
   class="st0" />
	<path
   id="path24"
   d="M36.9,80.9L36.9,80.9c0-1.9,1.4-3.3,3.2-3.3s3.2,1.4,3.2,3.2v0.1h2.2v-0.1c0-3-2.5-5.5-5.5-5.5   s-5.5,2.4-5.5,5.5v0.1C34.5,80.9,36.9,80.9,36.9,80.9z"
   class="st0" />
	<path
   id="path26"
   d="M91.3,81.6c-0.8-0.5-1.7-0.8-2.8-0.8c-0.8,0-1.5,0.2-2.1,0.5s-1.1,0.8-1.5,1.4v-1.6H83v17.2h2v-6.1   c0.4,0.5,0.8,0.8,1.4,1.1c0.6,0.3,1.2,0.4,1.9,0.4c1,0,1.9-0.3,2.8-0.8s1.5-1.3,2-2.3s0.7-2.2,0.7-3.4c0-1.2-0.2-2.3-0.6-3.3   C92.7,82.9,92.1,82.1,91.3,81.6z M90.6,90.9c-0.7,0.8-1.5,1.2-2.4,1.2s-1.7-0.4-2.4-1.2c-0.6-0.8-1-1.9-1-3.6c0-1.6,0.3-2.8,1-3.7   c0.7-0.8,1.5-1.3,2.4-1.3s1.7,0.4,2.3,1.2c0.7,0.8,1,2,1,3.6C91.6,88.9,91.2,90.1,90.6,90.9z"
   class="st0" />
	<path
   id="path28"
   d="M79.9,91.7c-0.3,0-0.6-0.1-0.7-0.2c-0.2-0.1-0.3-0.2-0.4-0.4c-0.1-0.2-0.1-0.6-0.1-1.2v-7.3h2.1V81h-2.1v-4.4   L76.6,78v3.1h-1.5v1.6h1.5v7.2c0,1.3,0.1,2.1,0.3,2.5c0.2,0.4,0.5,0.7,0.9,1s1,0.4,1.8,0.4c0.5,0,1-0.1,1.6-0.2l-0.3-1.9   C80.5,91.7,80.2,91.7,79.9,91.7z"
   class="st0" />
	<polygon
   id="polygon30"
   points="133.7,51.8 135.9,49.6 132.8,46.4 135.9,43.2 133.7,41 130.6,44.2 127.4,41 125.2,43.2 128.4,46.4    125.2,49.6 127.4,51.8 130.6,48.6  "
   class="st0" />
	<rect
   id="rect32"
   height="10.8"
   width="10.8"
   class="st0"
   y="41"
   x="108.7" />
	<path
   id="path34"
   d="M103.9,86.9c-0.6-0.3-1.6-0.6-3.1-1c-1-0.3-1.7-0.5-1.9-0.5c-0.4-0.1-0.6-0.3-0.8-0.6   c-0.2-0.2-0.3-0.5-0.3-0.7c0-0.4,0.2-0.8,0.6-1.1c0.4-0.3,1.1-0.5,2.1-0.5c0.8,0,1.5,0.2,1.9,0.5c0.4,0.4,0.7,0.9,0.8,1.5l2.1-0.3   c-0.1-0.8-0.4-1.4-0.7-1.9c-0.4-0.5-0.9-0.9-1.6-1.1c-0.7-0.3-1.6-0.4-2.6-0.4c-0.6,0-1.3,0.1-1.8,0.3c-0.6,0.2-1,0.4-1.3,0.6   c-0.4,0.3-0.8,0.7-1,1.2c-0.3,0.5-0.4,1-0.4,1.5c0,0.6,0.2,1.2,0.5,1.7s0.8,0.9,1.4,1.2c0.6,0.3,1.7,0.6,3.2,1   c1.1,0.3,1.9,0.5,2.2,0.7c0.4,0.3,0.6,0.6,0.6,1.1s-0.2,1-0.7,1.4s-1.2,0.6-2.2,0.6s-1.7-0.2-2.2-0.7c-0.5-0.4-0.9-1.1-1-1.9   l-2.1,0.3c0.2,1.3,0.8,2.3,1.6,3c0.8,0.7,2.1,1,3.7,1c1,0,1.9-0.2,2.6-0.5c0.8-0.3,1.4-0.8,1.8-1.4s0.6-1.3,0.6-2s-0.2-1.3-0.5-1.8   C104.9,87.6,104.5,87.2,103.9,86.9z"
   class="st0" />
	<rect
   id="rect36"
   height="3.1"
   width="12.1"
   class="st0"
   y="44.8"
   x="92.1" />
	<g
   id="g42">
		<polygon
   style="fill:#333333;fill-opacity:1"
   id="polygon38"
   points="124,146.5 129.8,146.5 140.1,146.5 140.1,136.1 140.1,118.6   "
   class="st1" />
		<path
   style="fill:#333333;fill-opacity:1"
   id="path40"
   d="M0,36.3v99.9l0,0v10.4h83.7l-10.3-10.3l-0.1-0.1h-63v-79h119.4v11.3H39.1c-9.6,0-17.4,7.8-17.4,17.4    s7.8,17.4,17.4,17.4h70.3l14.7-25.4c3.1-5.3,8.8-8.6,14.9-8.6c0.4,0,0.8,0,1.2,0v-33L0,36.3L0,36.3z M40.2,75.4    c3,0,5.5,2.4,5.5,5.5V81h-2.2v-0.1c0-1.8-1.4-3.2-3.2-3.2s-3.2,1.4-3.2,3.2V81h-2.2v-0.1C34.7,77.8,37.1,75.4,40.2,75.4z     M47.6,93.1c0,0.8-0.6,1.4-1.4,1.4h-12c-0.8,0-1.4-0.6-1.4-1.4v-10c0-0.8,0.6-1.4,1.4-1.4h12c0.8,0,1.4,0.6,1.4,1.4V93.1z     M65.4,93.5h-2.1v-7.9c0-1.1-0.2-1.8-0.7-2.3s-1.1-0.7-1.9-0.7c-0.6,0-1.2,0.2-1.8,0.5c-0.5,0.3-0.9,0.8-1.2,1.3    c-0.2,0.6-0.4,1.3-0.4,2.3v6.8h-2.1V76.3h2.1v6.2c1-1.1,2.2-1.7,3.7-1.7c0.9,0,1.7,0.2,2.4,0.5c0.7,0.4,1.2,0.9,1.5,1.5    s0.4,1.6,0.4,2.8L65.4,93.5L65.4,93.5z M71.9,93.7c-0.8,0-1.4-0.1-1.8-0.4c-0.4-0.2-0.7-0.6-0.9-1C69.1,92,69,91.1,69,89.9v-7.2    h-1.5v-1.6H69V78l2.1-1.3v4.4h2.1v1.6h-2.1V90c0,0.6,0,1,0.1,1.2s0.2,0.3,0.4,0.4c0.2,0.1,0.4,0.2,0.7,0.2c0.2,0,0.5,0,0.9-0.1    l0.3,1.9C72.9,93.6,72.4,93.7,71.9,93.7z M79.6,93.7c-0.8,0-1.4-0.1-1.8-0.4c-0.4-0.2-0.7-0.6-0.9-1c-0.2-0.4-0.3-1.2-0.3-2.5    v-7.2h-1.5V81h1.5v-3l2.1-1.3v4.4h2.1v1.6h-2.1V90c0,0.6,0,1,0.1,1.2s0.2,0.3,0.4,0.4c0.2,0.1,0.4,0.2,0.7,0.2    c0.2,0,0.5,0,0.9-0.1l0.3,1.9C80.6,93.6,80,93.7,79.6,93.7z M93,90.6c-0.5,1-1.1,1.8-2,2.3s-1.8,0.8-2.8,0.8    c-0.7,0-1.3-0.1-1.9-0.4s-1-0.7-1.4-1.1v6.1h-2.1V81.1h1.9v1.6c0.5-0.6,1-1.1,1.5-1.4c0.6-0.3,1.3-0.5,2.1-0.5    c1.1,0,2,0.3,2.8,0.8s1.4,1.3,1.8,2.3s0.6,2.1,0.6,3.3C93.7,88.5,93.5,89.6,93,90.6z M105.2,91.8c-0.4,0.6-1,1.1-1.8,1.4    s-1.7,0.5-2.6,0.5c-1.6,0-2.9-0.3-3.7-1c-0.8-0.7-1.4-1.7-1.6-3l2.1-0.3c0.1,0.8,0.4,1.5,1,1.9c0.5,0.4,1.3,0.7,2.2,0.7    c1,0,1.7-0.2,2.2-0.6s0.7-0.9,0.7-1.4s-0.2-0.9-0.6-1.1c-0.3-0.2-1-0.4-2.2-0.7c-1.5-0.4-2.6-0.7-3.2-1s-1.1-0.7-1.4-1.2    s-0.5-1.1-0.5-1.7s0.1-1.1,0.4-1.5c0.3-0.5,0.6-0.9,1-1.2c0.3-0.2,0.8-0.4,1.3-0.6c0.6-0.2,1.2-0.3,1.8-0.3c1,0,1.8,0.1,2.6,0.4    c0.7,0.3,1.3,0.7,1.6,1.1c0.4,0.5,0.6,1.1,0.7,1.9l-2.1,0.3c-0.1-0.6-0.4-1.1-0.8-1.5c-0.5-0.4-1.1-0.5-1.9-0.5    c-1,0-1.7,0.2-2.1,0.5s-0.6,0.7-0.6,1.1c0,0.3,0.1,0.5,0.3,0.7c0.2,0.2,0.4,0.4,0.8,0.6c0.2,0.1,0.8,0.3,1.9,0.5    c1.5,0.4,2.5,0.7,3.1,1s1.1,0.6,1.4,1.1s0.5,1.1,0.5,1.8C105.8,90.6,105.6,91.2,105.2,91.8z M104.2,47.9H92.1v-3.1h12.1V47.9z     M119.5,51.8h-10.8V41h10.8V51.8z M135.9,49.6l-2.2,2.2l-3.2-3.2l-3.2,3.2l-2.2-2.2l3.2-3.2l-3.2-3.2l2.2-2.2l3.2,3.2l3.2-3.2    l2.2,2.2l-3.2,3.2L135.9,49.6z"
   class="st1" />
	</g>
	<path
   style="fill:#333333;fill-opacity:1"
   id="path44"
   d="M88.3,82.4c-0.9,0-1.7,0.4-2.4,1.3c-0.7,0.8-1,2.1-1,3.7s0.3,2.8,1,3.6c0.6,0.8,1.4,1.2,2.4,1.2   c0.9,0,1.7-0.4,2.4-1.2c0.7-0.8,1-2,1-3.7c0-1.6-0.3-2.8-1-3.6C89.9,82.8,89.2,82.4,88.3,82.4z"
   class="st1" />
	<g
   id="g50">
		<g
   id="g48">
			<path
   style="fill:#ef2929;fill-opacity:1"
   id="path46"
   d="M97.8,151.9l-20-20c-4.3-4.3-4.3-11.3,0-15.7l0,0c4.3-4.3,11.3-4.3,15.7,0l0,0l9.8,9.8l26.1-45.2     c3.1-5.3,9.8-7.1,15.1-4l0,0c5.3,3.1,7.1,9.8,4,15.1l0,0l-33.3,57.7c-1.7,3-4.7,5-8.1,5.4l0,0c-0.5,0.1-1,0.1-1.4,0.1l0,0     C102.7,155.1,99.8,154,97.8,151.9L97.8,151.9z"
   class="st2" />
		</g>
	</g>
</g>
</svg>
