<?xml version="1.0" encoding="UTF-8" standalone="no"?>
<svg
   xmlns:dc="http://purl.org/dc/elements/1.1/"
   xmlns:cc="http://creativecommons.org/ns#"
   xmlns:rdf="http://www.w3.org/1999/02/22-rdf-syntax-ns#"
   xmlns:svg="http://www.w3.org/2000/svg"
   xmlns="http://www.w3.org/2000/svg"
   xmlns:sodipodi="http://sodipodi.sourceforge.net/DTD/sodipodi-0.dtd"
   xmlns:inkscape="http://www.inkscape.org/namespaces/inkscape"
   inkscape:version="1.0 (4035a4fb49, 2020-05-01)"
   sodipodi:docname="img-csrdecoder.svg"
   xml:space="preserve"
   style="enable-background:new 0 0 150 190;"
   viewBox="0 0 150 190"
   height="190px"
   width="150px"
   y="0px"
   x="0px"
   id="Layer_1"
   version="1.1"><metadata
   id="metadata137"><rdf:RDF><cc:Work
       rdf:about=""><dc:format>image/svg+xml</dc:format><dc:type
         rdf:resource="http://purl.org/dc/dcmitype/StillImage" /></cc:Work></rdf:RDF></metadata><defs
   id="defs135" /><sodipodi:namedview
   inkscape:current-layer="g116"
   inkscape:window-maximized="1"
   inkscape:window-y="-8"
   inkscape:window-x="-8"
   inkscape:cy="95"
   inkscape:cx="7.0167286"
   inkscape:zoom="2.8315789"
   showgrid="false"
   id="namedview133"
   inkscape:window-height="1017"
   inkscape:window-width="2560"
   inkscape:pageshadow="2"
   inkscape:pageopacity="0"
   guidetolerance="10"
   gridtolerance="10"
   objecttolerance="10"
   borderopacity="1"
   bordercolor="#666666"
   pagecolor="#ffffff"
   inkscape:document-rotation="0" />
<style
   id="style2"
   type="text/css">
	.st0{fill:#2A2F6C;}
	.st1{fill:#FFFFFF;}
	.st2{fill:#54A446;}
</style>
<g
   id="g130">
	<path
   style="fill:#333333;fill-opacity:1"
   id="path4"
   d="M56.3,95.4c7.2-7.3,16.8-11.3,26.9-11.3c10.2,0,19.7,4,26.9,11.3c0.4,0.4,0.8,0.8,1.2,1.2V0H0v139.4h49   C42,125.1,44.5,107.3,56.3,95.4z M73.1,14.8h15.8c5.2,0,8.6,3.7,8.6,8.1c0,3.5-1.4,6.1-4.6,7.4v0.1c3.1,0.8,4.1,3.9,4.3,6.9   c0.1,1.9,0.1,5.3,1.2,7H92c-0.8-1.9-0.7-4.7-1-7.1c-0.5-3.1-1.6-4.5-4.9-4.5h-6.4v11.5h-6.4V14.8H73.1z M29.3,45   c-9,0-14.4-6.8-14.4-15.3c0-8.8,5.3-15.6,14.4-15.6c6.4,0,11.8,3.8,12.6,10.6h-6.2c-0.4-2.9-3.2-5.2-6.4-5.2c-5.8,0-7.9,5-7.9,10.1   c0,4.9,2.2,9.9,7.9,9.9c3.9,0,6.1-2.7,6.6-6.6h6.2C41.5,40.3,36.5,45,29.3,45z M54.4,31.4c-4.3-1.2-8.7-2.8-8.7-8.4   c0-6,5.7-8.9,10.9-8.9c6.1,0,11.7,2.7,11.7,9.5h-6.2c-0.2-3.6-2.7-4.5-5.8-4.5c-2,0-4.4,0.9-4.4,3.3c0,2.3,1.4,2.6,8.7,4.5   c2.1,0.5,8.7,1.9,8.7,8.6c0,5.4-4.2,9.5-12.2,9.5c-6.5,0-12.5-3.2-12.4-10.5h6.2c0,3.9,3,5.5,6.5,5.5c2.2,0,5.7-0.7,5.7-3.7   C63.1,33.1,58.7,32.5,54.4,31.4z"
   class="st0" />
	<path
   id="path6"
   d="M54,81.1h-2.2v-8.2c-0.8,0.7-1.7,1.3-2.8,1.7v-2c0.6-0.2,1.2-0.5,1.8-1.1c0.7-0.5,1.1-1.1,1.4-1.8H54V81.1z"
   class="st1" />
	<path
   id="path8"
   d="M60.9,69.6c1.1,0,1.9,0.4,2.6,1.2c0.7,0.9,1.1,2.5,1.1,4.6c0,2.2-0.4,3.7-1.1,4.7c-0.6,0.8-1.5,1.2-2.6,1.2   s-2-0.4-2.7-1.3s-1-2.4-1-4.6c0-2.1,0.4-3.7,1.1-4.6C58.9,70,59.8,69.6,60.9,69.6z M60.9,71.4c-0.3,0-0.5,0.1-0.7,0.3   c-0.2,0.2-0.4,0.5-0.5,0.9c-0.1,0.6-0.2,1.5-0.2,2.9c0,1.3,0.1,2.3,0.2,2.8c0.1,0.5,0.3,0.8,0.5,1s0.4,0.2,0.7,0.2s0.5-0.1,0.7-0.3   c0.2-0.2,0.4-0.5,0.5-0.9c0.1-0.6,0.2-1.5,0.2-2.8s-0.1-2.3-0.2-2.8c-0.1-0.5-0.3-0.8-0.5-1S61.1,71.4,60.9,71.4z"
   class="st1" />
	<path
   id="path10"
   d="M69.7,69.6c1.1,0,1.9,0.4,2.6,1.2c0.7,0.9,1.1,2.5,1.1,4.6c0,2.2-0.4,3.7-1.1,4.7c-0.6,0.8-1.5,1.2-2.6,1.2   s-2-0.4-2.7-1.3s-1-2.4-1-4.6c0-2.1,0.4-3.7,1.1-4.6C67.7,70,68.6,69.6,69.7,69.6z M69.7,71.4c-0.3,0-0.5,0.1-0.7,0.3   c-0.2,0.2-0.4,0.5-0.5,0.9c-0.2,0.6-0.2,1.5-0.2,2.9c0,1.3,0.1,2.3,0.2,2.8s0.3,0.8,0.5,1s0.4,0.2,0.7,0.2c0.3,0,0.5-0.1,0.7-0.3   c0.2-0.2,0.4-0.5,0.5-0.9c0.1-0.6,0.2-1.5,0.2-2.8s-0.1-2.3-0.2-2.8s-0.3-0.8-0.5-1C70.1,71.5,69.9,71.4,69.7,71.4z"
   class="st1" />
	<path
   id="path12"
   d="M80.3,81.1h-2.2v-8.2c-0.8,0.7-1.7,1.3-2.8,1.7v-2c0.6-0.2,1.2-0.5,1.8-1.1c0.7-0.5,1.1-1.1,1.4-1.8h1.8   C80.3,69.7,80.3,81.1,80.3,81.1z"
   class="st1" />
	<path
   id="path14"
   d="M87.2,69.6c1.1,0,2,0.4,2.6,1.2c0.7,0.9,1.1,2.5,1.1,4.6c0,2.2-0.4,3.7-1.1,4.7c-0.6,0.8-1.5,1.2-2.6,1.2   s-2-0.4-2.7-1.3s-1-2.4-1-4.6c0-2.1,0.4-3.7,1.1-4.6C85.3,70,86.1,69.6,87.2,69.6z M87.2,71.4c-0.3,0-0.5,0.1-0.7,0.3   c-0.2,0.2-0.4,0.5-0.5,0.9c-0.1,0.6-0.2,1.5-0.2,2.9c0,1.3,0.1,2.3,0.2,2.8s0.3,0.8,0.5,1s0.4,0.2,0.7,0.2c0.3,0,0.5-0.1,0.7-0.3   c0.2-0.2,0.4-0.5,0.5-0.9c0.1-0.6,0.2-1.5,0.2-2.8s-0.1-2.3-0.2-2.8s-0.3-0.8-0.5-1S87.5,71.4,87.2,71.4z"
   class="st1" />
	<path
   id="path16"
   d="M97.9,81.1h-2.2v-8.2c-0.8,0.7-1.7,1.3-2.8,1.7v-2c0.6-0.2,1.2-0.5,1.8-1.1c0.7-0.5,1.1-1.1,1.4-1.8h1.8   C97.9,69.7,97.9,81.1,97.9,81.1z"
   class="st1" />
	<path
   id="path18"
   d="M18.1,69.6c1.1,0,1.9,0.4,2.6,1.2c0.7,0.9,1.1,2.5,1.1,4.6c0,2.2-0.4,3.7-1.1,4.7c-0.6,0.8-1.5,1.2-2.6,1.2   s-2-0.4-2.7-1.3s-1-2.4-1-4.6c0-2.1,0.4-3.7,1.1-4.6C16.2,70,17,69.6,18.1,69.6z M18.1,71.4c-0.3,0-0.5,0.1-0.7,0.3   c-0.2,0.2-0.4,0.5-0.5,0.9c-0.2,0.6-0.2,1.5-0.2,2.9c0,1.3,0.1,2.3,0.2,2.8s0.3,0.8,0.5,1s0.4,0.2,0.7,0.2c0.3,0,0.5-0.1,0.7-0.3   c0.2-0.2,0.4-0.5,0.5-0.9c0.1-0.6,0.2-1.5,0.2-2.8s-0.1-2.3-0.2-2.8s-0.3-0.8-0.5-1S18.4,71.4,18.1,71.4z"
   class="st1" />
	<path
   id="path20"
   d="M28.8,81.1h-2.2v-8.2c-0.8,0.7-1.7,1.3-2.8,1.7v-2c0.6-0.2,1.2-0.5,1.8-1.1c0.7-0.5,1.1-1.1,1.4-1.8h1.8   C28.8,69.7,28.8,81.1,28.8,81.1z"
   class="st1" />
	<path
   id="path22"
   d="M35.7,69.6c1.1,0,1.9,0.4,2.6,1.2c0.7,0.9,1.1,2.5,1.1,4.6c0,2.2-0.4,3.7-1.1,4.7c-0.6,0.8-1.5,1.2-2.6,1.2   s-2-0.4-2.7-1.3s-1-2.4-1-4.6c0-2.1,0.4-3.7,1.1-4.6C33.8,70,34.6,69.6,35.7,69.6z M35.7,71.4c-0.3,0-0.5,0.1-0.7,0.3   c-0.2,0.2-0.4,0.5-0.5,0.9c-0.1,0.6-0.2,1.5-0.2,2.9c0,1.3,0.1,2.3,0.2,2.8c0.1,0.5,0.3,0.8,0.5,1s0.4,0.2,0.7,0.2s0.5-0.1,0.7-0.3   c0.2-0.2,0.4-0.5,0.5-0.9c0.1-0.6,0.2-1.5,0.2-2.8s-0.1-2.3-0.2-2.8c-0.1-0.5-0.3-0.8-0.5-1S36,71.4,35.7,71.4z"
   class="st1" />
	<path
   id="path24"
   d="M46.4,81.1h-2.2v-8.2c-0.8,0.7-1.7,1.3-2.8,1.7v-2c0.6-0.2,1.2-0.5,1.8-1.1c0.7-0.5,1.1-1.1,1.4-1.8h1.8V81.1z   "
   class="st1" />
	<path
   id="path26"
   d="M54,66.6h-2.2v-8.2C51,59.1,50.1,59.6,49,60v-2c0.6-0.2,1.2-0.5,1.8-1.1c0.7-0.5,1.1-1.1,1.4-1.8H54V66.6z"
   class="st1" />
	<path
   id="path28"
   d="M60.9,55.1c1.1,0,1.9,0.4,2.6,1.2c0.7,0.9,1.1,2.5,1.1,4.6c0,2.2-0.4,3.7-1.1,4.7c-0.6,0.8-1.5,1.2-2.6,1.2   s-2-0.4-2.7-1.3s-1-2.4-1-4.6c0-2.1,0.4-3.7,1.1-4.6C58.9,55.5,59.8,55.1,60.9,55.1z M60.9,56.9c-0.3,0-0.5,0.1-0.7,0.3   s-0.4,0.5-0.5,0.9c-0.1,0.6-0.2,1.5-0.2,2.9c0,1.3,0.1,2.3,0.2,2.8c0.1,0.5,0.3,0.8,0.5,1s0.4,0.2,0.7,0.2s0.5-0.1,0.7-0.3   c0.2-0.2,0.4-0.5,0.5-0.9c0.1-0.6,0.2-1.5,0.2-2.8s-0.1-2.3-0.2-2.8c-0.1-0.5-0.3-0.8-0.5-1C61.4,57,61.1,56.9,60.9,56.9z"
   class="st1" />
	<path
   id="path30"
   d="M69.7,55.1c1.1,0,1.9,0.4,2.6,1.2c0.7,0.9,1.1,2.5,1.1,4.6c0,2.2-0.4,3.7-1.1,4.7c-0.6,0.8-1.5,1.2-2.6,1.2   s-2-0.4-2.7-1.3s-1-2.4-1-4.6c0-2.1,0.4-3.7,1.1-4.6C67.7,55.5,68.6,55.1,69.7,55.1z M69.7,56.9c-0.3,0-0.5,0.1-0.7,0.3   s-0.4,0.5-0.5,0.9c-0.2,0.6-0.2,1.5-0.2,2.9c0,1.3,0.1,2.3,0.2,2.8s0.3,0.8,0.5,1s0.4,0.2,0.7,0.2c0.3,0,0.5-0.1,0.7-0.3   c0.2-0.2,0.4-0.5,0.5-0.9c0.1-0.6,0.2-1.5,0.2-2.8s-0.1-2.3-0.2-2.8s-0.3-0.8-0.5-1C70.1,57,69.9,56.9,69.7,56.9z"
   class="st1" />
	<path
   id="path32"
   d="M80.3,66.6h-2.2v-8.2c-0.8,0.7-1.7,1.3-2.8,1.7v-2c0.6-0.2,1.2-0.5,1.8-1.1c0.7-0.5,1.1-1.1,1.4-1.8h1.8   C80.3,55.2,80.3,66.6,80.3,66.6z"
   class="st1" />
	<path
   id="path34"
   d="M87.2,55.1c1.1,0,2,0.4,2.6,1.2c0.7,0.9,1.1,2.5,1.1,4.6c0,2.2-0.4,3.7-1.1,4.7c-0.6,0.8-1.5,1.2-2.6,1.2   s-2-0.4-2.7-1.3s-1-2.4-1-4.6c0-2.1,0.4-3.7,1.1-4.6C85.3,55.5,86.1,55.1,87.2,55.1z M87.2,56.9c-0.3,0-0.5,0.1-0.7,0.3   s-0.4,0.5-0.5,0.9c-0.1,0.6-0.2,1.5-0.2,2.9c0,1.3,0.1,2.3,0.2,2.8s0.3,0.8,0.5,1s0.4,0.2,0.7,0.2c0.3,0,0.5-0.1,0.7-0.3   c0.2-0.2,0.4-0.5,0.5-0.9c0.1-0.6,0.2-1.5,0.2-2.8s-0.1-2.3-0.2-2.8s-0.3-0.8-0.5-1C87.7,57,87.5,56.9,87.2,56.9z"
   class="st1" />
	<path
   id="path36"
   d="M97.9,66.6h-2.2v-8.2c-0.8,0.7-1.7,1.3-2.8,1.7v-2c0.6-0.2,1.2-0.5,1.8-1.1c0.7-0.5,1.1-1.1,1.4-1.8h1.8   C97.9,55.2,97.9,66.6,97.9,66.6z"
   class="st1" />
	<path
   id="path38"
   d="M18.1,55.1c1.1,0,1.9,0.4,2.6,1.2c0.7,0.9,1.1,2.5,1.1,4.6c0,2.2-0.4,3.7-1.1,4.7c-0.6,0.8-1.5,1.2-2.6,1.2   s-2-0.4-2.7-1.3s-1-2.4-1-4.6c0-2.1,0.4-3.7,1.1-4.6C16.2,55.5,17,55.1,18.1,55.1z M18.1,56.9c-0.3,0-0.5,0.1-0.7,0.3   s-0.4,0.5-0.5,0.9c-0.2,0.6-0.2,1.5-0.2,2.9c0,1.3,0.1,2.3,0.2,2.8s0.3,0.8,0.5,1s0.4,0.2,0.7,0.2c0.3,0,0.5-0.1,0.7-0.3   c0.2-0.2,0.4-0.5,0.5-0.9c0.1-0.6,0.2-1.5,0.2-2.8s-0.1-2.3-0.2-2.8s-0.3-0.8-0.5-1C18.6,57,18.4,56.9,18.1,56.9z"
   class="st1" />
	<path
   id="path40"
   d="M28.8,66.6h-2.2v-8.2c-0.8,0.7-1.7,1.3-2.8,1.7v-2c0.6-0.2,1.2-0.5,1.8-1.1c0.7-0.5,1.1-1.1,1.4-1.8h1.8   C28.8,55.2,28.8,66.6,28.8,66.6z"
   class="st1" />
	<path
   id="path42"
   d="M35.7,55.1c1.1,0,1.9,0.4,2.6,1.2c0.7,0.9,1.1,2.5,1.1,4.6c0,2.2-0.4,3.7-1.1,4.7c-0.6,0.8-1.5,1.2-2.6,1.2   s-2-0.4-2.7-1.3s-1-2.4-1-4.6c0-2.1,0.4-3.7,1.1-4.6C33.8,55.5,34.6,55.1,35.7,55.1z M35.7,56.9c-0.3,0-0.5,0.1-0.7,0.3   s-0.4,0.5-0.5,0.9c-0.1,0.6-0.2,1.5-0.2,2.9c0,1.3,0.1,2.3,0.2,2.8c0.1,0.5,0.3,0.8,0.5,1s0.4,0.2,0.7,0.2s0.5-0.1,0.7-0.3   c0.2-0.2,0.4-0.5,0.5-0.9c0.1-0.6,0.2-1.5,0.2-2.8s-0.1-2.3-0.2-2.8c-0.1-0.5-0.3-0.8-0.5-1C36.2,57,36,56.9,35.7,56.9z"
   class="st1" />
	<path
   id="path44"
   d="M46.4,66.6h-2.2v-8.2c-0.8,0.7-1.7,1.3-2.8,1.7v-2c0.6-0.2,1.2-0.5,1.8-1.1c0.7-0.5,1.1-1.1,1.4-1.8h1.8V66.6z   "
   class="st1" />
	<g
   id="g108">
		<g
   id="g86">
			<path
   id="path46"
   d="M54,110.5h-2.2v-8.2c-0.8,0.7-1.7,1.3-2.8,1.7v-2c0.6-0.2,1.2-0.5,1.8-1.1c0.7-0.5,1.1-1.1,1.4-1.8H54V110.5     z"
   class="st1" />
			<path
   id="path48"
   d="M60.9,99c1.1,0,1.9,0.4,2.6,1.2c0.7,0.9,1.1,2.5,1.1,4.6c0,2.2-0.4,3.7-1.1,4.7c-0.6,0.8-1.5,1.2-2.6,1.2     s-2-0.4-2.7-1.3s-1-2.4-1-4.6c0-2.1,0.4-3.7,1.1-4.6C58.9,99.4,59.8,99,60.9,99z M60.9,100.8c-0.3,0-0.5,0.1-0.7,0.3     c-0.2,0.2-0.4,0.5-0.5,0.9c-0.1,0.6-0.2,1.5-0.2,2.9c0,1.3,0.1,2.3,0.2,2.8c0.1,0.5,0.3,0.8,0.5,1s0.4,0.2,0.7,0.2     s0.5-0.1,0.7-0.3c0.2-0.2,0.4-0.5,0.5-0.9c0.1-0.6,0.2-1.5,0.2-2.8s-0.1-2.3-0.2-2.8c-0.1-0.5-0.3-0.8-0.5-1     S61.1,100.8,60.9,100.8z"
   class="st1" />
			<path
   id="path50"
   d="M69.7,99c1.1,0,1.9,0.4,2.6,1.2c0.7,0.9,1.1,2.5,1.1,4.6c0,2.2-0.4,3.7-1.1,4.7c-0.6,0.8-1.5,1.2-2.6,1.2     s-2-0.4-2.7-1.3s-1-2.4-1-4.6c0-2.1,0.4-3.7,1.1-4.6C67.7,99.4,68.6,99,69.7,99z M69.7,100.8c-0.3,0-0.5,0.1-0.7,0.3     c-0.2,0.2-0.4,0.5-0.5,0.9c-0.2,0.6-0.2,1.5-0.2,2.9c0,1.3,0.1,2.3,0.2,2.8s0.3,0.8,0.5,1s0.4,0.2,0.7,0.2c0.3,0,0.5-0.1,0.7-0.3     c0.2-0.2,0.4-0.5,0.5-0.9c0.1-0.6,0.2-1.5,0.2-2.8s-0.1-2.3-0.2-2.8s-0.3-0.8-0.5-1C70.1,100.9,69.9,100.8,69.7,100.8z"
   class="st1" />
			<path
   id="path52"
   d="M80.3,110.5h-2.2v-8.2c-0.8,0.7-1.7,1.3-2.8,1.7v-2c0.6-0.2,1.2-0.5,1.8-1.1c0.7-0.5,1.1-1.1,1.4-1.8h1.8     C80.3,99.1,80.3,110.5,80.3,110.5z"
   class="st1" />
			<path
   id="path54"
   d="M87.2,99c1.1,0,2,0.4,2.6,1.2c0.7,0.9,1.1,2.5,1.1,4.6c0,2.2-0.4,3.7-1.1,4.7c-0.6,0.8-1.5,1.2-2.6,1.2     s-2-0.4-2.7-1.3s-1-2.4-1-4.6c0-2.1,0.4-3.7,1.1-4.6C85.3,99.4,86.1,99,87.2,99z M87.2,100.8c-0.3,0-0.5,0.1-0.7,0.3     c-0.2,0.2-0.4,0.5-0.5,0.9c-0.1,0.6-0.2,1.5-0.2,2.9c0,1.3,0.1,2.3,0.2,2.8s0.3,0.8,0.5,1s0.4,0.2,0.7,0.2c0.3,0,0.5-0.1,0.7-0.3     c0.2-0.2,0.4-0.5,0.5-0.9c0.1-0.6,0.2-1.5,0.2-2.8s-0.1-2.3-0.2-2.8s-0.3-0.8-0.5-1S87.5,100.8,87.2,100.8z"
   class="st1" />
			<path
   id="path56"
   d="M97.9,110.5h-2.2v-8.2c-0.8,0.7-1.7,1.3-2.8,1.7v-2c0.6-0.2,1.2-0.5,1.8-1.1c0.7-0.5,1.1-1.1,1.4-1.8h1.8     C97.9,99.1,97.9,110.5,97.9,110.5z"
   class="st1" />
			<path
   id="path58"
   d="M18.1,99c1.1,0,1.9,0.4,2.6,1.2c0.7,0.9,1.1,2.5,1.1,4.6c0,2.2-0.4,3.7-1.1,4.7c-0.6,0.8-1.5,1.2-2.6,1.2     s-2-0.4-2.7-1.3s-1-2.4-1-4.6c0-2.1,0.4-3.7,1.1-4.6C16.2,99.4,17,99,18.1,99z M18.1,100.8c-0.3,0-0.5,0.1-0.7,0.3     c-0.2,0.2-0.4,0.5-0.5,0.9c-0.2,0.6-0.2,1.5-0.2,2.9c0,1.3,0.1,2.3,0.2,2.8s0.3,0.8,0.5,1s0.4,0.2,0.7,0.2c0.3,0,0.5-0.1,0.7-0.3     c0.2-0.2,0.4-0.5,0.5-0.9c0.1-0.6,0.2-1.5,0.2-2.8s-0.1-2.3-0.2-2.8s-0.3-0.8-0.5-1S18.4,100.8,18.1,100.8z"
   class="st1" />
			<path
   id="path60"
   d="M28.8,110.5h-2.2v-8.2c-0.8,0.7-1.7,1.3-2.8,1.7v-2c0.6-0.2,1.2-0.5,1.8-1.1c0.7-0.5,1.1-1.1,1.4-1.8h1.8     C28.8,99.1,28.8,110.5,28.8,110.5z"
   class="st1" />
			<path
   id="path62"
   d="M35.7,99c1.1,0,1.9,0.4,2.6,1.2c0.7,0.9,1.1,2.5,1.1,4.6c0,2.2-0.4,3.7-1.1,4.7c-0.6,0.8-1.5,1.2-2.6,1.2     s-2-0.4-2.7-1.3s-1-2.4-1-4.6c0-2.1,0.4-3.7,1.1-4.6C33.8,99.4,34.6,99,35.7,99z M35.7,100.8c-0.3,0-0.5,0.1-0.7,0.3     c-0.2,0.2-0.4,0.5-0.5,0.9c-0.1,0.6-0.2,1.5-0.2,2.9c0,1.3,0.1,2.3,0.2,2.8c0.1,0.5,0.3,0.8,0.5,1s0.4,0.2,0.7,0.2     s0.5-0.1,0.7-0.3c0.2-0.2,0.4-0.5,0.5-0.9c0.1-0.6,0.2-1.5,0.2-2.8s-0.1-2.3-0.2-2.8c-0.1-0.5-0.3-0.8-0.5-1S36,100.8,35.7,100.8     z"
   class="st1" />
			<path
   id="path64"
   d="M46.4,110.5h-2.2v-8.2c-0.8,0.7-1.7,1.3-2.8,1.7v-2c0.6-0.2,1.2-0.5,1.8-1.1c0.7-0.5,1.1-1.1,1.4-1.8h1.8     V110.5z"
   class="st1" />
			<path
   id="path66"
   d="M52.9,113.5c1.1,0,2,0.4,2.6,1.2c0.7,0.9,1.1,2.5,1.1,4.6c0,2.2-0.4,3.7-1.1,4.7c-0.6,0.8-1.5,1.2-2.6,1.2     s-2-0.4-2.7-1.3s-1-2.4-1-4.6c0-2.1,0.4-3.7,1.1-4.6C50.9,113.9,51.8,113.5,52.9,113.5z M52.9,115.3c-0.3,0-0.5,0.1-0.7,0.3     c-0.2,0.2-0.4,0.5-0.5,0.9c-0.1,0.6-0.2,1.5-0.2,2.9c0,1.3,0.1,2.3,0.2,2.8c0.1,0.5,0.3,0.8,0.5,1s0.4,0.2,0.7,0.2     s0.5-0.1,0.7-0.3c0.2-0.2,0.4-0.5,0.5-0.9c0.2-0.6,0.2-1.5,0.2-2.8s-0.1-2.3-0.2-2.8c-0.1-0.5-0.3-0.8-0.5-1     S53.1,115.3,52.9,115.3z"
   class="st1" />
			<path
   id="path68"
   d="M63.5,124.9h-2.2v-8.2c-0.8,0.7-1.7,1.3-2.8,1.7v-2c0.6-0.2,1.2-0.5,1.8-1.1c0.7-0.5,1.1-1.1,1.4-1.8h1.8     V124.9z"
   class="st1" />
			<path
   id="path70"
   d="M71.4,124.9h-2.2v-8.2c-0.8,0.7-1.7,1.3-2.8,1.7v-2c0.6-0.2,1.2-0.5,1.8-1.1c0.7-0.5,1.1-1.1,1.4-1.8h1.8     C71.4,113.5,71.4,124.9,71.4,124.9z"
   class="st1" />
			<path
   id="path72"
   d="M78.3,113.5c1.1,0,2,0.4,2.6,1.2c0.7,0.9,1.1,2.5,1.1,4.6c0,2.2-0.4,3.7-1.1,4.7c-0.6,0.8-1.5,1.2-2.6,1.2     s-2-0.4-2.7-1.3s-1-2.4-1-4.6c0-2.1,0.4-3.7,1.1-4.6C76.4,113.9,77.2,113.5,78.3,113.5z M78.3,115.3c-0.3,0-0.5,0.1-0.7,0.3     c-0.2,0.2-0.4,0.5-0.5,0.9c-0.2,0.6-0.2,1.5-0.2,2.9c0,1.3,0.1,2.3,0.2,2.8s0.3,0.8,0.5,1s0.4,0.2,0.7,0.2c0.3,0,0.5-0.1,0.7-0.3     c0.2-0.2,0.4-0.5,0.5-0.9c0.2-0.6,0.2-1.5,0.2-2.8s-0.1-2.3-0.2-2.8s-0.3-0.8-0.5-1S78.6,115.3,78.3,115.3z"
   class="st1" />
			<path
   id="path74"
   d="M18.1,113.5c1.1,0,1.9,0.4,2.6,1.2c0.7,0.9,1.1,2.5,1.1,4.6c0,2.2-0.4,3.7-1.1,4.7c-0.6,0.8-1.5,1.2-2.6,1.2     s-2-0.4-2.7-1.3s-1-2.4-1-4.6c0-2.1,0.4-3.7,1.1-4.6C16.2,113.9,17,113.5,18.1,113.5z M18.1,115.3c-0.3,0-0.5,0.1-0.7,0.3     c-0.2,0.2-0.4,0.5-0.5,0.9c-0.2,0.6-0.2,1.5-0.2,2.9c0,1.3,0.1,2.3,0.2,2.8s0.3,0.8,0.5,1s0.4,0.2,0.7,0.2c0.3,0,0.5-0.1,0.7-0.3     c0.2-0.2,0.4-0.5,0.5-0.9c0.1-0.6,0.2-1.5,0.2-2.8s-0.1-2.3-0.2-2.8s-0.3-0.8-0.5-1S18.4,115.3,18.1,115.3z"
   class="st1" />
			<path
   id="path76"
   d="M28.8,124.9h-2.2v-8.2c-0.8,0.7-1.7,1.3-2.8,1.7v-2c0.6-0.2,1.2-0.5,1.8-1.1c0.7-0.5,1.1-1.1,1.4-1.8h1.8     C28.8,113.5,28.8,124.9,28.8,124.9z"
   class="st1" />
			<path
   id="path78"
   d="M36.7,124.9h-2.2v-8.2c-0.8,0.7-1.7,1.3-2.8,1.7v-2c0.6-0.2,1.2-0.5,1.8-1.1c0.7-0.5,1.1-1.1,1.4-1.8h1.8     V124.9z"
   class="st1" />
			<path
   id="path80"
   d="M43.6,113.5c1.1,0,1.9,0.4,2.6,1.2c0.7,0.9,1.1,2.5,1.1,4.6c0,2.2-0.4,3.7-1.1,4.7c-0.6,0.8-1.5,1.2-2.6,1.2     s-2-0.4-2.7-1.3s-1-2.4-1-4.6c0-2.1,0.4-3.7,1.1-4.6C41.7,113.9,42.5,113.5,43.6,113.5z M43.6,115.3c-0.3,0-0.5,0.1-0.7,0.3     c-0.2,0.2-0.4,0.5-0.5,0.9c-0.1,0.6-0.2,1.5-0.2,2.9c0,1.3,0.1,2.3,0.2,2.8c0.1,0.5,0.3,0.8,0.5,1s0.4,0.2,0.7,0.2     s0.5-0.1,0.7-0.3c0.2-0.2,0.4-0.5,0.5-0.9c0.1-0.6,0.2-1.5,0.2-2.8s-0.1-2.3-0.2-2.8c-0.1-0.5-0.3-0.8-0.5-1     S43.9,115.3,43.6,115.3z"
   class="st1" />
			<path
   id="path82"
   d="M87.1,113.5c1.1,0,2,0.4,2.6,1.2c0.7,0.9,1.1,2.5,1.1,4.6c0,2.2-0.4,3.7-1.1,4.7c-0.6,0.8-1.5,1.2-2.6,1.2     s-2-0.4-2.7-1.3s-1-2.4-1-4.6c0-2.1,0.4-3.7,1.1-4.6C85.2,113.9,86,113.5,87.1,113.5z M87.1,115.3c-0.3,0-0.5,0.1-0.7,0.3     c-0.2,0.2-0.4,0.5-0.5,0.9c-0.1,0.6-0.2,1.5-0.2,2.9c0,1.3,0.1,2.3,0.2,2.8s0.3,0.8,0.5,1s0.4,0.2,0.7,0.2c0.3,0,0.5-0.1,0.7-0.3     c0.2-0.2,0.4-0.5,0.5-0.9c0.1-0.6,0.2-1.5,0.2-2.8s-0.1-2.3-0.2-2.8s-0.3-0.8-0.5-1S87.4,115.3,87.1,115.3z"
   class="st1" />
			<path
   id="path84"
   d="M97.8,124.9h-2.2v-8.2c-0.8,0.7-1.7,1.3-2.8,1.7v-2c0.6-0.2,1.2-0.5,1.8-1.1c0.7-0.5,1.1-1.1,1.4-1.8h1.8     C97.8,113.5,97.8,124.9,97.8,124.9z"
   class="st1" />
		</g>
		<path
   id="path88"
   d="M52.9,84.1c1.1,0,2,0.4,2.6,1.2c0.7,0.9,1.1,2.5,1.1,4.6c0,2.2-0.4,3.7-1.1,4.7c-0.6,0.8-1.5,1.2-2.6,1.2    s-2-0.4-2.7-1.3s-1-2.4-1-4.6c0-2.1,0.4-3.7,1.1-4.6C50.9,84.5,51.8,84.1,52.9,84.1z M52.9,85.9c-0.3,0-0.5,0.1-0.7,0.3    c-0.2,0.2-0.4,0.5-0.5,0.9c-0.1,0.6-0.2,1.5-0.2,2.9c0,1.3,0.1,2.3,0.2,2.8c0.1,0.5,0.3,0.8,0.5,1s0.4,0.2,0.7,0.2    s0.5-0.1,0.7-0.3c0.2-0.2,0.4-0.5,0.5-0.9c0.2-0.6,0.2-1.5,0.2-2.8s-0.1-2.3-0.2-2.8c-0.1-0.5-0.3-0.8-0.5-1S53.1,85.9,52.9,85.9z    "
   class="st1" />
		<path
   id="path90"
   d="M63.5,95.5h-2.2v-8.2c-0.8,0.7-1.7,1.3-2.8,1.7v-2c0.6-0.2,1.2-0.5,1.8-1.1c0.7-0.5,1.1-1.1,1.4-1.8h1.8V95.5    z"
   class="st1" />
		<path
   id="path92"
   d="M71.4,95.5h-2.2v-8.2c-0.8,0.7-1.7,1.3-2.8,1.7v-2c0.6-0.2,1.2-0.5,1.8-1.1c0.7-0.5,1.1-1.1,1.4-1.8h1.8    C71.4,84.1,71.4,95.5,71.4,95.5z"
   class="st1" />
		<path
   id="path94"
   d="M78.3,84.1c1.1,0,2,0.4,2.6,1.2c0.7,0.9,1.1,2.5,1.1,4.6c0,2.2-0.4,3.7-1.1,4.7c-0.6,0.8-1.5,1.2-2.6,1.2    s-2-0.4-2.7-1.3s-1-2.4-1-4.6c0-2.1,0.4-3.7,1.1-4.6C76.4,84.5,77.2,84.1,78.3,84.1z M78.3,85.9c-0.3,0-0.5,0.1-0.7,0.3    c-0.2,0.2-0.4,0.5-0.5,0.9c-0.2,0.6-0.2,1.5-0.2,2.9c0,1.3,0.1,2.3,0.2,2.8s0.3,0.8,0.5,1S78,94,78.3,94s0.5-0.1,0.7-0.3    c0.2-0.2,0.4-0.5,0.5-0.9c0.2-0.6,0.2-1.5,0.2-2.8s-0.1-2.3-0.2-2.8s-0.3-0.8-0.5-1S78.6,85.9,78.3,85.9z"
   class="st1" />
		<path
   id="path96"
   d="M18.1,84.1c1.1,0,1.9,0.4,2.6,1.2c0.7,0.9,1.1,2.5,1.1,4.6c0,2.2-0.4,3.7-1.1,4.7c-0.6,0.8-1.5,1.2-2.6,1.2    s-2-0.4-2.7-1.3s-1-2.4-1-4.6c0-2.1,0.4-3.7,1.1-4.6C16.2,84.5,17,84.1,18.1,84.1z M18.1,85.9c-0.3,0-0.5,0.1-0.7,0.3    c-0.2,0.2-0.4,0.5-0.5,0.9c-0.2,0.6-0.2,1.5-0.2,2.9c0,1.3,0.1,2.3,0.2,2.8s0.3,0.8,0.5,1s0.4,0.2,0.7,0.2c0.3,0,0.5-0.1,0.7-0.3    c0.2-0.2,0.4-0.5,0.5-0.9c0.1-0.6,0.2-1.5,0.2-2.8s-0.1-2.3-0.2-2.8s-0.3-0.8-0.5-1S18.4,85.9,18.1,85.9z"
   class="st1" />
		<path
   id="path98"
   d="M28.8,95.5h-2.2v-8.2c-0.8,0.7-1.7,1.3-2.8,1.7v-2c0.6-0.2,1.2-0.5,1.8-1.1c0.7-0.5,1.1-1.1,1.4-1.8h1.8    C28.8,84.1,28.8,95.5,28.8,95.5z"
   class="st1" />
		<path
   id="path100"
   d="M36.7,95.5h-2.2v-8.2c-0.8,0.7-1.7,1.3-2.8,1.7v-2c0.6-0.2,1.2-0.5,1.8-1.1c0.7-0.5,1.1-1.1,1.4-1.8h1.8V95.5    z"
   class="st1" />
		<path
   id="path102"
   d="M43.6,84.1c1.1,0,1.9,0.4,2.6,1.2c0.7,0.9,1.1,2.5,1.1,4.6c0,2.2-0.4,3.7-1.1,4.7c-0.6,0.8-1.5,1.2-2.6,1.2    s-2-0.4-2.7-1.3s-1-2.4-1-4.6c0-2.1,0.4-3.7,1.1-4.6C41.7,84.5,42.5,84.1,43.6,84.1z M43.6,85.9c-0.3,0-0.5,0.1-0.7,0.3    c-0.2,0.2-0.4,0.5-0.5,0.9c-0.1,0.6-0.2,1.5-0.2,2.9c0,1.3,0.1,2.3,0.2,2.8c0.1,0.5,0.3,0.8,0.5,1s0.4,0.2,0.7,0.2    s0.5-0.1,0.7-0.3c0.2-0.2,0.4-0.5,0.5-0.9c0.1-0.6,0.2-1.5,0.2-2.8s-0.1-2.3-0.2-2.8c-0.1-0.5-0.3-0.8-0.5-1S43.9,85.9,43.6,85.9z    "
   class="st1" />
		<path
   id="path104"
   d="M87.1,84.1c1.1,0,2,0.4,2.6,1.2c0.7,0.9,1.1,2.5,1.1,4.6c0,2.2-0.4,3.7-1.1,4.7c-0.6,0.8-1.5,1.2-2.6,1.2    s-2-0.4-2.7-1.3s-1-2.4-1-4.6c0-2.1,0.4-3.7,1.1-4.6C85.2,84.5,86,84.1,87.1,84.1z M87.1,85.9c-0.3,0-0.5,0.1-0.7,0.3    c-0.2,0.2-0.4,0.5-0.5,0.9c-0.1,0.6-0.2,1.5-0.2,2.9c0,1.3,0.1,2.3,0.2,2.8s0.3,0.8,0.5,1s0.4,0.2,0.7,0.2c0.3,0,0.5-0.1,0.7-0.3    c0.2-0.2,0.4-0.5,0.5-0.9c0.1-0.6,0.2-1.5,0.2-2.8s-0.1-2.3-0.2-2.8s-0.3-0.8-0.5-1S87.4,85.9,87.1,85.9z"
   class="st1" />
		<path
   id="path106"
   d="M97.8,95.5h-2.2v-8.2c-0.8,0.7-1.7,1.3-2.8,1.7v-2c0.6-0.2,1.2-0.5,1.8-1.1c0.7-0.5,1.1-1.1,1.4-1.8h1.8    C97.8,84.1,97.8,95.5,97.8,95.5z"
   class="st1" />
	</g>
	<g
   style="fill:#333333;fill-opacity:1"
   id="g112">
		<path
   style="fill:#333333;fill-opacity:1"
   id="path110"
   d="M86.6,19.8h-7v8.3h7c2.9,0,4.4-1.2,4.4-4.2C91,21.1,89.5,19.8,86.6,19.8z"
   class="st0" />
	</g>
	<g
   id="g118">
		<g
   id="g116">
			<path
   id="path114"
   d="M105.4,100.2c-12.2-12.4-32.1-12.4-44.4,0c-12.2,12.4-12.2,32.4,0,44.8c9.9,9.9,24.6,11.9,36.4,5.8l4.2,4.2     l2-2l32.9,36.7l0,0l0,0c1.2,1.2,5.1-0.8,8.7-4.5c3.6-3.7,5.6-7.6,4.4-8.8l0,0l0,0l-36.4-33.3l2-2l-4.1-4.2     C117.1,125,115.2,110.1,105.4,100.2z M100.4,139.9c-9.5,9.6-24.9,9.6-34.4,0s-9.5-25.2,0-34.7c9.5-9.6,24.9-9.6,34.4,0     S109.9,130.3,100.4,139.9z"
   class="st2"
   style="fill:#ef2929;fill-opacity:1" />
		</g>
	</g>
	<g
   style="fill:#333333;fill-opacity:1"
   id="g128">
		<path
   style="fill:#333333;fill-opacity:1"
   id="path120"
   d="M92.2,130.3h-3V119c-1.1,1-2.4,1.8-3.8,2.3v-2.7c0.8-0.3,1.6-0.7,2.5-1.4c0.9-0.7,1.5-1.5,1.9-2.5h2.4V130.3z    "
   class="st0" />
		<path
   style="fill:#333333;fill-opacity:1"
   id="path122"
   d="M78.4,114.6c1.5,0,2.7,0.5,3.5,1.6c1,1.3,1.5,3.4,1.5,6.3s-0.5,5.1-1.5,6.4c-0.8,1.1-2,1.6-3.5,1.6    s-2.7-0.6-3.6-1.7c-0.9-1.2-1.4-3.2-1.4-6.2c0-2.9,0.5-5,1.5-6.3C75.8,115.2,76.9,114.6,78.4,114.6z M78.4,117.1    c-0.4,0-0.7,0.1-1,0.3c-0.3,0.2-0.5,0.6-0.7,1.2c-0.2,0.8-0.3,2.1-0.3,3.9s0.1,3.1,0.3,3.8c0.2,0.7,0.4,1.1,0.7,1.4    c0.3,0.2,0.6,0.3,1,0.3s0.7-0.1,1-0.3c0.3-0.2,0.5-0.6,0.7-1.2c0.2-0.8,0.3-2.1,0.3-3.9s-0.1-3.1-0.3-3.8    c-0.2-0.7-0.4-1.1-0.7-1.4C79.1,117.2,78.8,117.1,78.4,117.1z"
   class="st0" />
		<path
   style="fill:#333333;fill-opacity:1"
   id="path124"
   d="M66.4,114.6c1.5,0,2.7,0.5,3.5,1.6c1,1.3,1.5,3.4,1.5,6.3s-0.5,5.1-1.5,6.4c-0.8,1.1-2,1.6-3.5,1.6    s-2.7-0.6-3.6-1.7c-0.9-1.2-1.4-3.2-1.4-6.2c0-2.9,0.5-5,1.5-6.3C63.8,115.2,64.9,114.6,66.4,114.6z M66.4,117.1    c-0.4,0-0.7,0.1-1,0.3c-0.3,0.2-0.5,0.6-0.7,1.2c-0.2,0.8-0.3,2.1-0.3,3.9s0.1,3.1,0.3,3.8c0.2,0.7,0.4,1.1,0.7,1.4    c0.3,0.2,0.6,0.3,1,0.3s0.7-0.1,1-0.3c0.3-0.2,0.5-0.6,0.7-1.2c0.2-0.8,0.3-2.1,0.3-3.9s-0.1-3.1-0.3-3.8    c-0.2-0.7-0.4-1.1-0.7-1.4C67.1,117.2,66.8,117.1,66.4,117.1z"
   class="st0" />
		<path
   style="fill:#333333;fill-opacity:1"
   id="path126"
   d="M99.9,114.6c1.5,0,2.7,0.5,3.5,1.6c1,1.3,1.5,3.4,1.5,6.3s-0.5,5.1-1.5,6.4c-0.8,1.1-2,1.6-3.5,1.6    s-2.7-0.6-3.6-1.7c-0.9-1.2-1.4-3.2-1.4-6.2c0-2.9,0.5-5,1.5-6.3C97.2,115.2,98.4,114.6,99.9,114.6z M99.9,117.1    c-0.4,0-0.7,0.1-1,0.3c-0.3,0.2-0.5,0.6-0.7,1.2c-0.2,0.8-0.3,2.1-0.3,3.9s0.1,3.1,0.3,3.8c0.2,0.7,0.4,1.1,0.7,1.4    c0.3,0.2,0.6,0.3,1,0.3s0.7-0.1,1-0.3c0.3-0.2,0.5-0.6,0.7-1.2c0.2-0.8,0.3-2.1,0.3-3.9s-0.1-3.1-0.3-3.8    c-0.2-0.7-0.4-1.1-0.7-1.4C100.6,117.2,100.3,117.1,99.9,117.1z"
   class="st0" />
	</g>
</g>
</svg>
