<?xml version="1.0" encoding="utf-8"?>
<!-- Generator: Adobe Illustrator 23.0.1, SVG Export Plug-In . SVG Version: 6.00 Build 0)  -->
<svg version="1.1" id="Ñëîé_1" xmlns="http://www.w3.org/2000/svg" xmlns:xlink="http://www.w3.org/1999/xlink" x="0px" y="0px"
	 viewBox="0 0 1920 355" style="enable-background:new 0 0 1920 355;" xml:space="preserve">
<style type="text/css">
	.st0{fill:url(#SVGID_1_);}
	.st1{opacity:0.95;fill:url(#SVGID_2_);enable-background:new    ;}
	.st2{opacity:0.12;fill:url(#SVGID_3_);enable-background:new    ;}
	.st3{opacity:0.4;}
	.st4{fill:#42FFFF;}
	.st5{opacity:0.5;}
	.st6{fill:url(#SVGID_4_);}
	.st7{fill:url(#SVGID_5_);}
	.st8{fill:url(#SVGID_6_);}
	.st9{fill:url(#SVGID_7_);}
	.st10{fill:url(#SVGID_8_);}
	.st11{opacity:0.8;fill:#0C0F38;enable-background:new    ;}
	.st12{opacity:0.8;fill:#D4088C;enable-background:new    ;}
	.st13{fill:#6EE8FC;}
	.st14{fill:#D4088C;}
	.st15{fill:#6EE1F8;}
	.st16{opacity:0.8;}
	.st17{fill:#0C0F38;}
	.st18{fill:url(#SVGID_9_);}
	.st19{fill:url(#SVGID_10_);}
	.st20{fill:#480689;}
	.st21{fill:url(#SVGID_11_);}
	.st22{fill:url(#SVGID_12_);}
	.st23{opacity:0.7;}
	.st24{fill:url(#SVGID_13_);}
	.st25{fill:url(#SVGID_14_);}
	.st26{fill:url(#SVGID_15_);}
	.st27{fill:url(#SVGID_16_);}
	.st28{fill:url(#SVGID_17_);}
	.st29{fill:#25BFEC;}
	.st30{fill:url(#SVGID_18_);}
	.st31{fill:url(#SVGID_19_);}
	.st32{fill:url(#SVGID_20_);}
	.st33{fill:url(#SVGID_21_);}
	.st34{fill:url(#SVGID_22_);}
	.st35{fill:url(#SVGID_23_);}
	.st36{fill:url(#SVGID_24_);}
	.st37{fill:url(#SVGID_25_);}
	.st38{fill:url(#SVGID_26_);}
	.st39{fill:#6DE0F6;}
	.st40{fill:#267FE5;}
	.st41{fill:url(#SVGID_27_);}
	.st42{fill:url(#SVGID_28_);}
	.st43{fill:url(#SVGID_29_);}
	.st44{fill:url(#SVGID_30_);}
	.st45{fill:url(#SVGID_31_);}
	.st46{fill:url(#SVGID_32_);}
	.st47{fill:url(#SVGID_33_);}
	.st48{fill:url(#SVGID_34_);}
	.st49{fill:url(#SVGID_35_);}
	.st50{fill:url(#SVGID_36_);}
	.st51{fill:url(#SVGID_37_);}
	.st52{fill:url(#SVGID_38_);}
	.st53{fill:url(#SVGID_39_);}
	.st54{fill:url(#SVGID_40_);}
	.st55{fill:url(#SVGID_41_);}
	.st56{fill:url(#SVGID_42_);}
	.st57{fill:url(#SVGID_43_);}
	.st58{fill:url(#SVGID_44_);}
	.st59{fill:url(#SVGID_45_);}
	.st60{fill:url(#SVGID_46_);}
	.st61{fill:url(#SVGID_47_);}
	.st62{fill:url(#SVGID_48_);}
	.st63{fill:url(#SVGID_49_);}
	.st64{fill:url(#SVGID_50_);}
	.st65{opacity:0.8;fill:url(#SVGID_51_);enable-background:new    ;}
	.st66{opacity:0.1;fill:#6DE0F6;enable-background:new    ;}
	.st67{opacity:0.4;fill:#6DE0F6;enable-background:new    ;}
</style>
<linearGradient id="SVGID_1_" gradientUnits="userSpaceOnUse" x1="1545.583" y1="212.0717" x2="-49.9954" y2="-1067.4027" gradientTransform="matrix(1 0 0 -1 0 -80)">
	<stop  offset="0" style="stop-color:#4482CC"/>
	<stop  offset="3.720000e-02" style="stop-color:#447ECC"/>
	<stop  offset="0.4677" style="stop-color:#4553C7"/>
	<stop  offset="0.5562" style="stop-color:#3E49C0"/>
	<stop  offset="0.8347" style="stop-color:#2C2FAC"/>
	<stop  offset="1" style="stop-color:#2525A5"/>
</linearGradient>
<rect class="st0" width="1920" height="355"/>
<radialGradient id="SVGID_2_" cx="1824.8735" cy="2505.8621" r="376.2357" gradientTransform="matrix(3.6711 0 0 0.8791 -5746.6704 -2025.9413)" gradientUnits="userSpaceOnUse">
	<stop  offset="0" style="stop-color:#22215B"/>
	<stop  offset="0.3261" style="stop-color:#1E1E55"/>
	<stop  offset="0.7509" style="stop-color:#141645"/>
	<stop  offset="1" style="stop-color:#0C0F38"/>
</radialGradient>
<rect class="st1" width="1920" height="355"/>
<radialGradient id="SVGID_3_" cx="960" cy="-257.5" r="690.3282" gradientTransform="matrix(1 0 0 -1 0 -80)" gradientUnits="userSpaceOnUse">
	<stop  offset="0" style="stop-color:#4482CC"/>
	<stop  offset="3.720000e-02" style="stop-color:#447ECC"/>
	<stop  offset="0.4677" style="stop-color:#4553C7"/>
	<stop  offset="0.5562" style="stop-color:#3E49C0"/>
	<stop  offset="0.8347" style="stop-color:#2C2FAC"/>
	<stop  offset="1" style="stop-color:#2525A5"/>
</radialGradient>
<rect class="st2" width="1920" height="355"/>
<g class="st3">
	<path class="st4" d="M1378.9,134.3c-0.7,0-1.4-0.2-2-0.5l-20.9-12.1c-0.5-0.3-0.8-0.8-0.8-1.3s0.3-1,0.8-1.3l45.3-26.1
		c1.2-0.7,2.8-0.7,4,0l20.9,12.1c0.5,0.3,0.8,0.8,0.8,1.3s-0.3,1-0.8,1.3l-45.3,26.1C1380.3,134.1,1379.6,134.3,1378.9,134.3z
		 M1403.3,93.2c-0.6,0-1.1,0.1-1.6,0.4l-45.3,26.1c-0.2,0.1-0.4,0.4-0.4,0.7c0,0.3,0.1,0.5,0.4,0.7l20.9,12.1c1,0.6,2.2,0.6,3.2,0
		l45.3-26.1c0.2-0.1,0.4-0.4,0.4-0.7c0-0.3-0.1-0.5-0.4-0.7l-20.9-12.1C1404.4,93.3,1403.8,93.2,1403.3,93.2z"/>
	<g>
		<g>
			<g>
				<path class="st4" d="M1360.9,296.8c-1.3,0-2.4-0.3-3.3-0.8l0,0l-134.1-77.9c-0.9-0.5-1.4-1.3-1.4-2.1c0-1,0.7-2,2-2.7l90.1-52
					c2.3-1.3,5.7-1.4,7.6-0.3l134.1,77.9c0.9,0.5,1.4,1.3,1.4,2.1c0,1-0.7,2-2,2.7l-90.1,52C1364,296.5,1362.4,296.8,1360.9,296.8z
					 M1357.9,295.4c1.8,1,4.8,0.9,6.9-0.3l90.1-52c1-0.6,1.6-1.3,1.6-2.1c0-0.6-0.4-1.1-1.1-1.5l-134.1-77.9c-1.8-1-4.8-0.9-6.9,0.3
					l-90.1,52c-1,0.6-1.6,1.3-1.6,2.1c0,0.6,0.4,1.1,1.1,1.5L1357.9,295.4z"/>
			</g>
		</g>
	</g>
	<path class="st4" d="M1444.1,290.2c-0.5,0-1.1-0.1-1.6-0.4l-33.7-19.5l0.4-0.6l33.7,19.5c0.7,0.4,1.7,0.4,2.4,0l109.2-62.7
		c0.2-0.1,0.3-0.3,0.3-0.5s-0.1-0.4-0.3-0.5l-42.4-24.5l0.4-0.6l42.4,24.5c0.4,0.2,0.7,0.7,0.7,1.1c0,0.5-0.2,0.9-0.7,1.1
		l-109.2,62.7C1445.2,290.1,1444.6,290.2,1444.1,290.2z"/>
	<path class="st4" d="M1185.3,320.5c-0.7,0-1.4-0.2-2-0.5l-57.5-33c-0.4-0.2-0.6-0.6-0.6-1s0.2-0.8,0.6-1l32.5-18.7l0.4,0.6
		l-32.5,18.7c-0.2,0.1-0.2,0.3-0.2,0.4s0,0.3,0.2,0.4l57.5,33c1,0.6,2.3,0.6,3.3,0l107.3-60.7l0.4,0.6L1187.4,320
		C1186.7,320.3,1186,320.5,1185.3,320.5z"/>
	<path class="st4" d="M1204.7,178c-0.7,0-1.4-0.2-2.1-0.6l-20.8-12c-0.5-0.3-0.8-0.8-0.8-1.3s0.3-1,0.8-1.3l20.8-12
		c1.3-0.7,2.9-0.7,4.2,0l20.8,12c0.5,0.3,0.8,0.8,0.8,1.3s-0.3,1-0.8,1.3l-20.8,12C1206.2,177.8,1205.5,178,1204.7,178z M1204.7,151
		c-0.6,0-1.2,0.1-1.7,0.5l-20.8,12c-0.2,0.1-0.4,0.4-0.4,0.7s0.1,0.5,0.4,0.7l20.8,12c1.1,0.6,2.4,0.6,3.4,0l20.8-12
		c0.2-0.1,0.4-0.4,0.4-0.7s-0.1-0.5-0.4-0.7l-20.8-12C1205.9,151.1,1205.3,151,1204.7,151z"/>
	<path class="st4" d="M1294.4,315.3c-0.7,0-1.3-0.2-1.9-0.5l-21.1-12.2c-0.4-0.3-0.7-0.7-0.7-1.2s0.3-1,0.7-1.2l21.1-12.2
		c1.2-0.7,2.7-0.7,3.8,0l21.1,12.2c0.4,0.3,0.7,0.7,0.7,1.2s-0.3,1-0.7,1.2l-21.1,12.2C1295.8,315.1,1295.1,315.3,1294.4,315.3z
		 M1294.4,288.2c-0.5,0-1.1,0.1-1.6,0.4l-21.1,12.2c-0.2,0.1-0.3,0.3-0.3,0.6s0.1,0.5,0.3,0.6l21.1,12.2c1,0.5,2.1,0.5,3.1,0
		L1317,302c0.2-0.1,0.3-0.3,0.3-0.6s-0.1-0.5-0.3-0.6l-21.1-12.2C1295.5,288.4,1295,288.2,1294.4,288.2z"/>
	<path class="st4" d="M1188.2,186.7c-0.8,0-1.6-0.2-2.4-0.6l-20.2-11.6c-0.5-0.3-0.9-0.9-0.9-1.5s0.3-1.2,0.9-1.5l6.2-3.5
		c1.5-0.8,3.3-0.8,4.7,0l20.2,11.6c0.5,0.3,0.9,0.9,0.9,1.5s-0.3,1.2-0.9,1.5l-6.2,3.5C1189.8,186.5,1189,186.7,1188.2,186.7z
		 M1174.1,168c-0.7,0-1.4,0.2-2,0.5l-6.2,3.5c-0.3,0.2-0.5,0.5-0.5,0.8c0,0.4,0.2,0.7,0.5,0.9l20.2,11.6c1.2,0.7,2.8,0.7,4,0
		l6.2-3.5c0.3-0.2,0.5-0.5,0.5-0.8c0-0.4-0.2-0.7-0.5-0.9l-20.2-11.6C1175.5,168.2,1174.8,168,1174.1,168z"/>
	<path class="st4" d="M1173.1,196c-0.8,0-1.6-0.2-2.4-0.6l-20.2-11.6c-0.5-0.3-0.9-0.9-0.9-1.5s0.3-1.2,0.9-1.5l6.2-3.5
		c1.5-0.8,3.3-0.8,4.7,0l20.2,11.6c0.5,0.3,0.9,0.9,0.9,1.5s-0.3,1.2-0.9,1.5l-6.2,3.5C1174.8,195.8,1174,196,1173.1,196z
		 M1159.1,177.4c-0.7,0-1.4,0.2-2,0.5l-6.2,3.5c-0.3,0.2-0.5,0.5-0.5,0.8c0,0.4,0.2,0.7,0.5,0.9l20.2,11.6c1.2,0.7,2.8,0.7,4,0
		l6.2-3.5c0.3-0.2,0.5-0.5,0.5-0.8c0-0.4-0.2-0.7-0.5-0.9l-20.2-11.6C1160.5,177.5,1159.8,177.4,1159.1,177.4z"/>
	<path class="st4" d="M1311.2,325.1c-0.8,0-1.6-0.2-2.4-0.6l-6.2-3.5c-0.5-0.3-0.9-0.9-0.9-1.5s0.3-1.2,0.9-1.5l20.2-11.6
		c1.5-0.8,3.3-0.8,4.7,0l6.2,3.5c0.5,0.3,0.9,0.9,0.9,1.5s-0.3,1.2-0.9,1.5l-20.2,11.6C1312.9,324.9,1312.1,325.1,1311.2,325.1z
		 M1323.3,307l-20.2,11.6c-0.3,0.2-0.5,0.5-0.5,0.9s0.2,0.7,0.5,0.8l6.2,3.5c1.2,0.7,2.8,0.7,4,0l20.2-11.6c0.3-0.2,0.5-0.5,0.5-0.9
		s-0.2-0.7-0.5-0.8l-6.2-3.5C1326,306.3,1324.5,306.3,1323.3,307L1323.3,307z"/>
	<path class="st4" d="M1326.3,334.5c-0.8,0-1.6-0.2-2.4-0.6l-6.2-3.5c-0.5-0.3-0.9-0.9-0.9-1.5s0.3-1.2,0.9-1.5l20.2-11.6
		c1.5-0.8,3.3-0.8,4.7,0l6.2,3.5c0.5,0.3,0.9,0.9,0.9,1.5s-0.3,1.2-0.9,1.5l-20.2,11.6C1327.9,334.3,1327.1,334.5,1326.3,334.5z
		 M1340.3,315.8c-0.7,0-1.4,0.2-2,0.5l-20.2,11.6c-0.3,0.2-0.5,0.5-0.5,0.9s0.2,0.7,0.5,0.9l6.2,3.5c1.2,0.7,2.8,0.7,4,0l20.2-11.6
		c0.3-0.2,0.5-0.5,0.5-0.8s-0.2-0.7-0.5-0.9l-6.2-3.5C1341.7,316,1341,315.8,1340.3,315.8z"/>
	<path class="st4" d="M1545,283.8c-0.7,0-1.3-0.2-1.9-0.5l-21.1-12.2c-0.4-0.3-0.7-0.7-0.7-1.2s0.3-1,0.7-1.2l21.1-12.2
		c1.2-0.7,2.7-0.7,3.8,0l21.1,12.2c0.4,0.3,0.7,0.7,0.7,1.2s-0.3,1-0.7,1.2l-21.1,12.2C1546.3,283.6,1545.7,283.8,1545,283.8z
		 M1545,256.7c-0.5,0-1.1,0.1-1.6,0.4l-21.1,12.2c-0.2,0.1-0.3,0.3-0.3,0.6s0.1,0.5,0.3,0.6l21.1,12.2c1,0.5,2.1,0.5,3.1,0
		l21.1-12.2c0.2-0.1,0.3-0.3,0.3-0.6s-0.1-0.5-0.3-0.6l-21.1-12.2C1546.1,256.9,1545.5,256.7,1545,256.7z"/>
	<path class="st4" d="M1528.2,293.6c-0.8,0-1.6-0.2-2.4-0.6l-20.2-11.6c-0.5-0.3-0.9-0.9-0.9-1.5s0.3-1.2,0.9-1.5l6.2-3.5
		c1.5-0.8,3.3-0.8,4.7,0l20.2,11.6c0.5,0.3,0.9,0.9,0.9,1.5s-0.3,1.2-0.9,1.5l-6.2,3.5C1529.8,293.4,1529,293.6,1528.2,293.6z
		 M1514.2,274.9c-0.7,0-1.4,0.2-2,0.5l-6.2,3.5c-0.3,0.2-0.5,0.5-0.5,0.9s0.2,0.7,0.5,0.8l20.2,11.6c1.2,0.7,2.8,0.7,4,0l6.2-3.5
		c0.3-0.2,0.5-0.5,0.5-0.8s-0.2-0.7-0.5-0.9l-20.2-11.6C1515.5,275.1,1514.8,274.9,1514.2,274.9z"/>
	<path class="st4" d="M1513.2,303c-0.8,0-1.6-0.2-2.4-0.6l-20.2-11.6c-0.5-0.3-0.9-0.9-0.9-1.5s0.3-1.2,0.9-1.5l6.2-3.5
		c1.5-0.8,3.3-0.8,4.7,0l20.2,11.6c0.5,0.3,0.9,0.9,0.9,1.5s-0.3,1.2-0.9,1.5l-6.2,3.5C1514.8,302.8,1514,303,1513.2,303z
		 M1499.2,284.3c-0.7,0-1.4,0.2-2,0.5l-6.2,3.5c-0.3,0.2-0.5,0.5-0.5,0.9s0.2,0.7,0.5,0.8l20.2,11.6c1.2,0.7,2.8,0.7,4,0l6.2-3.5
		c0.3-0.2,0.5-0.5,0.5-0.8s-0.2-0.7-0.5-0.9l-20.2-11.6C1500.5,284.5,1499.8,284.3,1499.2,284.3z"/>
</g>
<g id="dedicated" class="st5">
	
		<linearGradient id="SVGID_4_" gradientUnits="userSpaceOnUse" x1="988.887" y1="613.4309" x2="1583.3999" y2="613.4309" gradientTransform="matrix(1 0 0 1 0 -436)">
		<stop  offset="0" style="stop-color:#6EE8FC"/>
		<stop  offset="0.1572" style="stop-color:#6AE2FB"/>
		<stop  offset="0.3681" style="stop-color:#5ED1F7"/>
		<stop  offset="0.6094" style="stop-color:#4BB5F1"/>
		<stop  offset="0.8716" style="stop-color:#308EE8"/>
		<stop  offset="0.9624" style="stop-color:#267FE5"/>
	</linearGradient>
	<path class="st6" d="M1582.5,0.4c-1.2-0.6-3-0.6-4.2,0.1c-1,0.6-1.1,1.5-0.2,2.1l-32.8,19.7l0.7,30L1499.8,80l-77-41.7l-0.7-33.5
		c0.6-0.1,1.3-0.2,1.7-0.5c1.1-0.7,1.1-1.7-0.1-2.3s-3-0.6-4.2,0.1c-1.1,0.7-1.1,1.7,0.1,2.3c0.5,0.3,1.1,0.4,1.8,0.4l0.7,33.8
		l0.2,0.1l46.3,25l-33.3,0.7L1408,49.7c0.8-0.7,0.7-1.6-0.3-2.1c-1.2-0.6-3-0.6-4.2,0.1c-1.1,0.7-1.1,1.7,0.1,2.3
		c1,0.6,2.7,0.6,3.8,0.1l27.8,15l34.6-0.7l0,0l38.1,20.6l0.8,38.1l-78.8,47.2l-10.8-5.9l55.7-33.3c1.2,0.4,2.8,0.4,3.8-0.2
		c1.1-0.7,1.1-1.7-0.1-2.3s-3-0.6-4.2,0.1c-1,0.6-1.1,1.5-0.2,2.1l-55.7,33.3l-10.5-5.7l66.7-39.9l18.4-0.4c0.1,0.3,0.4,0.6,0.8,0.8
		c1.2,0.6,3,0.6,4.2-0.1c1.1-0.7,1.1-1.7-0.1-2.3s-3-0.6-4.2,0.1c-0.4,0.3-0.7,0.6-0.8,0.9l-18.5,0.4h-0.1l-67.1,40.1l-4.2-2.3
		l-0.2,0.1l-3,1.8l-16.4-8.9l-0.1-12.9l13.2-7.9l0,0l21-0.4l22.8-13.6c1.2,0.4,2.8,0.4,3.8-0.2c1.1-0.7,1.1-1.7-0.1-2.3
		c-1.2-0.6-3-0.6-4.2,0.1c-1,0.6-1.1,1.5-0.2,2.1l-22.3,13.3l-19.7,0.4l38.8-23.2c1.2,0.5,2.8,0.4,3.9-0.2c1.1-0.7,1.1-1.7-0.1-2.3
		c-1.2-0.6-3-0.6-4.2,0.1c-1,0.6-1.1,1.5-0.3,2.1l-48.4,29l-0.1-6.2l28.8-17.3l-0.3-11.7l23.4-14c1.2,0.4,2.8,0.4,3.8-0.2
		c1.1-0.7,1.1-1.7-0.1-2.3c-1.2-0.6-3-0.6-4.2,0.1c-1,0.6-1.1,1.5-0.2,2.1l-23.4,14l0.3,11.7l-28.8,17.3l0.2,7l-4,2.4l0.3,13.5
		l16.4,8.9l-10.5,6.3l-33.7-18.3l-0.5-21.5l22.3-13.3c1.2,0.5,2.8,0.4,3.9-0.2c1.1-0.7,1.1-1.7-0.1-2.3c-1.2-0.6-3-0.6-4.2,0.1
		c-1,0.6-1.1,1.5-0.3,2.1l-21.7,13l-0.4-17.4l17.1-10.3l-0.7-32.7c0.6-0.1,1.3-0.2,1.7-0.5c1.1-0.7,1.1-1.7-0.1-2.3s-3-0.6-4.2,0.1
		c-1.1,0.7-1.1,1.7,0.1,2.3c0.5,0.3,1.1,0.4,1.8,0.4l0.7,32.4l-16.5,9.9l-1.3-57.8h-0.7l2.2,98.6L1388,165l-11.8,7.1l-44.1-23.8
		l-1.3-59l-21-12l-0.5-22.2L1290.6,45c0.8-0.7,0.7-1.6-0.3-2.1c-1.2-0.6-3-0.6-4.2,0.1c-1.1,0.7-1.1,1.7,0.1,2.3
		c1,0.6,2.7,0.6,3.8,0.1l18.7,10.1l0.5,22.2l21.2,11.5l1.3,59l44.1,23.8l-8.7,5.3l-59.5-32.2l-1.1-50.4l-0.2-0.1l-52.7-28.4
		c0.8-0.7,0.7-1.6-0.3-2.1c-1.2-0.6-3-0.6-4.2,0.1c-1.1,0.7-1.1,1.7,0.1,2.3c1,0.6,2.7,0.6,3.8,0.1l52.8,28.6l1.1,50.4l0.2,0.1
		l59.3,32.1l-14.2,8.5l-98.9-53.5l-0.5-25l-0.2-0.1l-82.8-44.8c0.8-0.7,0.7-1.6-0.3-2.1c-1.2-0.6-3-0.6-4.2,0.1
		c-1.1,0.7-1.1,1.7,0.1,2.3c1,0.6,2.7,0.6,3.8,0.1l83,44.9l0.5,25l0.2,0.1l55.5,30l-43.5,0.9l-50.9-27.6c0.8-0.7,0.7-1.6-0.3-2.1
		c-1.2-0.6-3-0.6-4.2,0.1c-1.1,0.7-1.1,1.7,0.1,2.3c1,0.6,2.7,0.6,3.8,0.1l51.4,27.9l44.8-0.9l42.1,22.8l-16.5,9.9l-36.2-19.6
		l-57.4,1.2l-66.1-35.8l-36.2,0.8l-15-8.1c0.8-0.7,0.7-1.6-0.3-2.1c-1.2-0.6-3-0.6-4.2,0.1c-1.1,0.7-1.1,1.7,0.1,2.3
		c1,0.6,2.7,0.6,3.8,0.1l15.4,8.4l36.2-0.8l50,27.1l-42.6,0.9l-20.8-11.2c0.8-0.7,0.7-1.6-0.3-2.1c-1.2-0.6-3-0.6-4.2,0.1
		c-1.2,0.7-1.1,1.7,0.1,2.3c1,0.6,2.7,0.6,3.8,0.1l21.3,11.5l43.9-0.9l15,8.1l57.4-1.2l10.1,5.5l-24.4,0.5h-0.1l-12.1,7.3l-51,1.1
		l-14.6-7.9l-28.9,0.6c-0.1-0.3-0.4-0.6-0.8-0.8c-1.2-0.6-3-0.6-4.2,0.1c-1.1,0.7-1.1,1.7,0.1,2.3s3,0.6,4.2-0.1
		c0.4-0.3,0.7-0.6,0.8-0.9l28.7-0.6l14.6,7.9l50.1-1.1l-13.6,8.2c-1.2-0.4-2.8-0.4-3.8,0.2c-1.1,0.7-1.1,1.7,0.1,2.3s3,0.6,4.2-0.1
		c1-0.6,1.1-1.5,0.2-2.1l26.4-15.9l25.4-0.5l24.4,13.2l-8.8,5.3l0.5,0.3l5.3,2.8l-16.7,0.4l-22.1-11.9c0.8-0.7,0.7-1.6-0.3-2.1
		c-1.2-0.6-3-0.6-4.2,0.1c-1.1,0.7-1.1,1.7,0.1,2.3c1,0.6,2.7,0.6,3.8,0.1l22.6,12.2l18-0.4l12.4,6.7l-7.4,4.4l-13.3,0.3h-0.1
		l-11.5,6.9l-8.7,0.2l-20-10.8c0.9-0.7,0.8-1.6-0.3-2.2c-1.2-0.6-3-0.6-4.2,0.1c-1.1,0.7-1.1,1.7,0.1,2.3c1,0.6,2.6,0.6,3.7,0.1
		l20.5,11.1l9.1-0.2h0.1l11.5-6.9l12-0.3l-23.7,14.1l-13,0.3l-27.3-14.8l-81.4,1.7l-51.1-27.7c0.9-0.7,0.8-1.6-0.3-2.2
		c-1.2-0.6-3-0.6-4.2,0.1c-1.1,0.7-1.1,1.7,0.1,2.3c1,0.6,2.6,0.6,3.7,0.1l51.6,28l81.4-1.7l27.3,14.8l13.3-0.3h0.1l32.6-19.5
		l8.8,4.7l-36.9,22l-26.3,0.6l-22-11.9l-55.8,1.2c-0.1-0.3-0.4-0.6-0.8-0.8c-1.2-0.6-3-0.6-4.2,0.1c-1.1,0.7-1.1,1.7,0.1,2.3
		s3,0.6,4.2-0.1c0.4-0.3,0.7-0.6,0.8-0.9l55.6-1.2l20.8,11.3l-78.6,1.7h-0.1l-73.9,44.2c-1.2-0.4-2.8-0.4-3.8,0.2
		c-1.1,0.7-1.1,1.7,0.1,2.3c1.2,0.6,3,0.6,4.2-0.1c1-0.6,1.1-1.5,0.2-2.1l73.5-44l106.2-2.2h0.1l37.3-22.3l10,5.4l-51.4,30.8
		l-91.7,1.9h-0.1l-79.3,47.5l-93.5,2l-55.2-29.9c0.8-0.7,0.7-1.6-0.3-2.1c-1.2-0.6-3-0.6-4.2,0.1c-1.1,0.7-1.1,1.7,0.1,2.3
		c1,0.6,2.7,0.6,3.8,0.1l55.7,30.2l93.9-2h0.1l79.3-47.5l66.8-1.4l-96.8,58l0.3,14.7l-38.6,23.1c-1.2-0.4-2.8-0.4-3.8,0.2
		c-1.1,0.7-1.1,1.7,0.1,2.3s3,0.6,4.2-0.1c1-0.6,1.1-1.5,0.2-2.1l38.6-23.1l-0.3-14.7l97.5-58.4l22.9-0.5L1265,284l0.1,6.2
		l-23.3,13.9c-1.2-0.4-2.8-0.4-3.8,0.2c-1.1,0.7-1.1,1.7,0.1,2.3c1.2,0.6,3,0.6,4.2-0.1c1-0.6,1.1-1.5,0.2-2.1l12.7-7.6l0.4,17
		l-68.7,41.1c0.4-0.1,0.8-0.1,1.2-0.1c0.1,0,0.2,0,0.3,0l67.9-40.6l-0.4-17.8l10-6l-0.1-6.2l49.1-29.4l-0.2-0.3l51.7-30.9l9.6,5.3
		l-53.1,31.7l1.1,50.4l-73.3,43.8c0,0,0,0,0.1,0c0.4,0,0.7,0,1,0.1l56.7-33.9l0.7,33.9c0.1,0,0.1,0,0.2,0c0.2,0,0.3,0,0.5,0
		l-0.8-34.3l15.5-9.3l-1.1-50.4l53.1-31.7l8.5,4.5l-40.9,24.4l0.6,27.6l0.2,0.1l47.7,25.9l0.2,9.4l-26.3,15.8
		c-1.2-0.4-2.8-0.4-3.8,0.2c-1.1,0.7-1.1,1.7,0.1,2.3s3,0.6,4.2-0.1c1-0.6,1.1-1.5,0.2-2.1l26.3-15.8l-0.2-10.1l-0.2-0.1l-47.7-25.9
		l-0.6-26.9l30.9-18.5l0.3,11.5l-14.2,8.5c-1.2-0.4-2.8-0.4-3.8,0.2c-1.1,0.7-1.1,1.7,0.1,2.3c1.2,0.6,3,0.6,4.2-0.1
		c1-0.6,1.1-1.5,0.2-2.1l14.2-8.5l-0.3-12.2l9.4-5.6l11.3,6.2l0.4,20l-20.9,12.5l0.3,13.8l0.2,0.1l45,24.3c-0.8,0.7-0.7,1.6,0.3,2.1
		c1.2,0.6,3,0.6,4.2-0.1c1.1-0.7,1.1-1.7-0.1-2.3c-1-0.6-2.7-0.6-3.8-0.1l-45.2-24.4l-0.3-13.1l20.2-12.1l0.3,13.8l27.7,15
		c-0.8,0.7-0.7,1.6,0.3,2.1c1.2,0.6,3,0.6,4.2-0.1c1.1-0.7,1.1-1.7-0.1-2.3c-1-0.6-2.7-0.6-3.8-0.1l-27.7-15l-0.7-33.8l8,4.3
		l0.2-0.1l12.6-7.6l11.9,6.5l0.4,16.3l31.6,17.1l0.3,15.3c-0.6,0.1-1.3,0.2-1.7,0.5c-1.1,0.7-1.1,1.7,0.1,2.3c1.2,0.6,3,0.6,4.2-0.1
		c1.1-0.7,1.1-1.7-0.1-2.3c-0.5-0.3-1.1-0.4-1.8-0.4l-0.3-15.7l-31.6-17.1l-0.3-15.5l51.1,27.7l0.7,30.5l-27,16.2l-25.1,0.5h-0.1
		l-42.6,25.4c-1.2-0.4-2.8-0.4-3.8,0.2c-1.1,0.7-1.1,1.7,0.1,2.3s3,0.6,4.2-0.1c1-0.6,1.1-1.5,0.2-2.1l42.2-25.2l23.8-0.5l-60.6,36
		c0.1,0,0.3,0,0.4,0s0.1,0,0.2,0s0.2,0,0.3,0c0.1,0,0.3,0,0.4,0l87.3-52.2l-0.7-31.2l-0.2-0.1l-63.5-34.4l12.3-7.4
		c0.3-0.2,0.6-0.4,0.9-0.5l11.7-7c0.2-0.2,0.5-0.3,0.8-0.4l0,0l31.6-18.9c0.2-0.2,0.5-0.3,0.7-0.4l0,0l6.1-3.6l-0.5-0.3l-19.5-10.5
		l1-0.6c-0.2-0.1-0.3-0.3-0.5-0.5l-1.2,0.7l-8.5-4.5l1.9-1.1c-0.2-0.1-0.4-0.3-0.6-0.4l-2,1.2l-9.6-5.3l0.9-0.5
		c-0.2-0.1-0.4-0.3-0.6-0.4l-0.9,0.6l-11.9-6.5l78.8-47.2l-0.2-8.1l14-8.4l-0.4-18.7l27.1-16.2c1.2,0.4,2.8,0.4,3.8-0.2
		c1.1-0.7,1.1-1.7-0.1-2.3s-3-0.6-4.2,0.1c-1,0.6-1.1,1.5-0.2,2.1l-27.1,16.2l0.4,18.7l-13.3,8l-0.7-29.9l-0.2-0.1l-7.9-4.2
		l46.2-27.7l-0.7-30l32.8-19.6c1.2,0.4,2.8,0.4,3.8-0.2C1583.7,2.2,1583.7,1,1582.5,0.4z M1481.2,198.7l-76.2,45.6l-78.1-42.3
		l76.2-45.6L1481.2,198.7z"/>
	<g>
		<g>
			
				<linearGradient id="SVGID_5_" gradientUnits="userSpaceOnUse" x1="1431.4001" y1="645.8191" x2="1685.9248" y2="645.8191" gradientTransform="matrix(1 0 0 1 0 -436)">
				<stop  offset="0" style="stop-color:#6EE8FC"/>
				<stop  offset="0.1572" style="stop-color:#6AE2FB"/>
				<stop  offset="0.3681" style="stop-color:#5ED1F7"/>
				<stop  offset="0.6094" style="stop-color:#4BB5F1"/>
				<stop  offset="0.8716" style="stop-color:#308EE8"/>
				<stop  offset="0.9624" style="stop-color:#267FE5"/>
			</linearGradient>
			<path class="st7" d="M1685,188.6c-1-0.6-2.6-0.6-3.7-0.1l-71-39l-87.3,1.2l10.6-6.5l65.3-0.9h0.1l31.3-19.1
				c1.2,0.5,2.7,0.4,3.7-0.2c1.1-0.7,1-1.7-0.1-2.3c-1.2-0.6-3-0.6-4.1,0.1c-1,0.6-1,1.5-0.2,2.1l-30.9,18.8l-65.3,0.9h-0.1
				l-71.9,43.8l-8.5-4.6l75.6-46l56.9-0.8h0.1l24.7-15c0-0.2-0.1-0.5-0.1-0.7h-0.1l-0.7-14.7l27.6-16.9c1.2,0.5,2.7,0.4,3.7-0.2
				c1.1-0.7,1-1.7-0.1-2.3c-1.2-0.6-3-0.6-4.1,0.1c-1,0.6-1,1.5-0.2,2.1l-27.6,16.9l0.8,15.5h0.1l-24.4,14.8l-56.9,0.8h-0.1
				l-76,46.3l-9.6-5.3l147.4-89.8l-0.8-15.9h-0.6l0.8,15.5L1441.9,177l-7-3.8c-0.2,0.1-0.4,0.3-0.6,0.4l46.2,25.4l-49.1,29.9
				c0.3,0.1,0.5,0.3,0.7,0.5l108,59.4l1.8,36.3l0.2,0.1l36.8,20.2c-0.8,0.7-0.6,1.6,0.4,2.1c1.2,0.6,3,0.6,4.1-0.1s1-1.7-0.1-2.3
				c-1-0.6-2.6-0.6-3.7-0.1l-36.9-20.3l-1.8-36.3l-0.2-0.1l-108-59.3l11.5-7l106.9,58.8l62-0.8l39.9,21.9l1.7,34.4
				c-0.4,0.1-0.8,0.2-1.1,0.4c-1.1,0.7-1,1.7,0.1,2.3c1.2,0.6,3,0.6,4.1-0.1s1-1.7-0.1-2.3c-0.7-0.4-1.5-0.5-2.3-0.4l-1.7-34.7
				l-0.2-0.1l-40.2-22.1l-62,0.8l-90.3-49.6l17.6-0.2l30.8,17l23.1-0.3h0.1l31.1-18.9c1.2,0.5,2.7,0.4,3.7-0.2
				c1.1-0.7,1-1.7-0.1-2.3c-1.2-0.6-3-0.6-4.1,0.1c-1,0.6-1,1.5-0.2,2.1l-30.7,18.7l-22.7,0.3l-30.8-17l-18.9,0.3l-15-8.3l30.6-18.7
				l9.2,5l0.7,13.6l23.4,12.8c-0.8,0.7-0.6,1.6,0.4,2.1c1.2,0.6,3,0.6,4.1-0.1s1-1.7-0.1-2.3c-1-0.6-2.6-0.6-3.7-0.1l-23.4-12.8
				l-0.6-12.8l25,13.7l11.5-0.2h0.1l13.3-8.1c1.2,0.5,2.7,0.4,3.7-0.2c1.1-0.7,1-1.7-0.1-2.3c-1.2-0.6-3-0.6-4.1,0.1
				c-1,0.6-1,1.5-0.2,2.1l-12.9,7.9l-11.1,0.1l-34.3-18.9l5.9-3.6l-19.9-10.9l8.8-5.4l13.7-0.2l10.1,5.6c-0.7,0.7-0.6,1.5,0.4,2.1
				c1.2,0.6,3,0.6,4.1-0.1c1.1-0.7,1-1.7-0.1-2.3s-2.7-0.6-3.8-0.1L1485,182l-12.8,0.2l22.4-13.6l55.9,30.7l39.1-0.5h0.1l21.4-13
				c1.2,0.5,2.7,0.4,3.7-0.2c1.1-0.7,1-1.7-0.1-2.3c-1.2-0.6-3-0.6-4.1,0.1c-1,0.6-1,1.5-0.2,2.1l-21,12.8l-38.8,0.5l-43.1-23.7
				l18-0.2l18.1,9.9c-0.8,0.7-0.6,1.6,0.4,2.1c1.2,0.6,3,0.6,4.1-0.1c1.1-0.7,1-1.7-0.1-2.3c-1-0.6-2.6-0.6-3.7-0.1l-18.5-10.2
				l-19.2,0.3l-11.2-6.2l26.8-16.4l88.2-1.2l70.5,38.8c-0.8,0.7-0.6,1.6,0.4,2.1c1.2,0.6,3,0.6,4.1-0.1
				C1686.2,190.3,1686.1,189.3,1685,188.6z"/>
		</g>
	</g>
</g>
<g>
	<g>
		
			<linearGradient id="SVGID_6_" gradientUnits="userSpaceOnUse" x1="3295.0515" y1="1302.9027" x2="3350.7776" y2="1302.9027" gradientTransform="matrix(-0.7071 0.7071 -0.7071 -0.7071 4443.7417 -1174.6766)">
			<stop  offset="0" style="stop-color:#D4088C"/>
			<stop  offset="4.496314e-02" style="stop-color:#CC088C"/>
			<stop  offset="0.4621" style="stop-color:#85078A"/>
			<stop  offset="0.7624" style="stop-color:#590689"/>
			<stop  offset="0.914" style="stop-color:#480689"/>
		</linearGradient>
		<circle class="st8" cx="1172.8" cy="253.7" r="27.9"/>
		
			<linearGradient id="SVGID_7_" gradientUnits="userSpaceOnUse" x1="3121.7236" y1="636.4839" x2="3144.8008" y2="636.4839" gradientTransform="matrix(-1 0 0 -1 4342.1528 693.2839)">
			<stop  offset="0" style="stop-color:#6EE8FC"/>
			<stop  offset="0.1572" style="stop-color:#6AE2FB"/>
			<stop  offset="0.3681" style="stop-color:#5ED1F7"/>
			<stop  offset="0.6094" style="stop-color:#4BB5F1"/>
			<stop  offset="0.8716" style="stop-color:#308EE8"/>
			<stop  offset="0.9624" style="stop-color:#267FE5"/>
		</linearGradient>
		<circle class="st9" cx="1208.9" cy="56.8" r="11.5"/>
		
			<linearGradient id="SVGID_8_" gradientUnits="userSpaceOnUse" x1="1463.6804" y1="1538.7952" x2="1515.5613" y2="1538.7952" gradientTransform="matrix(0.8955 0.445 -0.445 0.8955 904.424 -1872.1714)">
			<stop  offset="0" style="stop-color:#6EE8FC"/>
			<stop  offset="0.1572" style="stop-color:#6AE2FB"/>
			<stop  offset="0.3681" style="stop-color:#5ED1F7"/>
			<stop  offset="0.6094" style="stop-color:#4BB5F1"/>
			<stop  offset="0.8716" style="stop-color:#308EE8"/>
			<stop  offset="0.9624" style="stop-color:#267FE5"/>
		</linearGradient>
		<circle class="st10" cx="1551.4" cy="167.6" r="20.7"/>
		<path class="st11" d="M1544.8,253.2c-8.3,1.6-17.4-1-20.2-5.8c-2.8-4.8,1.7-10,10-11.6s17.4,1,20.2,5.8S1553.1,251.6,1544.8,253.2
			z"/>
		<ellipse class="st11" cx="1173.2" cy="335" rx="22.2" ry="12.8"/>
		<path class="st11" d="M1211.4,103.4c-4.2,0.8-8.7-0.5-10.1-2.9s0.8-5,5-5.8s8.7,0.5,10.1,2.9S1215.6,102.6,1211.4,103.4z"/>
		<g>
			<circle class="st12" cx="1277.4" cy="56.4" r="2.2"/>
			<circle class="st12" cx="1239.4" cy="305.8" r="3.6"/>
			<path class="st13" d="M1212.6,293.6c0,1-0.8,1.8-1.8,1.8s-1.8-0.8-1.8-1.8s0.8-1.8,1.8-1.8
				C1211.7,291.8,1212.6,292.6,1212.6,293.6z"/>
			<path class="st13" d="M1523.8,225.9c0,1-0.8,1.9-1.9,1.9s-1.9-0.8-1.9-1.9c0-1,0.8-1.9,1.9-1.9S1523.8,224.9,1523.8,225.9z"/>
			<g>
				<path class="st13" d="M1173.2,98c0,1.5-1.2,2.7-2.7,2.7s-2.7-1.2-2.7-2.7s1.2-2.7,2.7-2.7C1172,95.4,1173.2,96.6,1173.2,98z"/>
				<path class="st13" d="M1425.7,322.2c0,1.5-1.2,2.7-2.7,2.7s-2.7-1.2-2.7-2.7s1.2-2.7,2.7-2.7S1425.7,320.7,1425.7,322.2z"/>
				<path class="st13" d="M1298.1,310.4c0,0.8-0.7,1.5-1.5,1.5s-1.5-0.7-1.5-1.5s0.7-1.5,1.5-1.5
					C1297.5,308.9,1298.1,309.6,1298.1,310.4z"/>
			</g>
			<path class="st14" d="M1436.7,64.6c0,1-0.8,1.7-1.7,1.7c-1,0-1.7-0.8-1.7-1.7c0-1,0.8-1.7,1.7-1.7
				C1435.9,62.8,1436.7,63.6,1436.7,64.6z"/>
		</g>
		<g>
			<g>
				<polygon class="st15" points="1174.5,186.3 1173.8,183.9 1178.9,182.6 1177.5,177.4 1179.8,176.9 1181.8,184.1 				"/>
			</g>
			<g>
				<polygon class="st15" points="1170,194.1 1169.4,191.9 1174.4,190.4 1173,185.4 1175.3,184.8 1177.4,192.1 				"/>
			</g>
			<g>
				<polygon class="st15" points="1174.8,191.6 1172.7,184.3 1180.1,182.3 1180.7,184.4 1175.6,185.9 1177,190.9 				"/>
			</g>
		</g>
		<path class="st15" d="M1365.4,38.4c-3.1,0-5.6-2.5-5.6-5.6s2.5-5.6,5.6-5.6s5.6,2.5,5.6,5.6S1368.5,38.4,1365.4,38.4z
			 M1365.4,29.5c-1.8,0-3.3,1.5-3.3,3.3s1.5,3.3,3.3,3.3s3.3-1.5,3.3-3.3C1368.6,30.9,1367.2,29.5,1365.4,29.5z"/>
		<path class="st15" d="M1488.9,309l-6.4-6.4l6.4-6.4l6.4,6.4L1488.9,309z M1485.9,302.6l3.1,3.1l3.1-3.1l-3.1-3.1L1485.9,302.6z"/>
		<g>
			
				<rect x="1474.2" y="93.1" transform="matrix(0.7071 -0.7071 0.7071 0.7071 362.8456 1071.9427)" class="st14" width="2.4" height="9.7"/>
			
				<rect x="1470.5" y="96.8" transform="matrix(0.7071 -0.7071 0.7071 0.7071 362.7906 1071.9353)" class="st14" width="9.7" height="2.4"/>
		</g>
	</g>
	<g class="st16">
		<path class="st17" d="M1347.1,233.6l-46.3-26.7c-3.3-1.9-2.9-5.2,0.9-7.4l44.5-25.7c3.8-2.2,9.6-2.4,12.8-0.5l46.3,26.7
			c3.3,1.9,2.9,5.2-0.9,7.4l-44.5,25.7C1356.1,235.3,1350.4,235.5,1347.1,233.6z"/>
		<path class="st17" d="M1421.4,280.1l-46.3-26.7c-3.3-1.9-2.9-5.2,0.9-7.4l44.5-25.7c3.8-2.2,9.6-2.4,12.8-0.5l46.3,26.7
			c3.3,1.9,2.9,5.2-0.9,7.4l-44.5,25.7C1430.5,281.7,1424.7,282,1421.4,280.1z"/>
		<path class="st17" d="M1272.3,276.3l-46.3-26.7c-3.3-1.9-2.9-5.2,0.9-7.4l44.5-25.7c3.8-2.2,9.6-2.4,12.8-0.5l46.3,26.7
			c3.3,1.9,2.9,5.2-0.9,7.4l-44.5,25.7C1281.4,277.9,1275.6,278.2,1272.3,276.3z"/>
		<path class="st17" d="M1346.7,322.7l-46.3-26.7c-3.3-1.9-2.9-5.2,0.9-7.4l44.5-25.7c3.8-2.2,9.6-2.4,12.8-0.5l46.3,26.7
			c3.3,1.9,2.9,5.2-0.9,7.4l-44.5,25.7C1355.7,324.4,1349.9,324.6,1346.7,322.7z"/>
	</g>
	<g>
		<g>
			<path class="st17" d="M1347.1,221.2l-46.3-26.7c-3.3-1.9-2.9-5.2,0.9-7.4l44.5-25.7c3.8-2.2,9.6-2.4,12.8-0.5l46.3,26.7
				c3.3,1.9,2.9,5.2-0.9,7.4l-44.5,25.7C1356.1,222.8,1350.4,223.1,1347.1,221.2z"/>
			<g class="st3">
				
					<linearGradient id="SVGID_9_" gradientUnits="userSpaceOnUse" x1="1288.2675" y1="608.7" x2="1421.0198" y2="608.7" gradientTransform="matrix(1 0 0 1 0 -436)">
					<stop  offset="0" style="stop-color:#A31FA9"/>
					<stop  offset="6.679147e-02" style="stop-color:#8B17A0"/>
					<stop  offset="0.1494" style="stop-color:#740F98"/>
					<stop  offset="0.2393" style="stop-color:#640A92"/>
					<stop  offset="0.3408" style="stop-color:#5B078F"/>
					<stop  offset="0.4785" style="stop-color:#58068E"/>
					<stop  offset="0.6264" style="stop-color:#4D22A3"/>
					<stop  offset="0.9436" style="stop-color:#3168DA"/>
					<stop  offset="1" style="stop-color:#2C75E4"/>
				</linearGradient>
				<path class="st18" d="M1407.5,157.4h-23l-25.6-14.8c-3.3-1.9-9-1.7-12.8,0.5l-24.6,14.2h-23v15.4l0,0c-0.1,1.3,0.6,2.5,2.2,3.4
					l46.3,26.7c3.3,1.9,9,1.7,12.8-0.5l44.5-25.7c2-1.1,3-2.6,3.1-4l0,0L1407.5,157.4L1407.5,157.4z"/>
				<path class="st14" d="M1300,173.8L1300,173.8v-15.4h23l24.6-14.2c3.8-2.2,9.6-2.4,12.8-0.5l25.6,14.8h21.5v-1.1h-23l-25.6-14.8
					c-3.3-1.9-9-1.7-12.8,0.5l-24.6,14.2h-23v15.4l0,0c-0.1,1.3,0.6,2.5,2.2,3.4l0.3,0.2C1300.3,175.6,1300,174.7,1300,173.8z"/>
				
					<linearGradient id="SVGID_10_" gradientUnits="userSpaceOnUse" x1="2437.2322" y1="1553.5405" x2="2499.8518" y2="1499.3104" gradientTransform="matrix(0.866 0.5 -1 0.5774 740.5796 -1958.2791)">
					<stop  offset="0" style="stop-color:#8D139B"/>
					<stop  offset="0.1651" style="stop-color:#851BA1"/>
					<stop  offset="0.4284" style="stop-color:#6E33B2"/>
					<stop  offset="0.7551" style="stop-color:#4958CD"/>
					<stop  offset="1" style="stop-color:#2979E4"/>
				</linearGradient>
				<path class="st19" d="M1347.1,187.5l-46.3-26.7c-3.3-1.9-2.9-5.2,0.9-7.4l44.5-25.7c3.8-2.2,9.6-2.4,12.8-0.5l46.3,26.7
					c3.3,1.9,2.9,5.2-0.9,7.4l-44.5,25.7C1356.1,189.2,1350.4,189.4,1347.1,187.5z"/>
				<path class="st13" d="M1405.3,153.9l-46.3-26.7c-1.7-1-4.1-1.4-6.5-1.3c1.8,0.1,3.4,0.5,4.7,1.3l46.3,26.7
					c3.3,1.9,2.9,5.2-0.9,7.4l-44.5,25.7c-1.8,1.1-4.1,1.7-6.4,1.8c2.8,0.2,5.8-0.4,8.2-1.8l44.5-25.7
					C1408.2,159.1,1408.6,155.8,1405.3,153.9z"/>
				<path class="st20" d="M1352.8,181.2c-1.6,0-3.2-0.3-4.3-1l-34.5-19.9c-1.2-0.7-1.9-1.7-1.9-2.7c0-1.3,0.9-2.5,2.5-3.5l33.1-19.1
					c2.9-1.7,7.4-1.9,10-0.4l34.5,19.9c1.2,0.7,1.9,1.7,1.9,2.7c0,1.3-0.9,2.5-2.5,3.5l-33.1,19.1
					C1356.8,180.7,1354.7,181.2,1352.8,181.2z M1353.3,134.3c-1.8,0-3.7,0.4-5.2,1.3l-33.1,19.1c-1.4,0.8-2.1,1.8-2.1,2.8
					c0,0.8,0.5,1.5,1.5,2.1l34.5,19.9c2.3,1.4,6.4,1.2,9.2-0.4l33.1-19.1c1.4-0.8,2.1-1.8,2.1-2.8c0-0.8-0.5-1.5-1.5-2.1l-34.5-19.9
					C1356.2,134.6,1354.8,134.3,1353.3,134.3z"/>
				<path class="st14" d="M1349.2,187.5l-46.3-26.7c-3.3-1.9-2.9-5.2,0.9-7.4l44.5-25.7c1.8-1,4-1.6,6.3-1.8c-2.8-0.2-6,0.4-8.3,1.8
					l-44.5,25.7c-3.8,2.2-4.2,5.5-0.9,7.4l46.3,26.7c1.7,1,4.1,1.4,6.6,1.2C1352,188.7,1350.4,188.2,1349.2,187.5z"/>
			</g>
			<g class="st5">
				
					<linearGradient id="SVGID_11_" gradientUnits="userSpaceOnUse" x1="1288.2675" y1="587.4" x2="1421.0198" y2="587.4" gradientTransform="matrix(1 0 0 1 0 -436)">
					<stop  offset="0" style="stop-color:#A31FA9"/>
					<stop  offset="6.679147e-02" style="stop-color:#8B17A0"/>
					<stop  offset="0.1494" style="stop-color:#740F98"/>
					<stop  offset="0.2393" style="stop-color:#640A92"/>
					<stop  offset="0.3408" style="stop-color:#5B078F"/>
					<stop  offset="0.4785" style="stop-color:#58068E"/>
					<stop  offset="0.6264" style="stop-color:#4D22A3"/>
					<stop  offset="0.9436" style="stop-color:#3168DA"/>
					<stop  offset="1" style="stop-color:#2C75E4"/>
				</linearGradient>
				<path class="st21" d="M1407.5,136.1h-23l-25.6-14.8c-3.3-1.9-9-1.7-12.8,0.5l-24.6,14.2h-23v15.4l0,0c-0.1,1.3,0.6,2.5,2.2,3.4
					l46.3,26.7c3.3,1.9,9,1.7,12.8-0.5l44.5-25.7c2-1.1,3-2.6,3.1-4l0,0L1407.5,136.1L1407.5,136.1z"/>
				<path class="st14" d="M1300,152.6L1300,152.6v-15.4h23l24.6-14.2c3.8-2.2,9.6-2.4,12.8-0.5l25.6,14.8h21.5v-1.1h-23l-25.6-14.8
					c-3.3-1.9-9-1.7-12.8,0.5l-24.6,14.2h-23v15.4l0,0c-0.1,1.3,0.6,2.5,2.2,3.4l0.3,0.2C1300.3,154.4,1300,153.5,1300,152.6z"/>
				
					<linearGradient id="SVGID_12_" gradientUnits="userSpaceOnUse" x1="2416.0278" y1="1535.186" x2="2478.6475" y2="1480.9558" gradientTransform="matrix(0.866 0.5 -1 0.5774 740.5796 -1958.2791)">
					<stop  offset="0" style="stop-color:#8D139B"/>
					<stop  offset="0.1651" style="stop-color:#851BA1"/>
					<stop  offset="0.4284" style="stop-color:#6E33B2"/>
					<stop  offset="0.7551" style="stop-color:#4958CD"/>
					<stop  offset="1" style="stop-color:#2979E4"/>
				</linearGradient>
				<path class="st22" d="M1347.1,166.3l-46.3-26.7c-3.3-1.9-2.9-5.2,0.9-7.4l44.5-25.7c3.8-2.2,9.6-2.4,12.8-0.5l46.3,26.7
					c3.3,1.9,2.9,5.2-0.9,7.4l-44.5,25.7C1356.1,168,1350.4,168.2,1347.1,166.3z"/>
				<path class="st13" d="M1405.3,132.7L1359,106c-1.7-1-4.1-1.4-6.5-1.3c1.8,0.1,3.4,0.5,4.7,1.3l46.3,26.7
					c3.3,1.9,2.9,5.2-0.9,7.4l-44.5,25.7c-1.8,1.1-4.1,1.7-6.4,1.8c2.8,0.2,5.8-0.4,8.2-1.8l44.5-25.7
					C1408.2,137.9,1408.6,134.6,1405.3,132.7z"/>
				<path class="st20" d="M1352.8,159.9c-1.6,0-3.2-0.3-4.3-1L1314,139c-1.2-0.7-1.9-1.7-1.9-2.7c0-1.3,0.9-2.5,2.5-3.5l33.1-19.1
					c2.9-1.7,7.4-1.9,10-0.4l34.5,19.9c1.2,0.7,1.9,1.7,1.9,2.7c0,1.3-0.9,2.5-2.5,3.5l-33.1,19.1
					C1356.8,159.5,1354.7,159.9,1352.8,159.9z M1348.8,158.2c2.3,1.3,6.4,1.2,9.2-0.4l33.1-19.1c1.4-0.8,2.1-1.8,2.1-2.8
					c0-0.8-0.5-1.5-1.5-2.1l-34.5-19.9c-2.3-1.3-6.4-1.2-9.2,0.4l-33.1,19.1c-1.4,0.8-2.1,1.8-2.1,2.8c0,0.8,0.5,1.5,1.5,2.1
					L1348.8,158.2z"/>
				<path class="st14" d="M1349.2,166.3l-46.3-26.7c-3.3-1.9-2.9-5.2,0.9-7.4l44.5-25.7c1.8-1,4-1.6,6.3-1.8c-2.8-0.2-6,0.4-8.3,1.8
					l-44.5,25.7c-3.8,2.2-4.2,5.5-0.9,7.4l46.3,26.7c1.7,1,4.1,1.4,6.6,1.2C1352,167.4,1350.4,167,1349.2,166.3z"/>
			</g>
			<g class="st23">
				
					<linearGradient id="SVGID_13_" gradientUnits="userSpaceOnUse" x1="1288.2675" y1="566.2" x2="1421.0198" y2="566.2" gradientTransform="matrix(1 0 0 1 0 -436)">
					<stop  offset="0" style="stop-color:#A31FA9"/>
					<stop  offset="6.679147e-02" style="stop-color:#8B17A0"/>
					<stop  offset="0.1494" style="stop-color:#740F98"/>
					<stop  offset="0.2393" style="stop-color:#640A92"/>
					<stop  offset="0.3408" style="stop-color:#5B078F"/>
					<stop  offset="0.4785" style="stop-color:#58068E"/>
					<stop  offset="0.6264" style="stop-color:#4D22A3"/>
					<stop  offset="0.9436" style="stop-color:#3168DA"/>
					<stop  offset="1" style="stop-color:#2C75E4"/>
				</linearGradient>
				<path class="st24" d="M1407.5,114.9h-23l-25.6-14.8c-3.3-1.9-9-1.7-12.8,0.5l-24.6,14.2h-23v15.4l0,0c-0.1,1.3,0.6,2.5,2.2,3.4
					l46.3,26.7c3.3,1.9,9,1.7,12.8-0.5l44.5-25.7c2-1.1,3-2.6,3.1-4l0,0L1407.5,114.9L1407.5,114.9z"/>
				<path class="st14" d="M1300,131.4L1300,131.4V116h23l24.6-14.2c3.8-2.2,9.6-2.4,12.8-0.5L1386,116h21.5v-1.1h-23l-25.6-14.8
					c-3.3-1.9-9-1.7-12.8,0.5l-24.6,14.2h-23v15.4l0,0c-0.1,1.3,0.6,2.5,2.2,3.4l0.3,0.2C1300.3,133.1,1300,132.3,1300,131.4z"/>
				
					<linearGradient id="SVGID_14_" gradientUnits="userSpaceOnUse" x1="2394.8091" y1="1516.8149" x2="2457.4287" y2="1462.5847" gradientTransform="matrix(0.866 0.5 -1 0.5774 740.5796 -1958.2791)">
					<stop  offset="0" style="stop-color:#8D139B"/>
					<stop  offset="0.1651" style="stop-color:#851BA1"/>
					<stop  offset="0.4284" style="stop-color:#6E33B2"/>
					<stop  offset="0.7551" style="stop-color:#4958CD"/>
					<stop  offset="1" style="stop-color:#2979E4"/>
				</linearGradient>
				<path class="st25" d="M1347.1,145.1l-46.3-26.7c-3.3-1.9-2.9-5.2,0.9-7.4l44.5-25.7c3.8-2.2,9.6-2.4,12.8-0.5l46.3,26.7
					c3.3,1.9,2.9,5.2-0.9,7.4l-44.5,25.7C1356.1,146.7,1350.4,147,1347.1,145.1z"/>
				<path class="st13" d="M1405.3,111.4L1359,84.7c-1.7-1-4.1-1.4-6.5-1.3c1.8,0.1,3.4,0.5,4.7,1.3l46.3,26.7
					c3.3,1.9,2.9,5.2-0.9,7.4l-44.5,25.7c-1.8,1.1-4.1,1.7-6.4,1.8c2.8,0.2,5.8-0.4,8.2-1.8l44.5-25.7
					C1408.2,116.7,1408.6,113.3,1405.3,111.4z"/>
				<path class="st20" d="M1352.8,138.7c-1.6,0-3.2-0.3-4.4-1l-34.5-19.9c-1.2-0.7-1.9-1.7-1.9-2.7c0-1.3,0.9-2.5,2.5-3.5l33.1-19.1
					c2.9-1.7,7.4-1.9,10-0.4l34.5,19.9c1.2,0.7,1.9,1.7,1.9,2.7c0,1.3-0.9,2.5-2.5,3.5l-33.1,19.1
					C1356.8,138.2,1354.7,138.7,1352.8,138.7z M1348.8,137c2.3,1.3,6.4,1.2,9.2-0.4l33.1-19.1c1.4-0.8,2.1-1.8,2.1-2.8
					c0-0.8-0.5-1.5-1.5-2.1l-34.5-19.9c-2.3-1.3-6.4-1.2-9.2,0.4l-33.1,19.1c-1.4,0.8-2.1,1.8-2.1,2.8c0,0.8,0.5,1.5,1.5,2.1
					L1348.8,137z"/>
				<path class="st14" d="M1349.2,145.1l-46.3-26.7c-3.3-1.9-2.9-5.2,0.9-7.4l44.5-25.7c1.8-1,4-1.6,6.3-1.8c-2.8-0.2-6,0.4-8.3,1.8
					l-44.5,25.7c-3.8,2.2-4.2,5.5-0.9,7.4l46.3,26.7c1.7,1,4.1,1.4,6.6,1.2C1352,146.2,1350.4,145.8,1349.2,145.1z"/>
			</g>
			<g>
				
					<linearGradient id="SVGID_15_" gradientUnits="userSpaceOnUse" x1="1288.2675" y1="545" x2="1421.0198" y2="545" gradientTransform="matrix(1 0 0 1 0 -436)">
					<stop  offset="0" style="stop-color:#A31FA9"/>
					<stop  offset="6.679147e-02" style="stop-color:#8B17A0"/>
					<stop  offset="0.1494" style="stop-color:#740F98"/>
					<stop  offset="0.2393" style="stop-color:#640A92"/>
					<stop  offset="0.3408" style="stop-color:#5B078F"/>
					<stop  offset="0.4785" style="stop-color:#58068E"/>
					<stop  offset="0.6264" style="stop-color:#4D22A3"/>
					<stop  offset="0.9436" style="stop-color:#3168DA"/>
					<stop  offset="1" style="stop-color:#2C75E4"/>
				</linearGradient>
				<path class="st26" d="M1407.5,93.7h-23L1359,78.9c-3.3-1.9-9-1.7-12.8,0.5l-24.6,14.2h-23V109l0,0c-0.1,1.3,0.6,2.5,2.2,3.4
					l46.3,26.7c3.3,1.9,9,1.7,12.8-0.5l44.5-25.7c2-1.1,3-2.6,3.1-4l0,0V93.7z"/>
				<path class="st14" d="M1300,110.1L1300,110.1V94.7h23l24.6-14.2c3.8-2.2,9.6-2.4,12.8-0.5l25.6,14.8h21.5v-1.1h-23L1359,78.9
					c-3.3-1.9-9-1.7-12.8,0.5l-24.6,14.2h-23V109l0,0c-0.1,1.3,0.6,2.5,2.2,3.4l0.3,0.2C1300.3,111.9,1300,111,1300,110.1z"/>
				
					<linearGradient id="SVGID_16_" gradientUnits="userSpaceOnUse" x1="2373.5337" y1="1498.3781" x2="2436.1533" y2="1444.1479" gradientTransform="matrix(0.866 0.5 -1 0.5774 740.5796 -1958.2791)">
					<stop  offset="0" style="stop-color:#267FE5"/>
					<stop  offset="0.1699" style="stop-color:#2C87E7"/>
					<stop  offset="0.441" style="stop-color:#3D9FEB"/>
					<stop  offset="0.7773" style="stop-color:#59C4F2"/>
					<stop  offset="1" style="stop-color:#6EE1F8"/>
				</linearGradient>
				<path class="st27" d="M1347.1,123.8l-46.3-26.7c-3.3-1.9-2.9-5.2,0.9-7.4l44.5-25.7c3.8-2.2,9.6-2.4,12.8-0.5l46.3,26.7
					c3.3,1.9,2.9,5.2-0.9,7.4l-44.5,25.7C1356.1,125.5,1350.4,125.7,1347.1,123.8z"/>
				<path class="st13" d="M1405.3,90.2L1359,63.5c-1.7-1-4.1-1.4-6.5-1.3c1.8,0.1,3.4,0.5,4.7,1.3l46.3,26.7
					c3.3,1.9,2.9,5.2-0.9,7.4l-44.5,25.7c-1.8,1.1-4.1,1.7-6.4,1.8c2.8,0.2,5.8-0.4,8.2-1.8l44.5-25.7
					C1408.2,95.4,1408.6,92.1,1405.3,90.2z"/>
				
					<linearGradient id="SVGID_17_" gradientUnits="userSpaceOnUse" x1="1312.1" y1="529.6948" x2="1394.0171" y2="529.6948" gradientTransform="matrix(1 0 0 1 0 -436)">
					<stop  offset="0" style="stop-color:#6DE0F6"/>
					<stop  offset="0.1595" style="stop-color:#68D8F5"/>
					<stop  offset="0.4138" style="stop-color:#5AC0F1"/>
					<stop  offset="0.7294" style="stop-color:#439BEA"/>
					<stop  offset="1" style="stop-color:#2C75E4"/>
				</linearGradient>
				<path class="st28" d="M1352.8,117.5c-1.6,0-3.2-0.3-4.3-1L1314,96.6c-1.2-0.7-1.9-1.7-1.9-2.7c0-1.3,0.9-2.5,2.5-3.5l33.1-19.1
					c2.9-1.7,7.4-1.9,10-0.4l34.5,19.9c1.2,0.7,1.9,1.7,1.9,2.7c0,1.3-0.9,2.5-2.5,3.5l-33.1,19.1
					C1356.8,117,1354.7,117.5,1352.8,117.5z M1348.8,115.8c2.3,1.3,6.4,1.2,9.2-0.4l33.1-19.1c1.4-0.8,2.1-1.8,2.1-2.8
					c0-0.8-0.5-1.5-1.5-2.1l-34.5-19.9c-2.3-1.4-6.4-1.2-9.2,0.4L1315,91c-1.4,0.8-2.1,1.8-2.1,2.8c0,0.8,0.5,1.5,1.5,2.1
					L1348.8,115.8z"/>
				<path class="st29" d="M1349.2,123.8l-46.3-26.7c-3.3-1.9-2.9-5.2,0.9-7.4l44.5-25.7c1.8-1,4-1.6,6.3-1.8c-2.8-0.2-6,0.4-8.3,1.8
					l-44.5,25.7c-3.8,2.2-4.2,5.5-0.9,7.4l46.3,26.7c1.7,1,4.1,1.4,6.6,1.2C1352,125,1350.4,124.5,1349.2,123.8z"/>
			</g>
		</g>
		<g>
			<g class="st3">
				
					<linearGradient id="SVGID_18_" gradientUnits="userSpaceOnUse" x1="1362.5988" y1="655.1" x2="1495.351" y2="655.1" gradientTransform="matrix(1 0 0 1 0 -436)">
					<stop  offset="0" style="stop-color:#A31FA9"/>
					<stop  offset="6.679147e-02" style="stop-color:#8B17A0"/>
					<stop  offset="0.1494" style="stop-color:#740F98"/>
					<stop  offset="0.2393" style="stop-color:#640A92"/>
					<stop  offset="0.3408" style="stop-color:#5B078F"/>
					<stop  offset="0.4785" style="stop-color:#58068E"/>
					<stop  offset="0.6264" style="stop-color:#4D22A3"/>
					<stop  offset="0.9436" style="stop-color:#3168DA"/>
					<stop  offset="1" style="stop-color:#2C75E4"/>
				</linearGradient>
				<path class="st30" d="M1481.9,203.8h-23l-25.6-14.8c-3.3-1.9-9-1.7-12.8,0.5l-24.6,14.2h-23v15.4l0,0c-0.1,1.3,0.6,2.5,2.2,3.4
					l46.3,26.7c3.3,1.9,9,1.7,12.8-0.5l44.5-25.7c2-1.1,3-2.6,3.1-4l0,0L1481.9,203.8L1481.9,203.8z"/>
				<path class="st14" d="M1374.4,220.3L1374.4,220.3v-15.4h23l24.6-14.2c3.8-2.2,9.6-2.4,12.8-0.5l25.6,14.8h21.5v-1.1h-23
					l-25.6-14.8c-3.3-1.9-9-1.7-12.8,0.5l-24.6,14.2h-23v15.4l0,0c-0.1,1.3,0.6,2.5,2.2,3.4l0.3,0.2
					C1374.6,222.1,1374.3,221.2,1374.4,220.3z"/>
				
					<linearGradient id="SVGID_19_" gradientUnits="userSpaceOnUse" x1="2526.6458" y1="1556.6461" x2="2589.2654" y2="1502.416" gradientTransform="matrix(0.866 0.5 -1 0.5774 740.5796 -1958.2791)">
					<stop  offset="0" style="stop-color:#8D139B"/>
					<stop  offset="0.1651" style="stop-color:#851BA1"/>
					<stop  offset="0.4284" style="stop-color:#6E33B2"/>
					<stop  offset="0.7551" style="stop-color:#4958CD"/>
					<stop  offset="1" style="stop-color:#2979E4"/>
				</linearGradient>
				<path class="st31" d="M1421.4,234l-46.3-26.7c-3.3-1.9-2.9-5.2,0.9-7.4l44.5-25.7c3.8-2.2,9.6-2.4,12.8-0.5l46.3,26.7
					c3.3,1.9,2.9,5.2-0.9,7.4l-44.5,25.7C1430.5,235.7,1424.7,235.9,1421.4,234z"/>
				<path class="st13" d="M1479.6,200.4l-46.3-26.7c-1.7-1-4.1-1.4-6.5-1.3c1.8,0.1,3.4,0.5,4.7,1.3l46.3,26.7
					c3.3,1.9,2.9,5.2-0.9,7.4l-44.5,25.7c-1.8,1.1-4.1,1.7-6.4,1.8c2.8,0.2,5.8-0.4,8.2-1.8l44.5-25.7
					C1482.5,205.6,1482.9,202.3,1479.6,200.4z"/>
				<path class="st20" d="M1427.1,227.6c-1.6,0-3.2-0.3-4.3-1l-34.5-19.9c-1.2-0.7-1.9-1.7-1.9-2.7c0-1.3,0.9-2.5,2.5-3.5l33.1-19.1
					c2.9-1.7,7.4-1.9,10-0.4l34.5,19.9c1.2,0.7,1.9,1.7,1.9,2.7c0,1.3-0.9,2.5-2.5,3.5l-33.1,19.1
					C1431.1,227.2,1429,227.6,1427.1,227.6z M1427.7,180.8c-1.8,0-3.7,0.4-5.2,1.3l-33.1,19.1c-1.4,0.8-2.1,1.8-2.1,2.8
					c0,0.8,0.5,1.5,1.5,2.1l34.5,19.9c2.3,1.3,6.4,1.2,9.2-0.4l33.1-19.1c1.4-0.8,2.1-1.8,2.1-2.8c0-0.8-0.5-1.5-1.5-2.1l-34.5-19.9
					C1430.6,181.1,1429.2,180.8,1427.7,180.8z"/>
				<path class="st14" d="M1423.5,234l-46.3-26.7c-3.3-1.9-2.9-5.2,0.9-7.4l44.5-25.7c1.8-1,4-1.6,6.3-1.8c-2.8-0.2-6,0.4-8.3,1.8
					l-44.5,25.7c-3.8,2.2-4.2,5.5-0.9,7.4l46.3,26.7c1.7,1,4.1,1.4,6.6,1.2C1426.3,235.1,1424.7,234.7,1423.5,234z"/>
			</g>
			<g class="st5">
				
					<linearGradient id="SVGID_20_" gradientUnits="userSpaceOnUse" x1="1362.5988" y1="633.95" x2="1495.351" y2="633.95" gradientTransform="matrix(1 0 0 1 0 -436)">
					<stop  offset="0" style="stop-color:#A31FA9"/>
					<stop  offset="6.679147e-02" style="stop-color:#8B17A0"/>
					<stop  offset="0.1494" style="stop-color:#740F98"/>
					<stop  offset="0.2393" style="stop-color:#640A92"/>
					<stop  offset="0.3408" style="stop-color:#5B078F"/>
					<stop  offset="0.4785" style="stop-color:#58068E"/>
					<stop  offset="0.6264" style="stop-color:#4D22A3"/>
					<stop  offset="0.9436" style="stop-color:#3168DA"/>
					<stop  offset="1" style="stop-color:#2C75E4"/>
				</linearGradient>
				<path class="st32" d="M1481.9,182.6h-23l-25.6-14.8c-3.3-1.9-9-1.7-12.8,0.5l-24.6,14.2h-23V198l0,0c-0.1,1.3,0.6,2.5,2.2,3.4
					l46.3,26.7c3.3,1.9,9,1.7,12.8-0.5l44.5-25.7c2-1.1,3-2.6,3.1-4l0,0L1481.9,182.6L1481.9,182.6z"/>
				<path class="st14" d="M1374.4,199.1L1374.4,199.1v-15.4h23l24.6-14.2c3.8-2.2,9.6-2.4,12.8-0.5l25.6,14.8h21.5v-1.1h-23
					l-25.6-14.8c-3.3-1.9-9-1.7-12.8,0.5l-24.6,14.2h-23V198l0,0c-0.1,1.3,0.6,2.5,2.2,3.4l0.3,0.2
					C1374.6,200.9,1374.3,200,1374.4,199.1z"/>
				
					<linearGradient id="SVGID_21_" gradientUnits="userSpaceOnUse" x1="2505.427" y1="1538.275" x2="2568.0466" y2="1484.0448" gradientTransform="matrix(0.866 0.5 -1 0.5774 740.5796 -1958.2791)">
					<stop  offset="0" style="stop-color:#8D139B"/>
					<stop  offset="0.1651" style="stop-color:#851BA1"/>
					<stop  offset="0.4284" style="stop-color:#6E33B2"/>
					<stop  offset="0.7551" style="stop-color:#4958CD"/>
					<stop  offset="1" style="stop-color:#2979E4"/>
				</linearGradient>
				<path class="st33" d="M1421.4,212.8l-46.3-26.7c-3.3-1.9-2.9-5.2,0.9-7.4l44.5-25.7c3.8-2.2,9.6-2.4,12.8-0.5l46.3,26.7
					c3.3,1.9,2.9,5.2-0.9,7.4l-44.5,25.7C1430.5,214.4,1424.7,214.7,1421.4,212.8z"/>
				<path class="st13" d="M1479.6,179.2l-46.3-26.7c-1.7-1-4.1-1.4-6.5-1.3c1.8,0.1,3.4,0.5,4.7,1.3l46.3,26.7
					c3.3,1.9,2.9,5.2-0.9,7.4l-44.5,25.7c-1.8,1.1-4.1,1.7-6.4,1.8c2.8,0.2,5.8-0.4,8.2-1.8l44.5-25.7
					C1482.5,184.4,1482.9,181.1,1479.6,179.2z"/>
				<path class="st20" d="M1427.1,206.4c-1.6,0-3.2-0.3-4.3-1l-34.5-19.9c-1.2-0.7-1.9-1.7-1.9-2.7c0-1.3,0.9-2.5,2.5-3.5l33.1-19.1
					c2.9-1.7,7.4-1.9,10-0.4l34.5,19.9c1.2,0.7,1.9,1.7,1.9,2.7c0,1.3-0.9,2.5-2.5,3.5l-33.1,19.1
					C1431.1,205.9,1429.1,206.4,1427.1,206.4z M1423.1,204.7c2.3,1.3,6.5,1.2,9.2-0.4l33.1-19.1c1.4-0.8,2.1-1.8,2.1-2.8
					c0-0.8-0.5-1.5-1.5-2.1l-34.5-19.9c-2.3-1.3-6.4-1.2-9.2,0.4l-33.1,19.1c-1.4,0.8-2.1,1.8-2.1,2.8c0,0.8,0.5,1.5,1.5,2.1
					L1423.1,204.7z"/>
				<path class="st14" d="M1423.5,212.8l-46.3-26.7c-3.3-1.9-2.9-5.2,0.9-7.4l44.5-25.7c1.8-1,4-1.6,6.3-1.8c-2.8-0.2-6,0.4-8.3,1.8
					l-44.5,25.7c-3.8,2.2-4.2,5.5-0.9,7.4l46.3,26.7c1.7,1,4.1,1.4,6.6,1.2C1426.3,213.9,1424.7,213.5,1423.5,212.8z"/>
			</g>
			<g class="st23">
				
					<linearGradient id="SVGID_22_" gradientUnits="userSpaceOnUse" x1="1362.5988" y1="612.7" x2="1495.351" y2="612.7" gradientTransform="matrix(1 0 0 1 0 -436)">
					<stop  offset="0" style="stop-color:#A31FA9"/>
					<stop  offset="6.679147e-02" style="stop-color:#8B17A0"/>
					<stop  offset="0.1494" style="stop-color:#740F98"/>
					<stop  offset="0.2393" style="stop-color:#640A92"/>
					<stop  offset="0.3408" style="stop-color:#5B078F"/>
					<stop  offset="0.4785" style="stop-color:#58068E"/>
					<stop  offset="0.6264" style="stop-color:#4D22A3"/>
					<stop  offset="0.9436" style="stop-color:#3168DA"/>
					<stop  offset="1" style="stop-color:#2C75E4"/>
				</linearGradient>
				<path class="st34" d="M1481.9,161.4h-23l-25.6-14.8c-3.3-1.9-9-1.7-12.8,0.5l-24.6,14.2h-23v15.4l0,0c-0.1,1.3,0.6,2.5,2.2,3.4
					l46.3,26.7c3.3,1.9,9,1.7,12.8-0.5l44.5-25.7c2-1.1,3-2.6,3.1-4l0,0L1481.9,161.4L1481.9,161.4z"/>
				<path class="st14" d="M1374.4,177.8L1374.4,177.8v-15.4h23l24.6-14.2c3.8-2.2,9.6-2.4,12.8-0.5l25.6,14.8h21.5v-1.1h-23
					l-25.6-14.8c-3.3-1.9-9-1.7-12.8,0.5l-24.6,14.2h-23v15.4l0,0c-0.1,1.3,0.6,2.5,2.2,3.4l0.3,0.2
					C1374.6,179.6,1374.3,178.7,1374.4,177.8z"/>
				
					<linearGradient id="SVGID_23_" gradientUnits="userSpaceOnUse" x1="2484.1516" y1="1519.8383" x2="2546.771" y2="1465.608" gradientTransform="matrix(0.866 0.5 -1 0.5774 740.5796 -1958.2791)">
					<stop  offset="0" style="stop-color:#8D139B"/>
					<stop  offset="0.1651" style="stop-color:#851BA1"/>
					<stop  offset="0.4284" style="stop-color:#6E33B2"/>
					<stop  offset="0.7551" style="stop-color:#4958CD"/>
					<stop  offset="1" style="stop-color:#2979E4"/>
				</linearGradient>
				<path class="st35" d="M1421.4,191.5l-46.3-26.7c-3.3-1.9-2.9-5.2,0.9-7.4l44.5-25.7c3.8-2.2,9.6-2.4,12.8-0.5l46.3,26.7
					c3.3,1.9,2.9,5.2-0.9,7.4l-44.5,25.7C1430.5,193.2,1424.7,193.4,1421.4,191.5z"/>
				<path class="st13" d="M1479.6,157.9l-46.3-26.7c-1.7-1-4.1-1.4-6.5-1.3c1.8,0.1,3.4,0.5,4.7,1.3l46.3,26.7
					c3.3,1.9,2.9,5.2-0.9,7.4l-44.5,25.7c-1.8,1.1-4.1,1.7-6.4,1.8c2.8,0.2,5.8-0.4,8.2-1.8l44.5-25.7
					C1482.5,163.1,1482.9,159.8,1479.6,157.9z"/>
				<path class="st20" d="M1427.1,185.2c-1.6,0-3.2-0.3-4.4-1l-34.5-19.9c-1.2-0.7-1.9-1.7-1.9-2.7c0-1.3,0.9-2.5,2.5-3.5l33.1-19.1
					c2.9-1.7,7.4-1.9,10-0.4l34.5,19.9c1.2,0.7,1.9,1.7,1.9,2.7c0,1.3-0.9,2.5-2.5,3.5l-33.1,19.1
					C1431.1,184.7,1429.1,185.2,1427.1,185.2z M1423.1,183.5c2.3,1.3,6.4,1.2,9.2-0.4l33.1-19.1c1.4-0.8,2.1-1.8,2.1-2.8
					c0-0.8-0.5-1.5-1.5-2.1l-34.5-19.9c-2.3-1.3-6.4-1.2-9.2,0.4l-33.1,19.1c-1.4,0.8-2.1,1.8-2.1,2.8c0,0.8,0.5,1.5,1.5,2.1
					L1423.1,183.5z"/>
				<path class="st14" d="M1423.5,191.5l-46.3-26.7c-3.3-1.9-2.9-5.2,0.9-7.4l44.5-25.7c1.8-1,4-1.6,6.3-1.8c-2.8-0.2-6,0.4-8.3,1.8
					l-44.5,25.7c-3.8,2.2-4.2,5.5-0.9,7.4l46.3,26.7c1.7,1,4.1,1.4,6.6,1.2C1426.3,192.7,1424.7,192.3,1423.5,191.5z"/>
			</g>
			<g>
				
					<linearGradient id="SVGID_24_" gradientUnits="userSpaceOnUse" x1="1362.5988" y1="591.4" x2="1495.351" y2="591.4" gradientTransform="matrix(1 0 0 1 0 -436)">
					<stop  offset="0" style="stop-color:#A31FA9"/>
					<stop  offset="6.679147e-02" style="stop-color:#8B17A0"/>
					<stop  offset="0.1494" style="stop-color:#740F98"/>
					<stop  offset="0.2393" style="stop-color:#640A92"/>
					<stop  offset="0.3408" style="stop-color:#5B078F"/>
					<stop  offset="0.4785" style="stop-color:#58068E"/>
					<stop  offset="0.6264" style="stop-color:#4D22A3"/>
					<stop  offset="0.9436" style="stop-color:#3168DA"/>
					<stop  offset="1" style="stop-color:#2C75E4"/>
				</linearGradient>
				<path class="st36" d="M1481.9,140.1h-23l-25.6-14.8c-3.3-1.9-9-1.7-12.8,0.5l-24.6,14.2h-23v15.4l0,0c-0.1,1.3,0.6,2.5,2.2,3.4
					l46.3,26.7c3.3,1.9,9,1.7,12.8-0.5l44.5-25.7c2-1.1,3-2.6,3.1-4l0,0L1481.9,140.1L1481.9,140.1z"/>
				<path class="st14" d="M1374.4,156.6L1374.4,156.6v-15.4h23L1422,127c3.8-2.2,9.6-2.4,12.8-0.5l25.6,14.8h21.5v-1.1h-23
					l-25.6-14.8c-3.3-1.9-9-1.7-12.8,0.5l-24.6,14.2h-23v15.4l0,0c-0.1,1.3,0.6,2.5,2.2,3.4l0.3,0.2
					C1374.6,158.4,1374.3,157.5,1374.4,156.6z"/>
				
					<linearGradient id="SVGID_25_" gradientUnits="userSpaceOnUse" x1="2462.9473" y1="1501.4836" x2="2525.5669" y2="1447.2535" gradientTransform="matrix(0.866 0.5 -1 0.5774 740.5796 -1958.2791)">
					<stop  offset="0" style="stop-color:#267FE5"/>
					<stop  offset="0.1699" style="stop-color:#2C87E7"/>
					<stop  offset="0.441" style="stop-color:#3D9FEB"/>
					<stop  offset="0.7773" style="stop-color:#59C4F2"/>
					<stop  offset="1" style="stop-color:#6EE1F8"/>
				</linearGradient>
				<path class="st37" d="M1421.4,170.3l-46.3-26.7c-3.3-1.9-2.9-5.2,0.9-7.4l44.5-25.7c3.8-2.2,9.6-2.4,12.8-0.5l46.3,26.7
					c3.3,1.9,2.9,5.2-0.9,7.4l-44.5,25.7C1430.5,172,1424.7,172.2,1421.4,170.3z"/>
				<path class="st13" d="M1479.6,136.7l-46.3-26.7c-1.7-1-4.1-1.4-6.5-1.3c1.8,0.1,3.4,0.5,4.7,1.3l46.3,26.7
					c3.3,1.9,2.9,5.2-0.9,7.4l-44.5,25.7c-1.8,1.1-4.1,1.7-6.4,1.8c2.8,0.2,5.8-0.4,8.2-1.8l44.5-25.7
					C1482.5,141.9,1482.9,138.6,1479.6,136.7z"/>
				
					<linearGradient id="SVGID_26_" gradientUnits="userSpaceOnUse" x1="1386.3999" y1="576.0947" x2="1468.3171" y2="576.0947" gradientTransform="matrix(1 0 0 1 0 -436)">
					<stop  offset="0" style="stop-color:#6DE0F6"/>
					<stop  offset="0.1595" style="stop-color:#68D8F5"/>
					<stop  offset="0.4138" style="stop-color:#5AC0F1"/>
					<stop  offset="0.7294" style="stop-color:#439BEA"/>
					<stop  offset="1" style="stop-color:#2C75E4"/>
				</linearGradient>
				<path class="st38" d="M1427.1,163.9c-1.6,0-3.2-0.3-4.3-1l-34.5-19.9c-1.2-0.7-1.9-1.7-1.9-2.7c0-1.3,0.9-2.5,2.5-3.5l33.1-19.1
					c2.9-1.7,7.4-1.9,10-0.4l34.5,19.9c1.2,0.7,1.9,1.7,1.9,2.7c0,1.3-0.9,2.5-2.5,3.5l-33.1,19.1
					C1431.1,163.5,1429.1,163.9,1427.1,163.9z M1423.1,162.3c2.3,1.3,6.4,1.2,9.2-0.4l33.1-19.1c1.4-0.8,2.1-1.8,2.1-2.8
					c0-0.8-0.5-1.5-1.5-2.1l-34.5-19.9c-2.3-1.3-6.4-1.2-9.2,0.4l-33.1,19.1c-1.4,0.8-2.1,1.8-2.1,2.8c0,0.8,0.5,1.5,1.5,2.1
					L1423.1,162.3z"/>
				<path class="st29" d="M1423.5,170.3l-46.3-26.7c-3.3-1.9-2.9-5.2,0.9-7.4l44.5-25.7c1.8-1,4-1.6,6.3-1.8c-2.8-0.2-6,0.4-8.3,1.8
					l-44.5,25.7c-3.8,2.2-4.2,5.5-0.9,7.4l46.3,26.7c1.7,1,4.1,1.4,6.6,1.2C1426.3,171.4,1424.7,171,1423.5,170.3z"/>
				<g>
					<path class="st39" d="M1435.6,178.9l39.2-22.7c0.4-0.2,0.6-0.8,0.6-1.2v-1.9c0-0.5-0.3-0.7-0.6-0.5l-39.2,22.7
						c-0.4,0.2-0.6,0.8-0.6,1.2v1.9C1434.9,178.9,1435.2,179.1,1435.6,178.9z"/>
					<path class="st40" d="M1473.9,155.7c0.4-0.2,0.6-0.8,0.6-1.2v-1.7l0.2-0.1c0.4-0.2,0.6,0,0.6,0.5v1.9c0,0.5-0.3,1-0.6,1.2
						l-39.2,22.7c-0.4,0.2-0.6,0-0.6-0.5v-0.1L1473.9,155.7z"/>
				</g>
			</g>
		</g>
		<g>
			<g class="st3">
				
					<linearGradient id="SVGID_27_" gradientUnits="userSpaceOnUse" x1="1213.5015" y1="651.3" x2="1346.2538" y2="651.3" gradientTransform="matrix(1 0 0 1 0 -436)">
					<stop  offset="0" style="stop-color:#A31FA9"/>
					<stop  offset="6.679147e-02" style="stop-color:#8B17A0"/>
					<stop  offset="0.1494" style="stop-color:#740F98"/>
					<stop  offset="0.2393" style="stop-color:#640A92"/>
					<stop  offset="0.3408" style="stop-color:#5B078F"/>
					<stop  offset="0.4785" style="stop-color:#58068E"/>
					<stop  offset="0.6264" style="stop-color:#4D22A3"/>
					<stop  offset="0.9436" style="stop-color:#3168DA"/>
					<stop  offset="1" style="stop-color:#2C75E4"/>
				</linearGradient>
				<path class="st41" d="M1332.8,200h-23l-25.6-14.8c-3.3-1.9-9-1.7-12.8,0.5l-24.6,14.2h-23v15.4l0,0c-0.1,1.3,0.6,2.5,2.2,3.4
					l46.3,26.7c3.3,1.9,9,1.7,12.8-0.5l44.5-25.7c2-1.1,3-2.6,3.1-4l0,0L1332.8,200L1332.8,200z"/>
				<path class="st14" d="M1225.3,216.5L1225.3,216.5v-15.4h23l24.6-14.2c3.8-2.2,9.6-2.4,12.8-0.5l25.6,14.8h21.5V200h-23
					l-25.6-14.8c-3.3-1.9-9-1.7-12.8,0.5l-24.6,14.2h-23v15.4l0,0c-0.1,1.3,0.6,2.5,2.2,3.4l0.3,0.2
					C1225.5,218.3,1225.2,217.4,1225.3,216.5z"/>
				
					<linearGradient id="SVGID_28_" gradientUnits="userSpaceOnUse" x1="2436.7585" y1="1627.9028" x2="2499.3782" y2="1573.6726" gradientTransform="matrix(0.866 0.5 -1 0.5774 740.5796 -1958.2791)">
					<stop  offset="0" style="stop-color:#8D139B"/>
					<stop  offset="0.1651" style="stop-color:#851BA1"/>
					<stop  offset="0.4284" style="stop-color:#6E33B2"/>
					<stop  offset="0.7551" style="stop-color:#4958CD"/>
					<stop  offset="1" style="stop-color:#2979E4"/>
				</linearGradient>
				<path class="st42" d="M1272.3,230.2l-46.3-26.7c-3.3-1.9-2.9-5.2,0.9-7.4l44.5-25.7c3.8-2.2,9.6-2.4,12.8-0.5l46.3,26.7
					c3.3,1.9,2.9,5.2-0.9,7.4l-44.5,25.7C1281.4,231.9,1275.6,232.1,1272.3,230.2z"/>
				<path class="st13" d="M1330.5,196.6l-46.3-26.7c-1.7-1-4.1-1.4-6.5-1.3c1.8,0.1,3.4,0.5,4.7,1.3l46.3,26.7
					c3.3,1.9,2.9,5.2-0.9,7.4l-44.5,25.7c-1.8,1.1-4.1,1.7-6.4,1.8c2.8,0.2,5.8-0.4,8.2-1.8l44.5-25.7
					C1333.4,201.8,1333.8,198.5,1330.5,196.6z"/>
				<path class="st20" d="M1278,223.8c-1.6,0-3.2-0.3-4.3-1l-34.5-19.9c-1.2-0.7-1.9-1.7-1.9-2.7c0-1.3,0.9-2.5,2.5-3.5l33.1-19.1
					c2.9-1.7,7.4-1.9,10-0.4l34.5,19.9c1.2,0.7,1.9,1.7,1.9,2.7c0,1.3-0.9,2.5-2.5,3.5l-33.1,19.1C1282,223.4,1280,223.8,1278,223.8
					z M1274,222.2c2.3,1.3,6.5,1.2,9.2-0.4l33.1-19.1c1.4-0.8,2.1-1.8,2.1-2.8c0-0.8-0.5-1.5-1.5-2.1l-34.5-19.9
					c-2.3-1.3-6.4-1.2-9.2,0.4l-33.1,19.1c-1.4,0.8-2.1,1.8-2.1,2.8c0,0.8,0.5,1.5,1.5,2.1L1274,222.2z"/>
				<path class="st14" d="M1274.4,230.2l-46.3-26.7c-3.3-1.9-2.9-5.2,0.9-7.4l44.5-25.7c1.8-1,4-1.6,6.3-1.8c-2.8-0.2-6,0.4-8.3,1.8
					l-44.5,25.7c-3.8,2.2-4.2,5.5-0.9,7.4l46.3,26.7c1.7,1,4.1,1.4,6.6,1.2C1277.2,231.3,1275.6,230.9,1274.4,230.2z"/>
			</g>
			<g class="st5">
				
					<linearGradient id="SVGID_29_" gradientUnits="userSpaceOnUse" x1="1213.5015" y1="630.1" x2="1346.2538" y2="630.1" gradientTransform="matrix(1 0 0 1 0 -436)">
					<stop  offset="0" style="stop-color:#A31FA9"/>
					<stop  offset="6.679147e-02" style="stop-color:#8B17A0"/>
					<stop  offset="0.1494" style="stop-color:#740F98"/>
					<stop  offset="0.2393" style="stop-color:#640A92"/>
					<stop  offset="0.3408" style="stop-color:#5B078F"/>
					<stop  offset="0.4785" style="stop-color:#58068E"/>
					<stop  offset="0.6264" style="stop-color:#4D22A3"/>
					<stop  offset="0.9436" style="stop-color:#3168DA"/>
					<stop  offset="1" style="stop-color:#2C75E4"/>
				</linearGradient>
				<path class="st43" d="M1332.8,178.8h-23l-25.6-14.8c-3.3-1.9-9-1.7-12.8,0.5l-24.6,14.2h-23v15.4l0,0c-0.1,1.3,0.6,2.5,2.2,3.4
					l46.3,26.7c3.3,1.9,9,1.7,12.8-0.5l44.5-25.7c2-1.1,3-2.6,3.1-4l0,0L1332.8,178.8L1332.8,178.8z"/>
				<path class="st14" d="M1225.3,195.3L1225.3,195.3v-15.4h23l24.6-14.2c3.8-2.2,9.6-2.4,12.8-0.5l25.6,14.8h21.5v-1.1h-23
					l-25.6-14.8c-3.3-1.9-9-1.7-12.8,0.5l-24.6,14.2h-23v15.4l0,0c-0.1,1.3,0.6,2.5,2.2,3.4l0.3,0.2
					C1225.5,197,1225.2,196.2,1225.3,195.3z"/>
				
					<linearGradient id="SVGID_30_" gradientUnits="userSpaceOnUse" x1="2415.5398" y1="1609.5316" x2="2478.1594" y2="1555.3015" gradientTransform="matrix(0.866 0.5 -1 0.5774 740.5796 -1958.2791)">
					<stop  offset="0" style="stop-color:#8D139B"/>
					<stop  offset="0.1651" style="stop-color:#851BA1"/>
					<stop  offset="0.4284" style="stop-color:#6E33B2"/>
					<stop  offset="0.7551" style="stop-color:#4958CD"/>
					<stop  offset="1" style="stop-color:#2979E4"/>
				</linearGradient>
				<path class="st44" d="M1272.3,209l-46.3-26.7c-3.3-1.9-2.9-5.2,0.9-7.4l44.5-25.7c3.8-2.2,9.6-2.4,12.8-0.5l46.3,26.7
					c3.3,1.9,2.9,5.2-0.9,7.4l-44.5,25.7C1281.4,210.6,1275.6,210.9,1272.3,209z"/>
				<path class="st13" d="M1330.5,175.4l-46.3-26.7c-1.7-1-4.1-1.4-6.5-1.3c1.8,0.1,3.4,0.5,4.7,1.3l46.3,26.7
					c3.3,1.9,2.9,5.2-0.9,7.4l-44.5,25.7c-1.8,1.1-4.1,1.7-6.4,1.8c2.8,0.2,5.8-0.4,8.2-1.8l44.5-25.7
					C1333.4,180.6,1333.8,177.3,1330.5,175.4z"/>
				<path class="st20" d="M1278,202.6c-1.6,0-3.2-0.3-4.4-1l-34.5-19.9c-1.2-0.7-1.9-1.7-1.9-2.7c0-1.3,0.9-2.5,2.5-3.5l33.1-19.1
					c2.9-1.7,7.4-1.9,10-0.4l34.5,19.9c1.2,0.7,1.9,1.7,1.9,2.7c0,1.3-0.9,2.5-2.5,3.5l-33.1,19.1C1282,202.1,1280,202.6,1278,202.6
					z M1278.6,155.8c-1.8,0-3.7,0.4-5.2,1.3l-33.1,19.1c-1.4,0.8-2.1,1.8-2.1,2.8c0,0.8,0.5,1.5,1.5,2.1l34.5,19.9
					c2.3,1.3,6.4,1.2,9.2-0.4l33.1-19.1c1.4-0.8,2.1-1.8,2.1-2.8c0-0.8-0.5-1.5-1.5-2.1l-34.5-19.9
					C1281.5,156.1,1280.1,155.8,1278.6,155.8z"/>
				<path class="st14" d="M1274.4,209l-46.3-26.7c-3.3-1.9-2.9-5.2,0.9-7.4l44.5-25.7c1.8-1,4-1.6,6.3-1.8c-2.8-0.2-6,0.4-8.3,1.8
					l-44.5,25.7c-3.8,2.2-4.2,5.5-0.9,7.4l46.3,26.7c1.7,1,4.1,1.4,6.6,1.2C1277.2,210.1,1275.6,209.7,1274.4,209z"/>
			</g>
			<g class="st23">
				
					<linearGradient id="SVGID_31_" gradientUnits="userSpaceOnUse" x1="1213.5015" y1="608.95" x2="1346.2538" y2="608.95" gradientTransform="matrix(1 0 0 1 0 -436)">
					<stop  offset="0" style="stop-color:#A31FA9"/>
					<stop  offset="6.679147e-02" style="stop-color:#8B17A0"/>
					<stop  offset="0.1494" style="stop-color:#740F98"/>
					<stop  offset="0.2393" style="stop-color:#640A92"/>
					<stop  offset="0.3408" style="stop-color:#5B078F"/>
					<stop  offset="0.4785" style="stop-color:#58068E"/>
					<stop  offset="0.6264" style="stop-color:#4D22A3"/>
					<stop  offset="0.9436" style="stop-color:#3168DA"/>
					<stop  offset="1" style="stop-color:#2C75E4"/>
				</linearGradient>
				<path class="st45" d="M1332.8,157.6h-23l-25.6-14.8c-3.3-1.9-9-1.7-12.8,0.5l-24.6,14.2h-23V173l0,0c-0.1,1.3,0.6,2.5,2.2,3.4
					l46.3,26.7c3.3,1.9,9,1.7,12.8-0.5l44.5-25.7c2-1.1,3-2.6,3.1-4l0,0L1332.8,157.6L1332.8,157.6z"/>
				<path class="st14" d="M1225.3,174L1225.3,174v-15.4h23l24.6-14.2c3.8-2.2,9.6-2.4,12.8-0.5l25.6,14.8h21.5v-1.1h-23l-25.6-14.8
					c-3.3-1.9-9-1.7-12.8,0.5l-24.6,14.2h-23V173l0,0c-0.1,1.3,0.6,2.5,2.2,3.4l0.3,0.2C1225.5,175.8,1225.2,174.9,1225.3,174z"/>
				
					<linearGradient id="SVGID_32_" gradientUnits="userSpaceOnUse" x1="2394.2644" y1="1591.0948" x2="2456.884" y2="1536.8647" gradientTransform="matrix(0.866 0.5 -1 0.5774 740.5796 -1958.2791)">
					<stop  offset="0" style="stop-color:#8D139B"/>
					<stop  offset="0.1651" style="stop-color:#851BA1"/>
					<stop  offset="0.4284" style="stop-color:#6E33B2"/>
					<stop  offset="0.7551" style="stop-color:#4958CD"/>
					<stop  offset="1" style="stop-color:#2979E4"/>
				</linearGradient>
				<path class="st46" d="M1272.3,187.7L1226,161c-3.3-1.9-2.9-5.2,0.9-7.4l44.5-25.7c3.8-2.2,9.6-2.4,12.8-0.5l46.3,26.7
					c3.3,1.9,2.9,5.2-0.9,7.4l-44.5,25.7C1281.4,189.4,1275.6,189.6,1272.3,187.7z"/>
				<path class="st13" d="M1330.5,154.1l-46.3-26.7c-1.7-1-4.1-1.4-6.5-1.3c1.8,0.1,3.4,0.5,4.7,1.3l46.3,26.7
					c3.3,1.9,2.9,5.2-0.9,7.4l-44.5,25.7c-1.8,1.1-4.1,1.7-6.4,1.8c2.8,0.2,5.8-0.4,8.2-1.8l44.5-25.7
					C1333.4,159.3,1333.8,156,1330.5,154.1z"/>
				<path class="st20" d="M1278,181.4c-1.6,0-3.2-0.3-4.3-1l-34.5-19.9c-1.2-0.7-1.9-1.7-1.9-2.7c0-1.3,0.9-2.5,2.5-3.5l33.1-19.1
					c2.9-1.7,7.4-1.9,10-0.4l34.5,19.9c1.2,0.7,1.9,1.7,1.9,2.7c0,1.3-0.9,2.5-2.5,3.5l-33.1,19.1C1282,180.9,1280,181.4,1278,181.4
					z M1278.6,134.5c-1.8,0-3.7,0.4-5.2,1.3l-33.1,19.1c-1.4,0.8-2.1,1.8-2.1,2.8c0,0.8,0.5,1.5,1.5,2.1l34.5,19.9
					c2.3,1.3,6.4,1.2,9.2-0.4l33.1-19.1c1.4-0.8,2.1-1.8,2.1-2.8c0-0.8-0.5-1.5-1.5-2.1l-34.5-19.9
					C1281.5,134.8,1280.1,134.5,1278.6,134.5z"/>
				<path class="st14" d="M1274.4,187.7l-46.3-26.7c-3.3-1.9-2.9-5.2,0.9-7.4l44.5-25.7c1.8-1,4-1.6,6.3-1.8c-2.8-0.2-6,0.4-8.3,1.8
					l-44.5,25.7c-3.8,2.2-4.2,5.5-0.9,7.4l46.3,26.7c1.7,1,4.1,1.4,6.6,1.2C1277.2,188.9,1275.6,188.4,1274.4,187.7z"/>
			</g>
			<g>
				
					<linearGradient id="SVGID_33_" gradientUnits="userSpaceOnUse" x1="1213.5015" y1="587.6" x2="1346.2538" y2="587.6" gradientTransform="matrix(1 0 0 1 0 -436)">
					<stop  offset="0" style="stop-color:#A31FA9"/>
					<stop  offset="6.679147e-02" style="stop-color:#8B17A0"/>
					<stop  offset="0.1494" style="stop-color:#740F98"/>
					<stop  offset="0.2393" style="stop-color:#640A92"/>
					<stop  offset="0.3408" style="stop-color:#5B078F"/>
					<stop  offset="0.4785" style="stop-color:#58068E"/>
					<stop  offset="0.6264" style="stop-color:#4D22A3"/>
					<stop  offset="0.9436" style="stop-color:#3168DA"/>
					<stop  offset="1" style="stop-color:#2C75E4"/>
				</linearGradient>
				<path class="st47" d="M1332.8,136.3h-23l-25.6-14.8c-3.3-1.9-9-1.7-12.8,0.5l-24.6,14.2h-23v15.4l0,0c-0.1,1.3,0.6,2.5,2.2,3.4
					l46.3,26.7c3.3,1.9,9,1.7,12.8-0.5l44.5-25.7c2-1.1,3-2.6,3.1-4l0,0L1332.8,136.3L1332.8,136.3z"/>
				<path class="st14" d="M1225.3,152.8L1225.3,152.8v-15.4h23l24.6-14.2c3.8-2.2,9.6-2.4,12.8-0.5l25.6,14.8h21.5v-1.1h-23
					l-25.6-14.8c-3.3-1.9-9-1.7-12.8,0.5l-24.6,14.2h-23v15.4l0,0c-0.1,1.3,0.6,2.5,2.2,3.4l0.3,0.2
					C1225.5,154.6,1225.2,153.7,1225.3,152.8z"/>
				
					<linearGradient id="SVGID_34_" gradientUnits="userSpaceOnUse" x1="2373.0601" y1="1572.7404" x2="2435.6797" y2="1518.5103" gradientTransform="matrix(0.866 0.5 -1 0.5774 740.5796 -1958.2791)">
					<stop  offset="0" style="stop-color:#267FE5"/>
					<stop  offset="0.1699" style="stop-color:#2C87E7"/>
					<stop  offset="0.441" style="stop-color:#3D9FEB"/>
					<stop  offset="0.7773" style="stop-color:#59C4F2"/>
					<stop  offset="1" style="stop-color:#6EE1F8"/>
				</linearGradient>
				<path class="st48" d="M1272.3,166.5l-46.3-26.7c-3.3-1.9-2.9-5.2,0.9-7.4l44.5-25.7c3.8-2.2,9.6-2.4,12.8-0.5l46.3,26.7
					c3.3,1.9,2.9,5.2-0.9,7.4l-44.5,25.7C1281.4,168.2,1275.6,168.4,1272.3,166.5z"/>
				<path class="st13" d="M1330.5,132.9l-46.3-26.7c-1.7-1-4.1-1.4-6.5-1.3c1.8,0.1,3.4,0.5,4.7,1.3l46.3,26.7
					c3.3,1.9,2.9,5.2-0.9,7.4l-44.5,25.7c-1.8,1.1-4.1,1.7-6.4,1.8c2.8,0.2,5.8-0.4,8.2-1.8l44.5-25.7
					C1333.4,138.1,1333.8,134.8,1330.5,132.9z"/>
				
					<linearGradient id="SVGID_35_" gradientUnits="userSpaceOnUse" x1="1237.2999" y1="572.2947" x2="1319.2159" y2="572.2947" gradientTransform="matrix(1 0 0 1 0 -436)">
					<stop  offset="0" style="stop-color:#6DE0F6"/>
					<stop  offset="0.1595" style="stop-color:#68D8F5"/>
					<stop  offset="0.4138" style="stop-color:#5AC0F1"/>
					<stop  offset="0.7294" style="stop-color:#439BEA"/>
					<stop  offset="1" style="stop-color:#2C75E4"/>
				</linearGradient>
				<path class="st49" d="M1278,160.1c-1.6,0-3.2-0.3-4.3-1l-34.5-19.9c-1.2-0.7-1.9-1.7-1.9-2.7c0-1.3,0.9-2.5,2.5-3.5l33.1-19.1
					c2.9-1.7,7.4-1.9,10-0.4l34.5,19.9c1.2,0.7,1.9,1.7,1.9,2.7c0,1.3-0.9,2.5-2.5,3.5l-33.1,19.1C1282,159.7,1280,160.1,1278,160.1
					z M1274,158.5c2.3,1.3,6.4,1.2,9.2-0.4l33.1-19.1c1.4-0.8,2.1-1.8,2.1-2.8c0-0.8-0.5-1.5-1.5-2.1l-34.5-19.9
					c-2.3-1.3-6.4-1.2-9.2,0.4l-33.1,19.1c-1.4,0.8-2.1,1.8-2.1,2.8c0,0.8,0.5,1.5,1.5,2.1L1274,158.5z"/>
				<path class="st29" d="M1274.4,166.5l-46.3-26.7c-3.3-1.9-2.9-5.2,0.9-7.4l44.5-25.7c1.8-1,4-1.6,6.3-1.8c-2.8-0.2-6,0.4-8.3,1.8
					l-44.5,25.7c-3.8,2.2-4.2,5.5-0.9,7.4l46.3,26.7c1.7,1,4.1,1.4,6.6,1.2C1277.2,167.6,1275.6,167.2,1274.4,166.5z"/>
				<g>
					<path class="st39" d="M1270.3,175.1l-39.2-22.7c-0.4-0.2-0.6-0.8-0.6-1.2v-1.9c0-0.5,0.3-0.7,0.6-0.5l39.2,22.7
						c0.4,0.2,0.6,0.8,0.6,1.2v1.9C1270.9,175.1,1270.6,175.3,1270.3,175.1z"/>
					<path class="st40" d="M1232,151.9c-0.4-0.2-0.6-0.8-0.6-1.2V149l-0.2-0.1c-0.4-0.2-0.6,0-0.6,0.5v1.9c0,0.5,0.3,1,0.6,1.2
						l39.2,22.7c0.4,0.2,0.6,0,0.6-0.5v-0.1L1232,151.9z"/>
				</g>
			</g>
		</g>
		<g>
			<g class="st3">
				
					<linearGradient id="SVGID_36_" gradientUnits="userSpaceOnUse" x1="1287.8328" y1="697.8" x2="1420.5851" y2="697.8" gradientTransform="matrix(1 0 0 1 0 -436)">
					<stop  offset="0" style="stop-color:#A31FA9"/>
					<stop  offset="6.679147e-02" style="stop-color:#8B17A0"/>
					<stop  offset="0.1494" style="stop-color:#740F98"/>
					<stop  offset="0.2393" style="stop-color:#640A92"/>
					<stop  offset="0.3408" style="stop-color:#5B078F"/>
					<stop  offset="0.4785" style="stop-color:#58068E"/>
					<stop  offset="0.6264" style="stop-color:#4D22A3"/>
					<stop  offset="0.9436" style="stop-color:#3168DA"/>
					<stop  offset="1" style="stop-color:#2C75E4"/>
				</linearGradient>
				<path class="st50" d="M1407.1,246.5h-23l-25.6-14.8c-3.3-1.9-9-1.7-12.8,0.5l-24.6,14.2h-23v15.4l0,0c-0.1,1.3,0.6,2.5,2.2,3.4
					l46.3,26.7c3.3,1.9,9,1.7,12.8-0.5l44.5-25.7c2-1.1,3-2.6,3.1-4l0,0L1407.1,246.5L1407.1,246.5z"/>
				<path class="st14" d="M1299.6,263L1299.6,263v-15.4h23l24.6-14.2c3.8-2.2,9.6-2.4,12.8-0.5l25.6,14.8h21.5v-1.1h-23l-25.6-14.8
					c-3.3-1.9-9-1.7-12.8,0.5l-24.6,14.2h-23v15.4l0,0c-0.1,1.3,0.6,2.5,2.2,3.4l0.3,0.2C1299.9,264.8,1299.5,263.9,1299.6,263z"/>
				
					<linearGradient id="SVGID_37_" gradientUnits="userSpaceOnUse" x1="2526.1577" y1="1630.9917" x2="2588.7773" y2="1576.7616" gradientTransform="matrix(0.866 0.5 -1 0.5774 740.5796 -1958.2791)">
					<stop  offset="0" style="stop-color:#8D139B"/>
					<stop  offset="0.1651" style="stop-color:#851BA1"/>
					<stop  offset="0.4284" style="stop-color:#6E33B2"/>
					<stop  offset="0.7551" style="stop-color:#4958CD"/>
					<stop  offset="1" style="stop-color:#2979E4"/>
				</linearGradient>
				<path class="st51" d="M1346.7,276.7l-46.3-26.7c-3.3-1.9-2.9-5.2,0.9-7.4l44.5-25.7c3.8-2.2,9.6-2.4,12.8-0.5l46.3,26.7
					c3.3,1.9,2.9,5.2-0.9,7.4l-44.5,25.7C1355.7,278.3,1349.9,278.6,1346.7,276.7z"/>
				<path class="st13" d="M1404.9,243.1l-46.3-26.7c-1.7-1-4.1-1.4-6.5-1.3c1.8,0.1,3.4,0.5,4.7,1.3l46.3,26.7
					c3.3,1.9,2.9,5.2-0.9,7.4l-44.5,25.7c-1.8,1.1-4.1,1.7-6.4,1.8c2.8,0.2,5.8-0.4,8.2-1.8l44.5-25.7
					C1407.8,248.3,1408.2,245,1404.9,243.1z"/>
				<path class="st20" d="M1352.3,270.3c-1.6,0-3.2-0.3-4.3-1l-34.5-19.9c-1.2-0.7-1.9-1.7-1.9-2.7c0-1.3,0.9-2.5,2.5-3.5l33.1-19.1
					c2.9-1.7,7.4-1.9,10-0.4l34.5,19.9c1.2,0.7,1.9,1.7,1.9,2.7c0,1.3-0.9,2.5-2.5,3.5l-33.1,19.1
					C1356.3,269.8,1354.3,270.3,1352.3,270.3z M1348.4,268.6c2.3,1.3,6.4,1.2,9.2-0.4l33.1-19.1c1.4-0.8,2.1-1.8,2.1-2.8
					c0-0.8-0.5-1.5-1.5-2.1l-34.5-19.9c-2.3-1.3-6.4-1.2-9.2,0.4l-33.1,19.1c-1.4,0.8-2.1,1.8-2.1,2.8c0,0.8,0.5,1.5,1.5,2.1
					L1348.4,268.6z"/>
				<path class="st14" d="M1348.7,276.7l-46.3-26.7c-3.3-1.9-2.9-5.2,0.9-7.4l44.5-25.7c1.8-1,4-1.6,6.3-1.8c-2.8-0.2-6,0.4-8.3,1.8
					l-44.5,25.7c-3.8,2.2-4.2,5.5-0.9,7.4l46.3,26.7c1.7,1,4.1,1.4,6.6,1.2C1351.5,277.8,1350,277.4,1348.7,276.7z"/>
			</g>
			<g class="st5">
				
					<linearGradient id="SVGID_38_" gradientUnits="userSpaceOnUse" x1="1287.8328" y1="676.6" x2="1420.5851" y2="676.6" gradientTransform="matrix(1 0 0 1 0 -436)">
					<stop  offset="0" style="stop-color:#A31FA9"/>
					<stop  offset="6.679147e-02" style="stop-color:#8B17A0"/>
					<stop  offset="0.1494" style="stop-color:#740F98"/>
					<stop  offset="0.2393" style="stop-color:#640A92"/>
					<stop  offset="0.3408" style="stop-color:#5B078F"/>
					<stop  offset="0.4785" style="stop-color:#58068E"/>
					<stop  offset="0.6264" style="stop-color:#4D22A3"/>
					<stop  offset="0.9436" style="stop-color:#3168DA"/>
					<stop  offset="1" style="stop-color:#2C75E4"/>
				</linearGradient>
				<path class="st52" d="M1407.1,225.3h-23l-25.6-14.8c-3.3-1.9-9-1.7-12.8,0.5l-24.6,14.2h-23v15.4l0,0c-0.1,1.3,0.6,2.5,2.2,3.4
					l46.3,26.7c3.3,1.9,9,1.7,12.8-0.5l44.5-25.7c2-1.1,3-2.6,3.1-4l0,0L1407.1,225.3L1407.1,225.3z"/>
				<path class="st14" d="M1299.6,241.8L1299.6,241.8v-15.4h23l24.6-14.2c3.8-2.2,9.6-2.4,12.8-0.5l25.6,14.8h21.5v-1.1h-23
					l-25.6-14.8c-3.3-1.9-9-1.7-12.8,0.5l-24.6,14.2h-23v15.4l0,0c-0.1,1.3,0.6,2.5,2.2,3.4l0.3,0.2
					C1299.9,243.5,1299.5,242.7,1299.6,241.8z"/>
				
					<linearGradient id="SVGID_39_" gradientUnits="userSpaceOnUse" x1="2504.9536" y1="1612.6373" x2="2567.573" y2="1558.4071" gradientTransform="matrix(0.866 0.5 -1 0.5774 740.5796 -1958.2791)">
					<stop  offset="0" style="stop-color:#8D139B"/>
					<stop  offset="0.1651" style="stop-color:#851BA1"/>
					<stop  offset="0.4284" style="stop-color:#6E33B2"/>
					<stop  offset="0.7551" style="stop-color:#4958CD"/>
					<stop  offset="1" style="stop-color:#2979E4"/>
				</linearGradient>
				<path class="st53" d="M1346.7,255.5l-46.3-26.7c-3.3-1.9-2.9-5.2,0.9-7.4l44.5-25.7c3.8-2.2,9.6-2.4,12.8-0.5l46.3,26.7
					c3.3,1.9,2.9,5.2-0.9,7.4l-44.5,25.7C1355.7,257.1,1349.9,257.4,1346.7,255.5z"/>
				<path class="st13" d="M1404.9,221.8l-46.3-26.7c-1.7-1-4.1-1.4-6.5-1.3c1.8,0.1,3.4,0.5,4.7,1.3l46.3,26.7
					c3.3,1.9,2.9,5.2-0.9,7.4l-44.5,25.7c-1.8,1.1-4.1,1.7-6.4,1.8c2.8,0.2,5.8-0.4,8.2-1.8l44.5-25.7
					C1407.8,227.1,1408.2,223.7,1404.9,221.8z"/>
				<path class="st20" d="M1352.3,249.1c-1.6,0-3.2-0.3-4.4-1l-34.5-19.9c-1.2-0.7-1.9-1.7-1.9-2.7c0-1.3,0.9-2.5,2.5-3.5l33.1-19.1
					c2.9-1.7,7.4-1.9,10-0.4l34.5,19.9c1.2,0.7,1.9,1.7,1.9,2.7c0,1.3-0.9,2.5-2.5,3.5l-33.1,19.1
					C1356.3,248.6,1354.3,249.1,1352.3,249.1z M1352.9,202.3c-1.8,0-3.7,0.4-5.2,1.3l-33.1,19.1c-1.4,0.8-2.1,1.8-2.1,2.8
					c0,0.8,0.5,1.5,1.5,2.1l34.5,19.9c2.3,1.3,6.4,1.2,9.2-0.4l33.1-19.1c1.4-0.8,2.1-1.8,2.1-2.8c0-0.8-0.5-1.5-1.5-2.1l-34.5-19.9
					C1355.8,202.5,1354.4,202.3,1352.9,202.3z"/>
				<path class="st14" d="M1348.7,255.5l-46.3-26.7c-3.3-1.9-2.9-5.2,0.9-7.4l44.5-25.7c1.8-1,4-1.6,6.3-1.8c-2.8-0.2-6,0.4-8.3,1.8
					l-44.5,25.7c-3.8,2.2-4.2,5.5-0.9,7.4l46.3,26.7c1.7,1,4.1,1.4,6.6,1.2C1351.5,256.6,1350,256.2,1348.7,255.5z"/>
			</g>
			<g class="st23">
				
					<linearGradient id="SVGID_40_" gradientUnits="userSpaceOnUse" x1="1287.8328" y1="655.3" x2="1420.5851" y2="655.3" gradientTransform="matrix(1 0 0 1 0 -436)">
					<stop  offset="0" style="stop-color:#A31FA9"/>
					<stop  offset="6.679147e-02" style="stop-color:#8B17A0"/>
					<stop  offset="0.1494" style="stop-color:#740F98"/>
					<stop  offset="0.2393" style="stop-color:#640A92"/>
					<stop  offset="0.3408" style="stop-color:#5B078F"/>
					<stop  offset="0.4785" style="stop-color:#58068E"/>
					<stop  offset="0.6264" style="stop-color:#4D22A3"/>
					<stop  offset="0.9436" style="stop-color:#3168DA"/>
					<stop  offset="1" style="stop-color:#2C75E4"/>
				</linearGradient>
				<path class="st54" d="M1407.1,204h-23l-25.6-14.8c-3.3-1.9-9-1.7-12.8,0.5l-24.6,14.2h-23v15.4l0,0c-0.1,1.3,0.6,2.5,2.2,3.4
					l46.3,26.7c3.3,1.9,9,1.7,12.8-0.5l44.5-25.7c2-1.1,3-2.6,3.1-4l0,0L1407.1,204L1407.1,204z"/>
				<path class="st14" d="M1299.6,220.5L1299.6,220.5v-15.4h23l24.6-14.2c3.8-2.2,9.6-2.4,12.8-0.5l25.6,14.8h21.5V204h-23
					l-25.6-14.8c-3.3-1.9-9-1.7-12.8,0.5l-24.6,14.2h-23v15.4l0,0c-0.1,1.3,0.6,2.5,2.2,3.4l0.3,0.2
					C1299.9,222.3,1299.5,221.4,1299.6,220.5z"/>
				
					<linearGradient id="SVGID_41_" gradientUnits="userSpaceOnUse" x1="2483.678" y1="1594.2004" x2="2546.2976" y2="1539.9703" gradientTransform="matrix(0.866 0.5 -1 0.5774 740.5796 -1958.2791)">
					<stop  offset="0" style="stop-color:#8D139B"/>
					<stop  offset="0.1651" style="stop-color:#851BA1"/>
					<stop  offset="0.4284" style="stop-color:#6E33B2"/>
					<stop  offset="0.7551" style="stop-color:#4958CD"/>
					<stop  offset="1" style="stop-color:#2979E4"/>
				</linearGradient>
				<path class="st55" d="M1346.7,234.2l-46.3-26.7c-3.3-1.9-2.9-5.2,0.9-7.4l44.5-25.7c3.8-2.2,9.6-2.4,12.8-0.5l46.3,26.7
					c3.3,1.9,2.9,5.2-0.9,7.4l-44.5,25.7C1355.7,235.9,1349.9,236.1,1346.7,234.2z"/>
				<path class="st13" d="M1404.9,200.6l-46.3-26.7c-1.7-1-4.1-1.4-6.5-1.3c1.8,0.1,3.4,0.5,4.7,1.3l46.3,26.7
					c3.3,1.9,2.9,5.2-0.9,7.4l-44.5,25.7c-1.8,1.1-4.1,1.7-6.4,1.8c2.8,0.2,5.8-0.4,8.2-1.8L1404,208
					C1407.8,205.8,1408.2,202.5,1404.9,200.6z"/>
				<path class="st20" d="M1352.3,227.9c-1.6,0-3.2-0.3-4.3-1l-34.5-19.9c-1.2-0.7-1.9-1.7-1.9-2.7c0-1.3,0.9-2.5,2.5-3.5l33.1-19.1
					c2.9-1.7,7.4-1.9,10-0.4l34.5,19.9c1.2,0.7,1.9,1.7,1.9,2.7c0,1.3-0.9,2.5-2.5,3.5l-33.1,19.1
					C1356.3,227.4,1354.3,227.8,1352.3,227.9z M1352.9,181c-1.8,0-3.7,0.4-5.2,1.3l-33.1,19.1c-1.4,0.8-2.1,1.8-2.1,2.8
					c0,0.8,0.5,1.5,1.5,2.1l34.5,19.9c2.3,1.4,6.4,1.2,9.2-0.4l33.1-19.1c1.4-0.8,2.1-1.8,2.1-2.8c0-0.8-0.5-1.5-1.5-2.1l-34.5-19.9
					C1355.8,181.3,1354.4,181,1352.9,181z"/>
				<path class="st14" d="M1348.7,234.2l-46.3-26.7c-3.3-1.9-2.9-5.2,0.9-7.4l44.5-25.7c1.8-1,4-1.6,6.3-1.8c-2.8-0.2-6,0.4-8.3,1.8
					l-44.5,25.7c-3.8,2.2-4.2,5.5-0.9,7.4l46.3,26.7c1.7,1,4.1,1.4,6.6,1.2C1351.5,235.3,1350,234.9,1348.7,234.2z"/>
			</g>
			<g>
				
					<linearGradient id="SVGID_42_" gradientUnits="userSpaceOnUse" x1="1287.8328" y1="634.1" x2="1420.5851" y2="634.1" gradientTransform="matrix(1 0 0 1 0 -436)">
					<stop  offset="0" style="stop-color:#A31FA9"/>
					<stop  offset="6.679147e-02" style="stop-color:#8B17A0"/>
					<stop  offset="0.1494" style="stop-color:#740F98"/>
					<stop  offset="0.2393" style="stop-color:#640A92"/>
					<stop  offset="0.3408" style="stop-color:#5B078F"/>
					<stop  offset="0.4785" style="stop-color:#58068E"/>
					<stop  offset="0.6264" style="stop-color:#4D22A3"/>
					<stop  offset="0.9436" style="stop-color:#3168DA"/>
					<stop  offset="1" style="stop-color:#2C75E4"/>
				</linearGradient>
				<path class="st56" d="M1407.1,182.8h-23l-25.6-14.8c-3.3-1.9-9-1.7-12.8,0.5l-24.6,14.2h-23v15.4l0,0c-0.1,1.3,0.6,2.5,2.2,3.4
					l46.3,26.7c3.3,1.9,9,1.7,12.8-0.5l44.5-25.7c2-1.1,3-2.6,3.1-4l0,0L1407.1,182.8L1407.1,182.8z"/>
				<path class="st14" d="M1299.6,199.3L1299.6,199.3v-15.4h23l24.6-14.2c3.8-2.2,9.6-2.4,12.8-0.5l25.6,14.8h21.5v-1.1h-23
					l-25.6-14.8c-3.3-1.9-9-1.7-12.8,0.5l-24.6,14.2h-23v15.4l0,0c-0.1,1.3,0.6,2.5,2.2,3.4l0.3,0.2
					C1299.9,201.1,1299.5,200.2,1299.6,199.3z"/>
				
					<linearGradient id="SVGID_43_" gradientUnits="userSpaceOnUse" x1="2462.4595" y1="1575.8293" x2="2525.0791" y2="1521.5991" gradientTransform="matrix(0.866 0.5 -1 0.5774 740.5796 -1958.2791)">
					<stop  offset="0" style="stop-color:#267FE5"/>
					<stop  offset="0.1699" style="stop-color:#2C87E7"/>
					<stop  offset="0.441" style="stop-color:#3D9FEB"/>
					<stop  offset="0.7773" style="stop-color:#59C4F2"/>
					<stop  offset="1" style="stop-color:#6EE1F8"/>
				</linearGradient>
				<path class="st57" d="M1346.7,213l-46.3-26.7c-3.3-1.9-2.9-5.2,0.9-7.4l44.5-25.7c3.8-2.2,9.6-2.4,12.8-0.5l46.3,26.7
					c3.3,1.9,2.9,5.2-0.9,7.4l-44.5,25.7C1355.7,214.6,1349.9,214.9,1346.7,213z"/>
				<path class="st13" d="M1404.9,179.4l-46.3-26.7c-1.7-1-4.1-1.4-6.5-1.3c1.8,0.1,3.4,0.5,4.7,1.3l46.3,26.7
					c3.3,1.9,2.9,5.2-0.9,7.4l-44.5,25.7c-1.8,1.1-4.1,1.7-6.4,1.8c2.8,0.2,5.8-0.4,8.2-1.8l44.5-25.7
					C1407.8,184.6,1408.2,181.3,1404.9,179.4z"/>
				
					<linearGradient id="SVGID_44_" gradientUnits="userSpaceOnUse" x1="1311.8165" y1="618.865" x2="1393.4187" y2="618.865" gradientTransform="matrix(1 0 0 1 0 -436)">
					<stop  offset="0" style="stop-color:#6DE0F6"/>
					<stop  offset="0.1595" style="stop-color:#68D8F5"/>
					<stop  offset="0.4138" style="stop-color:#5AC0F1"/>
					<stop  offset="0.7294" style="stop-color:#439BEA"/>
					<stop  offset="1" style="stop-color:#2C75E4"/>
				</linearGradient>
				<path class="st58" d="M1352.3,206.5c-1.6,0-3.1-0.3-4.3-1l-34.5-19.9c-1.1-0.7-1.8-1.6-1.8-2.6c0-1.2,0.9-2.4,2.5-3.3l33.1-19.1
					c2.9-1.7,7.3-1.8,9.8-0.4l34.5,19.9c1.1,0.7,1.8,1.6,1.8,2.6c0,1.2-0.9,2.4-2.5,3.3l-33.1,19.1
					C1356.3,206,1354.3,206.5,1352.3,206.5z M1352.9,159.6c-1.8,0-3.8,0.4-5.3,1.3l-33.1,19.1c-1.4,0.8-2.2,1.9-2.2,2.9
					c0,0.8,0.5,1.6,1.5,2.2l34.5,19.9c2.4,1.4,6.6,1.2,9.3-0.4l33.1-19.1c1.4-0.8,2.2-1.9,2.2-2.9c0-0.8-0.5-1.6-1.5-2.2l-34.5-19.9
					C1355.9,159.9,1354.4,159.6,1352.9,159.6z"/>
				<path class="st29" d="M1348.7,213l-46.3-26.7c-3.3-1.9-2.9-5.2,0.9-7.4l44.5-25.7c1.8-1,4-1.6,6.3-1.8c-2.8-0.2-6,0.4-8.3,1.8
					l-44.5,25.7c-3.8,2.2-4.2,5.5-0.9,7.4l46.3,26.7c1.7,1,4.1,1.4,6.6,1.2C1351.5,214.1,1350,213.7,1348.7,213z"/>
				<g>
					<path class="st39" d="M1360.8,221.6l39.2-22.7c0.4-0.2,0.6-0.8,0.6-1.2v-1.9c0-0.5-0.3-0.7-0.6-0.5l-39.2,22.7
						c-0.4,0.2-0.6,0.8-0.6,1.2v1.9C1360.2,221.6,1360.5,221.8,1360.8,221.6z"/>
					<path class="st40" d="M1399.1,198.4c0.4-0.2,0.6-0.8,0.6-1.2v-1.7l0.2-0.1c0.4-0.2,0.6,0,0.6,0.5v1.9c0,0.5-0.3,1-0.6,1.2
						l-39.2,22.7c-0.4,0.2-0.6,0-0.6-0.5V221L1399.1,198.4z"/>
				</g>
				<g>
					<path class="st39" d="M1344.7,221.6l-39.2-22.7c-0.4-0.2-0.6-0.8-0.6-1.2v-1.9c0-0.5,0.3-0.7,0.6-0.5l39.2,22.7
						c0.4,0.2,0.6,0.8,0.6,1.2v1.9C1345.3,221.6,1345.1,221.8,1344.7,221.6z"/>
					<path class="st40" d="M1306.4,198.4c-0.4-0.2-0.6-0.8-0.6-1.2v-1.7l-0.2-0.1c-0.4-0.2-0.6,0-0.6,0.5v1.9c0,0.5,0.3,1,0.6,1.2
						l39.2,22.7c0.4,0.2,0.6,0,0.6-0.5V221L1306.4,198.4z"/>
				</g>
			</g>
		</g>
		<g>
			
				<linearGradient id="SVGID_45_" gradientUnits="userSpaceOnUse" x1="2373.5337" y1="1498.3781" x2="2436.1533" y2="1444.1479" gradientTransform="matrix(0.866 0.5 -1 0.5774 740.5796 -1958.2791)">
				<stop  offset="0" style="stop-color:#8D139B"/>
				<stop  offset="0.1651" style="stop-color:#851BA1"/>
				<stop  offset="0.4284" style="stop-color:#6E33B2"/>
				<stop  offset="0.7551" style="stop-color:#4958CD"/>
				<stop  offset="1" style="stop-color:#2979E4"/>
			</linearGradient>
			<path class="st59" d="M1347.1,123.8l-46.3-26.7c-3.3-1.9-2.9-5.2,0.9-7.4l44.5-25.7c3.8-2.2,9.6-2.4,12.8-0.5l46.3,26.7
				c3.3,1.9,2.9,5.2-0.9,7.4l-44.5,25.7C1356.1,125.5,1350.4,125.7,1347.1,123.8z"/>
			
				<linearGradient id="SVGID_46_" gradientUnits="userSpaceOnUse" x1="2383.9773" y1="1489.3691" x2="2426.175" y2="1452.8247" gradientTransform="matrix(0.866 0.5 -1 0.5774 740.5796 -1958.2791)">
				<stop  offset="0" style="stop-color:#267FE5"/>
				<stop  offset="0.1699" style="stop-color:#2C87E7"/>
				<stop  offset="0.441" style="stop-color:#3D9FEB"/>
				<stop  offset="0.7773" style="stop-color:#59C4F2"/>
				<stop  offset="1" style="stop-color:#6EE1F8"/>
			</linearGradient>
			<path class="st60" d="M1349,114l-31.2-18c-2.2-1.3-1.9-3.5,0.6-5l30-17.3c2.6-1.5,6.4-1.6,8.7-0.4l31.2,18c2.2,1.3,1.9,3.5-0.6,5
				l-30,17.3C1355.1,115.1,1351.3,115.3,1349,114z"/>
			
				<linearGradient id="SVGID_47_" gradientUnits="userSpaceOnUse" x1="2462.9473" y1="1501.4836" x2="2525.5669" y2="1447.2535" gradientTransform="matrix(0.866 0.5 -1 0.5774 740.5796 -1958.2791)">
				<stop  offset="0" style="stop-color:#8D139B"/>
				<stop  offset="0.1651" style="stop-color:#851BA1"/>
				<stop  offset="0.4284" style="stop-color:#6E33B2"/>
				<stop  offset="0.7551" style="stop-color:#4958CD"/>
				<stop  offset="1" style="stop-color:#2979E4"/>
			</linearGradient>
			<path class="st61" d="M1421.4,170.3l-46.3-26.7c-3.3-1.9-2.9-5.2,0.9-7.4l44.5-25.7c3.8-2.2,9.6-2.4,12.8-0.5l46.3,26.7
				c3.3,1.9,2.9,5.2-0.9,7.4l-44.5,25.7C1430.5,172,1424.7,172.2,1421.4,170.3z"/>
			
				<linearGradient id="SVGID_48_" gradientUnits="userSpaceOnUse" x1="2373.0601" y1="1572.7404" x2="2435.6797" y2="1518.5103" gradientTransform="matrix(0.866 0.5 -1 0.5774 740.5796 -1958.2791)">
				<stop  offset="0" style="stop-color:#8D139B"/>
				<stop  offset="0.1651" style="stop-color:#851BA1"/>
				<stop  offset="0.4284" style="stop-color:#6E33B2"/>
				<stop  offset="0.7551" style="stop-color:#4958CD"/>
				<stop  offset="1" style="stop-color:#2979E4"/>
			</linearGradient>
			<path class="st62" d="M1272.3,166.5l-46.3-26.7c-3.3-1.9-2.9-5.2,0.9-7.4l44.5-25.7c3.8-2.2,9.6-2.4,12.8-0.5l46.3,26.7
				c3.3,1.9,2.9,5.2-0.9,7.4l-44.5,25.7C1281.4,168.2,1275.6,168.4,1272.3,166.5z"/>
			
				<linearGradient id="SVGID_49_" gradientUnits="userSpaceOnUse" x1="2462.4595" y1="1575.8293" x2="2525.0791" y2="1521.5991" gradientTransform="matrix(0.866 0.5 -1 0.5774 740.5796 -1958.2791)">
				<stop  offset="0" style="stop-color:#267FE5"/>
				<stop  offset="0.1699" style="stop-color:#2C87E7"/>
				<stop  offset="0.441" style="stop-color:#3D9FEB"/>
				<stop  offset="0.7773" style="stop-color:#59C4F2"/>
				<stop  offset="1" style="stop-color:#6EE1F8"/>
			</linearGradient>
			<path class="st63" d="M1346.7,213l-46.3-26.7c-3.3-1.9-2.9-5.2,0.9-7.4l44.5-25.7c3.8-2.2,9.6-2.4,12.8-0.5l46.3,26.7
				c3.3,1.9,2.9,5.2-0.9,7.4l-44.5,25.7C1355.7,214.6,1349.9,214.9,1346.7,213z"/>
			
				<linearGradient id="SVGID_50_" gradientUnits="userSpaceOnUse" x1="2478.8247" y1="1567.3075" x2="2510.5234" y2="1528.3627" gradientTransform="matrix(0.866 0.5 -1 0.5774 740.5796 -1958.2791)">
				<stop  offset="0" style="stop-color:#A31FA9"/>
				<stop  offset="5.028118e-02" style="stop-color:#8B17A0"/>
				<stop  offset="0.1125" style="stop-color:#740F98"/>
				<stop  offset="0.1801" style="stop-color:#640A92"/>
				<stop  offset="0.2565" style="stop-color:#5B078F"/>
				<stop  offset="0.3602" style="stop-color:#58068E"/>
				<stop  offset="0.5416" style="stop-color:#4D22A3"/>
				<stop  offset="0.9308" style="stop-color:#3168DA"/>
				<stop  offset="1" style="stop-color:#2C75E4"/>
			</linearGradient>
			<path class="st64" d="M1349.1,200.8l-27.5-15.9c-2-1.1-1.7-3.1,0.5-4.4l26.4-15.3c2.3-1.3,5.7-1.4,7.6-0.3l27.5,15.9
				c2,1.1,1.7,3.1-0.5,4.4l-26.4,15.3C1354.5,201.7,1351,201.9,1349.1,200.8z"/>
		</g>
	</g>
	
		<linearGradient id="SVGID_51_" gradientUnits="userSpaceOnUse" x1="4018.7275" y1="-91.6169" x2="4031.467" y2="-180.8929" gradientTransform="matrix(-0.866 0.5 1 0.5774 5115.1748 -1740.6536)">
		<stop  offset="6.926126e-08" style="stop-color:#071033;stop-opacity:0.1"/>
		<stop  offset="0.1143" style="stop-color:#09173E;stop-opacity:0.204"/>
		<stop  offset="0.3179" style="stop-color:#0F295D;stop-opacity:0.3892"/>
		<stop  offset="0.5869" style="stop-color:#19468E;stop-opacity:0.634"/>
		<stop  offset="0.9079" style="stop-color:#256ED2;stop-opacity:0.926"/>
		<stop  offset="0.9892" style="stop-color:#2979E4"/>
	</linearGradient>
	<polygon class="st65" points="1512.2,230.9 1568.3,198.5 1472.3,154.7 1436.3,175.4 	"/>
	<g>
		<g>
			<g>
				<polygon class="st39" points="1427.5,121.1 1425.3,119.8 1427.5,118.5 1429.7,119.8 				"/>
				<polygon class="st66" points="1431.9,123.6 1429.7,122.3 1431.9,121.1 1434,122.3 				"/>
				<polygon class="st67" points="1436.2,126.1 1434,124.9 1436.2,123.6 1438.4,124.9 				"/>
				<polygon class="st39" points="1440.6,128.7 1438.4,127.4 1440.6,126.1 1442.8,127.4 				"/>
				<polygon class="st67" points="1445,131.2 1442.8,129.9 1445,128.7 1447.2,129.9 				"/>
				<polygon class="st39" points="1449.4,133.7 1447.2,132.5 1449.4,131.2 1451.6,132.5 				"/>
				<polygon class="st39" points="1453.8,136.3 1451.6,135 1453.8,133.7 1456,135 				"/>
				<polygon class="st39" points="1458.2,138.8 1456,137.6 1458.2,136.3 1460.4,137.6 				"/>
				<polygon class="st66" points="1462.6,141.4 1460.4,140.1 1462.6,138.8 1464.8,140.1 				"/>
			</g>
			<g>
				<polygon class="st39" points="1423,123.6 1420.8,122.3 1423,121.1 1425.2,122.3 				"/>
				<polygon class="st39" points="1427.4,126.1 1425.2,124.9 1427.4,123.6 1429.6,124.9 				"/>
				<polygon class="st39" points="1431.8,128.7 1429.6,127.4 1431.8,126.1 1434,127.4 				"/>
				<polygon class="st39" points="1436.2,131.2 1434,130 1436.2,128.7 1438.4,130 				"/>
				<polygon class="st39" points="1440.6,133.8 1438.4,132.5 1440.6,131.2 1442.8,132.5 				"/>
				<polygon class="st39" points="1445,136.3 1442.8,135 1445,133.8 1447.2,135 				"/>
				<polygon class="st39" points="1449.4,138.8 1447.2,137.6 1449.4,136.3 1451.6,137.6 				"/>
				<polygon class="st39" points="1453.8,141.4 1451.6,140.1 1453.8,138.8 1456,140.1 				"/>
				<polygon class="st39" points="1458.2,143.9 1456,142.6 1458.2,141.4 1460.4,142.6 				"/>
			</g>
			<g>
				<polygon class="st39" points="1418.6,126.2 1416.4,124.9 1418.6,123.6 1420.8,124.9 				"/>
				<polygon class="st39" points="1423,128.7 1420.8,127.4 1423,126.2 1425.2,127.4 				"/>
				<polygon class="st39" points="1427.4,131.2 1425.2,130 1427.4,128.7 1429.6,130 				"/>
				<polygon class="st66" points="1431.8,133.8 1429.6,132.5 1431.8,131.2 1434,132.5 				"/>
				<polygon class="st67" points="1436.2,136.3 1434,135 1436.2,133.8 1438.4,135 				"/>
				<polygon class="st67" points="1440.6,138.8 1438.4,137.6 1440.6,136.3 1442.8,137.6 				"/>
				<polygon class="st39" points="1445,141.4 1442.8,140.1 1445,138.8 1447.2,140.1 				"/>
				<polygon class="st39" points="1449.4,143.9 1447.2,142.7 1449.4,141.4 1451.6,142.7 				"/>
				<polygon class="st39" points="1453.8,146.5 1451.6,145.2 1453.8,143.9 1456,145.2 				"/>
			</g>
			<g>
				<polygon class="st67" points="1414.2,128.7 1412,127.4 1414.2,126.2 1416.4,127.4 				"/>
				<polygon class="st67" points="1418.6,131.2 1416.4,130 1418.6,128.7 1420.8,130 				"/>
				<polygon class="st66" points="1423,133.8 1420.8,132.5 1423,131.2 1425.2,132.5 				"/>
				<polygon class="st39" points="1427.4,136.3 1425.2,135 1427.4,133.8 1429.6,135 				"/>
				<polygon class="st39" points="1431.8,138.9 1429.6,137.6 1431.8,136.3 1434,137.6 				"/>
				<polygon class="st39" points="1436.2,141.4 1434,140.1 1436.2,138.9 1438.4,140.1 				"/>
				<polygon class="st67" points="1440.6,143.9 1438.4,142.7 1440.6,141.4 1442.8,142.7 				"/>
				<polygon class="st39" points="1445,146.5 1442.8,145.2 1445,143.9 1447.2,145.2 				"/>
				<polygon class="st39" points="1449.4,149 1447.2,147.7 1449.4,146.5 1451.6,147.7 				"/>
			</g>
			<g>
				<polygon class="st39" points="1409.8,131.3 1407.6,130 1409.8,128.7 1412,130 				"/>
				<polygon class="st39" points="1414.2,133.8 1412,132.5 1414.2,131.3 1416.4,132.5 				"/>
				<polygon class="st39" points="1418.6,136.3 1416.4,135.1 1418.6,133.8 1420.8,135.1 				"/>
				<polygon class="st39" points="1423,138.9 1420.8,137.6 1423,136.3 1425.2,137.6 				"/>
				<polygon class="st39" points="1427.4,141.4 1425.2,140.1 1427.4,138.9 1429.6,140.1 				"/>
				<polygon class="st39" points="1431.8,143.9 1429.6,142.7 1431.8,141.4 1434,142.7 				"/>
				<polygon class="st39" points="1436.2,146.5 1434,145.2 1436.2,143.9 1438.4,145.2 				"/>
				<polygon class="st39" points="1440.6,149 1438.4,147.8 1440.6,146.5 1442.8,147.8 				"/>
				<polygon class="st39" points="1445,151.6 1442.8,150.3 1445,149 1447.2,150.3 				"/>
			</g>
			<g>
				<polygon class="st39" points="1405.4,133.8 1403.2,132.5 1405.4,131.3 1407.6,132.5 				"/>
				<polygon class="st39" points="1409.8,136.3 1407.6,135.1 1409.8,133.8 1412,135.1 				"/>
				<polygon class="st67" points="1414.2,138.9 1412,137.6 1414.2,136.3 1416.4,137.6 				"/>
				<polygon class="st39" points="1418.6,141.4 1416.4,140.1 1418.6,138.9 1420.8,140.1 				"/>
				<polygon class="st66" points="1423,144 1420.8,142.7 1423,141.4 1425.2,142.7 				"/>
				<polygon class="st39" points="1427.4,146.5 1425.2,145.2 1427.4,144 1429.6,145.2 				"/>
				<polygon class="st39" points="1431.8,149 1429.6,147.8 1431.8,146.5 1434,147.8 				"/>
				<polygon class="st39" points="1436.2,151.6 1434,150.3 1436.2,149 1438.4,150.3 				"/>
				<polygon class="st39" points="1440.6,154.1 1438.4,152.8 1440.6,151.6 1442.8,152.8 				"/>
			</g>
			<g>
				<polygon class="st39" points="1401,136.3 1398.8,135.1 1401,133.8 1403.2,135.1 				"/>
				<polygon class="st39" points="1405.4,138.9 1403.2,137.6 1405.4,136.3 1407.6,137.6 				"/>
				<polygon class="st67" points="1409.8,141.4 1407.6,140.2 1409.8,138.9 1412,140.2 				"/>
				<polygon class="st39" points="1414.2,144 1412,142.7 1414.2,141.4 1416.4,142.7 				"/>
				<polygon class="st39" points="1418.6,146.5 1416.4,145.2 1418.6,144 1420.8,145.2 				"/>
				<polygon class="st66" points="1423,149 1420.8,147.8 1423,146.5 1425.1,147.8 				"/>
				<polygon class="st67" points="1427.3,151.6 1425.1,150.3 1427.3,149 1429.5,150.3 				"/>
				<polygon class="st39" points="1431.7,154.1 1429.5,152.8 1431.7,151.6 1433.9,152.8 				"/>
				<polygon class="st66" points="1436.1,156.7 1433.9,155.4 1436.1,154.1 1438.3,155.4 				"/>
			</g>
			<g>
				<polygon class="st39" points="1396.6,138.9 1394.4,137.6 1396.6,136.4 1398.8,137.6 				"/>
				<polygon class="st67" points="1401,141.4 1398.8,140.2 1401,138.9 1403.1,140.2 				"/>
				<polygon class="st39" points="1405.3,144 1403.1,142.7 1405.3,141.4 1407.5,142.7 				"/>
				<polygon class="st39" points="1409.7,146.5 1407.5,145.2 1409.7,144 1411.9,145.2 				"/>
				<polygon class="st39" points="1414.1,149.1 1411.9,147.8 1414.1,146.5 1416.3,147.8 				"/>
				<polygon class="st39" points="1418.5,151.6 1416.3,150.3 1418.5,149.1 1420.7,150.3 				"/>
				<polygon class="st39" points="1422.9,154.1 1420.7,152.9 1422.9,151.6 1425.1,152.9 				"/>
				<polygon class="st67" points="1427.3,156.7 1425.1,155.4 1427.3,154.1 1429.5,155.4 				"/>
				<polygon class="st39" points="1431.7,159.2 1429.5,157.9 1431.7,156.7 1433.9,157.9 				"/>
			</g>
			<g>
				<polygon class="st39" points="1392.1,141.4 1389.9,140.2 1392.1,138.9 1394.3,140.2 				"/>
				<polygon class="st66" points="1396.5,144 1394.3,142.7 1396.5,141.4 1398.7,142.7 				"/>
				<polygon class="st39" points="1400.9,146.5 1398.7,145.3 1400.9,144 1403.1,145.3 				"/>
				<polygon class="st39" points="1405.3,149.1 1403.1,147.8 1405.3,146.5 1407.5,147.8 				"/>
				<polygon class="st39" points="1409.7,151.6 1407.5,150.3 1409.7,149.1 1411.9,150.3 				"/>
				<polygon class="st39" points="1414.1,154.1 1411.9,152.9 1414.1,151.6 1416.3,152.9 				"/>
				<polygon class="st67" points="1418.5,156.7 1416.3,155.4 1418.5,154.1 1420.7,155.4 				"/>
				<polygon class="st39" points="1422.9,159.2 1420.7,157.9 1422.9,156.7 1425.1,157.9 				"/>
				<polygon class="st39" points="1427.3,161.8 1425.1,160.5 1427.3,159.2 1429.5,160.5 				"/>
			</g>
		</g>
		<path class="st20" d="M1427.1,164c-1.6,0-3.1-0.3-4.3-1l-34.9-20.2c-1.1-0.7-1.8-1.6-1.8-2.6c0-1.2,0.9-2.4,2.5-3.3l33.5-19.4
			c2.9-1.7,7.3-1.9,9.8-0.4l34.9,20.2c1.1,0.7,1.8,1.6,1.8,2.6c0,1.2-0.9,2.4-2.5,3.3l-33.5,19.4C1431.1,163.6,1429,164,1427.1,164z
			 M1427.7,116.6c-1.9,0-3.9,0.5-5.4,1.3l-33.5,19.4c-1.5,0.8-2.3,1.9-2.3,3c0,0.9,0.6,1.7,1.6,2.3l34.9,20.2
			c2.4,1.4,6.7,1.2,9.5-0.4L1466,143c1.5-0.8,2.3-1.9,2.3-3c0-0.9-0.6-1.7-1.6-2.3l-34.9-20.2
			C1430.7,116.9,1429.2,116.6,1427.7,116.6z"/>
	</g>
	<path class="st14" d="M1154.3,154.8c0,1-0.8,1.7-1.7,1.7s-1.7-0.8-1.7-1.7c0-1,0.8-1.7,1.7-1.7S1154.3,153.8,1154.3,154.8z"/>
</g>
</svg>
