<?xml version="1.0" encoding="utf-8"?>
<!-- Generator: Adobe Illustrator 23.0.0, SVG Export Plug-In . SVG Version: 6.00 Build 0)  -->
<svg version="1.1" id="_x31__x2C_5" xmlns="http://www.w3.org/2000/svg" xmlns:xlink="http://www.w3.org/1999/xlink" x="0px"
	 y="0px" viewBox="0 0 512 512" style="enable-background:new 0 0 512 512;" xml:space="preserve">
<style type="text/css">
	.st0{fill:#EFEFEF;}
	.st1{fill:#EF2929;}
	.st2{display:none;}
	.st3{display:inline;fill:#EF2929;}
	.st4{display:inline;fill:#941E1E;}
	.st5{fill:#941E1E;}
</style>
<path class="st0" d="M452.7,119.1c0,98.4,51,165.9,51,213.3s-27.2,147-245.3,147S8.3,345.5,8.3,293.4
	C8.3,49.2,452.7-55.1,452.7,119.1L452.7,119.1z"/>
<path class="st1" d="M99.2,61.5l20.1-20.1l10.1,10.1l-20.1,20.1L99.2,61.5z"/>
<path class="st1" d="M41.3,119.3l20.1-20.1l10.1,10.1l-20.1,20.1L41.3,119.3z"/>
<path class="st1" d="M43.8,51.4l10.1-10.1L74,61.4L63.9,71.5L43.8,51.4z"/>
<path class="st1" d="M302.2,330.7h-92.4c-15.7,0-28.4-12.7-28.4-28.4v-92.4c0-15.7,12.7-28.4,28.4-28.4h92.4
	c15.7,0,28.4,12.7,28.4,28.4v92.4C330.7,317.9,317.9,330.7,302.2,330.7z"/>
<g class="st2">
	<circle class="st3" cx="298.7" cy="398.2" r="17.8"/>
	<circle class="st3" cx="213.3" cy="398.2" r="17.8"/>
	<circle class="st3" cx="213.3" cy="113.8" r="17.8"/>
	<circle class="st3" cx="298.7" cy="113.8" r="17.8"/>
	<circle class="st3" cx="113.8" cy="298.7" r="17.8"/>
	<circle class="st3" cx="113.8" cy="213.3" r="17.8"/>
	<circle class="st3" cx="398.2" cy="213.3" r="17.8"/>
	<circle class="st3" cx="398.2" cy="298.7" r="17.8"/>
</g>
<g class="st2">
	<path class="st4" d="M312.9,398.2c0-2.7,0.7-5.2,1.8-7.5c-2.8-6-8.9-10.3-16-10.3c-9.8,0-17.8,8-17.8,17.8c0,9.8,8,17.8,17.8,17.8
		c7.1,0,13.2-4.3,16-10.3C313.6,403.4,312.9,400.9,312.9,398.2z"/>
	<path class="st4" d="M227.6,398.2c0-2.7,0.7-5.2,1.8-7.5c-2.8-6-8.9-10.3-16-10.3c-9.8,0-17.8,8-17.8,17.8c0,9.8,8,17.8,17.8,17.8
		c7.1,0,13.2-4.3,16-10.3C228.3,403.4,227.6,400.9,227.6,398.2z"/>
	<path class="st4" d="M227.6,113.8c0-2.7,0.7-5.2,1.8-7.5c-2.8-6-8.9-10.3-16-10.3c-9.8,0-17.8,8-17.8,17.8s8,17.8,17.8,17.8
		c7.1,0,13.2-4.3,16-10.3C228.3,119,227.6,116.5,227.6,113.8z"/>
	<path class="st4" d="M312.9,113.8c0-2.7,0.7-5.2,1.8-7.5c-2.8-6-8.9-10.3-16-10.3c-9.8,0-17.8,8-17.8,17.8s8,17.8,17.8,17.8
		c7.1,0,13.2-4.3,16-10.3C313.6,119,312.9,116.5,312.9,113.8z"/>
	<path class="st4" d="M128,298.7c0-2.7,0.7-5.2,1.8-7.5c-2.8-6-8.9-10.3-16-10.3c-9.8,0-17.8,8-17.8,17.8c0,9.8,8,17.8,17.8,17.8
		c7.1,0,13.2-4.3,16-10.3C128.7,303.9,128,301.4,128,298.7z"/>
	<path class="st4" d="M128,213.3c0-2.7,0.7-5.2,1.8-7.5c-2.8-6-8.9-10.3-16-10.3c-9.8,0-17.8,8-17.8,17.8c0,9.8,8,17.8,17.8,17.8
		c7.1,0,13.2-4.3,16-10.3C128.7,218.5,128,216,128,213.3z"/>
	<path class="st4" d="M412.4,213.3c0-2.7,0.7-5.2,1.8-7.5c-2.8-6-8.9-10.3-16-10.3c-9.8,0-17.8,8-17.8,17.8c0,9.8,8,17.8,17.8,17.8
		c7.1,0,13.2-4.3,16-10.3C413.1,218.5,412.4,216,412.4,213.3z"/>
	<path class="st4" d="M412.4,298.7c0-2.7,0.7-5.2,1.8-7.5c-2.8-6-8.9-10.3-16-10.3c-9.8,0-17.8,8-17.8,17.8c0,9.8,8,17.8,17.8,17.8
		c7.1,0,13.2-4.3,16-10.3C413.1,303.9,412.4,301.4,412.4,298.7z"/>
</g>
<path class="st5" d="M213.3,302.2v-92.4c0-15.7,12.7-28.4,28.4-28.4h-32c-15.7,0-28.4,12.7-28.4,28.4v92.4
	c0,15.7,12.7,28.4,28.4,28.4h32C226.1,330.7,213.3,317.9,213.3,302.2z"/>
<path d="M302.2,341.3h-92.4c-21.6,0-39.1-17.5-39.1-39.1v-92.4c0-21.6,17.5-39.1,39.1-39.1h92.4c21.6,0,39.1,17.5,39.1,39.1v92.4
	C341.3,323.8,323.8,341.3,302.2,341.3z M209.8,192c-9.8,0-17.8,8-17.8,17.8v92.4c0,9.8,8,17.8,17.8,17.8h92.4
	c9.8,0,17.8-8,17.8-17.8v-92.4c0-9.8-8-17.8-17.8-17.8H209.8z"/>
<path d="M288,334.2h21.3v42.7H288V334.2z"/>
<path d="M298.7,426.7c-15.7,0-28.4-12.8-28.4-28.4c0-15.7,12.8-28.4,28.4-28.4c15.7,0,28.4,12.8,28.4,28.4
	C327.1,413.9,314.4,426.7,298.7,426.7z M298.7,391.1c-3.9,0-7.1,3.2-7.1,7.1s3.2,7.1,7.1,7.1c3.9,0,7.1-3.2,7.1-7.1
	S302.6,391.1,298.7,391.1z"/>
<path d="M202.7,334.2H224v42.7h-21.3V334.2z"/>
<path d="M213.3,426.7c-15.7,0-28.4-12.8-28.4-28.4c0-15.7,12.8-28.4,28.4-28.4c15.7,0,28.4,12.8,28.4,28.4
	C241.8,413.9,229,426.7,213.3,426.7z M213.3,391.1c-3.9,0-7.1,3.2-7.1,7.1s3.2,7.1,7.1,7.1c3.9,0,7.1-3.2,7.1-7.1
	S217.2,391.1,213.3,391.1z"/>
<path d="M202.7,135.1H224v42.7h-21.3V135.1z"/>
<path d="M213.3,142.2c-15.7,0-28.4-12.8-28.4-28.4s12.8-28.4,28.4-28.4c15.7,0,28.4,12.8,28.4,28.4S229,142.2,213.3,142.2z
	 M213.3,106.7c-3.9,0-7.1,3.2-7.1,7.1s3.2,7.1,7.1,7.1c3.9,0,7.1-3.2,7.1-7.1S217.2,106.7,213.3,106.7z"/>
<path d="M288,135.1h21.3v42.7H288V135.1z"/>
<path d="M298.7,142.2c-15.7,0-28.4-12.8-28.4-28.4s12.8-28.4,28.4-28.4c15.7,0,28.4,12.8,28.4,28.4S314.4,142.2,298.7,142.2z
	 M298.7,106.7c-3.9,0-7.1,3.2-7.1,7.1s3.2,7.1,7.1,7.1c3.9,0,7.1-3.2,7.1-7.1S302.6,106.7,298.7,106.7z"/>
<path d="M135.1,288h42.7v21.3h-42.7V288z"/>
<path d="M113.8,327.1c-15.7,0-28.4-12.8-28.4-28.4c0-15.7,12.8-28.4,28.4-28.4s28.4,12.8,28.4,28.4
	C142.2,314.4,129.5,327.1,113.8,327.1z M113.8,291.6c-3.9,0-7.1,3.2-7.1,7.1c0,3.9,3.2,7.1,7.1,7.1c3.9,0,7.1-3.2,7.1-7.1
	C120.9,294.7,117.7,291.6,113.8,291.6z"/>
<path d="M135.1,202.7h42.7V224h-42.7V202.7z"/>
<path d="M113.8,241.8c-15.7,0-28.4-12.8-28.4-28.4s12.8-28.4,28.4-28.4s28.4,12.8,28.4,28.4C142.2,229,129.5,241.8,113.8,241.8z
	 M113.8,206.2c-3.9,0-7.1,3.2-7.1,7.1c0,3.9,3.2,7.1,7.1,7.1c3.9,0,7.1-3.2,7.1-7.1C120.9,209.4,117.7,206.2,113.8,206.2z"/>
<path d="M334.2,202.7h42.7V224h-42.7V202.7z"/>
<path d="M398.2,241.8c-15.7,0-28.4-12.8-28.4-28.4s12.8-28.4,28.4-28.4c15.7,0,28.4,12.8,28.4,28.4
	C426.7,229,413.9,241.8,398.2,241.8z M398.2,206.2c-3.9,0-7.1,3.2-7.1,7.1c0,3.9,3.2,7.1,7.1,7.1s7.1-3.2,7.1-7.1
	C405.3,209.4,402.1,206.2,398.2,206.2z"/>
<path d="M334.2,288h42.7v21.3h-42.7V288z"/>
<path d="M398.2,327.1c-15.7,0-28.4-12.8-28.4-28.4c0-15.7,12.8-28.4,28.4-28.4c15.7,0,28.4,12.8,28.4,28.4
	C426.7,314.4,413.9,327.1,398.2,327.1z M398.2,291.6c-3.9,0-7.1,3.2-7.1,7.1c0,3.9,3.2,7.1,7.1,7.1s7.1-3.2,7.1-7.1
	C405.3,294.7,402.1,291.6,398.2,291.6z"/>
</svg>
