<svg id="_x31__x2C_5" enable-background="new 0 0 36 36" height="512" viewBox="0 0 36 36" width="512" xmlns="http://www.w3.org/2000/svg"><path d="m8.377 31.833c6.917 0 11.667 3.583 15 3.583s10.333-1.916 10.333-17.249-9.417-17.584-13.083-17.584c-17.167 0-24.5 31.25-12.25 31.25z" fill="#efefef"/><g fill="#EF2929"><path d="m32.533 6.033h1v2h-1z" transform="matrix(.707 -.707 .707 .707 4.699 25.413)"/><path d="m28.467 1.967h1v2h-1z" transform="matrix(.707 -.707 .707 .707 6.383 21.348)"/><path d="m32.033 2.644h2v1h-2z" transform="matrix(.707 -.707 .707 .707 7.452 24.279)"/></g><path d="m6.94 25.5 2.55-17.05c.15-.98.99-1.7 1.98-1.7h13.06c.99 0 1.83.72 1.98 1.7l2.55 17.05z" fill="#f3f3f1"/><path d="m26.5 29.25h-17c-1.519 0-2.75-1.231-2.75-2.75 0-1.519 1.231-2.75 2.75-2.75h17c1.519 0 2.75 1.231 2.75 2.75 0 1.519-1.231 2.75-2.75 2.75z" fill="#EF2929"/><path d="m13.25 15.25 4.75 5 4.75-5h-3v-5c0-.276-.224-.5-.5-.5h-2.5c-.276 0-.5.224-.5.5v5z" fill="#EF2929"/><path d="m9 26.5c0-1.519 1.231-2.75 2.75-2.75h-2.25c-1.519 0-2.75 1.231-2.75 2.75s1.231 2.75 2.75 2.75h2.25c-1.519 0-2.75-1.231-2.75-2.75z" fill="#941E1E"/><path d="m18.5 10.25c0-.276.224-.5.5-.5h-2.25c-.276 0-.5.224-.5.5v5h2.25z" fill="#941E1E"/><path d="m15.5 15.25h-2.25l4.75 5 1.125-1.184z" fill="#941E1E"/><path d="m11.47 6.75c-.99 0-1.83.72-1.98 1.7l-2.55 17.05h.004c.395-1.008 1.363-1.725 2.507-1.745l2.289-15.305c.15-.98.99-1.7 1.98-1.7z" fill="#d5dbe1"/><path d="m18 21c-.206 0-.402-.084-.544-.233l-4.75-5c-.206-.217-.264-.537-.146-.813s.39-.454.69-.454h2.25v-4.25c0-.689.561-1.25 1.25-1.25h2.5c.689 0 1.25.561 1.25 1.25v4.25h2.25c.3 0 .571.179.689.454s.061.595-.146.813l-4.75 5c-.141.149-.337.233-.543.233zm-3.003-5 3.003 3.161 3.003-3.161h-1.253c-.414 0-.75-.336-.75-.75v-4.75h-2v4.75c0 .414-.336.75-.75.75z"/><path d="m26.5 30h-17c-1.93 0-3.5-1.57-3.5-3.5s1.57-3.5 3.5-3.5h17c1.93 0 3.5 1.57 3.5 3.5s-1.57 3.5-3.5 3.5zm-17-5.5c-1.103 0-2 .897-2 2s.897 2 2 2h17c1.103 0 2-.897 2-2s-.897-2-2-2z"/><circle cx="11" cy="26.5" r="1"/><circle cx="15" cy="26.5" r="1"/><path d="m28.317 25.611-2.55-17.05c-.092-.614-.614-1.061-1.237-1.061h-13.06c-.623 0-1.145.447-1.238 1.063l-2.549 17.048-1.484-.222 2.55-17.05c.206-1.356 1.351-2.339 2.721-2.339h13.06c1.37 0 2.515.983 2.721 2.337l2.551 17.052z"/></svg>