<?xml version="1.0" encoding="UTF-8" standalone="no"?>
<svg
   xmlns:dc="http://purl.org/dc/elements/1.1/"
   xmlns:cc="http://creativecommons.org/ns#"
   xmlns:rdf="http://www.w3.org/1999/02/22-rdf-syntax-ns#"
   xmlns:svg="http://www.w3.org/2000/svg"
   xmlns="http://www.w3.org/2000/svg"
   xmlns:sodipodi="http://sodipodi.sourceforge.net/DTD/sodipodi-0.dtd"
   xmlns:inkscape="http://www.inkscape.org/namespaces/inkscape"
   inkscape:version="1.0 (4035a4fb49, 2020-05-01)"
   sodipodi:docname="domain-name.svg"
   id="svg3076"
   version="1.1"
   viewBox="0 0 200 200">
  <metadata
     id="metadata3082">
    <rdf:RDF>
      <cc:Work
         rdf:about="">
        <dc:format>image/svg+xml</dc:format>
        <dc:type
           rdf:resource="http://purl.org/dc/dcmitype/StillImage" />
      </cc:Work>
    </rdf:RDF>
  </metadata>
  <defs
     id="defs3080" />
  <sodipodi:namedview
     inkscape:current-layer="svg3076"
     inkscape:window-maximized="1"
     inkscape:window-y="-8"
     inkscape:window-x="-8"
     inkscape:cy="100"
     inkscape:cx="54.705882"
     inkscape:zoom="4.25"
     showgrid="false"
     id="namedview3078"
     inkscape:window-height="1017"
     inkscape:window-width="2560"
     inkscape:pageshadow="2"
     inkscape:pageopacity="0"
     guidetolerance="10"
     gridtolerance="10"
     objecttolerance="10"
     borderopacity="1"
     bordercolor="#666666"
     pagecolor="#ffffff" />
  <g
     id="g3056"
     fill="#1f2835">
    <circle
       id="circle3050"
       stroke-width="9"
       stroke="#1f2835"
       r="84.7"
       cy="98"
       cx="100" />
    <path
       id="path3052"
       d="M168.1,98h15.3c0,45.7-36.8,82.8-82.4,83.4L168.1,98z" />
    <path
       id="path3054"
       d="M100.9 14.7L168.1 98h15.3c0-45.7-36.8-82.9-82.5-83.3z" />
  </g>
  <path
     id="path3058"
     enable-background="new"
     opacity=".3"
     d="M168.1,98h15.3c0,45.7-36.8,82.8-82.4,83.4L168.1,98z" />
  <path
     id="path3060"
     enable-background="new"
     opacity=".3"
     d="M100.9 14.7L168.1 98h15.3c0-45.7-36.8-82.9-82.5-83.3z" />
  <g
     id="g3066"
     fill="#1f2835">
    <path
       id="path3062"
       d="M99.6 189c-.1 0 0 0 0 0-.1 0-.1 0 0 0zm68.5-91H16.6c0 45.7 37.4 83.5 83 83.4 37.2-.1 68.5-37.7 68.5-83.4z" />
    <path
       id="path3064"
       d="M99.7 15c-.1 0-.2 0 0 0-.2 0-.2 0 0 0zm-.1-.3c-45.6-.1-83 37.6-83 83.3H168c.1-45.7-31.2-83.3-68.4-83.3z" />
  </g>
  <g
     id="g3072"
     stroke-miterlimit="10"
     stroke-width="4">
    <path
       sodipodi:nodetypes="cscscccccccssscccccssccssccccccsccsscccccssccccscssccscccscsccccccccccsccccscccccscccssccssscccccscccsccccscccccccccccscccsccscccscccsssccssccccccs"
       id="path3068"
       stroke="#1f2835"
       fill="#f3f4f5"
       d="M 161.5,36.5 C 145.1,20 123.2,11 100,11 76.8,11 54.9,20 38.5,36.5 22.1,52.9 13,74.8 13,98 c 0,17.7 5.2,34.5 14.9,48.8 v 0.1 L 32,152 c 8.9,9.7 11,11 12.6,12.7 l 0.1,0.1 6.4,5.3 h 0.1 c 14.4,9.8 31.2,15 48.9,15 23.2,0 45.1,-9 61.5,-25.5 C 178,143.1 187,121.2 187,98 187,74.8 177.9,52.9 161.5,36.5 Z M 78.3,19.7 c 0.7,-0.2 1.2,0.6 0.7,1.2 -4.2,4.2 -8,9.7 -11.3,16.4 -2.066292,4.13635 -3.837379,8.413693 -5.3,12.8 -0.1,0.3 -0.4,0.5 -0.7,0.5 H 35.5 c -0.6,0 -0.9,-0.7 -0.6,-1.1 10.7,-14.3 25.9,-25 43.4,-29.8 z M 30.7,56.2 h 28.9 c 0.5,0 0.8,0.4 0.7,0.9 -3.1,11.4 -4.9,24.1 -5.1,37.4 0.01169,0.391339 -0.308661,0.71169 -0.7,0.7 h -35 c -0.391339,0.01169 -0.71169,-0.308661 -0.7,-0.7 0.6,-13.8 4.6,-26.6 11.3,-37.8 0.1,-0.4 0.4,-0.5 0.6,-0.5 z m 24.4,45.4 c 0.2,13.2 2,26 5.1,37.4 0.1,0.4 -0.2,0.9 -0.7,0.9 H 30.7 c -0.2,0 -0.5,-0.1 -0.6,-0.3 -6.7,-11.1 -10.7,-24 -11.3,-37.8 -0.01169,-0.39134 0.308661,-0.71169 0.7,-0.7 h 34.9 c 0.4,-0.2 0.7,0.1 0.7,0.5 z m -19.6,43.9 h 26.2 c 0.3,0 0.6,0.2 0.7,0.5 1.6,4.5 3.3,8.9 5.3,12.8 3.4,6.7 7.2,12.2 11.3,16.4 0.5,0.5 0,1.3 -0.7,1.1 -7.177841,-1.96878 -13.968745,-4.93013 -20.220907,-8.71846 C 49.088114,162.13371 41.211263,154.97569 34.9,146.6 c -0.3,-0.4 0,-1.1 0.6,-1.1 z M 97.1,179 c -9,-1.4 -17.6,-9.4 -24.3,-22.8 -1.6,-3 -3,-6.3 -4.2,-9.8 -0.2,-0.5 0.2,-0.9 0.7,-0.9 h 27.1 c 0.391339,-0.0117 0.71169,0.30866 0.7,0.7 V 179 Z m 0,-39.2 H 67 c -0.3,0 -0.6,-0.2 -0.7,-0.5 -3.3,-11.4 -5.2,-24.2 -5.4,-37.7 -0.01169,-0.39134 0.308661,-0.71169 0.7,-0.7 h 34.9 c 0.391339,-0.0117 0.71169,0.30866 0.7,0.7 z m 0,-44.7 H 61.5 C 61.108661,95.11169 60.78831,94.791339 60.8,94.4 61.1,81 63,68.1 66.2,56.7 c 0.1,-0.3 0.4,-0.5 0.7,-0.5 h 29.5 c 0.391339,-0.01169 0.71169,0.308661 0.7,0.7 z m 0,-44.6 H 69.3 c -0.5,0 -0.8,-0.5 -0.7,-0.9 1.3,-3.5 2.7,-6.7 4.1,-9.8 6.5,-13.1 14.8,-21 23.5,-22.7 0.4,-0.1 0.8,0.3 0.8,0.7 z m 83.4,44.6 h -34.9 c -0.39134,0.01169 -0.71169,-0.308661 -0.7,-0.7 -0.2,-13.2 -2,-26 -5.1,-37.4 -0.1,-0.4 0.2,-0.9 0.7,-0.9 h 28.9 c 0.2,0 0.5,0.1 0.6,0.3 6.7,11.2 10.7,24 11.3,37.8 -0.1,0.6 -0.4,0.9 -0.8,0.9 z m -16,-44.6 h -26.2 c -0.3,0 -0.6,-0.2 -0.7,-0.5 -1.6,-4.5 -3.3,-8.9 -5.3,-12.8 -3.4,-6.7 -7.2,-12.2 -11.3,-16.4 -0.5,-0.5 0,-1.3 0.7,-1.1 17.5,4.8 32.7,15.5 43.4,29.7 0.3,0.4 0,1.1 -0.6,1.1 z M 102.9,16.9 c 9,1.4 17.6,9.4 24.3,22.8 1.6,3 3,6.3 4.2,9.8 0.2,0.5 -0.2,0.9 -0.7,0.9 h -27.1 c -0.39134,0.01169 -0.71169,-0.308661 -0.7,-0.7 z m 0.7,39.3 h 29.5 c 0.3,0 0.6,0.2 0.7,0.5 3.3,11.4 5.2,24.2 5.4,37.7 0.0117,0.391339 -0.30866,0.71169 -0.7,0.7 h -34.9 c -0.39134,0.01169 -0.71169,-0.308661 -0.7,-0.7 V 56.9 c -0.0117,-0.391339 0.30866,-0.71169 0.7,-0.7 z m -0.7,44.7 h 35.6 c 0.39134,-0.0117 0.71169,0.30866 0.7,0.7 -0.3,13.4 -2.2,26.3 -5.4,37.7 -0.1,0.3 -0.4,0.5 -0.7,0.5 h -29.5 c -0.39134,0.0117 -0.71169,-0.30866 -0.7,-0.7 z m 0,77.3 v -32 c -0.0117,-0.39134 0.30866,-0.71169 0.7,-0.7 h 27.1 c 0.5,0 0.8,0.5 0.7,0.9 -1.3,3.5 -2.7,6.7 -4.1,9.8 -6.6,13 -14.8,20.9 -23.5,22.7 -0.5,0 -0.9,-0.3 -0.9,-0.7 z m 18.8,-1.9 c -0.7,0.2 -1.2,-0.6 -0.7,-1.2 4.2,-4.2 8,-9.7 11.3,-16.4 2.06629,-4.13635 3.83738,-8.41369 5.3,-12.8 0.1,-0.3 0.4,-0.5 0.7,-0.5 h 26.2 c 0.6,0 0.9,0.7 0.6,1.1 -10.7,14.3 -25.9,25 -43.4,29.8 z m 47.6,-36.5 h -28.9 c -0.5,0 -0.8,-0.4 -0.7,-0.9 3.1,-11.4 4.9,-24.1 5.1,-37.4 -0.0117,-0.39134 0.30866,-0.71169 0.7,-0.7 h 34.9 c 0.39134,-0.0117 0.71169,0.30866 0.7,0.7 -0.6,13.8 -4.6,26.6 -11.3,37.8 0,0.4 -0.3,0.5 -0.5,0.5 z" />
    <path
       style="stroke:#b7151d;stroke-opacity:1;fill:#b7151d;fill-opacity:1"
       id="path3070"
       stroke="#4caf50"
       fill="#4caf50"
       d="M189.4 118.3H9.9a4.95 4.95 0 0 1-5-5V80.7a4.95 4.95 0 0 1 5-5h179.4a4.95 4.95 0 0 1 5 5v32.6c.1 2.7-2.2 5-4.9 5z" />
  </g>
  <path
     id="path3074"
     stroke-width=".25"
     fill="#f3f4f5"
     stroke="#1f2835"
     stroke-miterlimit="10"
     d="M62.4 106.2l-4.7-16.1-4.7 16.1-.9 2.6c-.2.6-.6 1-1.1 1.4s-1.2.7-2.1.7c-.7 0-1.3-.1-1.8-.4s-.8-.6-1.1-1c-.3-.5-.5-1-.7-1.6l-.5-1.8L39.7 88c-.3-1-.4-1.9-.4-2.4 0-.7.3-1.3.8-1.8s1.2-.7 1.9-.7c1.1 0 1.8.3 2.1.9.4.7.7 1.6 1 2.7l3.9 15.6 4.3-14.6.8-2.5c.2-.6.7-1.1 1.2-1.5.6-.5 1.3-.7 2.3-.7s1.7.2 2.3.7c.5.5.9.9 1.1 1.5l.8 2.6 4.3 14.6 4.4-17.5c.2-.5.4-.8.8-1.2s1-.6 1.7-.6c.8 0 1.4.3 1.9.7.5.5.8 1 .8 1.8 0 .5-.1 1.3-.4 2.4l-4.9 18.1-.8 2.7c-.2.5-.6 1-1.1 1.5s-1.2.7-2.2.7c-.9 0-1.6-.2-2.1-.7-.5-.4-.9-.8-1.1-1.4 0-.6-.3-1.4-.7-2.7zm42.4 0l-4.7-16.1-4.8 16.1-.9 2.6c-.2.6-.6 1-1.1 1.4s-1.2.7-2.1.7c-.7 0-1.3-.1-1.8-.4s-.8-.6-1.1-1c-.3-.5-.5-1-.7-1.6l-.5-1.8-5-18.1c-.3-1-.4-1.9-.4-2.4 0-.7.3-1.3.8-1.8s1.2-.7 1.9-.7c1.1 0 1.8.3 2.1.9.4.7.7 1.6 1 2.7l3.9 15.6 4.3-14.6.8-2.5c.2-.6.7-1.1 1.2-1.5.6-.5 1.3-.7 2.3-.7s1.7.2 2.3.7c.5.5.9.9 1.1 1.5l.8 2.6 4.3 14.6 4.4-17.6c.2-.5.4-.8.8-1.2s1-.6 1.7-.6 1.4.3 1.9.7.8 1 .8 1.8c0 .5-.1 1.3-.4 2.4l-4.9 18.1-.8 2.7c-.2.6-.6 1-1.1 1.5s-1.2.7-2.2.7c-.9 0-1.6-.2-2.1-.7s-.9-.8-1.1-1.4c-.1-.5-.4-1.3-.7-2.6zm42.3 0l-4.7-16.1-4.8 16.1-.9 2.6c-.2.6-.6 1-1.1 1.4s-1.2.7-2.1.7c-.7 0-1.3-.1-1.8-.4s-.8-.6-1.1-1c-.3-.5-.5-1-.7-1.6l-.5-1.8-5-18.1c-.3-1-.4-1.9-.4-2.4 0-.7.3-1.3.8-1.8s1.2-.7 1.9-.7c1.1 0 1.8.3 2.1.9.4.7.7 1.6 1 2.7l3.9 15.6 4.3-14.6.8-2.5c.2-.6.7-1.1 1.2-1.5.6-.5 1.3-.7 2.3-.7s1.7.2 2.3.7c.5.5.9.9 1.1 1.5l.8 2.6 4.3 14.6 4.4-17.6c.2-.5.4-.8.8-1.2s1-.6 1.7-.6 1.4.3 1.9.7c.5.5.8 1 .8 1.8 0 .5-.1 1.3-.4 2.4l-4.9 18.1-.8 2.7c-.2.6-.6 1-1.1 1.5s-1.2.7-2.2.7c-.9 0-1.6-.2-2.1-.7s-.9-.8-1.1-1.4c0-.5-.3-1.3-.7-2.6z" />
</svg>
