<?xml version="1.0" encoding="UTF-8" standalone="no"?>
<svg
   xmlns:dc="http://purl.org/dc/elements/1.1/"
   xmlns:cc="http://creativecommons.org/ns#"
   xmlns:rdf="http://www.w3.org/1999/02/22-rdf-syntax-ns#"
   xmlns:svg="http://www.w3.org/2000/svg"
   xmlns="http://www.w3.org/2000/svg"
   xmlns:xlink="http://www.w3.org/1999/xlink"
   xmlns:sodipodi="http://sodipodi.sourceforge.net/DTD/sodipodi-0.dtd"
   xmlns:inkscape="http://www.inkscape.org/namespaces/inkscape"
   inkscape:version="1.0 (4035a4fb49, 2020-05-01)"
   sodipodi:docname="fast-server.svg"
   id="svg3976"
   version="1.1"
   viewBox="0 0 200 200">
  <metadata
     id="metadata3980">
    <rdf:RDF>
      <cc:Work
         rdf:about="">
        <dc:format>image/svg+xml</dc:format>
        <dc:type
           rdf:resource="http://purl.org/dc/dcmitype/StillImage" />
      </cc:Work>
    </rdf:RDF>
  </metadata>
  <sodipodi:namedview
     inkscape:current-layer="svg3976"
     inkscape:window-maximized="1"
     inkscape:window-y="-8"
     inkscape:window-x="-8"
     inkscape:cy="100"
     inkscape:cx="54.705882"
     inkscape:zoom="4.25"
     showgrid="false"
     id="namedview3978"
     inkscape:window-height="1017"
     inkscape:window-width="2560"
     inkscape:pageshadow="2"
     inkscape:pageopacity="0"
     guidetolerance="10"
     gridtolerance="10"
     objecttolerance="10"
     borderopacity="1"
     bordercolor="#666666"
     pagecolor="#ffffff" />
  <g
     id="g3889"
     fill="#1f2835">
    <use
       id="use3883"
       xlink:href="#B" />
    <use
       id="use3885"
       xlink:href="#C" />
    <use
       id="use3887"
       xlink:href="#D" />
  </g>
  <g
     id="g3897"
     opacity=".3">
    <use
       id="use3891"
       xlink:href="#B" />
    <use
       id="use3893"
       xlink:href="#C" />
    <use
       id="use3895"
       xlink:href="#D" />
  </g>
  <path
     style="fill:#333333;fill-opacity:1"
     id="path3899"
     fill="#1f2835"
     d="M179.7 61.2c0 3.2-4 6.9-6.9 6.9H27.2c-2.9 0-6.9-3.7-6.9-6.9V23.7c0-3.2 4-6.1 6.9-6.1h145.6c2.9 0 6.9 2.9 6.9 6.1v37.5zm0 53.9c0 3.2-4 6.1-6.9 6.1H27.2c-2.9 0-6.9-2.9-6.9-6.1V77.7c0-3.2 4-6.9 6.9-6.9h145.6c3.2 0 6.9 3.7 6.9 6.9v37.4zm0 54c0 3.2-4 5.3-6.9 5.3H27.2c-2.9 0-6.9-2.1-6.9-5.3v-37.5c0-3.2 4-5 6.9-5h145.6c3.2 0 6.9 1.9 6.9 5v37.5z" />
  <path
     id="path3901"
     opacity=".08"
     d="M20.3 23.7c0-3.2 4-6.1 6.9-6.1h145.6c2.9 0 6.9 2.9 6.9 6.1v37.5c0 3.2-4 6.9-6.9 6.9M20.3 77.7c0-3.2 4-6.9 6.9-6.9h145.6c3.2 0 6.9 3.7 6.9 6.9v37.5c0 3.2-4 6.1-6.9 6.1M20.3 131.6c0-3.2 4-5 6.9-5h145.6c3.2 0 6.9 1.9 6.9 5v37.5c0 3.2-4 5.3-6.9 5.3" />
  <g
     style="fill:#b7151d;fill-opacity:1"
     id="g3921"
     fill="#4caf50">
    <use
       style="fill:#b7151d;fill-opacity:1"
       id="use3903"
       xlink:href="#E" />
    <use
       style="fill:#b7151d;fill-opacity:1"
       id="use3905"
       x="8"
       xlink:href="#E" />
    <use
       style="fill:#b7151d;fill-opacity:1"
       id="use3907"
       x="16"
       xlink:href="#E" />
    <path
       style="fill:#b7151d;fill-opacity:1"
       id="path3909"
       d="M36.2 104.5c0 .5-.8 1.1-1.3 1.1-.5.3-1.3-.3-1.3-1.1V88c0-.5.8-1.1 1.3-1.1s1.3.5 1.3 1.1v16.5z" />
    <use
       style="fill:#b7151d;fill-opacity:1"
       id="use3911"
       xlink:href="#F" />
    <use
       style="fill:#b7151d;fill-opacity:1"
       id="use3913"
       x="8"
       xlink:href="#F" />
    <path
       style="fill:#b7151d;fill-opacity:1"
       id="path3915"
       d="M36.2 158.5c0 .5-.8 1.1-1.3 1.1-.5.3-1.3-.3-1.3-1.1V142c0-.5.8-1.1 1.3-1.1s1.3.5 1.3 1.1v16.5z" />
    <use
       style="fill:#b7151d;fill-opacity:1"
       id="use3917"
       xlink:href="#G" />
    <use
       style="fill:#b7151d;fill-opacity:1"
       id="use3919"
       x="8"
       xlink:href="#G" />
  </g>
  <use
     id="use3923"
     fill="#f3f4f5"
     xlink:href="#H" />
  <circle
     id="circle3925"
     fill="#fff"
     r="8.2"
     cy="42.3"
     cx="142" />
  <g
     id="g3935"
     fill="#f3f4f5">
    <path
       id="path3927"
       d="M141.7 96c0 .8-.5 1.3-1.3 1.3H61.5c-.8 0-1.3-.5-1.3-1.3s.5-1.3 1.3-1.3h78.9c.8 0 1.3.5 1.3 1.3z" />
    <circle
       id="circle3929"
       r="8.2"
       cy="96.3"
       cx="142" />
    <use
       id="use3931"
       y="106.3"
       xlink:href="#H" />
    <circle
       id="circle3933"
       r="8.2"
       cy="150.2"
       cx="142" />
  </g>
  <g
     style="fill:#b7151d;fill-opacity:1"
     id="g3949"
     fill="#4caf50">
    <use
       style="fill:#b7151d;fill-opacity:1"
       id="use3937"
       xlink:href="#I" />
    <use
       style="fill:#b7151d;fill-opacity:1"
       id="use3939"
       y="54"
       xlink:href="#I" />
    <use
       style="fill:#b7151d;fill-opacity:1"
       id="use3941"
       y="107.9"
       xlink:href="#I" />
    <circle
       style="fill:#b7151d;fill-opacity:1"
       id="circle3943"
       r="4"
       cy="150.2"
       cx="142" />
    <circle
       style="fill:#b7151d;fill-opacity:1"
       id="circle3945"
       r="4"
       cy="96.3"
       cx="142" />
    <circle
       style="fill:#b7151d;fill-opacity:1"
       id="circle3947"
       r="4"
       cy="42.3"
       cx="142" />
  </g>
  <g
     style="fill:#b7151d;fill-opacity:1"
     id="g3963"
     fill="#1f2835"
     opacity=".3">
    <use
       style="fill:#b7151d;fill-opacity:1"
       id="use3951"
       xlink:href="#J" />
    <use
       style="fill:#b7151d;fill-opacity:1"
       id="use3953"
       x="20.2"
       xlink:href="#J" />
    <use
       style="fill:#b7151d;fill-opacity:1"
       id="use3955"
       y="-53.9"
       x="20.2"
       xlink:href="#J" />
    <use
       style="fill:#b7151d;fill-opacity:1"
       id="use3957"
       y="-53.9"
       xlink:href="#J" />
    <use
       style="fill:#b7151d;fill-opacity:1"
       id="use3959"
       y="53.9"
       xlink:href="#J" />
    <use
       style="fill:#b7151d;fill-opacity:1"
       id="use3961"
       y="53.9"
       x="20.2"
       xlink:href="#J" />
  </g>
  <defs
     id="defs3974">
    <path
       d="M166.4 68.4c0 3.2-1.6 5-4.8 5H38.4c-3.2 0-4.8-1.9-4.8-5v-5.6c0-3.2 1.6-5.3 4.8-5.3h123.3c3.2 0 4.8 2.1 4.8 5.3v5.6z"
       id="B" />
    <path
       d="M166.4 122.3c0 3.2-1.6 6.9-4.8 6.9H38.4c-3.2 0-4.8-3.7-4.8-6.9v-5.6c0-3.2 1.6-6.1 4.8-6.1h123.3c3.2 0 4.8 2.9 4.8 6.1v5.6z"
       id="C" />
    <path
       d="M166.4 176.3c0 3.2-1.6 6.1-4.8 6.1H38.4c-3.2 0-4.8-2.9-4.8-6.1v-5.6c0-2.9 1.6-4.3 4.8-4.3h123.3c3.2 0 4.8 1.3 4.8 4.3v5.6z"
       id="D" />
    <path
       d="M36.2 50.6c0 .5-.8 1.1-1.3 1.1s-1.3-.5-1.3-1.1V34.1c0-.5.8-1.1 1.3-1.1s1.3.5 1.3 1.1v16.5z"
       id="E" />
    <path
       d="M44.2 104.3c0 .5-.5 1.1-1.1 1.1h-.3c-.5 0-1.1-.5-1.1-1.1V88c0-.5.5-1.1 1.1-1.1h.3c.5 0 1.1.5 1.1 1.1v16.3z"
       id="F" />
    <path
       d="M44.2 158.5c0 .5-.8 1.1-1.3 1.1s-1.3-.5-1.3-1.1V142c0-.5.8-1.1 1.3-1.1s1.3.5 1.3 1.1v16.5z"
       id="G" />
    <path
       d="M142.5 42.9c0 .8-.5 1.3-1.3 1.3H61.5c-.8 0-1.3-.5-1.3-1.3s.5-1.3 1.3-1.3h79.4c1.1-.1 1.6.5 1.6 1.3z"
       id="H" />
    <path
       d="M166.2 42.3c0 2.1-1.9 4-4 4s-4-1.9-4-4 1.9-4 4-4 4 1.9 4 4z"
       id="I" />
    <path
       d="M144.6 99.2c-1.6 1.6-4 1.6-5.6 0s-1.6-4 0-5.6"
       id="J" />
  </defs>
</svg>
