<?xml version="1.0" encoding="UTF-8" standalone="no"?>
<svg
   xmlns:dc="http://purl.org/dc/elements/1.1/"
   xmlns:cc="http://creativecommons.org/ns#"
   xmlns:rdf="http://www.w3.org/1999/02/22-rdf-syntax-ns#"
   xmlns:svg="http://www.w3.org/2000/svg"
   xmlns="http://www.w3.org/2000/svg"
   xmlns:sodipodi="http://sodipodi.sourceforge.net/DTD/sodipodi-0.dtd"
   xmlns:inkscape="http://www.inkscape.org/namespaces/inkscape"
   inkscape:version="1.0 (4035a4fb49, 2020-05-01)"
   sodipodi:docname="measures.svg"
   id="svg4709"
   version="1.1"
   viewBox="0 0 512 512">
  <metadata
     id="metadata4715">
    <rdf:RDF>
      <cc:Work
         rdf:about="">
        <dc:format>image/svg+xml</dc:format>
        <dc:type
           rdf:resource="http://purl.org/dc/dcmitype/StillImage" />
      </cc:Work>
    </rdf:RDF>
  </metadata>
  <defs
     id="defs4713" />
  <sodipodi:namedview
     inkscape:current-layer="svg4709"
     inkscape:window-maximized="1"
     inkscape:window-y="-8"
     inkscape:window-x="-8"
     inkscape:cy="256"
     inkscape:cx="140.04706"
     inkscape:zoom="1.6601562"
     showgrid="false"
     id="namedview4711"
     inkscape:window-height="1017"
     inkscape:window-width="2560"
     inkscape:pageshadow="2"
     inkscape:pageopacity="0"
     guidetolerance="10"
     gridtolerance="10"
     objecttolerance="10"
     borderopacity="1"
     bordercolor="#666666"
     pagecolor="#ffffff" />
  <path
     style="fill:#333333;fill-opacity:1"
     id="path4677"
     fill="#1f2835"
     d="M53.8 27h378.4c14.3 0 25.8 11.6 25.8 25.8v387.4c0 14.3-11.6 25.8-25.8 25.8H53.8C39.6 466 28 454.4 28 440.2V52.8C28 38.6 39.6 27 53.8 27z" />
  <path
     id="path4679"
     opacity=".3"
     d="M432.2,27H53.8C39.6,27,28,38.6,28,52.8V96h430V52.8C458,38.6,446.4,27,432.2,27z" />
  <path
     id="path4681"
     fill="#eb4042"
     d="M157,54h16v16h-16V54z" />
  <path
     id="path4683"
     fill="#fde700"
     d="M88,53h17v17H88V53z" />
  <path
     id="path4685"
     fill="#88bf40"
     d="M122,53h17v17h-17V53z" />
  <path
     id="path4687"
     opacity=".3"
     d="M226,165h17v77h-17V165z" />
  <path
     id="path4689"
     fill="#fff"
     d="M226,303h17v129h-17V303z" />
  <path
     id="path4691"
     opacity=".3"
     d="M157,165h17v163h-17V165z" />
  <path
     id="path4693"
     fill="#fff"
     d="M157,389h17v43h-17V389z" />
  <path
     style="fill:#b7151d;fill-opacity:1"
     id="path4695"
     fill="#4caf50"
     d="M492 442.9l-23.3-23.3c12.5-31.8 4.9-68.1-19.2-92.2-24-23.9-59.9-31.1-91.2-18.3l51.7 51.7-9.1 39.6-39.6 9.1-51.7-51.7c-12.8 31.3-5.7 67.3 18.2 91.2 24.2 24.2 60.5 31.7 92.3 19.2l23.3 23.3 48.6-48.6zM260 243v34h-52v-34h52z" />
  <path
     id="path4697"
     opacity=".3"
     d="M88,165h17v34H88V165z" />
  <path
     id="path4699"
     fill="#fff"
     d="M88,260h17v172H88V260z" />
  <path
     style="fill:#b7151d;fill-opacity:1"
     id="path4701"
     fill="#4caf50"
     d="M123 200v34H71v-34h52zm68 129v34h-52v-34h52z" />
  <path
     id="path4703"
     fill="#ffc119"
     d="M303,139h112v52H303V139z" />
  <path
     id="path4705"
     opacity=".3"
     d="M295 217h17v17h-17v-17zm34 0h95v17h-95v-17zm-35 34h129v17H294v-17zM88 131h17v17H88v-17zm69 0h17v17h-17v-17zm69 0h17v17h-17v-17z" />
  <path
     id="path4707"
     fill="#1f2835"
     opacity=".1"
     d="M468.7 419.6c11.1-28.4 6.3-60.6-12.6-84.5-8.2 58.4-45.7 108.5-99.4 132.8 20.3 8.1 42.9 8.3 63.3.4l23.3 23.3 48.7-48.7-23.3-23.3z" />
</svg>
