<svg id="_x31__x2C_5" enable-background="new 0 0 36 36" height="512" viewBox="0 0 36 36" width="512" xmlns="http://www.w3.org/2000/svg"><path d="m31.833 27.623c0-6.917 3.583-11.667 3.583-15s-1.916-10.333-17.249-10.333-17.584 9.417-17.584 13.083c0 17.167 31.25 24.5 31.25 12.25z" fill="#efefef"/><path d="m29.5 12c-.827 0-1.5-.673-1.5-1.5s.673-1.5 1.5-1.5 1.5.673 1.5 1.5-.673 1.5-1.5 1.5zm0-2c-.276 0-.5.224-.5.5s.224.5.5.5.5-.224.5-.5-.224-.5-.5-.5z" fill="#EF2929"/><path d="m11.75 18.25-5-4.75 5-4.75v3h10c.276 0 .5.224.5.5v2.5c0 .276-.224.5-.5.5h-10z" fill="#f3f3f1"/><path d="m24.25 17.75 5 4.75-5 4.75v-3h-10c-.276 0-.5-.224-.5-.5v-2.5c0-.276.224-.5.5-.5h10z" fill="#EF2929"/><path d="m16 23.75v-2.5c0-.276.224-.5.5-.5h-2.25c-.276 0-.5.224-.5.5v2.5c0 .276.224.5.5.5h2.25c-.276 0-.5-.224-.5-.5z" fill="#941E1E"/><path d="m9 13.5 2.75-2.612v-2.138l-5 4.75 5 4.75v-2.138z" fill="#d5dbe1"/><path d="m11.75 19c-.188 0-.375-.071-.517-.206l-5-4.75c-.149-.142-.233-.338-.233-.544s.084-.402.233-.544l5-4.75c.218-.206.538-.264.813-.145.275.118.454.389.454.689v2.25h9.25c.689 0 1.25.561 1.25 1.25v2.5c0 .689-.561 1.25-1.25 1.25h-9.25v2.25c0 .3-.179.571-.454.689-.095.041-.196.061-.296.061zm-3.911-5.5 3.161 3.003v-1.253c0-.414.336-.75.75-.75h9.75v-2h-9.75c-.414 0-.75-.336-.75-.75v-1.253z"/><path d="m24.25 28c-.1 0-.201-.02-.296-.061-.275-.118-.454-.389-.454-.689v-2.25h-9.25c-.689 0-1.25-.561-1.25-1.25v-2.5c0-.689.561-1.25 1.25-1.25h9.25v-2.25c0-.3.179-.571.454-.689s.595-.062.813.145l5 4.75c.149.142.233.338.233.544s-.084.402-.233.544l-5 4.75c-.142.135-.329.206-.517.206zm-9.75-4.5h9.75c.414 0 .75.336.75.75v1.253l3.161-3.003-3.161-3.003v1.253c0 .414-.336.75-.75.75h-9.75z"/></svg>