<svg id="regular" enable-background="new 0 0 36 36" height="512" viewBox="0 0 36 36" width="512" xmlns="http://www.w3.org/2000/svg"><path d="m31.833 27.623c0-6.917 3.583-11.667 3.583-15s-1.916-10.333-17.249-10.333-17.584 9.417-17.584 13.083c0 17.167 31.25 24.5 31.25 12.25z" fill="#efefef"/><g fill="#EF2929"><path d="m1.5 24.5h2v1h-2z"/><path d="m5 27h1v2h-1z"/><path d="m26 6.5c-.827 0-1.5-.673-1.5-1.5s.673-1.5 1.5-1.5 1.5.673 1.5 1.5-.673 1.5-1.5 1.5zm0-2c-.276 0-.5.224-.5.5s.224.5.5.5.5-.224.5-.5-.224-.5-.5-.5z"/></g><path d="m28.25 13.75h-1v-1c0-1.105-.895-2-2-2h-16.5c-1.105 0-2 .895-2 2v9.5c0 1.105.895 2 2 2h16.5c1.105 0 2-.895 2-2v-1h1c.552 0 1-.448 1-1v-5.5c0-.552-.448-1-1-1z" fill="#f3f3f1"/><path d="m20.239 9.75-6.989 9.5h4.115l-1.562 7 7.197-9.5h-4.365z" fill="#EF2929"/><path d="m9 22.25v-9.5c0-1.105.895-2 2-2h-2.25c-1.105 0-2 .895-2 2v9.5c0 1.105.895 2 2 2h2.25c-1.105 0-2-.895-2-2z" fill="#d5dbe1"/><path d="m20.239 9.75-6.989 9.5h2.25l3.721-5.058z" fill="#941E1E"/><path d="m19.615 19.25h-2.25l-1.562 7 3.189-4.21z" fill="#941E1E"/><path d="m25.25 25h-4.75v-1.5h4.75c.689 0 1.25-.561 1.25-1.25v-1c0-.414.336-.75.75-.75h.991c.138 0 .25-.112.25-.25v-5.5c0-.138-.112-.25-.25-.25h-.991c-.414 0-.75-.336-.75-.75v-1c0-.689-.561-1.25-1.25-1.25h-2.75v-1.5h2.75c1.516 0 2.75 1.233 2.75 2.75v.25h.241c.965 0 1.75.785 1.75 1.75v5.5c0 .965-.785 1.75-1.75 1.75h-.241v.25c0 1.517-1.234 2.75-2.75 2.75z"/><path d="m12.5 25h-3.75c-1.517 0-2.75-1.233-2.75-2.75v-9.5c0-1.517 1.233-2.75 2.75-2.75h6.75v1.5h-6.75c-.689 0-1.25.561-1.25 1.25v9.5c0 .689.561 1.25 1.25 1.25h3.75z"/><path d="m15.803 27c-.106 0-.213-.022-.315-.069-.32-.148-.493-.5-.417-.844l1.358-6.087h-3.179c-.283 0-.542-.159-.669-.412-.127-.252-.103-.555.065-.783l6.989-9.5c.209-.286.592-.388.917-.237.323.148.498.502.418.849l-1.393 6.083h3.423c.285 0 .545.161.671.416.127.255.098.56-.074.787l-7.197 9.5c-.145.192-.368.297-.597.297zm-1.07-8.5h2.632c.228 0 .443.104.585.281.142.178.196.41.146.632l-.812 3.639 4.206-5.552h-2.855c-.229 0-.444-.104-.586-.283-.143-.179-.196-.412-.145-.635l.796-3.476z"/></svg>