<svg xmlns="http://www.w3.org/2000/svg" viewBox="0 0 105 105"><path d="M90.3 36.5H10.9c-2 0-3.5 1.6-3.5 3.5v9.5h86.5V40c-.1-1.9-1.7-3.5-3.6-3.5z" fill="#b6b8b5"/><path d="M61.7 16.8l-7.2 72.8c-.2 1.8-1.8 3.2-3.6 3L14.4 89c-1.8-.2-3.2-1.8-3-3.6l7.2-72.8c.2-1.8 1.8-3.2 3.6-3l36.4 3.6c1.9.2 3.2 1.8 3.1 3.6z" fill="#6fa05d"/><path d="M22.3 22.9L17 76c-.1.8.3 1.5.9 1.9 1.8 1.1 3.2 2.8 3.9 4.7.3.7.9 1.2 1.7 1.3l18.9 1.9c.8.1 1.5-.3 1.9-.9 1.1-1.8 2.8-3.1 4.8-3.9.7-.3 1.2-.9 1.3-1.7l5.2-53.1c.1-.8-.3-1.5-.9-1.9-1.8-1.1-3.2-2.8-3.9-4.7-.3-.7-.9-1.2-1.7-1.3l-18.9-1.9c-.8-.1-1.5.3-1.9.9-1.1 1.8-2.8 3.1-4.8 3.9-.7.3-1.2.9-1.2 1.7z" fill="#4caf50"/><path d="M92.3 27.7L51.2 88.1c-1 1.5-3.1 1.9-4.6.9L16.3 68.4c-1.5-1-1.9-3.1-.9-4.6L56.6 3.3c1-1.5 3.1-1.9 4.6-.9L91.5 23c1.5 1.1 1.9 3.1.8 4.7z" fill="#6fa05d"/><path d="M55 14.2L25 58.3c-.4.6-.5 1.5-.1 2.1 1 1.8 1.4 4 1.2 6-.1.7.2 1.5.9 1.9L42.7 79c.6.4 1.4.5 2.1.1 1.8-1 4-1.4 6.1-1.1.8.1 1.5-.2 1.9-.9l30-44.1c.4-.6.5-1.5.1-2.1-1-1.8-1.4-4-1.2-6 .1-.7-.2-1.5-.9-1.9L65.1 12.3c-.6-.4-1.4-.5-2.1-.1-1.8 1-4 1.4-6.1 1.1-.7-.1-1.4.3-1.9.9z" fill="#4caf50"/><circle cx="58.5" cy="41.6" r="10.8" fill="#f2f2f2"/><path d="M91.5 103.1H8.6c-2.8 0-5.1-2.3-5.1-5.1V47.4c0-2.8 2.3-5.1 5.1-5.1h82.9c2.8 0 5.1 2.3 5.1 5.1V98c0 2.9-2.3 5.1-5.1 5.1z" fill="#f3f4f5"/><g fill="#b6b8b5"><path d="M91.5 51.5h-9.3c2.8 0 5.1 1.6 5.1 3.6v35.3c0 2-2.3 3.6-5.1 3.6h9.3c2.8 0 5.1-1.6 5.1-3.6V55.1c0-2-2.3-3.6-5.1-3.6z" opacity=".25"/><path d="M5 54.5h90.2v39.4H5z" opacity=".56"/></g><path d="M99.7 62.9H81a9.82 9.82 0 0 0-9.8 9.8 9.82 9.82 0 0 0 9.8 9.8h18.7c1 0 1.9-.8 1.9-1.9V64.8c-.1-1-.9-1.9-1.9-1.9z" fill="#4caf50"/><path d="M99.7 62.9h-9.3c1 0 1.9.8 1.9 1.9v13.4c0 1.1-.9 2-2 2H81c-5 0-9.1-3.8-9.7-8.6 0 .4-.1.8-.1 1.2a9.82 9.82 0 0 0 9.8 9.8h18.6c1 0 1.9-.8 1.9-1.9V64.8c0-1-.8-1.9-1.8-1.9z" fill="#6fa05d"/><g fill="#b6b8b5"><path d="M95.7 44.5c-.2-.3-.4-.5-.6-.8-.2-.2-.5-.4-.7-.6-.1 0-.1-.1-.2-.1-.1-.1-.2-.1-.3-.2-.1 0-.1-.1-.2-.1a4.99 4.99 0 0 0-2.1-.5h-9.3c2.8 0 5.1 2.3 5.1 5.1V53h9.3v-5.6c0-.9-.2-1.7-.6-2.4-.2-.2-.3-.3-.4-.5z" opacity=".2"/><path d="M87.3 92.4V98c0 .5-.4.8-.9.8H8.6c-2.8 0-5.1-2.3-5.1-5.1V98c0 2.8 2.3 5.1 5.1 5.1h83.9c.1 0 .2 0 .3-.1h.1c.2-.1.4-.1.6-.2.1 0 .2-.1.2-.1.1 0 .1-.1.2-.1.1-.1.3-.2.4-.3s.2-.2.3-.2l.3-.3c.1-.1.2-.2.3-.4.2-.2.3-.4.5-.6.1-.1.1-.2.1-.3.1-.2.2-.5.3-.7v-.1c0-.1 0-.1.1-.2v-.4c0-.1 0-.2.1-.3v-6.4h-9z" opacity=".63"/></g><circle cx="81.4" cy="72.7" r="4.5" fill="#f2f2f2"/><path d="M99.7 61.4h-1.6v-14a6.63 6.63 0 0 0-2.8-5.4v-1.9c0-2.8-2.3-5-5-5h-1.2l4.5-6.5c1.5-2.2.9-5.2-1.3-6.7L62 1.2c-1.1-.7-2.3-1-3.6-.8s-2.4 1-3.1 2l-26 38.4H22L23.7 23c0-.2.1-.4.3-.4 2.3-.9 4.2-2.4 5.5-4.5.1-.2.3-.3.5-.2l16.2 1.6c.8.1.7-.5.7-1.3.1-.8 1-1.5.2-1.6l-16.8-1.7c-1.3-.1-2.6.5-3.3 1.6-1 1.5-2.4 2.7-4.1 3.3-1.2.5-2.1 1.6-2.2 2.9l-1.8 18H17l2.8-28.1c.1-1 1-1.8 2-1.7l26.5 2.6c.8.1 1.2-.4 1.3-1.2s1.7-1.5.9-1.6L22.2 8.1c-2.6-.3-5 1.7-5.3 4.3L14.7 35h-3.8c-2.8 0-5 2.3-5 5v1.3c-2.3 1-3.9 3.3-3.9 6V98c0 3.6 3 6.6 6.6 6.6h82.9c3.6 0 6.6-3 6.6-6.6V84h1.6a3.33 3.33 0 0 0 3.3-3.3V64.8c0-1.9-1.5-3.4-3.3-3.4zM90.3 38c1.1 0 2.1.9 2.1 2.1v.8c-.3 0-.6-.1-.8-.1h-6.3l1.9-2.8h3.1zM57.8 4.1c.3-.4.7-.7 1.2-.8h.3a1.69 1.69 0 0 1 1 .3l30.2 20.6c.8.6 1.1 1.7.5 2.6l-9.5 14h-2.3l4.7-6.8c.8-1.1.8-2.5.2-3.7-.9-1.5-1.2-3.4-1-5.1a3.33 3.33 0 0 0-1.5-3.3L66 11.1c-1.1-.7-2.5-.8-3.7-.2-1.6.9-3.4 1.2-5.1.9-1.3-.2-2.6.4-3.4 1.5L35.1 40.8h-2.3l25-36.7zm.7 25.3c-6.5 0-11.8 5-12.2 11.4h-7.5l17.5-25.7a.76.76 0 0 1 .4-.2h.1c2.4.3 4.9-.1 7-1.3.2-.1.4-.1.5 0L80 24.3c.2.1.3.3.2.5a11.39 11.39 0 0 0 1.4 7c.1.2.1.4 0 .6l-5.8 8.5h-5c-.5-6.5-5.9-11.5-12.3-11.5zm9.2 11.4H49.2c.4-4.7 4.4-8.4 9.2-8.4 4.9-.1 8.9 3.7 9.3 8.4zm-58.9-.7c0-1.1.9-2.1 2.1-2.1h3.5l-.3 2.8H8.8v-.7zM5 47.4c0-2 1.6-3.6 3.6-3.6h82.9c2 0 3.6 1.6 3.6 3.6v4.1H5v-4.1zm90.1 43.5H22.5a1.54 1.54 0 0 0-1.5 1.5 1.54 1.54 0 0 0 1.5 1.5h72.6V98c0 2-1.6 3.6-3.6 3.6H8.6c-2 0-3.6-1.6-3.6-3.6v-4.1h8a1.54 1.54 0 0 0 1.5-1.5 1.54 1.54 0 0 0-1.5-1.5H5V54.5h90.2v7H81a11.19 11.19 0 0 0-10.1 6.3v.1c-.2.5-.4.9-.6 1.4-.3 1.1-.5 2.2-.5 3.3A11.23 11.23 0 0 0 81 84h14.1v6.9zm4.9-10.3c0 .2-.2.4-.4.4H81c-3.1 0-5.9-1.8-7.3-4.3-.1-.1-.1-.2-.2-.4s-.2-.5-.3-.7c-.3-.9-.5-1.8-.5-2.8a8.21 8.21 0 0 1 .5-2.8c.1-.3.2-.5.3-.7.1-.1.1-.2.2-.4 1.4-2.6 4.1-4.3 7.3-4.3h18.6c.2 0 .4.2.4.4v15.6zM81.4 66.7a6.02 6.02 0 0 0-6 6 6.02 6.02 0 0 0 6 6 6.02 6.02 0 0 0 6-6 6.02 6.02 0 0 0-6-6zm0 9.1a3.12 3.12 0 0 1-3.1-3.1 3.12 3.12 0 0 1 3.1-3.1 3.12 3.12 0 0 1 3.1 3.1c0 1.7-1.5 3.1-3.1 3.1z" fill="#1f2835"/></svg>