<svg xmlns="http://www.w3.org/2000/svg" viewBox="0 0 105 89.2"><path d="M103 2v85.2H2V2h101m2-2H0v89.2h105V0zM24.4 77.2a8.75 8.75 0 0 0 8.8-8.8v-5.3H15.6v5.3a8.75 8.75 0 0 0 8.8 8.8z" fill="#1f2835"/><path d="M87.5 61.3h-42a1.79 1.79 0 0 1-1.8-1.8V56a1.79 1.79 0 0 1 1.8-1.8h42a1.79 1.79 0 0 1 1.8 1.8v3.5c-.1 1-.9 1.8-1.8 1.8zm0 14.2h-42a1.79 1.79 0 0 1-1.8-1.8v-3.5a1.79 1.79 0 0 1 1.8-1.8h42a1.79 1.79 0 0 1 1.8 1.8v3.5c-.1 1-.9 1.8-1.8 1.8z" fill="#fff"/><path d="M40.2,29.7v10.6c0,1,0.8,1.8,1.8,1.8h21.1c1,0,1.8-0.8,1.8-1.8V29.7H40.2z" fill="#4caf50"/><path d="M40.2 37.2l9.6 2.6c.9.2 1.8.4 2.7.4s1.8-.1 2.7-.4l9.6-2.6v-5.6H40.2v5.6z" fill="#6fa05d"/><path d="M50.7 21.5l-22.3 5.9c-.6.2-.6 1 0 1.2l22.3 5.9a7.31 7.31 0 0 0 3.6 0l22.3-5.9c.6-.2.6-1 0-1.2l-22.3-5.9a7.31 7.31 0 0 0-3.6 0z" fill="#4caf50"/><path d="M103.4 10.5H10.5V1.6h89.4c1.9 0 3.5 1.6 3.5 3.5v5.4z" fill="#b6b8b5"/><path d="M77.1 1.6h8.8v8.8h-8.8z" fill="#ff5050"/><path d="M85.7 1.6h8.8v8.8h-8.8z" fill="#fff082"/><path d="M103.4 10.5h-8.8V1.6h5.3c1.9 0 3.5 1.6 3.5 3.5v5.4z" fill="#4caf50"/><path d="M66.4 40.3V33l3.7-1v10a1.6 1.6 0 1 0 3.2 0V31.1l3.6-1c1-.3 1.7-1.1 1.7-2.2 0-1-.7-1.9-1.7-2.2l-24.1-6.4c-.3-.1-.6-.1-.8 0l-24.1 6.4a2.37 2.37 0 0 0-1.7 2.3c0 1 .8 1.8 1.7 2.1L38.6 33v7.3a3.37 3.37 0 0 0 3.4 3.4h21.1c1.8 0 3.3-1.5 3.3-3.4zM52.5 22.7L72.4 28l-19.9 5.3L32.6 28l19.9-5.3zM41.8 40.3v-6.4L52 36.6c.1 0 .3.1.4.1s.3 0 .4-.1L63 33.9v6.4c0 .1 0 .1-.1.1h-21s-.1 0-.1-.1zM99.8 0H5.2C2.3 0 0 2.3 0 5.2v78.9c0 2.8 2.3 5.2 5.2 5.2h94.7c2.8 0 5.2-2.3 5.2-5.2V5.2C105 2.3 102.7 0 99.8 0zm1.9 5.1v3.7h-5.5V3.3h3.7a1.79 1.79 0 0 1 1.8 1.8zM87.4 8.8V3.3h5.5v5.5h-5.5zm-8.6 0V3.3h5.5v5.5h-5.5zm-66.7 0V3.3h63.4v5.5H12.1zm-7-5.5h3.7v5.5H3.3V5.1a1.79 1.79 0 0 1 1.8-1.8zm94.8 82.6H5.1c-1 0-1.9-.8-1.9-1.9V12h98.4v72c.1 1.1-.7 1.9-1.7 1.9zM87.5 52.7h-42a3.37 3.37 0 0 0-3.4 3.4v3.5a3.37 3.37 0 0 0 3.4 3.4h42a3.37 3.37 0 0 0 3.4-3.4v-3.5c-.1-1.9-1.6-3.4-3.4-3.4zm0 7h-42c-.1 0-.1 0-.1-.1v-3.5c0-.1 0-.1.1-.1h42c.1 0 .1 0 .1.1v3.5l-.1.1zm0 7.2h-42a3.37 3.37 0 0 0-3.4 3.4v3.5a3.37 3.37 0 0 0 3.4 3.4h42a3.37 3.37 0 0 0 3.4-3.4v-3.5c-.1-1.9-1.6-3.4-3.4-3.4zm0 6.9h-42c-.1 0-.1 0-.1-.1v-3.5c0-.1 0-.1.1-.1h42c.1 0 .1 0 .1.1v3.5c0 .1-.1.1-.1.1zM33.2 61.3H33v-3.5c.1-4.8-3.8-8.7-8.6-8.7a8.71 8.71 0 0 0-8.7 8.7v3.7h-.1s-1.6.7-1.7 1.6v5.3c.1 5.7 4.8 10.4 10.5 10.4s10.4-4.7 10.4-10.4v-5.3c.1-.9-1.6-1.8-1.6-1.8zm-14.1-3.4c0-3 2.5-5.5 5.5-5.4 2.9.1 5.2 2.5 5.2 5.5v3.5H19.1v-3.6zm12.5 10.5c0 3.8-2.9 6.9-6.6 7.1-4.1.3-7.5-3.1-7.5-7.2v-3.5h14.2v3.6z" fill="#1f2835"/><path d="M23.2 67.4V69c0 .8.6 1.5 1.4 1.7 1 .1 1.9-.6 1.9-1.6v-1.7c0-1-.9-1.7-1.9-1.6-.8.1-1.4.8-1.4 1.6z" fill="#fff"/><circle cx="71.8" cy="47.3" r="1.6" fill="#1f2835"/></svg>