<svg xmlns="http://www.w3.org/2000/svg" viewBox="0 0 105 87"><g fill="#6fa05d"><path d="M101.5 85h-4.6V20.9l7.6-12z" opacity=".6"/><path d="M96.9 2.1l-4 9 4 9h6v-18z"/></g><path d="M84.2 2.1l-4.3 9 4.3 9h12.7v-18z" fill="#4caf50"/><path d="M2 1.1h82.9v18H2z" fill="#b6b8b5"/><path d="M8 7.1h70.9v6H8z" fill="#fff"/><path d="M89.9 77h-6l-8-10.6 8-13.4h6z" fill="#6fa05d"/><path d="M13 53h70.9v24H13z" fill="#4caf50"/><g fill="#1f2835"><path d="M103.4.1H1.5A1.54 1.54 0 0 0 0 1.6v83.9A1.54 1.54 0 0 0 1.5 87h101.8a1.54 1.54 0 0 0 1.5-1.5V1.6c.1-.8-.6-1.5-1.4-1.5zm-2.5 18h-15v-15h15v15zm-18-15v15H3v-15h79.9zM3 83V21.1h97.9V83H3zm4.5-67.9h6.1c.8 0 1.5-.6 1.5-1.3.1-.9-.6-1.7-1.5-1.7H9v-3h67.9v3H21.1c-.8 0-1.5.6-1.5 1.3-.1.9.6 1.7 1.5 1.7h57.3a1.54 1.54 0 0 0 1.5-1.5v-6a1.54 1.54 0 0 0-1.5-1.5H7.5A1.54 1.54 0 0 0 6 7.6v5.9c0 .9.7 1.6 1.5 1.6z"/><circle cx="57.3" cy="64.8" r="1.5"/><circle cx="51.1" cy="64.8" r="1.5"/><circle cx="45" cy="64.8" r="1.5"/><path d="M89.4 51H12.5a1.54 1.54 0 0 0-1.5 1.5v24.6s.9 1.5 1.8 1.9h57.5c.8-.3 1.5-.9 1.6-1.7.1-.9-1.5-2.3-1.5-2.3H14V54h73.9v22H76.6c-.8 0-1.5.6-1.5 1.3-.1.9.6 1.7 1.5 1.7h12.8a1.54 1.54 0 0 0 1.5-1.5V52.6c0-.9-.7-1.6-1.5-1.6zm-35.5-5v-5.9c0-.8-.6-1.5-1.3-1.5-.9-.1-1.7.6-1.7 1.5v6c0 .9.8 1.6 1.7 1.5.8-.1 1.3-.8 1.3-1.6zm-9.3.8c.2.6.8.9 1.4.9.2 0 .4 0 .6-.1.8-.3 1.2-1.2.8-2l-2.3-5.7c-.3-.8-1.2-1.2-2-.8-.8.3-1.2 1.2-.8 2l2.3 5.7zm13.1.8c.2.1.4.1.6.1.6 0 1.2-.4 1.4-.9l2.3-5.7c.3-.8 0-1.7-.8-2s-1.7 0-2 .8l-2.3 5.7c-.4.8 0 1.7.8 2z"/></g></svg>