<svg xmlns="http://www.w3.org/2000/svg" xmlns:xlink="http://www.w3.org/1999/xlink" opacity=".7" viewBox="0 0 36 36"><g fill="#1f2835"><path d="M21 31.2h-6a.65.65 0 0 0-.6.6.65.65 0 0 0 .6.6h6a.65.65 0 0 0 .6-.6.65.65 0 0 0-.6-.6zM6.9 1.2H3c-1.7 0-3 1.3-3 3v26.4c0 1.7 1.3 3 3 3h3.6a.65.65 0 0 0 .6-.6.65.65 0 0 0-.6-.6H3a1.79 1.79 0 0 1-1.8-1.8V4.2A1.79 1.79 0 0 1 3 2.4h3.9a.65.65 0 0 0 .6-.6.65.65 0 0 0-.6-.6zM21 28.8h-6a.65.65 0 0 0-.6.6.65.65 0 0 0 .6.6h6a.65.65 0 0 0 .6-.6.65.65 0 0 0-.6-.6z"/><use xlink:href="#B"/><use xlink:href="#C"/><path d="M19.2 25.2c0-.7-.5-1.2-1.2-1.2s-1.2.5-1.2 1.2.5 1.2 1.2 1.2 1.2-.5 1.2-1.2zM6.6 4.8a.65.65 0 0 0-.6.6.65.65 0 0 0 .6.6c.4 0 .6-.3.6-.6s-.2-.6-.6-.6zm0 24H5.4a.65.65 0 0 0-.6.6.65.65 0 0 0 .6.6h1.2a.65.65 0 0 0 .6-.6.65.65 0 0 0-.6-.6zm0-19.2a.65.65 0 0 0-.6.6.65.65 0 0 0 .6.6.65.65 0 0 0 .6-.6c0-.3-.2-.6-.6-.6z"/><path d="M6.6 26.4H5.4a.65.65 0 0 0-.6.6.65.65 0 0 0 .6.6h1.2a.65.65 0 0 0 .6-.6.65.65 0 0 0-.6-.6zm0-9.6H3a.65.65 0 0 0-.6.6.65.65 0 0 0 .6.6h3.6a.65.65 0 0 0 .6-.6.65.65 0 0 0-.6-.6zM3 13.2h3.6a.65.65 0 0 0 .6-.6.65.65 0 0 0-.6-.6H3a.65.65 0 0 0-.6.6.65.65 0 0 0 .6.6zm3.6 1.2a.65.65 0 0 0-.6.6.65.65 0 0 0 .6.6.65.65 0 0 0 .6-.6c0-.3-.2-.6-.6-.6zM3 8.4h3.6a.65.65 0 0 0 .6-.6.65.65 0 0 0-.6-.6H3a.65.65 0 0 0-.6.6.65.65 0 0 0 .6.6zM24.6 0H11.4c-1.7 0-3 1.3-3 3v30c0 1.7 1.3 3 3 3h13.2c1.7 0 3-1.3 3-3V3c0-1.7-1.3-3-3-3zm1.8 33a1.79 1.79 0 0 1-1.8 1.8H11.4A1.79 1.79 0 0 1 9.6 33V3a1.79 1.79 0 0 1 1.8-1.8h13.2A1.79 1.79 0 0 1 26.4 3v30z"/><use xlink:href="#D"/><path d="M29.4 9.6a.65.65 0 0 0-.6.6.65.65 0 0 0 .6.6.65.65 0 0 0 .6-.6.65.65 0 0 0-.6-.6zm0 4.8a.65.65 0 0 0-.6.6.65.65 0 0 0 .6.6.65.65 0 0 0 .6-.6.65.65 0 0 0-.6-.6zm0-8.4a.65.65 0 0 0 .6-.6.65.65 0 0 0-.6-.6.65.65 0 0 0-.6.6.65.65 0 0 0 .6.6z"/><use xlink:href="#D" y="4.8"/><use xlink:href="#E"/><use xlink:href="#E" y="-2.4"/><path d="M33 1.2h-3.9a.65.65 0 0 0-.6.6.65.65 0 0 0 .6.6H33a1.79 1.79 0 0 1 1.8 1.8v26.4a1.79 1.79 0 0 1-1.8 1.8h-3.6a.65.65 0 0 0-.6.6.65.65 0 0 0 .6.6H33c1.7 0 3-1.3 3-3V4.2c0-1.7-1.3-3-3-3z"/><use xlink:href="#C" y="-9.6"/><use xlink:href="#B" y="-9.6"/><use xlink:href="#C" y="-4.8"/><use xlink:href="#D" y="-4.8"/><use xlink:href="#B" y="-14.4"/><use xlink:href="#B" y="-4.8"/></g><defs ><path id="B" d="M24.6 16.8H11.4a.65.65 0 0 0-.6.6.65.65 0 0 0 .6.6h13.2a.65.65 0 0 0 .6-.6.65.65 0 0 0-.6-.6z"/><path id="C" d="M18.6 15a.65.65 0 0 0-.6-.6.65.65 0 0 0-.6.6.65.65 0 0 0 .6.6.65.65 0 0 0 .6-.6z"/><path id="D" d="M29.4 13.2H33a.65.65 0 0 0 .6-.6.65.65 0 0 0-.6-.6h-3.6a.65.65 0 0 0-.6.6.65.65 0 0 0 .6.6z"/><path id="E" d="M29.4 30h1.2a.65.65 0 0 0 .6-.6.65.65 0 0 0-.6-.6h-1.2a.65.65 0 0 0-.6.6.65.65 0 0 0 .6.6z"/></defs></svg>