<svg enable-background="new 0 0 36 36" height="512" viewBox="0 0 36 36" width="512" xmlns="http://www.w3.org/2000/svg"><path d="m13.411 34.999c6.298-2.859 12.105-1.559 15.14-2.936 3.035-1.378 8.617-6.016 2.28-19.978s-15.841-12.12-19.18-10.605c-15.632 7.095-9.395 38.582 1.76 33.519z" fill="#efefef"/><path d="m25.25 6.75h-17.5c-.552 0-1 .448-1 1v17.5c0 .552.448 1 1 1h16.5c1.105 0 2-.895 2-2v-9-7.5c0-.552-.448-1-1-1z" fill="#f3f3f1"/><path d="m12.75 6.75v7.5l3.75-3.5 3.75 3.5v-7.5z" fill="#EF2929"/><path d="m9 25.25v-17.5c0-.552.448-1 1-1h-2.25c-.552 0-1 .448-1 1v17.5c0 .552.448 1 1 1h2.25c-.552 0-1-.448-1-1z" fill="#d5dbe1"/><path d="m15 6.75h-2.25v7.5l2.25-2.1z" fill="#941E1E"/><path d="m18.75 10.75-1.125 1.05 2.625 2.45v-2.1z" fill="#941E1E"/><g fill="#EF2929"><path d="m2.623 25.354h1v2h-1z" transform="matrix(.707 -.707 .707 .707 -17.72 9.927)"/><path d="m6.689 29.42h1v2h-1z" transform="matrix(.707 -.707 .707 .707 -19.404 13.993)"/><path d="m1.946 29.919h2v1h-2z" transform="matrix(.707 -.707 .707 .707 -20.647 10.993)"/><path d="m30.25 18.121c-.827 0-1.5-.673-1.5-1.5s.673-1.5 1.5-1.5 1.5.673 1.5 1.5-.673 1.5-1.5 1.5zm0-2c-.276 0-.5.224-.5.5s.224.5.5.5.5-.224.5-.5-.224-.5-.5-.5z"/></g><path d="m26.625 28h-2.875v-1.5h2.875c.482 0 .875-.393.875-.875s-.393-.875-.875-.875h-1.25c-1.31 0-2.375-1.065-2.375-2.375s1.065-2.375 2.375-2.375h2.875v1.5h-2.875c-.482 0-.875.393-.875.875s.393.875.875.875h1.25c1.31 0 2.375 1.065 2.375 2.375s-1.065 2.375-2.375 2.375z"/><path d="m25.262 27.457h1.5v1.793h-1.5z"/><path d="m25.262 18.75h1.5v2h-1.5z"/><path d="m21.25 27h-13.5c-.965 0-1.75-.785-1.75-1.75v-17.5c0-.965.785-1.75 1.75-1.75h17.5c.965 0 1.75.785 1.75 1.75v7.5h-1.5v-7.5c0-.138-.112-.25-.25-.25h-17.5c-.138 0-.25.112-.25.25v17.5c0 .138.112.25.25.25h13.5z"/><path d="m20.25 15c-.187 0-.37-.069-.512-.202l-3.238-3.022-3.238 3.022c-.219.205-.538.257-.811.14-.274-.119-.451-.389-.451-.688v-7.5c0-.414.336-.75.75-.75h7.5c.414 0 .75.336.75.75v7.5c0 .299-.177.569-.451.688-.096.041-.198.062-.299.062zm-3.75-5c.184 0 .368.067.512.202l2.488 2.322v-5.024h-6v5.024l2.488-2.322c.144-.135.328-.202.512-.202z"/></svg>