<svg xmlns="http://www.w3.org/2000/svg" opacity=".7" viewBox="0 0 36 36" fill="#1f2835"><path d="M32.1 7.6h-6.8V6.5c0-2.2-1.8-3.9-3.9-3.9h-6.8c-2.2 0-3.9 1.8-3.9 3.9v1.1H3.9C1.8 7.6 0 9.4 0 11.5v18c0 2.2 1.8 3.9 3.9 3.9H32c2.2 0 3.9-1.8 3.9-3.9v-18c.1-2.1-1.7-3.9-3.8-3.9zM11.8 6.5c0-1.6 1.3-2.8 2.8-2.8h6.8c1.6 0 2.8 1.3 2.8 2.8v1.1H11.8V6.5zM3.9 8.7H32c1.6 0 2.8 1.3 2.8 2.8v4.2c-2.9 2.3-7.1 3.8-12 4.5-.4-1.1-1.4-1.9-2.7-1.9h-4.5a2.93 2.93 0 0 0-2.7 1.9c-4.8-.7-9-2.2-12-4.5v-4.2c.2-1.5 1.5-2.8 3-2.8zm18 12.4c0 .9-.8 1.7-1.7 1.7h-4.5c-.9 0-1.7-.8-1.7-1.7s.8-1.7 1.7-1.7h4.5c1 0 1.7.8 1.7 1.7zm10.2 11.2H3.9c-1.6 0-2.8-1.3-2.8-2.8V17.1c3 2.1 7.2 3.6 11.8 4.2.1 1.4 1.3 2.6 2.8 2.6h4.5c1.5 0 2.7-1.1 2.8-2.6 4.6-.6 8.8-2.1 11.8-4.2v12.4c.1 1.6-1.2 2.8-2.7 2.8zM30.9 11H32a.65.65 0 0 0 .6-.6.65.65 0 0 0-.6-.6h-1.1a.65.65 0 0 0-.6.6.65.65 0 0 0 .6.6zm-8.4 0h6.2a.65.65 0 0 0 .6-.6.65.65 0 0 0-.6-.6h-6.2a.65.65 0 0 0-.6.6.65.65 0 0 0 .6.6z"/></svg>