<svg enable-background="new 0 0 36 36" height="512" viewBox="0 0 36 36" width="512" xmlns="http://www.w3.org/2000/svg"><g id="BG"><g><path d="m27.417 3.914c-6.915.129-11.732-3.365-15.064-3.302s-10.296 2.109-10.009 17.44 9.744 17.404 13.41 17.336c17.163-.321 23.911-31.703 11.663-31.474z" fill="#efefef"/></g></g><g id="effect"><g><g><path d="m5.251 8.386h1v2h-1z" fill="#EF2929" transform="matrix(.707 -.707 .707 .707 -4.953 6.815)"/></g><g><path d="m4.574 12.952h2v1h-2z" fill="#EF2929" transform="matrix(.707 -.707 .707 .707 -7.88 7.881)"/></g><g><path d="m8.64 8.886h2v1h-2z" fill="#EF2929" transform="matrix(.707 -.707 .707 .707 -3.814 9.565)"/></g></g><g><path d="m30 27.25c-.827 0-1.5-.673-1.5-1.5s.673-1.5 1.5-1.5 1.5.673 1.5 1.5-.673 1.5-1.5 1.5zm0-2c-.276 0-.5.224-.5.5s.224.5.5.5.5-.224.5-.5-.224-.5-.5-.5z" fill="#EF2929"/></g></g><g id="color"><g><circle cx="11" cy="15" fill="#EF2929" r="2.25"/></g><g><circle cx="25" cy="15" fill="#f3f3f1" r="2.25"/></g><g><g><g><path d="m6.75 23.25v-1.278c0-1.227.938-2.222 2.095-2.222h4.31c1.157 0 2.095.995 2.095 2.222v1.278z" fill="#EF2929"/></g></g></g><g><g><g><path d="m20.75 23.25v-1.278c0-1.227.938-2.222 2.095-2.222h4.31c1.157 0 2.095.995 2.095 2.222v1.278z" fill="#f3f3f1"/></g></g></g></g><g id="shadow"><g><path d="m11 15c0-.831.455-1.548 1.125-1.938-.332-.193-.713-.312-1.125-.312-1.243 0-2.25 1.007-2.25 2.25s1.007 2.25 2.25 2.25c.412 0 .793-.119 1.125-.312-.67-.39-1.125-1.107-1.125-1.938z" fill="#941E1E"/></g><g><path d="m25 15c0-.831.455-1.548 1.125-1.938-.332-.193-.713-.312-1.125-.312-1.243 0-2.25 1.007-2.25 2.25s1.007 2.25 2.25 2.25c.412 0 .793-.119 1.125-.312-.67-.39-1.125-1.107-1.125-1.938z" fill="#d5dbe1"/></g><g><path d="m11.095 19.75h-2.25c-1.157 0-2.095.995-2.095 2.222v1.278h2.25v-1.278c0-1.227.938-2.222 2.095-2.222z" fill="#941E1E"/></g><g><path d="m25.095 19.75h-2.25c-1.157 0-2.095.995-2.095 2.222v1.278h2.25v-1.278c0-1.227.938-2.222 2.095-2.222z" fill="#d5dbe1"/></g></g><g id="_x31_.5"><g><g><path d="m11 18c-1.654 0-3-1.346-3-3s1.346-3 3-3 3 1.346 3 3-1.346 3-3 3zm0-4.5c-.827 0-1.5.673-1.5 1.5s.673 1.5 1.5 1.5 1.5-.673 1.5-1.5-.673-1.5-1.5-1.5z"/></g></g><g><g><path d="m16 23.25h-1.5v-1.278c0-.812-.604-1.472-1.345-1.472h-4.31c-.742 0-1.345.661-1.345 1.472v1.278h-1.5v-1.278c0-1.639 1.276-2.972 2.845-2.972h4.31c1.569 0 2.845 1.333 2.845 2.972z"/></g></g><g><g><path d="m25 18c-1.654 0-3-1.346-3-3s1.346-3 3-3 3 1.346 3 3-1.346 3-3 3zm0-4.5c-.827 0-1.5.673-1.5 1.5s.673 1.5 1.5 1.5 1.5-.673 1.5-1.5-.673-1.5-1.5-1.5z"/></g></g><g><g><path d="m30 23.25h-1.5v-1.278c0-.812-.604-1.472-1.345-1.472h-4.31c-.742 0-1.345.661-1.345 1.472v1.278h-1.5v-1.278c0-1.639 1.276-2.972 2.845-2.972h4.31c1.569 0 2.845 1.333 2.845 2.972z"/></g></g><g><g><path d="m18 19c-.264 0-.508-.138-.643-.364l-1.5-2.5 1.286-.771.857 1.427.857-1.428 1.286.771-1.5 2.5c-.135.227-.379.365-.643.365z"/></g></g></g></svg>