<svg xmlns="http://www.w3.org/2000/svg" opacity=".7" viewBox="0 0 32 32" fill="#1f2835"><path d="M14.5 27.6v-8.2a.47.47 0 0 0-.5-.5h-3.4a.47.47 0 0 0-.5.5.47.47 0 0 0 .5.5h2.9v7.7c-1.1.3-2 1.4-1.6 2.7a2.17 2.17 0 0 0 1.6 1.6c1.5.4 2.8-.7 2.8-2.1-.1-1.1-.9-1.9-1.8-2.2zm-.8 3.6c-.7 0-1.2-.5-1.2-1.2s.5-1.2 1.2-1.2 1.2.5 1.2 1.2-.5 1.2-1.2 1.2zm5.9-3.6v-8.2a.47.47 0 0 0-.5-.5h-3.4a.47.47 0 0 0-.5.5.47.47 0 0 0 .5.5h2.9v7.7c-1.1.3-2 1.4-1.6 2.7a2.17 2.17 0 0 0 1.6 1.6c1.5.4 2.8-.7 2.8-2.1-.1-1.1-.9-1.9-1.8-2.2zm-.3 3.6c-.7 0-1.2-.5-1.2-1.2s.5-1.2 1.2-1.2 1.2.5 1.2 1.2-.5 1.2-1.2 1.2zm9.6-6.8c-1 0-1.9.7-2.2 1.7h-1.1v-6.6a.47.47 0 0 0-.5-.5h-3.4a.47.47 0 0 0-.5.5.47.47 0 0 0 .5.5h2.9v6.6a.47.47 0 0 0 .5.5h1.6c.3 1.1 1.4 2 2.7 1.6a2.17 2.17 0 0 0 1.6-1.6c.5-1.4-.7-2.7-2.1-2.7zm-.2 3.3c-.7 0-1.2-.5-1.2-1.2s.5-1.2 1.2-1.2 1.2.5 1.2 1.2-.6 1.2-1.2 1.2z"/><path d="M30.8 11a5 5 0 0 0-2.7-1.8C28 6.8 27 4.5 25.3 2.8 23.5 1 21 0 18.5 0c-3.4 0-6.5 1.8-8.2 4.6-.5-.1-.9-.2-1.4-.2-2.1 0-3.9 1.5-4.3 3.5-3.1.8-5.2 3.9-4.5 7.2C.7 18 3.5 20 6.4 20h.9v6.1H6.2c-.3-1.1-1.4-2-2.7-1.6a2.17 2.17 0 0 0-1.6 1.6c-.4 1.5.7 2.8 2.1 2.8 1 0 1.9-.7 2.2-1.7h1.6a.47.47 0 0 0 .5-.5v-7.1a.47.47 0 0 0-.5-.5H6.4c-2.6 0-4.9-1.8-5.3-4.3-.5-2.8 1.4-5.3 4-5.9.2 0 .4-.2.4-.4.2-1.7 1.7-2.9 3.4-2.9.5 0 .9.1 1.3.3.2.1.5 0 .6-.2 1.6-3 4.5-4.7 7.7-4.7 4.7 0 8.6 3.8 8.6 8.6 0 .2.2.4.4.5 2.2.5 3.7 2.6 3.4 4.9s-2.4 4-4.7 4h-.1a.47.47 0 0 0-.5.5.47.47 0 0 0 .5.5h.1c1.4 0 2.8-.4 3.8-1.4 2.5-2.2 2.5-5.5.8-7.6zM4.3 27.7c-.7 0-1.2-.5-1.2-1.2s.5-1.2 1.2-1.2 1.2.5 1.2 1.2c.1.7-.5 1.2-1.2 1.2zm21.3-18a.47.47 0 0 0 .5-.5c0-.9-.2-1.7-.5-2.5-.1-.3-.4-.4-.7-.3s-.4.4-.3.7c.3.7.4 1.4.4 2.1.1.3.3.5.6.5zm-1.9-4.1a.76.76 0 0 0 .4.2c.1 0 .2 0 .3-.1.2-.2.3-.5.1-.7-1.4-1.6-3.4-2.6-5.5-2.6a.47.47 0 0 0-.5.5.47.47 0 0 0 .5.5c1.8 0 3.5.8 4.7 2.2z"/></svg>