<svg xmlns="http://www.w3.org/2000/svg" xmlns:xlink="http://www.w3.org/1999/xlink" viewBox="0 0 132.91 135.53"><style><![CDATA[.M{opacity:0}.N{stroke-miterlimit:10}.O{stroke-width:4}.P{stroke:#1f2835}.Q{fill:#707070}.R{stroke-linecap:round}]]></style><defs><linearGradient id="A" x1="60.5" y1="109.52" x2="131.7" y2="109.52" gradientUnits="userSpaceOnUse"><stop offset="0" stop-color="#4caf50"/><stop offset="1" stop-color="#6fa05d"/></linearGradient><linearGradient id="B" x1="60.59" y1="119.36" x2="131.41" y2="119.36" xlink:href="#A"/><linearGradient id="C" x1="59.09" y1="119.36" x2="132.91" y2="119.36" xlink:href="#A"/><linearGradient id="D" x1="69.8" y1="99.76" x2="89.32" y2="99.76" xlink:href="#A"/><path id="E" d="M108.5,44h-96A10.5,10.5,0,0,1,2,33.5v-21A10.5,10.5,0,0,1,12.5,2h96.1a10.5,10.5,0,0,1,10.5,10.5V33.6A10.63,10.63,0,0,1,108.5,44Z"/><path id="F" d="M108.5,86h-96A10.5,10.5,0,0,1,2,75.5v-21A10.5,10.5,0,0,1,12.5,44h96.1a10.5,10.5,0,0,1,10.5,10.5V75.6A10.63,10.63,0,0,1,108.5,86Z"/><path id="G" d="M108.5,128h-96A10.5,10.5,0,0,1,2,117.5V96.4A10.5,10.5,0,0,1,12.5,85.9h96.1a10.5,10.5,0,0,1,10.5,10.5v21.1A10.65,10.65,0,0,1,108.5,128Z"/><path id="H" d="M4 76c.5 1 .5 1.5 1 2 .7.7 1.7.8 3 1a9.83 9.83 0 0 0 3 0h99a8.76 8.76 0 0 0 3-1 9.88 9.88 0 0 0 4-4 7.84 7.84 0 0 1-7 11H11a9.51 9.51 0 0 1-7-3 10.05 10.05 0 0 1-2-9 9.6 9.6 0 0 1 2 3z"/><path id="I" d="M108 48c-4.8-.4-44.7-.4-99 0a4.09 4.09 0 0 0-2 1 3.73 3.73 0 0 0-1 2 8.85 8.85 0 0 0 0 3 10.85 10.85 0 0 1 1-2 14.42 14.42 0 0 1 2-2h101a7.91 7.91 0 0 1 4 3 4.87 4.87 0 0 0-1-3c-.3-.4-1.6-1.7-5-2z"/></defs><g fill="#1f2835"><use xlink:href="#E"/><use xlink:href="#F"/><use xlink:href="#G"/></g><g fill="#f3f4f5"><path d="M8.07 33.55c.47.85.47 1.27.94 1.7a5.25 5.25 0 0 0 2.84.85 10.56 10.56 0 0 0 2.84 0h93.66a9.14 9.14 0 0 0 2.84-.85 8.91 8.91 0 0 0 3.78-3.4 6.36 6.36 0 0 1-1 6.8 8.12 8.12 0 0 1-5.67 2.55H14.7a9.57 9.57 0 0 1-6.62-2.55A7.83 7.83 0 0 1 6.18 31a8.23 8.23 0 0 1 1.89 2.55z" class="M"/><use xlink:href="#H" class="M"/><use xlink:href="#H" y="42" class="M"/></g><use xlink:href="#E" fill="none" class="N O P"/><rect x="5.87" y="89.75" width="110.13" height="34.92" rx="7" opacity=".24" class="Q"/><use xlink:href="#F" fill="none" class="N O P"/><rect x="5.87" y="47.75" width="110.13" height="34.92" rx="7" opacity=".24" class="Q"/><use xlink:href="#G" fill="none" class="N O P"/><rect x="5.87" y="5.75" width="110.13" height="34.92" rx="7" opacity=".24" class="Q"/><path d="M16 15v16m0 24v17m0 26v17" fill="none" stroke="#6fa05d" class="N O R"/><g fill="#fff"><path d="M109 6c-4.8-.4-44.7-.4-99 0a4.09 4.09 0 0 0-2 1 3.73 3.73 0 0 0-1 2 8.85 8.85 0 0 0 0 3 10.85 10.85 0 0 1 1-2 14.42 14.42 0 0 1 2-2h101a9.25 9.25 0 0 1 2 1 9.27 9.27 0 0 1 2 2 4.87 4.87 0 0 0-1-3c-.3-.4-1.6-1.7-5-2z" class="M"/><use xlink:href="#I" class="M"/><use xlink:href="#I" y="41" class="M"/></g><g fill="#6fa05d"><circle cx="86.5" cy="22.5" r="2.5"/><circle cx="96.5" cy="22.5" r="2.5"/><circle cx="105.5" cy="22.5" r="2.5"/></g><path d="M74.3 134h43a14.71 14.71 0 0 0 3.9-28.8A18.22 18.22 0 0 0 86 96.9a9.8 9.8 0 0 0-15.7 8.8c-5.7 2.3-9.6 7.5-9.8 13.2-.1 7.1 5.7 14 13.8 15.1z" fill="url(#A)"/><path d="M65,126a17.85,17.85,0,0,0,3.9,2.4,32.23,32.23,0,0,1,3.9,1.5h47.4a25.5,25.5,0,0,1,3.4-2A15.21,15.21,0,0,0,127,125a11.08,11.08,0,0,1-4.4,4.4,11.91,11.91,0,0,1-5.4,1.5H74.7a16.19,16.19,0,0,1-4.9-1A10.2,10.2,0,0,1,65,126Z" fill="#f3f4f5" opacity=".5"/><g class="N"><path d="M115.8,104.7c8.4-.3,15.4,6.4,15.6,14.2.3,8.3-7.1,15.7-16.1,15.1H76.2a14.9,14.9,0,0,1-15.6-15.1,15.1,15.1,0,0,1,15.6-14.2" stroke-width="3" fill="url(#B)" stroke="url(#C)" class="R"/><g fill="none"><path d="M88.9,100.2c-3-4.8-8.8-6.5-13.2-4.4a10.25,10.25,0,0,0-5.4,9.3" stroke="url(#D)"/><path d="M121.2,105A18.22,18.22,0,0,0,86,96.7" stroke="#6fa05d"/></g></g></svg>