<svg id="_x31__x2C_5" enable-background="new 0 0 36 36" height="512" viewBox="0 0 36 36" width="512" xmlns="http://www.w3.org/2000/svg"><g><path d="m31.833 8.377c0 6.917 3.583 11.667 3.583 15s-1.916 10.333-17.249 10.333-17.584-9.417-17.584-13.083c0-17.167 31.25-24.5 31.25-12.25z" fill="#efefef"/></g><g><path d="m28.467 1.967h1v2h-1z" fill="#EF2929" transform="matrix(.707 -.707 .707 .707 6.39 21.356)"/></g><g><path d="m32.533 6.033h1v2h-1z" fill="#EF2929" transform="matrix(.707 -.707 .707 .707 4.705 25.423)"/></g><g><path d="m31.856 2.467h2v1h-2z" fill="#EF2929" transform="matrix(.707 -.707 .707 .707 7.526 24.102)"/></g><g><path d="m15.25 28.25h-6.5c-1.105 0-2-.895-2-2v-15h8.5z" fill="#f3f3f1"/></g><g><path d="m29.25 11.25h-22.5v-1.5c0-1.105.895-2 2-2h18.5c1.105 0 2 .895 2 2z" fill="#EF2929"/></g><g><path d="m27.25 28.25h-12v-17h14v15c0 1.105-.895 2-2 2z" fill="#f3f3f1"/></g><g><path d="m9.25 26.25v-15h-2.5v15c0 1.105.895 2 2 2h2.5c-1.105 0-2-.895-2-2z" fill="#d5dbe1"/></g><g><path d="m11 7.75h-2.25c-1.105 0-2 .895-2 2v1.5h2.25v-1.5c0-1.105.895-2 2-2z" fill="#941E1E"/></g><g><path d="m15.25 11.25h2.5v17h-2.5z" fill="#d5dbe1"/></g><g><path d="m14.5 11.5h1.5v16.5h-1.5z"/></g><g><path d="m9 18.5h4v1.5h-4z"/></g><g><path d="m9 14.5h4.25v1.5h-4.25z"/></g><g><path d="m9 22.5h4v1.5h-4z"/></g><g><path d="m27.25 29h-18.5c-1.517 0-2.75-1.233-2.75-2.75v-16.5c0-1.517 1.233-2.75 2.75-2.75h18.5c1.517 0 2.75 1.233 2.75 2.75v16.5c0 1.517-1.233 2.75-2.75 2.75zm-18.5-20.5c-.689 0-1.25.561-1.25 1.25v16.5c0 .689.561 1.25 1.25 1.25h18.5c.689 0 1.25-.561 1.25-1.25v-16.5c0-.689-.561-1.25-1.25-1.25z"/></g><g><path d="m6.75 10.5h22.5v1.5h-22.5z"/></g><g><path d="m2 27.5h32v1.5h-32z"/></g></svg>