<svg id="_x31__x2C_5" enable-background="new 0 0 36 36" height="512" viewBox="0 0 36 36" width="512" xmlns="http://www.w3.org/2000/svg"><path d="m27.623 31.833c-6.917 0-11.667 3.583-15 3.583s-10.333-1.916-10.333-17.249 9.417-17.584 13.083-17.584c17.167 0 24.5 31.25 12.25 31.25z" fill="#efefef"/><g fill="#EF2929"><path d="m7.033 2.467h2v1h-2z" transform="matrix(.707 -.707 .707 .707 .255 6.549)"/><path d="m2.967 6.533h2v1h-2z" transform="matrix(.707 -.707 .707 .707 -3.811 4.865)"/><path d="m3.644 1.967h1v2h-1z" transform="matrix(.707 -.707 .707 .707 -.885 3.798)"/></g><circle cx="16" cy="16" fill="#f3f3f1" r="9.25"/><path d="m28.429 22.368-2.615-2.654c-.369-.368-.964-.368-1.333.001s-.369.964-.001 1.333l-.888-.888c-.368-.369-.964-.368-1.333.001s-.445.889-.445.889c-.368-.369-.964-.368-1.333.001s-.369.964-.001 1.333l-2.664-2.664c-.368-.369-.964-.368-1.333.001s-.369.964-.001 1.333l4.542 4.542c-.689-.102-1.839-.141-2.546.565-.667.667-.649 1.129-.445 1.333.559.559.995-.329 3.553.887s4.202 1.108 5.331-.003l.889-.889.004-.004c1.52-1.52 1.979-3.555.619-5.117z" fill="#EF2929"/><path d="m23.838 28.378c-2.558-1.216-2.994-.327-3.553-.887-.204-.204-.222-.666.445-1.333.707-.707 1.857-.667 2.546-.565l-4.542-4.542c-.19-.19-.278-.44-.272-.689l-.645-.645c-.368-.369-.964-.368-1.333.001s-.369.964-.001 1.333l4.542 4.542c-.689-.102-1.839-.141-2.546.565-.667.667-.649 1.129-.445 1.333.559.559.995-.329 3.553.887 1.796.853 3.134 1.043 4.166.703-.575-.141-1.206-.366-1.915-.703z" fill="#941E1E"/><path d="m9 16c0-4.727 3.548-8.619 8.125-9.175-.37-.045-.743-.075-1.125-.075-5.109 0-9.25 4.141-9.25 9.25s4.141 9.25 9.25 9.25c.382 0 .755-.03 1.125-.075-4.577-.556-8.125-4.448-8.125-9.175z" fill="#d5dbe1"/><path d="m12 12h8v1.5h-8z"/><path d="m12 15.5h8v1.5h-8z"/><path d="m12 19h2.01v1.5h-2.01z"/><path d="m15.397 25.979c-5.269-.304-9.397-4.687-9.397-9.979 0-5.514 4.486-10 10-10s10 4.486 10 10c0 .166-.001.332-.012.499l-1.496-.098c.009-.133.008-.267.008-.401 0-4.687-3.813-8.5-8.5-8.5s-8.5 3.813-8.5 8.5c0 4.498 3.507 8.223 7.983 8.481z"/><path d="m21.061 24.022-1.109-1.11c-.32-.32-.497-.745-.497-1.197s.177-.876.497-1.197c.32-.32.745-.496 1.196-.497h.001c.452 0 .877.176 1.196.497l.444.443-1.061 1.062-.444-.444c-.064-.064-.208-.064-.272 0-.064.063-.064.208 0 .271l1.109 1.11z"/><path d="m22.838 23.133-1.109-1.11c-.32-.319-.496-.744-.496-1.197 0-.451.176-.876.496-1.196.659-.66 1.734-.662 2.394-.001l.888.888-1.061 1.061-.888-.888c-.076-.076-.196-.076-.272.001-.063.064-.064.208-.001.271l1.11 1.111z"/><path d="m27.948 22.909-2.665-2.666c-.076-.075-.196-.076-.272.001s-.077.196-.001.272l.666.666-1.061 1.061-.666-.666c-.66-.661-.659-1.734.001-2.394.659-.659 1.733-.659 2.393-.001l2.664 2.664z"/><path d="m24.736 29.996c-1 0-2.151-.313-3.471-.94-1.371-.651-2.021-.627-2.448-.611-.379.014-.857.032-1.313-.423-.449-.449-.603-1.345.444-2.393.384-.384.846-.608 1.324-.727l-3.32-3.32c-.659-.66-.659-1.734.001-2.394s1.733-.659 2.394-.001l2.664 2.665-1.061 1.061-2.664-2.664c-.076-.075-.196-.076-.272.001-.076.076-.077.196-.001.272l4.542 4.542c.229.229.285.579.14.868-.146.288-.458.452-.78.404-.502-.075-1.423-.127-1.905.354-.101.101-.173.187-.224.256.543-.021 1.45-.04 3.124.756 2.797 1.329 3.896.715 4.482.14l.885-.885c1.091-1.09 1.86-2.857.456-4.261l-2.45-2.451c-.076-.075-.196-.076-.272.001s-.077.196-.001.272l-1.061 1.06c-.66-.66-.659-1.733.001-2.393.659-.659 1.733-.659 2.393-.001l2.442 2.443c1.781 1.782 1.6 4.345-.442 6.387l-.894.894c-.738.725-1.637 1.088-2.713 1.088z"/></svg>