<svg xmlns="http://www.w3.org/2000/svg" opacity=".7" viewBox="0 0 60 60" fill="#1f2835"><path d="M10.5,6.5C8,6.5,6,8.5,6,11s2,4.5,4.5,4.5s4.5-2,4.5-4.5S13,6.5,10.5,6.5z M10.5,13.5C9.1,13.5,8,12.4,8,11 s1.1-2.5,2.5-2.5S13,9.6,13,11S11.9,13.5,10.5,13.5z"/><circle cx="50" cy="9.5" r="1"/><circle cx="46" cy="9.5" r="1"/><circle cx="52" cy="12.5" r="1"/><circle cx="48" cy="12.5" r="1"/><circle cx="42" cy="9.5" r="1"/><circle cx="44" cy="12.5" r="1"/><circle cx="38" cy="9.5" r="1"/><circle cx="40" cy="12.5" r="1"/><circle cx="34" cy="9.5" r="1"/><circle cx="36" cy="12.5" r="1"/><path d="M60 16.9V5.1C60 2.6 57.9.5 55.4.5H4.6C2.1.5 0 2.6 0 5.1v11.8c0 1.5.7 2.8 1.8 3.6-1.1.8-1.8 2.1-1.8 3.6v11.8c0 1.5.7 2.8 1.8 3.6-1.1.8-1.8 2.1-1.8 3.6v11.8c0 2.5 2.1 4.6 4.6 4.6h50.8c2.5 0 4.6-2.1 4.6-4.6V43.1c0-1.5-.7-2.8-1.8-3.6 1.1-.8 1.8-2.1 1.8-3.6V24.1c0-1.5-.7-2.8-1.8-3.6 1.1-.8 1.8-2.1 1.8-3.6zm-2 26.2v11.8a2.65 2.65 0 0 1-2.6 2.6H4.6A2.65 2.65 0 0 1 2 54.9V43.1a2.65 2.65 0 0 1 2.6-2.6h50.8a2.65 2.65 0 0 1 2.6 2.6zm0-19v11.8a2.65 2.65 0 0 1-2.6 2.6H4.6A2.65 2.65 0 0 1 2 35.9V24.1a2.65 2.65 0 0 1 2.6-2.6h50.8a2.65 2.65 0 0 1 2.6 2.6zM4.6 19.5A2.65 2.65 0 0 1 2 16.9V5.1a2.65 2.65 0 0 1 2.6-2.6h50.8A2.65 2.65 0 0 1 58 5.1v11.8a2.65 2.65 0 0 1-2.6 2.6H4.6zm5.9 15A4.48 4.48 0 0 0 15 30a4.48 4.48 0 0 0-4.5-4.5A4.48 4.48 0 0 0 6 30a4.48 4.48 0 0 0 4.5 4.5zm0-7c1.4 0 2.5 1.1 2.5 2.5s-1.1 2.5-2.5 2.5S8 31.4 8 30s1.1-2.5 2.5-2.5z"/><circle cx="50" cy="28.5" r="1"/><circle cx="46" cy="28.5" r="1"/><circle cx="52" cy="31.5" r="1"/><circle cx="48" cy="31.5" r="1"/><circle cx="42" cy="28.5" r="1"/><circle cx="44" cy="31.5" r="1"/><circle cx="38" cy="28.5" r="1"/><circle cx="40" cy="31.5" r="1"/><circle cx="34" cy="28.5" r="1"/><circle cx="36" cy="31.5" r="1"/><path d="M10.5 53.5a4.48 4.48 0 1 0 0-9 4.48 4.48 0 1 0 0 9zm0-7c1.4 0 2.5 1.1 2.5 2.5s-1.1 2.5-2.5 2.5S8 50.4 8 49s1.1-2.5 2.5-2.5z"/><circle cx="50" cy="47.5" r="1"/><circle cx="46" cy="47.5" r="1"/><circle cx="52" cy="50.5" r="1"/><circle cx="48" cy="50.5" r="1"/><circle cx="42" cy="47.5" r="1"/><circle cx="44" cy="50.5" r="1"/><circle cx="38" cy="47.5" r="1"/><circle cx="40" cy="50.5" r="1"/><circle cx="34" cy="47.5" r="1"/><circle cx="36" cy="50.5" r="1"/></svg>