<svg xmlns="http://www.w3.org/2000/svg" opacity=".7" viewBox="0 0 36 36" fill="#1f2835"><path d="M13.6 11.4c-.1-.1-.3-.2-.5-.2s-.4.1-.5.2-.2.3-.2.5.1.4.2.5.3.2.5.2.4-.1.5-.2.2-.3.2-.5c0-.1-.1-.3-.2-.5zm15.2 9.3l-5-5c1.1-1.5.9-3.7-.4-5.1-.7-.7-1.7-1.2-2.8-1.2-.8 0-1.6.2-2.3.7l-5-5c-.2-.2-.4-.2-.6-.2s-.4.2-.5.4L5.4 21.4l-3.7 3.7c-1 1-1.5 2.2-1.5 3.6s.5 2.6 1.5 3.6 2.2 1.5 3.6 1.5 2.6-.5 3.6-1.5l.6-.6 3.9 3.9c.1.1.3.2.5.2s.4-.1.5-.2l2.7-2.7c.3-.3.3-.7 0-1l-3.7-3.7 15.1-6.4c.2-.1.4-.3.4-.5.1-.2 0-.4-.1-.6zM20.5 11c.7 0 1.3.3 1.8.7.8.8 1 2.1.4 3.1l-3.5-3.5c.5-.2.9-.3 1.3-.3zM8 31.4c-.7.7-1.6 1.1-2.6 1.1s-1.9-.4-2.6-1.1-1.1-1.6-1.1-2.6.4-1.9 1.1-2.6L6 22.8l5.2 5.2L8 31.4zm7.7 1.1L14 34.2l-3.4-3.4 1.7-1.7 3.4 3.4zm8.6-10.3s0-.1 0 0l-8.9-8.9c-.3-.3-.7-.3-1 0s-.3.7 0 1l8.5 8.5-10.5 4.5-5.6-5.6L13.1 7l14 14-2.8 1.2zm4.9-17.3c-.3-.3-.7-.3-1 0l-1.9 1.9c-.3.3-.3.7 0 1 .2.1.4.2.5.2.2 0 .4-.1.5-.2l1.9-1.9c.3-.3.3-.7 0-1zm-3.6 3.6c-.1-.1-.3-.2-.5-.2s-.4.1-.5.2-.2.3-.2.5.1.4.2.5.3.2.5.2.4-.1.5-.2.2-.3.2-.5 0-.4-.2-.5z"/><path d="M20.6 2.8v2.5c0 .4.2.7.6.7.4.1.8-.3.8-.7V2.8c0-.4-.4-.8-.8-.7s-.6.4-.6.7zM31.3 12h-2.6c-.3 0-.7.2-.7.6-.1.4.3.8.7.8h2.6c.3 0 .7-.2.7-.6s-.3-.8-.7-.8zm-1 16c-1.2 0-2.1.9-2.1 2.1s.9 2.1 2.1 2.1 2.1-.9 2.1-2.1-1-2.1-2.1-2.1zm0 2.8a.68.68 0 0 1-.7-.7.68.68 0 0 1 .7-.7.68.68 0 0 1 .7.7c0 .3-.3.7-.7.7zm5.5.3l-.8-.7v-.8l.8-.7c.2-.2.3-.6.1-.9l-1.2-2c-.2-.3-.5-.4-.8-.3l-1 .3c-.2-.1-.4-.3-.6-.4l-.2-1c-.1-.3-.4-.6-.7-.6h-2.3c-.3 0-.6.2-.7.6l-.2 1c-.2.1-.4.2-.6.4l-1-.3c-.3-.1-.7 0-.8.3l-1.2 2c-.2.3-.1.6.1.9l.8.7v.8l-.8.7c-.2.2-.3.6-.1.9l1.2 2c.2.3.5.4.8.3l1-.3c.2.1.4.3.6.4l.2 1c.1.3.4.6.7.6h2.3c.3 0 .6-.2.7-.6l.2-1c.2-.1.4-.2.6-.4l1 .3c.3.1.7 0 .8-.3l1.2-2c.2-.3.1-.7-.1-.9zm-2 1.7l-.8-.3c-.2-.1-.5 0-.7.1-.3.2-.6.4-.9.5-.2.1-.4.3-.4.5l-.2.8h-1.2l-.2-.8c-.1-.2-.2-.4-.4-.5-.3-.1-.6-.3-.9-.5-.2-.2-.4-.2-.7-.1l-.8.2-.6-1 .6-.5c.2-.2.3-.4.2-.6v-1c0-.2 0-.5-.2-.6l-.6-.5.6-1 .8.2c.2.1.5 0 .7-.1.3-.2.6-.4.9-.5.2-.1.4-.3.4-.5l.2-.8h1.2l.2.8c0 .2.2.4.4.5.3.1.6.3.9.5.2.1.4.2.7.1l.8-.2.6 1-.6.5c-.2.2-.3.4-.2.6v1c0 .2 0 .5.2.6l.6.5-.6 1.1z"/><path d="M35.6 6.2c.3-.2.4-.6.3-.9l-2-4.8c-.1-.3-.4-.4-.6-.4s-.5.2-.6.4l-2 4.8c-.1.3 0 .7.3.9.1.1.2.1.3.1.3 0 .5-.2.6-.4l.3-.6h2.3l.3.6c0 .4.5.5.8.3zm-2.9-2.3l.5-1.3.5 1.3c.1 0-1 0-1 0zM7.8.1H1.9C1 .1.2.9.2 1.8V7c0 .9.8 1.7 1.7 1.7h5.8c.9 0 1.7-.8 1.7-1.7V1.8C9.5.9 8.7.1 7.8.1zM8.1 7c0 .2-.1.3-.3.3H1.9c-.1-.1-.3-.2-.3-.3V1.8c0-.2.1-.3.3-.3h5.8c.2 0 .3.1.3.3L8.1 7zM6 3.1l-1-.6a1.36 1.36 0 0 0-1.5 0c-.5.2-.8.7-.8 1.3V5c0 .5.3 1 .7 1.3.3.1.6.2.8.2.3 0 .5-.1.7-.2L6 5.7c.5-.3.8-.8.7-1.3.1-.6-.2-1.1-.7-1.3zm-.7 1.4l-1 .6h-.1V3.7l1.1.6c.1 0 .1 0 0 .2.1-.1.1 0 0 0zm-.5 10.8h-.4c-.3 0-.7.2-.7.6-.1.4.3.8.7.8h.5c.3 0 .7-.2.7-.6s-.3-.8-.8-.8zm-2.6-1.2v.4c0 .4.2.7.6.7.4.1.8-.3.8-.7v-.4c0-.4-.4-.8-.8-.7s-.6.4-.6.7zm-.8 1.2H1c-.3 0-.7.2-.7.6-.1.4.3.8.7.8h.4c.3 0 .7-.2.7-.6s-.3-.8-.7-.8zm.8 2.2v.5c0 .4.2.7.6.7.4.1.8-.3.8-.7v-.5c0-.4-.4-.8-.8-.7s-.6.4-.6.7z"/></svg>