<?xml version="1.0" encoding="utf-8"?>
<!-- Generator: Adobe Illustrator 23.0.1, SVG Export Plug-In . SVG Version: 6.00 Build 0)  -->
<svg version="1.1" id="Layer_1" xmlns="http://www.w3.org/2000/svg" xmlns:xlink="http://www.w3.org/1999/xlink" x="0px" y="0px"
	 viewBox="0 0 134 134" style="enable-background:new 0 0 134 134;" xml:space="preserve">
<style type="text/css">
	.st0{fill:#1F2835;}
	.st1{opacity:0.11;fill:#F9F9F9;stroke:#1F2835;stroke-width:0.5;stroke-miterlimit:10;enable-background:new    ;}
	.st2{fill:#4CAF50;stroke:#FFFFFF;stroke-width:2.5;stroke-miterlimit:10;}
</style>
<path class="st0" d="M128.1,18.7H6c-2.3,0-4.2,1.9-4.2,4.2v22.6c0,2.3,1.9,4.2,4.2,4.2h122.2c2.3,0,4.2-1.9,4.2-4.2V22.9
	C132.3,20.6,130.4,18.7,128.1,18.7L128.1,18.7z M21.8,38.6c0,0.6-0.5,1-1,1h-8c-0.6,0-1-0.5-1-1v-8c0-0.6,0.5-1,1-1h8
	c0.6,0,1,0.5,1,1C21.8,30.6,21.8,38.6,21.8,38.6z M101.5,36.5c-0.2,0.2-0.4,0.4-0.7,0.5c-0.4,0.2-0.9,0.4-1.5,0.4
	c-3.4,0-3.8-4.7-1.2-5.8c0.2-0.1,0.4-0.2,0.7-0.2c0.2-0.1,0.5-0.1,0.7-0.1c1.6,0,2.9,1.3,2.9,3C102.5,35.2,102.2,36,101.5,36.5z
	 M111.6,37.3c-1.6,0-2.9-1.3-2.9-3c0-1.7,1.3-3,2.9-3c1.6,0,2.9,1.3,2.9,3S113.2,37.3,111.6,37.3z M123.2,37.3c-1.6,0-2.9-1.3-2.9-3
	c0-1.7,1.3-3,2.9-3c1.6,0,2.9,1.3,2.9,3S124.7,37.3,123.2,37.3z M128.1,51.6H6c-2.3,0-4.2,1.9-4.2,4.2v22.6c0,2.3,1.9,4.2,4.2,4.2
	h122.2c2.3,0,4.2-1.9,4.2-4.2V55.8C132.3,53.5,130.4,51.6,128.1,51.6z M21.8,71.5c0,0.6-0.5,1-1,1h-8c-0.6,0-1-0.5-1-1v-8
	c0-0.6,0.5-1,1-1h8c0.6,0,1,0.5,1,1C21.8,63.5,21.8,71.5,21.8,71.5z M99.7,70.3C99.7,70.3,99.7,70.3,99.7,70.3
	C99.7,70.3,99.7,70.3,99.7,70.3c-0.5,0-0.9-0.1-1.3-0.3c0,0-0.1,0-0.1-0.1c-2.2-1-2.2-4.6,0-5.4c0.1,0,0.2-0.1,0.4-0.1h0.4
	c0.2,0,0.4-0.1,0.6-0.1c1.3,0,2.1,0.7,2.6,1.5C103.2,67.6,102.3,70.3,99.7,70.3z M111.6,70.3c-1.6,0-2.9-1.3-2.9-3
	c0-1.7,1.3-3,2.9-3c1.6,0,2.9,1.3,2.9,3C114.5,69.1,113.2,70.3,111.6,70.3z M123.2,70.3c-1.6,0-2.9-1.3-2.9-3c0-1.7,1.3-3,2.9-3
	c1.5,0,2.9,1.3,2.9,3C126,69.1,124.7,70.3,123.2,70.3z M128.1,84.4H6c-2.3,0-4.2,1.9-4.2,4.2v22.6c0,2.3,1.9,4.2,4.2,4.2h122.2
	c2.3,0,4.2-1.9,4.2-4.2V88.6C132.3,86.3,130.4,84.4,128.1,84.4z M20.8,105.3h-8c-0.6,0-1-0.5-1-1v-8c0-0.6,0.5-1,1-1h8
	c0.6,0,1,0.5,1,1v8C21.8,104.9,21.3,105.3,20.8,105.3z M99.7,103c-1.6,0-2.9-1.3-2.9-3c0-1.7,1.3-3,2.9-3c1.6,0,2.9,1.3,2.9,3
	C102.5,101.7,101.3,103,99.7,103z M111.6,103c-1.6,0-2.9-1.3-2.9-3c0-1.7,1.3-3,2.9-3c1.6,0,2.9,1.3,2.9,3
	C114.5,101.7,113.2,103,111.6,103z M123.2,103c-1.6,0-2.9-1.3-2.9-3c0-1.7,1.3-3,2.9-3c1.6,0,2.9,1.3,2.9,3
	C126,101.7,124.7,103,123.2,103z"/>
<path class="st1" d="M110,70.1c-0.5,6.4-2.4,12.5-5.4,18H88.4l0.8-3.5h-3.6l-0.9,3.5H68.1V68.5h19.5c-0.1,4.6-0.6,9.1-1.4,13.7h3.5
	c0.8-4.5,1.3-9.1,1.4-13.7h5.7c-0.4-1-0.3-2.1,0.3-3H91c-0.1-4.7-0.6-9.4-1.4-13.7h-3.5c0.8,4.3,1.3,8.9,1.4,13.7H68.1V45.8h16.8
	l0.9,3.6h0.9c0.9,0,1.7-0.1,2.6-0.1c-0.3-1.2-0.5-2.4-0.8-3.5h16.3c3.1,5.7,5.1,12.1,5.4,18.8c0.4-0.2,0.8-0.2,1.2-0.2h0.4
	c1,0,1.7,0.4,2.2,1c-0.4-11.2-4.7-21.4-11.6-29.4c-0.2,0.3-0.4,0.5-0.7,0.7c-0.3,0.3-0.7,0.6-1.3,0.7c-0.3,0.1-0.6,0.2-0.9,0.2
	c-0.5,0-0.9-0.1-1.2-0.3c1.3,1.4,2.6,3,3.7,4.6H87.4c-1-2.9-2.1-5.6-3.3-8.1c-1.8-3.6-4-6.6-6.4-8.9c7,1.9,13.3,5.6,18.5,10.5
	c-0.2-0.7-0.2-1.6,0.2-2.3c0.3-0.6,0.7-1.2,1.4-1.5c0.1,0,0.1-0.1,0.1-0.1c-8.4-7.5-19.5-12.1-31.8-12.1h-1
	c-25.9,0.6-46.7,21.7-46.7,47.7c0,5.3,0.8,10.6,2.6,15.6c0.2-0.2,0.4-0.3,0.7-0.3h0.7c0.1-0.1,0.3-0.2,0.5-0.2c0.7,0,1.4,0,2.1-0.1
	c-1.6-4.3-2.6-8.9-2.8-13.7h18.1c0.2,7,1.1,13.7,2.7,19.8H27.8c-0.6-1.1-1.2-2.3-1.7-3.5h-3.9c-0.2,0-0.3,0-0.5-0.1
	c6.8,17.4,23.6,29.8,43.3,30.2h1c12.3,0,23.4-4.6,31.9-12.3c-2.2-1.4-1.6-5.4,1.6-5.4c1.2,0,2,0.6,2.5,1.4
	c6.8-7.7,11.2-17.7,11.7-28.8c-0.5,0.6-1.2,1-2.2,1C111,70.7,110.4,70.5,110,70.1z M68.1,23.7c1.9,0.4,3.7,1.4,5.4,2.9
	c3.8,3.1,7.2,8.4,9.6,15.4H68.1V23.7z M35.2,36.1c5-5,11.2-8.8,18-10.9c-3.7,3.8-6.8,9.1-9.1,15.6c-0.1,0.3-0.2,0.7-0.3,1H30.4
	C31.8,39.8,33.4,37.9,35.2,36.1z M35.2,97.8c-1.8-1.8-3.4-3.7-4.7-5.8H44c1,2.9,2.1,5.6,3.3,8.1c1.7,3.4,3.8,6.3,6,8.6
	C46.3,106.6,40.2,102.9,35.2,97.8z M64.1,110.6c-2.2-0.3-4.4-1.3-6.5-3c-3.8-3.1-7.2-8.4-9.6-15.4h16.1
	C64.1,92.2,64.1,110.6,64.1,110.6z M64.1,88.2H46.5c-1.7-5.9-2.7-12.6-2.8-19.8h20.4L64.1,88.2L64.1,88.2z M64.1,65.5H43.5
	c0.1-4.7,0.6-9.4,1.4-13.7c-1.1,0-2.2,0.1-3.3,0c-0.8,4.4-1.3,8.9-1.4,13.7h-18c0.3-6.9,2.2-13.7,5.6-19.8h15.2
	c-0.3,1.1-0.6,2.3-0.8,3.5c1.1,0,2.2-0.1,3.4-0.1c0.3-1.2,0.5-2.3,0.8-3.4h17.7L64.1,65.5L64.1,65.5z M64.1,41.9H48
	c0.8-2.2,1.7-4.3,2.7-6.1c2-4,4.5-7,7-9.1c2.1-1.7,4.3-2.7,6.5-3v18.3H64.1z M73.6,107.5c-1.8,1.5-3.6,2.4-5.4,2.9V92.2h15.1
	c-0.8,2.3-1.7,4.4-2.7,6.3C78.4,102.3,76.1,105.5,73.6,107.5z M97.2,97.8c-5.3,5.3-11.9,9.3-19.4,11.2c3.9-3.8,7-9.4,9.4-16.1
	c0.1-0.3,0.2-0.7,0.3-1h14.5C100.6,94.1,98.8,96,97.2,97.8z M108.9,65.5h-6.6c0.4,0.7,0.5,1.5,0.4,2.2c0,0.2-0.1,0.5-0.1,0.7h6
	C108.2,67.5,108.4,66.4,108.9,65.5z"/>
<path class="st2" d="M12.9,96.4c-0.4,0-1.1-0.1-1.5-0.6c-0.4-0.5-0.4-1-0.4-1.4l6.3-48.8c0-0.3,1-6.3,5.6-7.9c0.4-0.2,2-0.7,3.8-0.3
	c3.1,0.7,5.2,3.5,5.6,4.7l14.7,48.9c0.1,0.2,1,2.2-0.2,4.1c-0.9,1.5-2.4,2-3.5,2.1c-2.2,0.2-4.5-1.4-5.4-4L26,55.8l-4.4,38.7
	c0,0.1,0,0.8-0.6,1.4c-0.7,0.6-1.5,0.5-1.6,0.5C19.5,96.4,12.9,96.4,12.9,96.4z M45.2,66.3l11-21.7c0.1-0.2,0.8-1.7,2.4-2.3
	c1.6-0.5,3.3,0.2,4.3,1.4c0.7,1,0.8,2,0.8,2.4L52.1,69.8c-0.4,0.3-1.5,1.2-3.2,1.2c-0.6,0-2.4,0-3.4-1.4
	C44.5,68.2,45.1,66.5,45.2,66.3z M46.5,82.4l19.3-40.8c0.6-1.3,2.1-4,4.6-4.5c0.1,0,3-0.6,4.4,1.4c1.2,1.7,0.4,3.8,0.3,3.9l-20,42.6
	c-0.1,0.4-0.9,2.6-3.3,3.5c-0.4,0.2-2.6,1.1-4.5-0.2c-1.1-0.7-1.4-1.7-1.5-2C45.2,84.4,46.3,82.7,46.5,82.4z M122.6,61.2
	c-0.3-1.6-2.7-13-13.3-19.9c-3.3-2.2-6.5-3.3-9.1-4c-0.3,0.1-0.6,0.2-0.9,0.2c-0.9,0-1.5-0.3-2-0.8H80.1c-0.2,0-0.9,0-1.6,0.4
	c-0.7,0.5-1,1.2-1.1,1.4c-0.6,1.4-11.7,25.6-27,59c0,0-0.3,0.5-0.1,1c0.1,0.3,0.5,0.6,0.8,0.7l8.2,0.1c0.2,0,0.7,0,1.2-0.3
	c0.5-0.4,0.7-0.9,0.8-1L88,47h6.6c1.9,0.3,7.2,1.3,11.6,5.7c6.4,6.3,5.9,14.7,5.8,16.1c-0.1,1.5-0.8,10.7-8.4,16.1
	c-2.8,1.9-5.6,2.7-7.4,3H70.1c-1.9,0.4-3.5,1.7-4.1,3.5c-0.5,1.5-0.2,3.5,1.1,4.7c1.1,1.1,2.4,1.2,2.9,1.3c11.2,0.2,19.6,0.1,25.4,0
	c1.8,0,3.8-0.1,6.3-0.8c8.4-2.2,13.3-8.4,14.7-10.5C124.9,74.9,122.8,62.1,122.6,61.2z"/>
</svg>
