<svg xmlns="http://www.w3.org/2000/svg" opacity=".7" viewBox="0 0 36 36" fill="#1f2835"><path d="M30.4 7a.68.68 0 0 0-.7.7.68.68 0 0 0 .7.7.68.68 0 0 0 .7-.7.68.68 0 0 0-.7-.7zM5.6 7a.68.68 0 0 0-.7.7.68.68 0 0 0 .7.7.68.68 0 0 0 .7-.7.68.68 0 0 0-.7-.7zm29.7 8.5h-.8c-.3-2-.9-4-1.9-5.7-.2-.3-.6-.5-1-.3-.3.2-.5.6-.3 1 .9 1.6 1.5 3.3 1.7 5.1h-.6a.68.68 0 0 0-.7.7V19a.68.68 0 0 0 .7.7h2.8a.68.68 0 0 0 .7-.7v-2.8c.1-.4-.2-.7-.6-.7zm-.7 2.8h-1.4v-1.4h1.4v1.4zm-8.9 2.3c0-.1 0-.1 0 0v-.4l-7-12.9c-.2-.1-.4-.3-.7-.3s-.5.1-.6.4l-7 12.9v.3l2.5 6.7c-.2.1-.4.2-.6.4-.4.4-.6.9-.6 1.5 0 .9.6 1.7 1.4 2V35a.68.68 0 0 0 .7.7h8.4a.68.68 0 0 0 .7-.7v-3.8c.3-.1.6-.3.8-.5.4-.4.6-.9.6-1.5 0-.8-.5-1.5-1.2-1.9l2.5-6.7c.1.1.1.1.1 0zm-7.7-.7a.68.68 0 0 1 .7.7.68.68 0 0 1-.7.7.68.68 0 0 1-.7-.7.68.68 0 0 1 .7-.7zm3.5 14.7h-7v-3h7v3zm1.2-4.6c-.1.1-.3.2-.5.2h-8.4a.68.68 0 0 1-.7-.7c0-.2.1-.4.2-.5s.3-.2.5-.2h8.4a.68.68 0 0 1 .7.7c0 .1-.1.3-.2.5zm-1-2.6h-7.5l-2.3-6h1.8a.68.68 0 0 0 .7-.7.68.68 0 0 0-.7-.7h-1.6l5.1-9.4v8.1c-.8.3-1.4 1.1-1.4 2 0 1.2.9 2.1 2.1 2.1s2.1-.9 2.1-2.1c0-.9-.6-1.7-1.4-2v-8.1l5.1 9.4h-1.6a.68.68 0 0 0-.7.7.68.68 0 0 0 .7.7H24l-2.3 6zM4.4 9.5c-.3-.2-.8-.1-1 .3-1 1.8-1.6 3.7-1.9 5.7H.7a.68.68 0 0 0-.7.7V19a.68.68 0 0 0 .7.7h2.8a.68.68 0 0 0 .7-.7v-2.8a.68.68 0 0 0-.7-.7H3c.3-1.8.8-3.5 1.7-5.1.2-.3 0-.8-.3-.9zm-1.6 8.8H1.4v-1.4h1.4v1.4zM33.9 0c-.9 0-1.7.6-2 1.4H20.1V.7a.68.68 0 0 0-.7-.7h-2.8a.68.68 0 0 0-.7.7v.7H4.1C3.8.6 3 0 2.1 0 .9 0 0 .9 0 2.1s.9 2.1 2.1 2.1c.9 0 1.7-.6 2-1.4h7.1c-1.5.6-2.9 1.4-4 2.4-.3.3-.3.7-.1 1 .1.2.3.2.5.2s.3-.1.5-.2c2-1.7 4.9-2.9 7.8-3.3v.6a.68.68 0 0 0 .7.7h2.8a.68.68 0 0 0 .7-.7V3c2.9.4 5.8 1.6 7.8 3.3.1.1.3.2.5.2s.4-.1.5-.2c.3-.3.2-.7-.1-1-1.1-1-2.5-1.8-4-2.4h7.1c.3.8 1.1 1.4 2 1.4 1.2 0 2.1-.9 2.1-2.1S35.1 0 33.9 0zM2.1 2.8a.68.68 0 0 1-.7-.7.68.68 0 0 1 .7-.7.68.68 0 0 1 .7.7.68.68 0 0 1-.7.7zm16.6-.7v.7h-1.4V1.4h1.4v.7zm15.2.7a.68.68 0 0 1-.7-.7.7.7 0 1 1 1.4 0 .68.68 0 0 1-.7.7z"/></svg>