<svg xmlns="http://www.w3.org/2000/svg" opacity=".7" viewBox="0 0 36 36" fill="#1f2835"><path d="M24.4 10.6l-6.2-2.2h-.3l-4 1.4c-.3.1-.4.4-.3.7s.4.4.7.3L18 9.5l5.7 2c-.1 1.4-1 6.2-5.7 9.3-2.3-1.5-3.9-3.5-4.9-6.1-.8-2-.8-3.5-.8-3.6a.47.47 0 0 0-.5-.5.47.47 0 0 0-.5.5c0 .1 0 1.7.9 3.9.8 2 2.3 4.8 5.6 6.8.1.1.2.1.3.1s.2 0 .3-.1c3.3-2 4.8-4.8 5.6-6.8.8-2.1.9-3.8.9-3.9-.1-.2-.3-.4-.5-.5zm-3.5 2.6c-.2-.2-.5-.2-.7 0l-2.7 2.7-1.5-1.6c-.2-.2-.5-.2-.7 0s-.2.5 0 .7l1.9 1.9c.1.1.2.2.4.2s.3-.1.4-.2l3-3c.2-.2.2-.5-.1-.7z"/><path d="M29.7 21.6c.1-.7.3-1.3.5-1.9.2-.5.6-1.1 1-1.6.7-1 1.4-2.1 1.4-3.4s-.7-2.4-1.4-3.4l-1-1.6-.5-2c-.2-1.2-.5-2.5-1.4-3.4s-2.1-1.1-3.4-1.4c-.7-.1-1.3-.3-1.9-.5-.5-.2-1.1-.6-1.6-1C20.4.7 19.3 0 18 0s-2.4.7-3.4 1.4l-1.6 1c-.6.2-1.2.4-1.9.5-1.3.2-2.6.5-3.4 1.4-.9.9-1.2 2.1-1.4 3.4-.1.6-.3 1.3-.5 1.9-.2.5-.6 1.1-1 1.6-.7 1-1.4 2.1-1.4 3.4S4.1 17 4.8 18l1 1.6c.2.6.4 1.2.5 1.9.2 1.2.5 2.5 1.4 3.4.3.3.6.5.9.7L5.1 32c-.1.2-.1.4 0 .5.1.2.3.3.4.3l3.5.1 2 2.9a.76.76 0 0 0 .4.2c.2 0 .3-.1.4-.3l3.8-7.1c.7.4 1.4.6 2.2.6s1.5-.3 2.2-.6l3.8 7.1c.1.2.2.3.4.3s.3-.1.4-.2l2-2.9 3.5-.1c.2 0 .3-.1.4-.3s.1-.4 0-.5l-3.4-6.4c.3-.2.6-.4.9-.7 1.2-.8 1.5-2.1 1.7-3.3zM11.5 34.5l-1.7-2.4c-.1-.1-.2-.2-.4-.2l-2.9-.1L9.6 26l1.5.3c.3.1.6.1.9.2l-2 3.6c-.1.3 0 .6.2.7.1 0 .2.1.2.1a.55.55 0 0 0 .5-.3l2-3.8c.5.2 1.1.6 1.6 1a1.38 1.38 0 0 0 .4.3l-3.4 6.4zm18-2.7l-2.9.1c-.2 0-.3.1-.4.2l-1.7 2.4-3.4-6.5c.1-.1.2-.2.4-.3l1.6-1 2 3.8a.55.55 0 0 0 .5.3c.1 0 .2 0 .2-.1.3-.1.4-.5.2-.7l-1.9-3.6c.3-.1.6-.1.9-.2l1.5-.3 3 5.9zm-4.7-6.5a8.3 8.3 0 0 0-2.1.6c-.6.3-1.2.7-1.8 1.1-1 .6-1.9 1.3-2.8 1.3-1 0-1.9-.6-2.8-1.3l-1.8-1.1c-.7-.3-1.4-.4-2.1-.6-1.1-.2-2.2-.4-2.8-1.1-.7-.7-.9-1.7-1.1-2.8a8.3 8.3 0 0 0-.6-2.1c-.3-.6-.7-1.2-1.1-1.8-.6-1-1.3-1.9-1.3-2.8 0-1 .6-1.9 1.3-2.8l1.1-1.8c.1-.8.3-1.5.4-2.2.2-1.2.5-2.2 1.1-2.9.7-.7 1.7-.9 2.8-1.1a8.3 8.3 0 0 0 2.1-.6c.6-.3 1.2-.7 1.8-1.1 1-.6 1.9-1.3 2.8-1.3 1 0 1.9.6 2.8 1.3l1.8 1.1c.7.3 1.4.4 2.1.6 1.1.2 2.2.4 2.8 1.1.7.7.9 1.7 1.1 2.8a8.3 8.3 0 0 0 .6 2.1c.3.6.7 1.2 1.1 1.8.6 1 1.3 1.9 1.3 2.8 0 1-.6 1.9-1.3 2.8l-1.1 1.8c-.3.7-.4 1.4-.6 2.1-.2 1.1-.4 2.2-1.1 2.8-.5.9-1.5 1.1-2.6 1.3zm-.1-19c-4.2-3.4-10.4-3.1-14.2.8-3.9 3.9-4.2 10-.8 14.2a.76.76 0 0 0 .4.2c.1 0 .2 0 .3-.1.2-.2.3-.5.1-.7-3.1-3.8-2.8-9.3.7-12.8s9-3.9 12.8-.8c.2.2.6.1.7-.1.2-.2.2-.5 0-.7zM26.3 8c-.2-.2-.5-.3-.7-.1s-.3.5-.1.7c3.1 3.8 2.8 9.3-.7 12.8s-9 3.8-12.8.7c-.2-.2-.6-.1-.7.1-.2.2-.1.6.1.7 2 1.6 4.3 2.3 6.7 2.3 2.7 0 5.5-1.1 7.5-3.1 3.8-3.8 4.1-9.9.7-14.1z"/></svg>