<svg xmlns="http://www.w3.org/2000/svg" viewBox="0 0 127 133"><g stroke-miterlimit="10"><rect x="2" y="2" width="55" height="129" rx="7.53" fill="#fbfef9" stroke="#2a2a2a"/><rect x="2" y="2" width="55" height="129" rx="7.53" fill="#1f2835" stroke="#272a2f" stroke-width="4"/></g><path d="M4.54 122.6A5.07 5.07 0 0 0 5 124a1.77 1.77 0 0 0 1.35.7 3.7 3.7 0 0 0 1.34 0h44.4a3.39 3.39 0 0 0 1.34-.7 6.54 6.54 0 0 0 1.8-2.79 8.26 8.26 0 0 1-.45 5.58 3.33 3.33 0 0 1-2.69 2.09H7.68a3.65 3.65 0 0 1-3.14-2.09 10.25 10.25 0 0 1-.89-6.28 8.94 8.94 0 0 1 .89 2.08z" fill="#f3f4f5" opacity=".02"/><path d="M15.38 16.5h28.18m-28.18 14h28.18m-28.18 14h28.18m-28.18 45h28.18m-28.18 14h28.18m-28.18 14h28.18" stroke-miterlimit="10" stroke="#272a2f" stroke-width="4" fill="none" stroke-linecap="round"/><g fill="#6fa05d"><circle cx="20" cy="66" r="2.5"/><circle cx="30" cy="66" r="2.5"/><circle cx="39" cy="66" r="2.5"/></g><rect x="70" y="2" width="55" height="129" rx="7.53" fill="#1f2835"/><path d="M72.54 122.6A5.07 5.07 0 0 0 73 124a1.77 1.77 0 0 0 1.35.7 3.7 3.7 0 0 0 1.34 0h44.4a3.39 3.39 0 0 0 1.34-.7 6.54 6.54 0 0 0 1.8-2.79 8.26 8.26 0 0 1-.45 5.58 3.33 3.33 0 0 1-2.69 2.09h-44.4a3.65 3.65 0 0 1-3.14-2.09 10.25 10.25 0 0 1-.89-6.28 8.94 8.94 0 0 1 .89 2.08z" fill="#f3f4f5" opacity=".02"/><path d="M122.46 8.78a5.07 5.07 0 0 0-.45-1.4 1.73 1.73 0 0 0-1.35-.69 3.3 3.3 0 0 0-1.34 0h-44.4a3.35 3.35 0 0 0-1.34.69 6.51 6.51 0 0 0-1.8 2.8 8.29 8.29 0 0 1 .45-5.59 3.33 3.33 0 0 1 2.69-2.09h44.4a3.67 3.67 0 0 1 3.14 2.09 10.26 10.26 0 0 1 .89 6.28 8.76 8.76 0 0 1-.89-2.09zm-68 0a5.07 5.07 0 0 0-.46-1.4 1.73 1.73 0 0 0-1.35-.69 3.3 3.3 0 0 0-1.34 0H6.92a3.35 3.35 0 0 0-1.34.69 6.51 6.51 0 0 0-1.8 2.8 8.29 8.29 0 0 1 .45-5.59A3.33 3.33 0 0 1 6.92 2.5h44.4a3.67 3.67 0 0 1 3.14 2.09 10.26 10.26 0 0 1 .89 6.28 8.76 8.76 0 0 1-.89-2.09z" opacity=".02" fill="#fff"/><g stroke-miterlimit="10" stroke-width="4" fill="none"><rect x="70" y="2" width="55" height="129" rx="7.53" stroke="#2a2a2a"/><path d="M83.38 16.5h28.18m-28.18 14h28.18m-28.18 14h28.18m-28.18 45h28.18m-28.18 14h28.18m-28.18 14h28.18" stroke-linecap="round" stroke="#6fa05d"/></g><g fill="#6fa05d"><circle cx="88" cy="66" r="2.5"/><circle cx="98" cy="66" r="2.5"/><circle cx="107" cy="66" r="2.5"/></g></svg>