<svg xmlns="http://www.w3.org/2000/svg" opacity=".7" viewBox="0 0 36 36" fill="#1f2835"><path d="M34.8 3.6a2.22 2.22 0 0 0-2.2-2.2H3.4a2.22 2.22 0 0 0-2.2 2.2c0 1 .7 1.9 1.7 2.2V33l1.7-1.7L8 34.7l3.4-3.4 3.4 3.4 3.4-3.4 3.4 3.4 3.4-3.4 3.4 3.4 3.4-3.4 1.7 1.7V5.8c.6-.3 1.3-1.2 1.3-2.2zM32 30.3l-.6-.6-3.4 3.4-3.4-3.4-3.4 3.4-3.2-3.4-3.4 3.4-3.4-3.4-3.4 3.4-3.4-3.4-.4.6V4.2h28v26.1zm1.1-25.7V3H2.9v1.5c-.4-.1-.6-.5-.6-.9a1.11 1.11 0 0 1 1.1-1.1h29.1a1.11 1.11 0 0 1 1.1 1.1c.1.4-.1.8-.5 1zm-7.3 19.2h-8.4a.65.65 0 0 0-.6.6.65.65 0 0 0 .6.6h8.4a.65.65 0 0 0 .6-.6.65.65 0 0 0-.6-.6zm2.4.1c-.1.1-.2.2-.2.4a.76.76 0 0 0 .6.6.76.76 0 0 0 .6-.6c0-.2-.1-.3-.2-.4-.2-.2-.5-.2-.8 0zm.4-8h-8.4a.65.65 0 0 0-.6.6.65.65 0 0 0 .6.6h8.4a.65.65 0 0 0 .6-.6.65.65 0 0 0-.6-.6z"/><path d="M28.6 19.8H23a.65.65 0 0 0-.6.6.65.65 0 0 0 .6.6h5.6a.65.65 0 0 0 .6-.6.65.65 0 0 0-.6-.6zm-11.7.6a.65.65 0 0 0 .6.6h1.1a.65.65 0 0 0 .6-.6.65.65 0 0 0-.6-.6h-1.1c-.4 0-.6.3-.6.6zm9.5-7.8a.65.65 0 0 0-.6-.6h-8.4a.65.65 0 0 0-.6.6.65.65 0 0 0 .6.6h8.4c.3-.1.6-.3.6-.6zm1.8-.4c-.1.1-.2.2-.2.4a.76.76 0 0 0 .2.4.76.76 0 0 0 .4.2c.2 0 .3-.1.4-.2a.76.76 0 0 0 .2-.4.76.76 0 0 0-.2-.4.61.61 0 0 0-.8 0zm-9.8 4.7c.1-.1.2-.2.2-.4s-.1-.3-.2-.4a.61.61 0 0 0-.8 0c-.1.1-.2.2-.2.4s.1.3.2.4.3.1.4.1.3 0 .4-.1zm2.8 3.9c.1-.1.2-.2.2-.4s-.1-.3-.2-.4a.61.61 0 0 0-.8 0 .76.76 0 0 0-.2.4.76.76 0 0 0 .2.4.76.76 0 0 0 .4.2.76.76 0 0 0 .4-.2zm-10.5-7.6v-.6a.65.65 0 0 0-.6-.6.65.65 0 0 0-.6.6v.6c-.5.1-1.1.4-1.5.9-.3.4-.5.9-.4 1.5.1.5.3 1.1.8 1.4l1.2 1v3c-.7-.2-1.1-.8-1.1-1.6a.65.65 0 0 0-.6-.6.65.65 0 0 0-.6.6c0 1.4 1 2.5 2.2 2.7v.5a.65.65 0 0 0 .6.6.65.65 0 0 0 .6-.6v-.5c.6-.1 1.2-.4 1.6-.9.3-.4.5-.9.4-1.5-.1-.5-.3-1.1-.8-1.4l-1.2-1v-3c.7.2 1.1.8 1.1 1.6a.65.65 0 0 0 .6.6.65.65 0 0 0 .6-.6c0-1.3-1-2.5-2.3-2.7zm.6 6c.2.2.3.4.3.6s0 .4-.2.6-.4.4-.7.5v-2.2l.6.5zM9 16.1c-.2-.2-.3-.4-.3-.6s0-.4.2-.6.4-.4.7-.5v2.2l-.6-.5z"/><circle cx="23.6" cy="7.5" r=".6"/><circle cx="21.4" cy="7.5" r=".6"/><circle cx="25.8" cy="7.5" r=".6"/><circle cx="19.1" cy="7.5" r=".6"/><circle cx="28.1" cy="7.5" r=".6"/><circle cx="12.4" cy="7.5" r=".6"/><circle cx="14.6" cy="7.5" r=".6"/><circle cx="16.9" cy="7.5" r=".6"/><circle cx="30.3" cy="7.5" r=".6"/><circle cx="10.2" cy="7.5" r=".6"/><circle cx="7.9" cy="7.5" r=".6"/><circle cx="5.7" cy="7.5" r=".6"/></svg>