<svg xmlns="http://www.w3.org/2000/svg" opacity=".7" viewBox="0 0 512 512" fill="#1f2835"><path d="M256 265.7c31.3 0 56.2-24.9 56.2-56.2s-24.9-56.2-56.2-56.2-56.2 24.9-56.2 56.2c0 31.4 24.9 56.2 56.2 56.2zm0-91.9c19.5 0 34.6 16.2 34.6 34.6S274.3 243 256 243s-34.6-16.2-34.6-34.6 15.1-34.6 34.6-34.6zM457.4 401c-26.8 0-48.5 18.5-53.4 43.6H266.9v-19.7c85.1-5.4 153-73.7 157.9-158.9h30.7c6 0 10.8-4.8 10.8-10.8V109.3c26.1-5.1 45.1-28.3 43.5-56.4-1.5-26.9-23.2-48.5-50.1-50.5C427.2.1 401 24.7 401 56.3c0 26.5 18.5 48.1 43.6 53v134.8h-19.8C418.9 159.5 351.3 92 266.9 86.7V56.4c0-6-4.8-10.8-10.8-10.8H108C102.6 18.3 77.3-1.2 47.3 2.5 23.1 5.5 3.7 24.7.6 48.9-3.8 83 21.5 111 54.6 111c26.8 0 48.5-18.5 53.4-43.6h137.1v19.7c-84.5 5.3-152 72.6-158 156.9H56.4c-6 0-10.8 4.8-10.8 10.8V403C19.5 408.1.5 431.3 2.1 459.4c1.6 26.9 23.2 48.6 50.2 50.5 32.5 2.3 58.7-22.2 58.7-53.9 0-26.5-18.5-48.1-43.6-53V265.9h19.7c4.8 85.6 72.8 154.2 157.9 159.6v30c0 6 4.8 10.8 10.8 10.8H404c5.3 26.8 29.6 46 58.8 43.3 25.6-2.3 46.2-22.6 48.8-48.2 3.5-33.3-21.6-60.4-54.2-60.4zM423.5 56.1c0-18.3 14.1-32.4 32.4-32.4s32.4 14.1 32.4 32.4-14.1 32.4-32.4 32.4-32.4-14.1-32.4-32.4zM56.1 88.5c-18.3 0-32.4-14.1-32.4-32.4s14.1-32.4 32.4-32.4 32.4 14.1 32.4 32.4-14.1 32.4-32.4 32.4zm32.4 367.4c0 18.3-14.1 32.4-32.4 32.4s-32.4-14.1-32.4-32.4 14.1-32.4 32.4-32.4 32.4 14.1 32.4 32.4zm250-75.9c-23.5 15.7-51.7 24.8-82 24.8-29.4 0-56.8-8.6-79.8-23.5v-20.8c0-28.3 22.7-50 49.6-50h62.6c28.1 0 49.6 22.8 49.6 50V380zm-231-123.7c0-84.6 70.5-152.7 156-148.7 77.1 3.6 139.2 66.3 141.8 143.5 1.5 44.4-16.4 84.8-46.2 113v-3c0-40-32.4-71.3-71.4-71.3H225c-40 0-71.4 32.4-71.4 71.3v3c-28.2-27.1-46.1-65.4-46.1-107.8zm348.5 232c-18.3 0-32.4-14.1-32.4-32.4s14.1-32.4 32.4-32.4 32.4 14.1 32.4 32.4-14.1 32.4-32.4 32.4z"/></svg>