<svg xmlns="http://www.w3.org/2000/svg" opacity=".7" viewBox="0 0 36 36" fill="#1f2835"><path d="M18 23.1c2.4 0 5.1-.1 5.1-1.7v-2l-3-1.8-.2-.2c.6-.5 1-1.3 1-2.1v-.6c0-1.6-1.3-2.8-2.8-2.8s-2.8 1.3-2.8 2.8v.6c0 .9.4 1.6 1 2.1l-.3.2-3 1.8v2c-.1 1.5 2.6 1.7 5 1.7zm-1.7-8.5c0-.9.8-1.7 1.7-1.7s1.7.8 1.7 1.7v.6c0 .9-.8 1.7-1.7 1.7s-1.7-.8-1.7-1.7v-.6zM14.1 20l2.5-1.5.6-.6c.3.1.5.1.8.1s.5 0 .8-.1l.5.5 2.6 1.6v1.4s0 .6-3.9.6-3.9-.6-3.9-.6V20zm3.3-17.7h1.1v1.1h-1.1zM3.9 10.1H5v1.1H3.9zm27 0H32v1.1h-1.1zm-27 14.7H5v1.1H3.9zM33 22.9c.5-1.6.8-3.2.8-4.9s-.3-3.3-.8-4.9c.8-.5 1.3-1.4 1.3-2.4 0-1.6-1.3-2.8-2.8-2.8-.4 0-.8.1-1.2.3-2.4-3-5.7-5-9.5-5.7C20.6 1.1 19.4 0 18 0s-2.6 1.1-2.8 2.5c-3.8.7-7.1 2.7-9.5 5.7-.4-.2-.8-.3-1.2-.3-1.6 0-2.8 1.3-2.8 2.8 0 1 .5 1.9 1.3 2.4-.5 1.6-.8 3.2-.8 4.9s.3 3.3.8 4.9c-.8.5-1.3 1.4-1.3 2.4 0 1.6 1.3 2.8 2.8 2.8.4 0 .8-.1 1.2-.3 2.4 3 5.7 5 9.5 5.7.2 1.4 1.4 2.5 2.8 2.5s2.6-1.1 2.8-2.5c3.8-.7 7.1-2.7 9.5-5.7.4.2.8.3 1.2.3 1.6 0 2.8-1.3 2.8-2.8 0-1-.5-1.9-1.3-2.4zm-.4-4.9c0 1.6-.2 3.1-.7 4.5h-.4c-.9 0-1.6.4-2.2 1l-3.2-1.7c.5-1.1.8-2.4.8-3.8 0-1.3-.3-2.6-.8-3.8l3.2-1.7c.5.6 1.3 1 2.2 1h.4c.5 1.4.7 2.9.7 4.5zm-22.5 0a7.92 7.92 0 0 1 7.9-7.9 7.85 7.85 0 0 1 7.9 7.9 7.85 7.85 0 0 1-7.9 7.9 7.92 7.92 0 0 1-7.9-7.9zm23.1-7.3c0 .9-.8 1.7-1.7 1.7s-1.7-.8-1.7-1.7.8-1.7 1.7-1.7 1.7.8 1.7 1.7zM18 1.1c.9 0 1.7.8 1.7 1.7s-.8 1.7-1.7 1.7-1.7-.8-1.7-1.7.8-1.7 1.7-1.7zm-2.7 2.5c.3 1 1.1 1.7 2.1 1.9v2.3h1.1V5.6c1-.2 1.8-1 2.1-1.9 3.4.6 6.5 2.5 8.7 5.2-.4.5-.7 1.1-.7 1.9 0 .3 0 .6.1.8l-3.2 1.7C24 10.7 21.2 9 18 9s-6 1.7-7.6 4.2l-3.2-1.7c.1-.3.1-.5.1-.8 0-.7-.3-1.4-.7-1.9 2.2-2.7 5.3-4.5 8.7-5.2zM4.5 9c.9 0 1.7.8 1.7 1.7s-.8 1.7-1.7 1.7-1.7-.8-1.7-1.7S3.6 9 4.5 9zm-1.1 9c0-1.6.2-3.1.7-4.5h.4c.9 0 1.6-.4 2.2-1l3.2 1.7A8.49 8.49 0 0 0 9 18c0 1.3.3 2.6.8 3.8l-3.2 1.7c-.5-.6-1.3-1-2.2-1H4c-.4-1.4-.6-2.9-.6-4.5zm-.6 7.3c0-.9.8-1.7 1.7-1.7s1.7.8 1.7 1.7S5.4 27 4.5 27s-1.7-.8-1.7-1.7zM18 34.9c-.9 0-1.7-.8-1.7-1.7s.8-1.7 1.7-1.7 1.7.8 1.7 1.7-.8 1.7-1.7 1.7zm2.7-2.5c-.3-1-1.1-1.7-2.1-1.9v-2.3h-1.1v2.3c-1 .2-1.8 1-2.1 1.9-3.4-.6-6.5-2.5-8.7-5.2.3-.5.6-1.2.6-1.9 0-.3 0-.6-.1-.8l3.2-1.7C12 25.3 14.8 27 18 27s6-1.7 7.6-4.2l3.2 1.7c-.1.3-.1.5-.1.8 0 .7.3 1.4.7 1.9-2.2 2.7-5.3 4.5-8.7 5.2zM31.5 27c-.9 0-1.7-.8-1.7-1.7s.8-1.7 1.7-1.7 1.7.8 1.7 1.7-.8 1.7-1.7 1.7zm-.6-2.2H32v1.1h-1.1zm-13.5 7.8h1.1v1.1h-1.1z"/></svg>