<?xml version="1.0" encoding="utf-8"?>
<!-- Generator: Adobe Illustrator 23.0.1, SVG Export Plug-In . SVG Version: 6.00 Build 0)  -->
<svg version="1.1" id="Layer_1" xmlns="http://www.w3.org/2000/svg" xmlns:xlink="http://www.w3.org/1999/xlink" x="0px" y="0px"
	 viewBox="0 0 16 16" style="enable-background:new 0 0 16 16;" xml:space="preserve">
<style type="text/css">
	.st0{fill:#FFFFFF;stroke:#000000;stroke-width:0.25;stroke-miterlimit:10;}
</style>
<title>favicon</title>
<path d="M1.1,0h13.8C15.5,0,16,0.5,16,1.1v13.8c0,0.6-0.5,1.1-1.1,1.1H1.1C0.5,16,0,15.5,0,14.9V1.1C0,0.5,0.5,0,1.1,0z"/>
<path class="st0" d="M1.6,11.7c-0.1,0-0.1,0-0.2-0.1c0,0-0.1-0.1,0-0.2l0.7-5.8c0,0,0.1-0.8,0.7-0.9c0.1-0.1,0.3-0.1,0.5,0
	C3.5,4.8,3.8,5,3.9,5.2l1.7,5.8c0.1,0.2,0.1,0.3,0,0.5c-0.1,0.1-0.2,0.2-0.4,0.3c-0.3,0-0.5-0.2-0.7-0.5L3.1,6.9l-0.5,4.6
	c0,0.1-0.1,0.2-0.2,0.2c0,0,0,0,0,0L1.6,11.7z M5.4,7.6L6.7,5C6.8,4.9,6.9,4.8,7,4.8c0.2-0.1,0.4,0,0.5,0.2C7.6,5,7.6,5.1,7.6,5.2
	L6.2,8C6.1,8.1,6,8.2,5.9,8.2c-0.1,0-0.3,0-0.4-0.2C5.4,7.9,5.4,7.8,5.4,7.6z M14.6,7.6c0-0.2-0.3-1.5-1.6-2.3
	C12.7,5,12.4,4.9,12,4.8c0,0-0.1,0-0.2,0c-0.1,0,0,0-0.2,0H9.5c-0.1,0-0.1,0-0.2,0c-0.1,0-0.1,0.1-0.1,0.2c-0.1,0.2-1.3,2.9-3,6.6
	c0,0,0,0.1,0,0.1c0,0,0,0.1,0.1,0.1l0.9,0c0,0,0.1,0,0.1,0c0,0,0.1-0.1,0.1-0.1l3.1-5.9h0.8c0.5,0.1,1,0.3,1.4,0.7
	c0.8,0.8,0.7,1.8,0.7,2s-0.1,1.3-1,2c-0.3,0.2-0.6,0.3-0.9,0.4h-3c-0.2,0-0.4,0.2-0.5,0.4c-0.1,0.2,0,0.4,0.1,0.6
	c0.1,0.1,0.2,0.1,0.3,0.2c1.3,0,2.3,0,3,0c0.2,0,0.5,0,0.7-0.1c1-0.3,1.6-1,1.7-1.2C14.9,9.2,14.6,7.7,14.6,7.6z M5.6,9.6l2.3-4.9
	C8,4.5,8.1,4.2,8.4,4.2c0,0,0.4-0.1,0.5,0.2c0.1,0.1,0.1,0.3,0,0.5L6.6,9.9c-0.1,0.2-0.2,0.3-0.4,0.4c-0.1,0-0.3,0.1-0.5,0
	c-0.1-0.1-0.2-0.1-0.2-0.2C5.4,9.8,5.6,9.6,5.6,9.6z"/>
</svg>
