<svg id="line" enable-background="new 0 0 36 36" height="512" viewBox="0 0 36 36" width="512" xmlns="http://www.w3.org/2000/svg"><path d="m27.623 4.167c-6.917 0-11.667-3.583-15-3.583s-10.333 1.916-10.333 17.249 9.417 17.583 13.083 17.583c17.167.001 24.5-31.249 12.25-31.249z" fill="#efefef"/><g fill="#EF2929"><path d="m27.967 1.967h1v2h-1z" transform="matrix(.707 -.707 .707 .707 6.237 20.994)"/><path d="m32.033 6.033h1v2h-1z" transform="matrix(.707 -.707 .707 .707 4.553 25.06)"/><path d="m31.356 2.467h2v1h-2z" transform="matrix(.707 -.707 .707 .707 7.379 23.749)"/></g><path d="m8.5 27.25c0 1.1.9 2 2 2h16.75c1.1 0 2-.9 2-2v-18.5c0-1.1-.9-2-2-2h-16.75c-1.1 0-2 .9-2 2z" fill="#f3f3f1"/><path d="m6.75 11.75h3.5v2.5h-3.5z" fill="#EF2929"/><path d="m6.75 21.75h3.5v2.5h-3.5z" fill="#EF2929"/><path d="m19 12.75c-2.899 0-5.25 2.351-5.25 5.25s2.351 5.25 5.25 5.25 5.25-2.351 5.25-5.25-2.351-5.25-5.25-5.25zm0 7.75c-1.381 0-2.5-1.119-2.5-2.5s1.119-2.5 2.5-2.5 2.5 1.119 2.5 2.5-1.119 2.5-2.5 2.5z" fill="#EF2929"/><path d="m6.75 11.75h2.25v2.5h-2.25z" fill="#941E1E"/><path d="m6.75 21.75h2.25v2.5h-2.25z" fill="#941E1E"/><path d="m16 18c0-2.512 1.767-4.607 4.125-5.122-.363-.08-.738-.128-1.125-.128-2.899 0-5.25 2.351-5.25 5.25s2.351 5.25 5.25 5.25c.387 0 .762-.048 1.125-.128-2.358-.515-4.125-2.61-4.125-5.122z" fill="#941E1E"/><path d="m10.75 27.25v-18.5c0-1.1.9-2 2-2h-2.25c-1.1 0-2 .9-2 2v3h1.75v2.5h-1.75v7.5h1.75v2.5h-1.75v3c0 1.1.9 2 2 2h2.25c-1.1 0-2-.9-2-2z" fill="#d5dbe1"/><path d="m15.549 13.868h1.5v2.862h-1.5z" transform="matrix(.707 -.707 .707 .707 -6.044 16.003)"/><path d="m13.75 17.25h2.863v1.5h-2.863z"/><path d="m19 24c-1.604 0-3.111-.624-4.243-1.756-1.133-1.133-1.757-2.64-1.757-4.244s.624-3.111 1.757-4.244c1.132-1.132 2.639-1.756 4.243-1.756s3.111.624 4.243 1.756c1.133 1.133 1.757 2.64 1.757 4.244s-.624 3.111-1.757 4.244c-1.132 1.132-2.639 1.756-4.243 1.756zm0-10.5c-1.203 0-2.334.468-3.183 1.317-.85.85-1.317 1.98-1.317 3.183s.468 2.333 1.317 3.183c.849.849 1.98 1.317 3.183 1.317s2.334-.468 3.183-1.317c.85-.85 1.317-1.98 1.317-3.183s-.468-2.333-1.317-3.183c-.849-.849-1.98-1.317-3.183-1.317zm0 7.636c-.828 0-1.638-.334-2.22-.917-.592-.591-.917-1.379-.917-2.22s.325-1.628.917-2.22c1.164-1.165 3.275-1.165 4.439 0 .592.591.917 1.379.917 2.22s-.325 1.628-.917 2.22c-.581.583-1.391.917-2.219.917zm0-4.772c-.434 0-.855.174-1.159.477-.308.308-.478.72-.478 1.159s.17.851.478 1.159c.607.606 1.711.606 2.318 0 .308-.308.478-.72.478-1.159s-.17-.851-.478-1.159c-.304-.303-.725-.477-1.159-.477z"/><path d="m18.25 20.386h1.5v2.864h-1.5z"/><path d="m18.25 12.75h1.5v2.864h-1.5z"/><path d="m20.951 19.27h1.5v2.862h-1.5z" transform="matrix(.707 -.707 .707 .707 -8.282 21.405)"/><path d="m21.387 17.25h2.863v1.5h-2.863z"/><path d="m20.27 14.549h2.862v1.5h-2.862z" transform="matrix(.707 -.707 .707 .707 -4.462 19.826)"/><path d="m14.868 19.951h2.862v1.5h-2.862z" transform="matrix(.707 -.707 .707 .707 -9.864 17.588)"/><path d="m27.25 30h-16.75c-1.517 0-2.75-1.233-2.75-2.75v-2.5h1.5v2.5c0 .689.561 1.25 1.25 1.25h16.75c.689 0 1.25-.561 1.25-1.25v-18.5c0-.689-.561-1.25-1.25-1.25h-16.75c-.689 0-1.25.561-1.25 1.25v2.5h-1.5v-2.5c0-1.517 1.233-2.75 2.75-2.75h16.75c1.517 0 2.75 1.233 2.75 2.75v18.5c0 1.517-1.233 2.75-2.75 2.75z"/><path d="m7.75 14.75h1.5v6.5h-1.5z"/><path d="m10.25 15h-3.5c-.414 0-.75-.336-.75-.75v-2.5c0-.414.336-.75.75-.75h3.5c.414 0 .75.336.75.75v2.5c0 .414-.336.75-.75.75zm-2.75-1.5h2v-1h-2z"/><path d="m10.25 25h-3.5c-.414 0-.75-.336-.75-.75v-2.5c0-.414.336-.75.75-.75h3.5c.414 0 .75.336.75.75v2.5c0 .414-.336.75-.75.75zm-2.75-1.5h2v-1h-2z"/><path d="m2 28.5h32v1.5h-32z"/></svg>