<svg xmlns="http://www.w3.org/2000/svg" opacity=".7" viewBox="0 0 36 36"><path d="M20.9.4c-6.6 0-12.1 1.5-14 3.8-3.8.9-6 2.5-6.4 4.1 0 .1-.1.2-.1.3v21.7c0 .1 0 .2.1.3.7 2.9 6.9 5 14.6 5 6.6 0 12.1-1.6 14-3.8 3.7-.9 6.1-2.4 6.5-4.1 0-.1.1-.2.1-.3V6C35.6 3.3 30.5.4 20.9.4zm7.6 23.1c0 .1-.1.1-.1.2s-.1.1-.1.2-.1.1-.1.2c-.1.1-.1.2-.2.2 0 0-.1.1-.2.1l-.3.3s-.1.1-.2.1c-.1.1-.3.2-.4.3 0 0-.1 0-.1.1l-.6.3h-.1c-.2.1-.5.2-.7.3-1.3.5-3 1-5 1.3-.4.1-.8.1-1.2.2H19c-.4 0-.7.1-1.1.1h-5.4c-.4 0-.7-.1-1.1-.1h-.2c-.4 0-.8-.1-1.2-.2-2-.3-3.7-.7-5-1.3-.2-.1-.5-.2-.7-.3h-.1l-.6-.3s-.1 0-.1-.1c-.4-.1-.5-.2-.6-.3-.1 0-.1-.1-.2-.1l-.3-.3c-.1 0-.1-.1-.2-.1 0-.1-.1-.2-.2-.3 0 0 0-.1-.1-.1-.1-.1-.1-.1-.1-.2s-.1-.1-.1-.2-.1-.1-.1-.2v-5.2h.1c.1.1.3.2.4.3 2.2 1.7 6.6 3 13.1 3 6.4 0 10.8-1.3 13-3 .2-.1.3-.3.5-.4v5.2c-.1.2-.2.2-.2.3zM1.9 11.4c.2.1.4.3.6.4l.1.1c.2.1.4.2.5.3.1 0 .1.1.2.1.2.1.4.2.7.3 0 0 .1 0 .1.1l.9.3c.1 0 .2.1.3.1.2.1.5.2.8.2.1 0 .2.1.3.1.3.1.7.2 1.1.3h.2c.3.1.7.1 1 .2.1 0 .2 0 .4.1.3.1.7.1 1 .2h.3c.4.1.9.1 1.4.1h.4c.4 0 .8 0 1.1.1h4c.4 0 .8 0 1.1-.1h.4c.5 0 .9-.1 1.4-.1h.3c.4 0 .7-.1 1-.2.1 0 .2 0 .4-.1.4-.1.7-.1 1-.2h.2c.4-.1.7-.2 1.1-.3.1 0 .2-.1.3-.1.3-.1.5-.2.8-.2.1 0 .2-.1.3-.1l.9-.3s.1 0 .1-.1c.2-.1.5-.2.7-.3.1 0 .1-.1.2-.1.2-.1.4-.2.5-.3l.1-.1c.2-.1.4-.3.6-.4l.1-.1c.1-.1.2-.1.2-.2v5.2c0 .1 0 .1-.1.2 0 .1-.1.1-.1.2s-.1.1-.1.2-.1.1-.1.2c-.1.1-.1.2-.2.2 0 0-.1.1-.2.1l-.3.3s-.1.1-.2.1c-.1.1-.3.2-.4.3 0 0-.1 0-.1.1l-.6.3h-.1c-.2.1-.5.2-.7.3-1.3.5-3 1-5 1.3-.4.1-.8.1-1.2.2h-.2c-.4 0-.7.1-1.1.1h-5.4c-.4 0-.7-.1-1.1-.1h-.2c-.4 0-.8-.1-1.2-.2-2-.3-3.7-.7-5-1.3-.2-.1-.5-.2-.7-.3h-.1l-.6-.3s-.1 0-.1-.1c-.2-.1-.3-.2-.4-.3-.1 0-.1-.1-.2-.1l-.3-.3c-.1 0-.1-.1-.2-.1-.7-.2-.8-.2-.8-.3s-.1-.1-.1-.2c-.1-.1-.1-.1-.1-.2s-.1-.1-.1-.2-.1-.1-.1-.2V11c.1.1.2.1.2.2s0 .2.1.2zm27.9 11.9v-5.8c.3-.1.5-.1.8-.2 1.7-.5 3-1.2 3.9-2v5.2c0 .1 0 .1-.1.2-.5.9-2 1.9-4.2 2.6h-.4zm4.6-15.1v5.2c0 .1 0 .1-.1.2-.5.9-2 1.9-4.2 2.6-.1 0-.2.1-.3.1v-5.9h.1c.1 0 .3-.1.4-.1s.2-.1.3-.1.3-.1.4-.1.2-.1.3-.1a.76.76 0 0 0 .4-.2c.1 0 .2-.1.2-.1.1-.1.3-.1.4-.2.1 0 .1 0 .2-.1.2-.1.4-.2.5-.3h.1c.2-.1.3-.2.4-.3l.1-.1c.1-.1.2-.1.3-.2.1 0 .1-.1.1-.1.2 0 .3-.1.4-.2 0 .1 0 .1 0 0zM20.9 1.6c8 0 13.5 2.3 13.5 4.4v.6s0 .1-.1.1c0 0 0 .1-.1.1l-.6.6c-.1 0-.1.1-.2.1l-.1.1c-.1 0-.1.1-.2.1l-.1.1c-.1 0-.1.1-.2.1 0 0-.1.1-.2.1s-.2.1-.2.1c-.1 0-.1.1-.2.1s-.2.1-.3.1-.1 0-.2.1-.3.1-.4.2h-.1c-.2.1-.3.1-.5.2h-.1c-.1 0-.3.1-.4.1s-.1 0-.2.1c-.1 0-.2.1-.3.1v-.8c-.2-.7-.7-1.3-1.4-1.9-.1-.1-.2-.2-.3-.2-2.2-1.5-6-2.7-11.4-2.9h-3c-1.5 0-2.8.2-4 .3 2.2-1.1 6.2-2 11.3-2zM8.3 5.1c.1 0 .3-.1.5-.1.1 0 .3 0 .5-.1.2 0 .4-.1.5-.1.2 0 .4-.1.6-.1s.3 0 .5-.1c.4 0 .7-.1 1.1-.1h5.7c.4 0 .7.1 1.1.1h.2c.4 0 .8.1 1.2.1h.1c2 .3 3.7.7 5 1.3.2.1.5.2.7.3h.1c.2.1.4.2.5.3l.1.1c.3.2.4.3.6.4.1 0 .1.1.2.1.1.1.2.2.3.2s.1.1.2.1c0 .2 0 .3.1.3 0 .1.1.1.1.2.1.1.1.1.1.2s.1.1.1.2.1.1.1.2v.3c0 2.1-5.5 4.4-13.5 4.4S1.6 11 1.6 8.9c0-1.4 2.5-3 6.7-3.8zm6.8 29.4c-7.7 0-13.2-2.2-13.5-4.2v-5h.1c.1.1.3.2.4.3 2.2 1.7 6.6 3 13.1 3 6.4 0 10.8-1.3 13-3 .2-.1.3-.3.5-.4v5c0 .1-.1.2-.1.4l-.1.1c-1.2 1.9-6.4 3.8-13.4 3.8zm19.3-7.2c-.2 1.1-1.9 2.3-4.7 3.1v-5.8c.3-.1.5-.1.8-.2 1.7-.5 3-1.2 3.9-2v4.9c0-.1 0 0 0 0z" fill="#1f2835"/></svg>