<svg id="LINE" enable-background="new 0 0 36 36" height="512" viewBox="0 0 36 36" width="512" xmlns="http://www.w3.org/2000/svg"><g><path d="m8.114 5.564c-1.805 6.677-6.504 10.327-7.374 13.545s-.847 10.475 13.955 14.477 19.432-4.501 20.388-8.041c4.481-16.572-23.772-31.807-26.969-19.981z" fill="#efefef"/></g><g><path d="m12.118 4.663h2v1h-2z" fill="#EF2929" transform="matrix(.707 -.707 .707 .707 .191 10.788)"/></g><g><path d="m8.052 8.729h2v1h-2z" fill="#EF2929" transform="matrix(.707 -.707 .707 .707 -3.875 9.104)"/></g><g><path d="m8.552 3.986h1v2h-1z" fill="#EF2929" transform="matrix(.707 -.707 .707 .707 -.875 7.861)"/></g><g><path d="m32.228 29.75c-.827 0-1.5-.673-1.5-1.5s.673-1.5 1.5-1.5 1.5.673 1.5 1.5-.673 1.5-1.5 1.5zm0-2c-.276 0-.5.224-.5.5s.224.5.5.5.5-.224.5-.5-.225-.5-.5-.5z" fill="#EF2929"/></g><g><path d="m13.622 17.532-4.872 8.765 3.585-.277 1.59 3.23 4.04-7.17z" fill="#f3f3f1"/></g><g><path d="m22.31 17.541 4.94 8.76-3.645-.281-1.6 3.23-4.04-7.17-1.778-3.137z" fill="#f3f3f1"/></g><g><path d="m19.965 22.08-1.778-3.137 4.352-.997-.229-.405-6.123 1.402 1.778 3.137 4.04 7.17.936-1.889z" fill="#d5dbe1"/></g><g><path d="m14.886 18.856-1.264-1.324-4.872 8.765 2.09-.161z" fill="#d5dbe1"/></g><g><circle cx="18" cy="13" fill="#EF2929" r="6.25"/></g><g><circle cx="18" cy="13.001" fill="#f3f3f1" r="3.25"/></g><g><path d="m16.75 13.001c0-1.444.948-2.653 2.25-3.077-.317-.103-.649-.173-1-.173-1.795 0-3.25 1.455-3.25 3.25s1.455 3.25 3.25 3.25c.351 0 .683-.07 1-.173-1.302-.424-2.25-1.634-2.25-3.077z" fill="#d5dbe1"/></g><g><path d="m13.75 13c0-3.111 2.275-5.683 5.25-6.163-.326-.053-.659-.087-1-.087-3.452 0-6.25 2.798-6.25 6.25s2.798 6.25 6.25 6.25c.341 0 .674-.035 1-.087-2.975-.48-5.25-3.052-5.25-6.163z" fill="#941E1E"/></g><g><path d="m18 17c-2.206 0-4-1.794-4-4s1.794-4 4-4 4 1.794 4 4-1.794 4-4 4zm0-6.5c-1.378 0-2.5 1.122-2.5 2.5s1.122 2.5 2.5 2.5 2.5-1.122 2.5-2.5-1.122-2.5-2.5-2.5z"/></g><g><path d="m13.925 30c-.007 0-.014 0-.021 0-.278-.007-.529-.168-.652-.418l-1.366-2.774-3.079.237c-.274.02-.54-.11-.689-.343s-.158-.528-.024-.769l4.873-8.765 1.311.729-4.195 7.546 2.194-.169c.305-.027.595.142.73.417l.962 1.954 3.342-5.931 1.307.736-4.04 7.17c-.133.234-.383.38-.653.38z"/></g><g><path d="m22.005 30c-.271 0-.52-.146-.653-.382l-5.816-10.306 1.305-.739 5.123 9.073.971-1.959c.136-.274.417-.448.729-.415l2.244.172-4.25-7.536 1.307-.737 4.94 8.76c.136.241.128.538-.021.771s-.411.371-.69.345l-3.14-.242-1.375 2.776c-.123.249-.374.409-.652.417-.009.002-.016.002-.022.002z"/></g><g><path d="m17.989 20c-1.068 0-2.151-.245-3.167-.762-3.439-1.752-4.812-5.976-3.06-9.415 1.752-3.44 5.977-4.811 9.415-3.06.47.24.912.531 1.314.867l-.961 1.151c-.316-.264-.665-.493-1.035-.682-2.7-1.376-6.019-.299-7.395 2.404-1.377 2.703-.299 6.021 2.403 7.397 2.703 1.375 6.021.299 7.397-2.403.796-1.563.807-3.363.029-4.938l1.345-.664c.975 1.974.961 4.323-.037 6.283-1.235 2.425-3.698 3.822-6.248 3.822z"/></g></svg>