<svg xmlns="http://www.w3.org/2000/svg" viewBox="0 0 36 36" opacity=".7" fill="#1f2835"><path d="M34.2 25.3H1.8A1.79 1.79 0 0 1 0 23.5V6a1.79 1.79 0 0 1 1.8-1.8h32.3C35.2 4.2 36 5 36 6v17.4c0 1-.8 1.9-1.8 1.9zM1.5 6v17.4c0 .2.2.4.4.4h32.4c.2 0 .4-.2.4-.4V6c0-.2-.2-.4-.4-.4H1.8c-.2 0-.3.2-.3.4zm12.2 13.7v-10c0-.2.1-.4.2-.5.3-.3.7-.3 1-.1l7 5c.2.1.3.4.3.6s-.1.5-.3.6l-7 5c-.1.1-.4.3-.8 0-.2-.1-.4-.4-.4-.6zm1.5-8.6v7.1l5-3.5-5-3.6zm20 18.3H21.1c-.3-1.2-1.5-2.2-2.8-2.2-1.4 0-2.5.9-2.8 2.2H.8c-.4 0-.7.3-.8.7 0 .4.3.8.7.8h14.6c.3 1.2 1.5 2.2 2.8 2.2 1.4 0 2.5-.9 2.8-2.2h14.2c.4 0 .8-.4.7-.8.2-.4-.2-.7-.6-.7zm-17 2.2a1.54 1.54 0 0 1-1.5-1.5 1.54 1.54 0 0 1 1.5-1.5 1.54 1.54 0 0 1 1.5 1.5 1.47 1.47 0 0 1-1.5 1.5z"/></svg>