<svg xmlns="http://www.w3.org/2000/svg" xmlns:xlink="http://www.w3.org/1999/xlink" viewBox="0 0 36 36"><g fill="#1f2835"><path d="M34.6 2.8H31V.5a.47.47 0 0 0-.5-.5h-2c-.2 0-.5.2-.5.5s.2.6.5.6h1.4v6H17.2v-6H26a.47.47 0 0 0 .5-.5c.1-.3-.1-.6-.5-.6h-9.4a.47.47 0 0 0-.5.5v2.2h-2.6c-.5-.8-1.4-1.3-2.4-1.3H3.9c-1.5 0-2.8 1.2-2.8 2.8 0 .1.8 9.3.9 13.5a.47.47 0 0 0 .5.5c.3 0 .5-.3.5-.5 0-4.1-.8-13-.8-13.5 0-.9.8-1.7 1.7-1.7h7.3c.9 0 1.7.8 1.7 1.7-.1.7-.9 11-.9 14.5s.9 13.8.9 14.5c0 .9-.8 1.7-1.7 1.7H3.9c-.9 0-1.7-.8-1.7-1.7 0-.5.7-8.8.9-13.1a.47.47 0 0 0-.5-.5.47.47 0 0 0-.5.5c-.2 4.4-.9 13-.9 13.1C1 34.7 2.3 36 3.8 36h7.4c1 0 1.9-.5 2.4-1.3h15.1a.47.47 0 0 0 .5-.5c0-.3-.2-.6-.5-.6H14v-.4c0-.1-.9-10.9-.9-14.5 0-1.3.1-3.4.3-5.7h20.7v20.6h-2.9a.47.47 0 0 0-.5.5c0 .3.2.6.5.6h3.5a.47.47 0 0 0 .5-.5V3.3c-.1-.3-.3-.5-.6-.5zm-.5 9.2H13.5l.6-7.7v-.4h2.1v3.8a.47.47 0 0 0 .5.5h13.8a.47.47 0 0 0 .5-.5V3.8h3V12z" opacity=".7"/><use xlink:href="#B" opacity=".7"/><use xlink:href="#C" opacity=".7"/><use xlink:href="#D" opacity=".7"/><use xlink:href="#B" y="4.3" opacity=".7"/><use xlink:href="#C" y="4.3" opacity=".7"/><use xlink:href="#D" y="4.3" opacity=".7"/><path d="M30.4 23.8h-1.8c-1 0-1.8.8-1.7 1.8.1.9.8 1.5 1.6 1.5h1.8c1 0 1.8-.8 1.7-1.8 0-.9-.8-1.5-1.6-1.5zm0 2.2h-1.8c-.3 0-.6-.2-.6-.6a.65.65 0 0 1 .6-.6h1.8c.3 0 .6.2.6.6a.65.65 0 0 1-.6.6zm-5.9-2.2h-1.8c-1 0-1.8.8-1.7 1.8.1.9.8 1.5 1.6 1.5h1.8c1 0 1.8-.8 1.7-1.8 0-.9-.7-1.5-1.6-1.5zm0 2.2h-1.8c-.3 0-.6-.2-.6-.6a.65.65 0 0 1 .6-.6h1.8c.3 0 .6.2.6.6a.65.65 0 0 1-.6.6z" opacity=".7"/><path d="M18.7 23.8h-1.8c-1 0-1.8.8-1.7 1.8.1.9.8 1.5 1.6 1.5h1.8c1 0 1.8-.8 1.7-1.8-.1-.9-.8-1.5-1.6-1.5zm-.1 2.2h-1.8c-.3 0-.6-.2-.6-.6a.65.65 0 0 1 .6-.6h1.8c.3 0 .6.2.6.6.1.3-.2.6-.6.6zm11.8 2h-1.8c-1 0-1.8.8-1.7 1.8.1.9.8 1.5 1.6 1.5h1.8c1 0 1.8-.8 1.7-1.8 0-.8-.8-1.5-1.6-1.5zm0 2.3h-1.8c-.3 0-.6-.2-.6-.6a.65.65 0 0 1 .6-.6h1.8c.3 0 .6.2.6.6a.65.65 0 0 1-.6.6zM24.5 28h-1.8c-1 0-1.8.8-1.7 1.8.1.9.8 1.5 1.6 1.5h1.8c1 0 1.8-.8 1.7-1.8 0-.8-.7-1.5-1.6-1.5zm0 2.3h-1.8c-.3 0-.6-.2-.6-.6a.65.65 0 0 1 .6-.6h1.8c.3 0 .6.2.6.6a.65.65 0 0 1-.6.6zM18.7 28h-1.8c-1 0-1.8.8-1.7 1.8.1.9.8 1.5 1.6 1.5h1.8c1 0 1.8-.8 1.7-1.8-.1-.8-.8-1.5-1.6-1.5zm-.1 2.3h-1.8c-.3 0-.6-.2-.6-.6a.65.65 0 0 1 .6-.6h1.8c.3 0 .6.2.6.6.1.3-.2.6-.6.6zm-.3-21h-1.5a.47.47 0 0 0-.5.5c0 .3.2.6.5.6h1.5a.47.47 0 0 0 .5-.5c0-.3-.2-.6-.5-.6zm4 0h-1.5a.47.47 0 0 0-.5.5c0 .3.2.6.5.6h1.5a.47.47 0 0 0 .5-.5c.1-.3-.2-.6-.5-.6zm4.1 0h-1.5a.47.47 0 0 0-.5.5c0 .3.2.6.5.6h1.5a.47.47 0 0 0 .5-.5c0-.3-.2-.6-.5-.6zm4 0h-1.5a.47.47 0 0 0-.5.5c0 .3.2.6.5.6h1.5a.47.47 0 0 0 .5-.5c.1-.3-.2-.6-.5-.6z" opacity=".7"/></g><defs ><path id="B" d="M30.4 15.2h-1.8c-1 0-1.8.8-1.7 1.8.1.9.8 1.5 1.6 1.5h1.8c1 0 1.8-.8 1.7-1.8 0-.8-.8-1.5-1.6-1.5zm0 2.2h-1.8c-.3 0-.6-.2-.6-.6a.65.65 0 0 1 .6-.6h1.8c.3 0 .6.2.6.6a.65.65 0 0 1-.6.6z"/><path id="C" d="M24.5 15.2h-1.8c-1 0-1.8.8-1.7 1.8.1.9.8 1.5 1.6 1.5h1.8c1 0 1.8-.8 1.7-1.8 0-.8-.7-1.5-1.6-1.5zm0 2.2h-1.8c-.3 0-.6-.2-.6-.6a.65.65 0 0 1 .6-.6h1.8c.3 0 .6.2.6.6a.65.65 0 0 1-.6.6z"/><path id="D" d="M18.7 15.2h-1.8c-1 0-1.8.8-1.7 1.8.1.9.8 1.5 1.6 1.5h1.8c1 0 1.8-.8 1.7-1.8-.1-.8-.8-1.5-1.6-1.5zm-.1 2.2h-1.8c-.3 0-.6-.2-.6-.6a.65.65 0 0 1 .6-.6h1.8c.3 0 .6.2.6.6.1.3-.2.6-.6.6z"/></defs></svg>