<svg xmlns="http://www.w3.org/2000/svg" opacity=".7" viewBox="0 0 32 32" fill="#1f2835"><path d="M5.6 3.7c-1.3 0-2.4 1.1-2.4 2.4s1.1 2.4 2.4 2.4S8 7.5 8 6.1 6.9 3.7 5.6 3.7zm0 3.8c-.7 0-1.3-.6-1.3-1.3s.6-1.3 1.3-1.3 1.3.6 1.3 1.3-.6 1.3-1.3 1.3z"/><circle cx="26.7" cy="5.3" r=".5"/><circle cx="24.5" cy="5.3" r=".5"/><circle cx="27.7" cy="6.9" r=".5"/><circle cx="25.6" cy="6.9" r=".5"/><circle cx="22.4" cy="5.3" r=".5"/><circle cx="23.5" cy="6.9" r=".5"/><circle cx="20.3" cy="5.3" r=".5"/><circle cx="21.3" cy="6.9" r=".5"/><circle cx="18.1" cy="5.3" r=".5"/><circle cx="19.2" cy="6.9" r=".5"/><path d="M32 9.3V3C32 1.6 30.9.5 29.5.5h-27C1.1.5 0 1.6 0 3v6.3c0 .8.4 1.5.9 1.9-.5.5-.9 1.1-.9 1.9v6.3c0 1.4 1.1 2.5 2.5 2.5h13v4.3c-1 .2-1.9 1-2.1 2.1H.5a.47.47 0 0 0-.5.5.47.47 0 0 0 .5.5h12.9c.2 1.2 1.3 2.1 2.6 2.1s2.4-.9 2.6-2.1h12.9a.47.47 0 0 0 .5-.5.47.47 0 0 0-.5-.5H18.6c-.2-1-1-1.9-2.1-2.1v-4.3h13c1.4 0 2.5-1.1 2.5-2.5v-6.3c0-.8-.4-1.5-.9-1.9.5-.5.9-1.1.9-1.9zM17.6 28.8a1.58 1.58 0 0 1-1.6 1.6 1.58 1.58 0 0 1-1.6-1.6 1.58 1.58 0 0 1 1.6-1.6 1.58 1.58 0 0 1 1.6 1.6zm13.3-15.7v6.3c0 .8-.6 1.4-1.4 1.4h-27c-.8 0-1.4-.6-1.4-1.4v-6.3c0-.8.6-1.4 1.4-1.4h27.1c.7 0 1.3.7 1.3 1.4zM2.5 10.7c-.8 0-1.4-.6-1.4-1.4V3c0-.8.6-1.4 1.4-1.4h27.1c.8 0 1.4.6 1.4 1.4v6.3c0 .8-.6 1.4-1.4 1.4H2.5zm3.1 8c1.3 0 2.4-1.1 2.4-2.4s-1.1-2.4-2.4-2.4-2.4 1.1-2.4 2.4 1.1 2.4 2.4 2.4zm0-3.8c.7 0 1.3.6 1.3 1.3s-.6 1.3-1.3 1.3-1.3-.5-1.3-1.2.6-1.4 1.3-1.4z"/><circle cx="26.7" cy="15.5" r=".5"/><circle cx="24.5" cy="15.5" r=".5"/><circle cx="27.7" cy="17.1" r=".5"/><circle cx="25.6" cy="17.1" r=".5"/><circle cx="22.4" cy="15.5" r=".5"/><circle cx="23.5" cy="17.1" r=".5"/><circle cx="20.3" cy="15.5" r=".5"/><circle cx="21.3" cy="17.1" r=".5"/><circle cx="18.1" cy="15.5" r=".5"/><circle cx="19.2" cy="17.1" r=".5"/></svg>