<svg xmlns="http://www.w3.org/2000/svg" viewBox="0 0 36 36" opacity=".7" fill="#1f2835"><path d="M1.2 1.2v33.6h33.6V1.2H1.2zm32.5 32.5H2.3V6.8h31.4v26.9zm0-28H2.3V2.3h31.4v3.4zM3.4 3.4h1.1v1.1H3.4zm2.3 0h1.1v1.1H5.7zm2.2 0H9v1.1H7.9zm23.5 0h1.1v1.1h-1.1zm0 5.6H4.6v5.6h26.9V9zm-1.1 4.5H5.7v-3.4h24.6v3.4zm-16.2 9h7.8v-5.6h-7.8v5.6zm1.1-4.5h5.6v3.4h-5.6V18zm-2.8-1.1H4.6v5.6h7.8v-5.6zm-1.1 4.5H5.7V18h5.6v3.4zm12.3 1.1h7.8v-5.6h-7.8v5.6zm1.1-4.5h5.6v3.4h-5.6V18zM4.6 24.7h1.1v1.1H4.6zm2.2 0h5.6v1.1H6.8zM4.6 27h7.8v1.1H4.6zm0 2.2h7.8v1.1H4.6zm9.5-4.5h1.1v1.1h-1.1zm2.2 0h5.6v1.1h-5.6zM14.1 27h7.8v1.1h-7.8zm0 2.2h7.8v1.1h-7.8zm9.5-4.5h1.1v1.1h-1.1zm2.2 0h5.6v1.1h-5.6zM23.6 27h7.8v1.1h-7.8zm0 2.2h7.8v1.1h-7.8z"/></svg>