<svg xmlns="http://www.w3.org/2000/svg" opacity=".7" viewBox="0 0 36 36" fill="#1f2835"><path d="M22.1 4.2a.68.68 0 0 0-.7.7.68.68 0 0 0 .7.7.68.68 0 0 0 .7-.7.68.68 0 0 0-.7-.7zM11 3.9a.68.68 0 0 0-.7.7.68.68 0 0 0 .7.7.68.68 0 0 0 .7-.7.68.68 0 0 0-.7-.7zm-2.8 0a.68.68 0 0 0-.7.7.68.68 0 0 0 .7.7.68.68 0 0 0 .7-.7c0-.4-.4-.7-.7-.7zm-2.9 0c-.3 0-.7.4-.7.7 0 .4.4.7.7.7S6 5 6 4.6a.68.68 0 0 0-.7-.7zm28.3-2.4H2.4C1.3 1.5.3 2.4.3 3.6v28.9c0 1.1.9 2.1 2.1 2.1h31.1c1.1 0 2.1-.9 2.1-2.1v-29c0-1.1-.9-2-2-2zm.6 31a.68.68 0 0 1-.7.7H2.4a.68.68 0 0 1-.7-.7V8.4h32.5v24.1zm0-25.5H1.8V3.5a.68.68 0 0 1 .7-.7h31.1a.68.68 0 0 1 .7.7V7zM23.1 18.2h-.6v-1.9a4.48 4.48 0 0 0-4.5-4.5 4.48 4.48 0 0 0-4.5 4.5v1.9h-.6c-1.1 0-1.9.9-1.9 1.9v7.7c0 1.1.9 1.9 1.9 1.9h10.2c1.1 0 1.9-.9 1.9-1.9v-7.7c0-1-.8-1.9-1.9-1.9zm-8.3-1.9c0-1.8 1.4-3.2 3.2-3.2s3.2 1.4 3.2 3.2v1.9h-6.4v-1.9zm9 11.5c0 .4-.3.6-.6.6H12.9c-.4 0-.6-.3-.6-.6v-7.7c0-.4.3-.6.6-.6h10.2c.4 0 .6.3.6.6v7.7zm7-23.6h-5.9a.68.68 0 0 0-.7.7.68.68 0 0 0 .7.7h5.9a.68.68 0 0 0 .7-.7.68.68 0 0 0-.7-.7zM18 20.8c-1.1 0-2.1.9-2.1 2.1 0 .9.6 1.7 1.4 1.9V27a.68.68 0 0 0 .7.7.68.68 0 0 0 .7-.7v-2.2c.8-.3 1.4-1 1.4-1.9 0-1.2-1-2.1-2.1-2.1zm0 2.7a.68.68 0 0 1-.7-.7.68.68 0 0 1 .7-.7.68.68 0 0 1 .7.7.68.68 0 0 1-.7.7z"/></svg>