<svg id="_x31__x2C_5" enable-background="new 0 0 36 36" height="512" viewBox="0 0 36 36" width="512" xmlns="http://www.w3.org/2000/svg"><g><path d="m4.167 8.377c0 6.917-3.583 11.667-3.583 15s1.916 10.333 17.249 10.333 17.583-9.417 17.583-13.083c.001-17.167-31.249-24.5-31.249-12.25z" fill="#efefef"/></g><g><path d="m30.944 2.467h2v1h-2z" fill="#EF2929" transform="matrix(.707 -.707 .707 .707 7.258 23.457)"/></g><g><path d="m26.878 6.533h2v1h-2z" fill="#EF2929" transform="matrix(.707 -.707 .707 .707 3.192 21.773)"/></g><g><path d="m31.621 6.033h1v2h-1z" fill="#EF2929" transform="matrix(.707 -.707 .707 .707 4.435 24.773)"/></g><g><path d="m27.555 1.967h1v2h-1z" fill="#EF2929" transform="matrix(.707 -.707 .707 .707 6.119 20.707)"/></g><g><path d="m27.25 29.25h-13.5c-1.105 0-2-.895-2-2v-10h17.5v10c0 1.105-.895 2-2 2z" fill="#f3f3f1"/></g><g><path d="m29.25 17.25h-17.5v-1.5c0-1.105.895-2 2-2h13.5c1.105 0 2 .895 2 2z" fill="#EF2929"/></g><g><path d="m22.25 22.25h-13.5c-1.105 0-2-.895-2-2v-10h17.5v10c0 1.105-.895 2-2 2z" fill="#f3f3f1"/></g><g><path d="m24.25 10.25h-17.5v-1.5c0-1.105.895-2 2-2h13.5c1.105 0 2 .895 2 2z" fill="#EF2929"/></g><g><path d="m9.25 20.25v-10h-2.5v10c0 1.105.895 2 2 2h2.5c-1.105 0-2-.895-2-2z" fill="#d5dbe1"/></g><g><path d="m11 6.75h-2.25c-1.105 0-2 .895-2 2v1.5h2.25v-1.5c0-1.105.895-2 2-2z" fill="#941E1E"/></g><g><path d="m14.25 27.25v-5h-2.5v5c0 1.105.895 2 2 2h2.5c-1.105 0-2-.895-2-2z" fill="#d5dbe1"/></g><g><path d="m22.25 23h-13.5c-1.517 0-2.75-1.233-2.75-2.75v-11.5c0-1.517 1.233-2.75 2.75-2.75h13.5c1.517 0 2.75 1.233 2.75 2.75v11.5c0 1.517-1.233 2.75-2.75 2.75zm-13.5-15.5c-.689 0-1.25.561-1.25 1.25v11.5c0 .689.561 1.25 1.25 1.25h13.5c.689 0 1.25-.561 1.25-1.25v-11.5c0-.689-.561-1.25-1.25-1.25z"/></g><g><path d="m6.75 9.5h17.5v1.5h-17.5z"/></g><g><path d="m27.25 30h-13.5c-1.517 0-2.75-1.233-2.75-2.75v-3.25h1.5v3.25c0 .689.561 1.25 1.25 1.25h13.5c.689 0 1.25-.561 1.25-1.25v-11.5c0-.689-.561-1.25-1.25-1.25h-1.25v-1.5h1.25c1.517 0 2.75 1.233 2.75 2.75v11.5c0 1.517-1.233 2.75-2.75 2.75z"/></g><g><path d="m26 16.5h4v1.5h-4z"/></g><g><path d="m14.75 13h1.5v7h-1.5z"/></g><g><path d="m12 15.75h7v1.5h-7z"/></g><g><path d="m2 28.5h32v1.5h-32z"/></g></svg>