<svg xmlns="http://www.w3.org/2000/svg" viewBox="0 0 36 36" opacity=".7" fill="#1f2835"><path d="M3.3 10.8c-.1-.3-.3-.4-.6-.5-.3 0-.5.2-.7.4C1 13 .5 15.4.5 17.8c0 3.3.9 6.6 2.7 9.4 1.7 2.7 4.2 4.9 7.1 6.3.1 0 .2.1.3.1.2 0 .3-.1.5-.2.2-.2.3-.5.2-.8l-8-21.8zm-1.4 7.1c0-1.7.2-3.3.7-4.8l6.7 18.4c-4.6-3-7.4-8-7.4-13.6zm22.2 15.3L19 19.1c-.1-.3-.4-.5-.7-.5s-.6.2-.7.5l-5 14.6c-.1.2 0 .4 0 .5s.2.3.4.3c1.6.5 3.3.7 4.9.7 2 0 3.9-.3 5.8-1 .2-.1.4-.2.4-.4.1-.2 0-.4-.1-.6.1.1.1 0 .1 0zM18 34c-1.3 0-2.6-.2-3.8-.5l4.2-12.1 4.3 11.9c-1.6.4-3.1.7-4.7.7zm8-6c.3 0 .6-.2.7-.5l1.9-5.2c.9-2.3 1.3-4.1 1.3-5.7 0-2.3-.7-3.5-1.3-4.6-.1-.1-.1-.2-.2-.3-.8-1.2-1.4-2.2-1.4-3.3s.8-2.3 2.1-2.3h.2c.3 0 .6-.2.7-.4.1-.3 0-.6-.2-.8C26.6 2 22.4.4 18 .4 12.1.4 6.6 3.3 3.4 8.3c-.2.2-.2.4-.1.7.1.2.3.4.6.4H5c1.6 0 4-.2 4.5-.2.1.1.1.5 0 .6-.2 0-1 .1-1.8.2a.55.55 0 0 0-.5.3c-.2.1-.2.3-.2.5l5.5 16.4c.1.3.4.5.7.5s.6-.2.7-.5l3.7-11c.1-.2 0-.3 0-.5l-2-5.3c-.1-.3-.3-.4-.6-.5-.8 0-1.6-.1-1.7-.2s0-.4 0-.6c.5 0 2.9.2 4.4.2 1.6 0 4-.2 4.5-.2.1.1.1.5 0 .6-.2 0-1 .1-1.8.2a.55.55 0 0 0-.5.3c-.1.2-.2.4-.1.6l5.7 16.7a.47.47 0 0 0 .5.5zm-4.7-16.8c.6 0 1-.1 1.1-.1.8-.1 1.3-.9 1.2-1.8s-.7-1.6-1.5-1.5c0 0-2.7.2-4.4.2-1.6 0-4.3-.2-4.4-.2-.8 0-1.4.6-1.5 1.6s.5 1.7 1.3 1.8c.1 0 .7.1 1.3.1l1.8 4.7-2.9 8.8-4.6-13.6c.6 0 1-.1 1.1-.1.8-.1 1.3-.9 1.2-1.8s-.7-1.6-1.5-1.5c0 0-2.5.2-4.2.2C8.4 4.1 13 1.8 18 1.8c3.5 0 7 1.2 9.8 3.3-1.3.6-2.1 1.9-2.1 3.4s.8 2.7 1.6 4c.1.1.1.2.2.3.6 1 1.1 1.9 1.1 3.9 0 1.3-.4 3.1-1.2 5.2L26 25.2l-4.7-14zm12.1-1.7c-.2-.3-.5-.4-.8-.3s-.5.4-.5.8c.1.5.1 1.1.1 1.6 0 1.8-.4 3.7-1.2 5.8l-5.1 14.8c-.1.3 0 .6.2.8a.76.76 0 0 0 .4.2c.1 0 .2 0 .4-.1a17.3 17.3 0 0 0 6.3-6.3c1.6-2.7 2.4-5.7 2.4-8.8-.1-3.1-.8-6-2.2-8.5zm-5.6 21.1l4.4-12.9c.6-1.6 1-3.1 1.2-4.5.4 1.5.7 3 .7 4.6 0 5.1-2.4 9.8-6.3 12.8z"/></svg>