<svg xmlns="http://www.w3.org/2000/svg" xmlns:xlink="http://www.w3.org/1999/xlink" viewBox="0 0 201.72 318.79"><defs><style>.a{isolation:isolate;}.b,.d{fill:#4d4d4f;}.c{mix-blend-mode:multiply;fill:url(#a);}.d{stroke:#434345;stroke-width:2px;}.d,.n{stroke-miterlimit:10;}.e{fill:#231f20;}.f{fill:#ef2929;}.g{opacity:0.8;mix-blend-mode:darken;}.h{fill:#9bd1ca;}.i,.m{fill:#c22424;}.i{opacity:0.75;}.j{fill:#404041;}.k,.n{fill:#941e1e;}.l{fill:#fff;}.n{stroke:#fff;}.o{fill:#d12626;}.p{fill:#434345;}.q{fill:#f1f1f2;}.r{fill:#d02626;}.s{fill:#681f1f;}.t{fill:url(#b);}.u{fill:url(#c);}</style><radialGradient id="a" cx="149.45" cy="-495.73" r="62.33" gradientTransform="translate(-87.49 393.09) scale(1.21 0.17)" gradientUnits="userSpaceOnUse"><stop offset="0" stop-color="#ababab"/><stop offset="1" stop-color="#fff"/></radialGradient><linearGradient id="b" x1="67.21" y1="146.19" x2="94.66" y2="146.19" gradientUnits="userSpaceOnUse"><stop offset="0" stop-color="#d12626"/><stop offset="0.29" stop-color="#ce2626"/><stop offset="0.52" stop-color="#c32424"/><stop offset="0.75" stop-color="#b22222"/><stop offset="0.96" stop-color="#991f1f"/><stop offset="1" stop-color="#941e1e"/></linearGradient><linearGradient id="c" x1="67.21" y1="132.89" x2="94.66" y2="132.89" gradientUnits="userSpaceOnUse"><stop offset="0" stop-color="#ef2929"/><stop offset="1" stop-color="#c22424"/></linearGradient></defs><title>Mascote</title><g class="a"><ellipse class="b" cx="81.06" cy="176.79" rx="25.73" ry="22.83"/><ellipse class="c" cx="93.37" cy="308.1" rx="75.43" ry="10.69"/><path class="d" d="M112.58,214.92c-.3,1.89-.59,3.85-.87,5.79l-.81,5.83q-.8,5.84-1.48,11.69t-1.25,11.69c-.35,3.89-.66,7.77-.87,11.64v0a5,5,0,1,1-10,0c-.2-4.07-.3-8.12-.36-12.16s0-8.07,0-12.09.14-8,.26-12l.21-6c.07-2,.16-4,.26-6.06a7.71,7.71,0,0,1,7.87-7.59,7.8,7.8,0,0,1,7.07,8.41c0,.3,0,.59-.09.88Z" transform="translate(-39.98 -11.38)"/><path class="d" d="M143.25,210.9c1,4.13,2,8.2,3,12.31l2.91,12.29q2.86,12.28,5.62,24.61a5.36,5.36,0,0,1-3.69,6.43,4.94,4.94,0,0,1-5.85-3.38v0q-3.93-11.88-8-23.72l-4.07-11.81c-1.37-3.93-2.76-7.88-4.14-11.74v0a8.2,8.2,0,0,1,4.3-10.35,7.33,7.33,0,0,1,9.66,4.6A8.36,8.36,0,0,1,143.25,210.9Z" transform="translate(-39.98 -11.38)"/><path class="e" d="M66,170.17H96.58a0,0,0,0,1,0,0v3.41a13.81,13.81,0,0,1-13.81,13.81h-3A13.81,13.81,0,0,1,66,173.58v-3.41a0,0,0,0,1,0,0Z"/><path class="f" d="M121.26,226.86h0c-14.33,0-25.95-12.44-25.95-27.79v-2.94a3.89,3.89,0,0,1,3.75-4h44.4a3.89,3.89,0,0,1,3.75,4v2.94C147.21,214.42,135.59,226.86,121.26,226.86Z" transform="translate(-39.98 -11.38)"/><g class="g"><path class="h" d="M130.66,225.62A.65.65,0,0,1,130,225V211.79c0-5.19-3.94-9.4-8.78-9.4s-8.78,4.21-8.78,9.4V225a.62.62,0,1,1-1.24,0V211.79c0-5.92,4.49-10.74,10-10.74s10,4.82,10,10.74V225A.65.65,0,0,1,130.66,225.62Z" transform="translate(-39.98 -11.38)"/></g><path class="i" d="M147.21,196.13a3.89,3.89,0,0,0-3.75-4h-.27c-7.67,45.35-38.29,28.46-38.47,28.36a24.79,24.79,0,0,0,16.54,6.38c14.33,0,26-12.44,26-27.79Z" transform="translate(-39.98 -11.38)"/><path class="j" d="M146.78,195.16h-51c-1.14,0-2.07-.68-2.07-1.52h0c0-.84.93-1.52,2.07-1.52h51.05c1.14,0,2.07.68,2.07,1.52h0C148.85,194.48,147.92,195.16,146.78,195.16Z" transform="translate(-39.98 -11.38)"/><path class="j" d="M146.78,191.3h-51c-1.14,0-2.07-.69-2.07-1.53h0c0-.85.93-1.54,2.07-1.54h51.05c1.14,0,2.07.69,2.07,1.54h0C148.85,190.61,147.92,191.3,146.78,191.3Z" transform="translate(-39.98 -11.38)"/><path class="j" d="M146.78,187.3h-51a1.88,1.88,0,0,1-2.07-1.58h0a1.87,1.87,0,0,1,2.07-1.57h51.05a1.87,1.87,0,0,1,2.07,1.57h0A1.88,1.88,0,0,1,146.78,187.3Z" transform="translate(-39.98 -11.38)"/><path class="j" d="M146.78,183.3h-51a1.88,1.88,0,0,1-2.07-1.59h0a1.88,1.88,0,0,1,2.07-1.58h51.05a1.88,1.88,0,0,1,2.07,1.58h0A1.88,1.88,0,0,1,146.78,183.3Z" transform="translate(-39.98 -11.38)"/><path class="j" d="M146.78,179.3h-51a1.92,1.92,0,0,1-2.07-1.71h0a1.91,1.91,0,0,1,2.07-1.71h51.05a1.91,1.91,0,0,1,2.07,1.71h0A1.92,1.92,0,0,1,146.78,179.3Z" transform="translate(-39.98 -11.38)"/><path class="f" d="M153.22,249.75h0c6.37,6.62,15.47,25.75,19,48.84a3.69,3.69,0,0,1-3.56,4.49H149.56a5.05,5.05,0,0,1-4.75-4.49c-1.73-15.57-5.31-29.33-3.62-38.67A12,12,0,0,1,153.22,249.75Z" transform="translate(-39.98 -11.38)"/><path class="k" d="M153.22,249.75a11.91,11.91,0,0,0-9.57,4.59A19.22,19.22,0,0,0,157,266c2.73.71,4.09-.54,4.56-2.89C158.71,257,155.75,252.38,153.22,249.75Z" transform="translate(-39.98 -11.38)"/><path class="l" d="M150,257c1.38,5.29,4.51,9.29,7,8.92s3.35-4.95,2-10.25-4.52-9.28-7-8.92S148.64,251.74,150,257Z" transform="translate(-39.98 -11.38)"/><path class="m" d="M145.58,252.37h0a12.44,12.44,0,0,0-4.39,7.55c-1.69,9.34,1.89,23.1,3.62,38.67a5.05,5.05,0,0,0,4.75,4.49h6.25C148,285.65,145.58,252.37,145.58,252.37Z" transform="translate(-39.98 -11.38)"/><path class="f" d="M98.22,249.06h0c-5.5,6.71-8.35,26.08-8.82,49.47a4.33,4.33,0,0,0,4.15,4.55h19.09a4.32,4.32,0,0,0,4.15-4.55c-.32-15.77-2.28-29.71-5.21-39.17A14.16,14.16,0,0,0,98.22,249.06Z" transform="translate(-39.98 -11.38)"/><path class="k" d="M106.78,252.17a13.45,13.45,0,0,0-8.56-3.11,15.79,15.79,0,0,0-1.52,2.34l-1.11,13.69S104.24,268.2,106.78,252.17Z" transform="translate(-39.98 -11.38)"/><ellipse class="l" cx="97.8" cy="255.76" rx="9.79" ry="4.62" transform="translate(-207.96 310.26) rotate(-83)"/><path class="m" d="M107,252.32c.48,10.19,1.42,34.34.55,50.76h5.12a4.32,4.32,0,0,0,4.15-4.55c-.32-15.77-2.28-29.71-5.21-39.17A15,15,0,0,0,107,252.32Z" transform="translate(-39.98 -11.38)"/><path class="f" d="M83.24,319.49H116.5a3.35,3.35,0,0,0,3.18-3.8A32.8,32.8,0,0,0,115.33,302s-5.78,1-8.92.07c-5.22-1.53-8.27-5.1-13.27-3.55-3.21,1-10.7,6.81-13,16.76A3.37,3.37,0,0,0,83.24,319.49Z" transform="translate(-39.98 -11.38)"/><path class="k" d="M104.71,319.49H116.5a3.35,3.35,0,0,0,3.18-3.8A32.8,32.8,0,0,0,115.33,302s-5.78,1-8.92.07c-5.22-1.53-8.27-5.1-13.27-3.55a15.29,15.29,0,0,0-4.92,3.12c9.94-3.08,15.52-.57,18.56,7.17C111,319.45,104.71,319.49,104.71,319.49Z" transform="translate(-39.98 -11.38)"/><ellipse class="n" cx="115.39" cy="307.77" rx="4.2" ry="6.96" transform="translate(-97.11 16.61) rotate(-11.11)"/><path class="f" d="M182.7,319.49H149.43a4.08,4.08,0,0,1-3.79-3.8c-.48-8.43,2.15-13.68,2.15-13.68s5.94,1,8.93.07c5-1.53,7.46-5.1,12.7-3.55a24,24,0,0,1,15.72,16.76C185.71,317.52,184.75,319.49,182.7,319.49Z" transform="translate(-39.98 -11.38)"/><path class="k" d="M156.5,313.74c-3.28-5.75,5.08-13.88,5.08-13.88h0a26.77,26.77,0,0,1-4.86,2.22c-3,.92-8.93-.07-8.93-.07s-2.63,5.25-2.15,13.68a4.08,4.08,0,0,0,3.79,3.8h19.3S159.79,319.49,156.5,313.74Z" transform="translate(-39.98 -11.38)"/><ellipse class="l" cx="148.66" cy="307.77" rx="4.24" ry="6.89" transform="translate(-58.23 -1.88) rotate(-3.45)"/><path class="j" d="M118.76,208.81a12.21,12.21,0,0,1-6.52-2.63,4,4,0,0,1-1.23-1.81l-5-16.13a3.47,3.47,0,0,1,.55-3.1c2-2.78,7.73-3,9.42-3h10.55c1.69,0,7.37.22,9.41,3a3.47,3.47,0,0,1,.56,3.1l-5,16.13a3.92,3.92,0,0,1-1.22,1.81,12.25,12.25,0,0,1-6.52,2.63l-1.78.12a8.83,8.83,0,0,1-1.26,0Z" transform="translate(-39.98 -11.38)"/><path class="b" d="M121.3,184.55H116c-4.59,0-8.16,1.38-7.67,3l5,16.13a1.58,1.58,0,0,0,.5.7c.84.72,3.06,2.18,7.36,2.21h.13c4.29,0,6.52-1.49,7.36-2.21a1.55,1.55,0,0,0,.49-.7l5-16.13c.49-1.59-3.08-3-7.67-3Z" transform="translate(-39.98 -11.38)"/><circle class="j" cx="186.48" cy="157.75" r="9.26" transform="translate(-39.16 305.08) rotate(-80.76)"/><path class="b" d="M193.5,157.75a7,7,0,1,1-7-7A7,7,0,0,1,193.5,157.75Z" transform="translate(-39.98 -11.38)"/><path class="o" d="M177.72,162.26a63,63,0,0,1-9.55-7.26c-5.85-5.11-14.07-11.73-14.15-11.79l-1.05-.85,7.32-21.74,31.35,31-3.12,1.21c-.26.13-3.64,1.94-7.83,8.63l-1.12,1.8Z" transform="translate(-39.98 -11.38)"/><path class="f" d="M159.15,122.63l28.48,28.19s-3.94,1.68-8.83,9.49a61,61,0,0,1-9.17-7c-5.94-5.2-14.21-11.85-14.21-11.85Z" transform="translate(-39.98 -11.38)"/><path class="o" d="M160.41,140.53a8.14,8.14,0,0,0-4.63,1.23c1.65,1.33,8.64,7,13.85,11.56a61,61,0,0,0,9.17,7c.73-1.16,1.44-2.19,2.11-3.1Z" transform="translate(-39.98 -11.38)"/><path class="j" d="M61.11,268.24c-5.09-5-13.54-13.13-14.5-13.87a4.19,4.19,0,0,1-1.68-2.8c-4.16-1.07-4.57-2.32-4.79-3-.47-1.41.22-7.9.3-8.64.55-5.18,1.33-8.74,2.3-10.6A3.78,3.78,0,0,1,45,227.32c1.75-.5,16.7-7.49,25.71-11.77l1.43-.68L73.23,216c.36.36,8.86,9,8.06,21.94l0,.35-.13.32a61.67,61.67,0,0,1-2.61,5.76c-3,5.8-5,6.93-6.35,7.27a7.85,7.85,0,0,1-1.9.23,11.73,11.73,0,0,1-4.8-1.16c1.12,3.29,2.34,7.68,2,10.44-.66,4.85-3.08,7-3.35,7.22l-1.55,1.28Z" transform="translate(-39.98 -11.38)"/><path class="b" d="M71.65,217.57S48.17,228.72,45.6,229.46s-3.68,17.44-3.34,18.44c.19.57,1.74,1.09,3.07,1.45a107.64,107.64,0,0,1,3.73-10.49L47.28,249.8a2.52,2.52,0,0,0,.67,2.79c1.34,1,14.72,14,14.72,14s2-1.67,2.57-5.8-3.46-13.61-3.46-13.61c.56-3.9,4.68-12.38,4.68-12.38a46.43,46.43,0,0,1,1,6.81L65,247.9s3.46,2.35,6.64,1.57,7.42-11.68,7.42-11.68C79.81,225.75,71.65,217.57,71.65,217.57Z" transform="translate(-39.98 -11.38)"/><path class="o" d="M49.57,233.61c-4.31,0-5.82-2.85-6-3.18l-.21-.43,0-.48c0-.77-.41-19,2.42-34.66,1-5.64,2.56-9.78,4.58-12.31s4.32-3,5.46-3a4.6,4.6,0,0,1,1.3.18l13,2.68-.25,2a65.1,65.1,0,0,0,3.34,30.06l.06.14,0,.14c.24.91,1.37,5.57-.58,8.32A4.56,4.56,0,0,1,69.27,225c-1.91.14-2.91.78-5.34,2.32-1.6,1-3.79,2.41-7,4.12a16.24,16.24,0,0,1-7.34,2.17Z" transform="translate(-39.98 -11.38)"/><path class="f" d="M56.57,181.85s-5.76-2.21-8.59,13.41-2.38,34.2-2.38,34.2,2.09,4.32,10.27,0,9.22-6.39,13.23-6.69,2.08-7.44,2.08-7.44a67,67,0,0,1-3.5-31.19Z" transform="translate(-39.98 -11.38)"/><path class="o" d="M71.18,215.35a66.91,66.91,0,0,1-3.56-30.64l-2,3S60.91,210,64.06,224.6v0a10.11,10.11,0,0,1,5-1.83C73.12,222.49,71.18,215.35,71.18,215.35Z" transform="translate(-39.98 -11.38)"/><path class="j" d="M79,105.58c-2.42,0-6.25-1.79-11.68-5.48-6-4-7.4-12-7.56-18-.17-6.3,1.06-12.84,2.34-15.53C64.29,62,72.74,55.77,73.69,55.08l3.14-2.26L82.06,104l-.74.75a3.1,3.1,0,0,1-2.31.83Z" transform="translate(-39.98 -11.38)"/><path class="b" d="M75,56.88s-8.87,6.41-10.88,10.63S59,91.75,68.58,98.25s11.16,4.93,11.16,4.93Z" transform="translate(-39.98 -11.38)"/><path class="p" d="M71.75,59.45l-.06,0c-.59,1.1-8,15.64-1.77,39.61,8.44,5.5,9.86,4.07,9.86,4.07L76,65.84Z" transform="translate(-39.98 -11.38)"/><path class="j" d="M161.78,105.58a3.14,3.14,0,0,1-2.32-.83l-.73-.75L164,52.82l3.13,2.26c1,.69,9.4,6.87,11.59,11.48,1.28,2.69,2.5,9.23,2.34,15.53-.16,6-1.6,14-7.56,18C168,103.79,164.2,105.58,161.78,105.58Z" transform="translate(-39.98 -11.38)"/><path class="b" d="M165.79,56.88s8.87,6.41,10.88,10.63,5.13,24.24-4.46,30.74-11.16,4.93-11.16,4.93Z" transform="translate(-39.98 -11.38)"/><path class="p" d="M171.52,61.54l-8.31,41.57c1.62-.46,4.37-1.72,9-4.86C177.34,83,171.52,61.54,171.52,61.54Z" transform="translate(-39.98 -11.38)"/><circle class="j" cx="23.03" cy="167.37" r="9.37"/><circle class="b" cx="23.03" cy="167.37" r="7.14"/><path class="o" d="M70.72,179.07a2.61,2.61,0,0,1-2.24-1.2c-.91-1.44-4.62-2.68-7-2.68a2.59,2.59,0,0,0-.69.06,3.24,3.24,0,0,1-.82.11c-2,0-3.29-1.72-3.48-4.49l0-.48.17-.45c5.06-13.54,21.9-43.49,22.61-44.75l.9-1.6,1.74.57a11.7,11.7,0,0,1,7.39,6.21c2.67,5.82-.16,12.8-.29,13.1l0,.1-.06.1c-3.76,7-12.94,27.59-13.63,30.66-.74,3.27-2.79,4.74-4.5,4.74Z" transform="translate(-39.98 -11.38)"/><path class="f" d="M81.16,126.28s-17.41,30.91-22.47,44.44c0,0,.19,2.74,1.49,2.38,2.16-.6,8.4.74,10.19,3.59.27.44,2,0,2.67-2.85.8-3.51,10.29-24.64,13.85-31.23C86.89,142.61,92.17,129.88,81.16,126.28Z" transform="translate(-39.98 -11.38)"/><path class="o" d="M86.89,142.61A19.33,19.33,0,0,0,88,138.56l-1.07-1.2-5.74,2.79S71.65,166.07,68,174.64c.28.44,3.57,4.87,5.07-.8C74,170.37,83.33,149.2,86.89,142.61Z" transform="translate(-39.98 -11.38)"/><circle class="j" cx="113.15" cy="119.28" r="12.27"/><circle class="b" cx="153.13" cy="130.66" r="10.04" transform="translate(-50.86 235.98) rotate(-75.91)"/><circle class="j" cx="49.79" cy="120.05" r="12.27"/><circle class="b" cx="89.77" cy="131.43" r="10.04" transform="translate(-106.62 90.59) rotate(-45)"/><path class="o" d="M120.7,194.46h0l-.11,0c-9.39-2-17.1-6.08-22.92-12.26a45.86,45.86,0,0,1-10.52-19.49c-3.83-13.88-2.29-28.34-1.45-33.92A12.52,12.52,0,0,1,89,122.06c11.35-12.07,30.81-17.23,31.63-17.45l.56-.14.57.14c.82.22,20.28,5.38,31.63,17.45a12.52,12.52,0,0,1,3.26,6.71c.84,5.58,2.38,20-1.45,33.92a45.86,45.86,0,0,1-10.52,19.49c-5.82,6.18-13.53,10.3-22.92,12.26l-.1,0-.46.1Z" transform="translate(-39.98 -11.38)"/><path class="f" d="M151.73,123.59c-11-11.74-30.58-16.82-30.58-16.82s-19.52,5.08-30.57,16.82a10.28,10.28,0,0,0-2.67,5.51c-1.79,11.84-5.55,55.09,33.14,63.16l.1,0,.11,0c38.69-8.07,34.93-51.32,33.14-63.16A10.28,10.28,0,0,0,151.73,123.59Z" transform="translate(-39.98 -11.38)"/><path class="o" d="M121.15,106.77s-19.52,5.08-30.57,16.82a10.8,10.8,0,0,0-.81,1s26.38,18.65,62.77,0h0a10.8,10.8,0,0,0-.81-1C140.68,111.85,121.15,106.77,121.15,106.77Z" transform="translate(-39.98 -11.38)"/><path class="l" d="M121,112c-.52-.18-32.64-10.94-25.67,42.83,0,0,2.17,36.12,25.67,37.47h0c23.49-1.35,25.67-37.47,25.67-37.47C153.69,101,121.56,111.78,121,112Zm-9.52,12.36v-6.25l18.87-.66,0,6.91a1.92,1.92,0,0,1-.63,1.68c-10.54,5.23-17.69-.18-17.69-.18A2.28,2.28,0,0,1,111.52,124.32Z" transform="translate(-39.98 -11.38)"/><path class="q" d="M121.15,112c-.4-.14-20-6.71-25.33,15.86,9,4,27.42,9.17,50.57-.41C140.92,105.33,121.56,111.82,121.15,112Zm8.7,14c-10.54,5.23-17.69-.18-17.69-.18a2.35,2.35,0,0,1-.53-1.5v-6.25l18.87-.66,0,6.91A1.92,1.92,0,0,1,129.85,126Z" transform="translate(-39.98 -11.38)"/><path class="o" d="M70.9,80.59l-.37-1.77c-.15-.69-1.84-18.64,7.2-31.27C85.86,36.2,100.7,30,121,28.63h.58A70.57,70.57,0,0,1,138,30.76c10.28,2.59,18.44,7.14,24.25,13.54,7.75,8.53,11,20.06,9.63,34.27l-.19,2Z" transform="translate(-39.98 -11.38)"/><path class="f" d="M72.71,78.36s-9.18-43.49,48.44-47.51c0,0,53.17-1.36,48.48,47.51Z" transform="translate(-39.98 -11.38)"/><path class="o" d="M119.91,122.61c-9,0-20.66-3.6-34.57-10.68-3.9-2-9.22-6.23-12.34-15.13a50.56,50.56,0,0,1-2.56-16.49,59.72,59.72,0,0,1,2.71-18C75.71,54.38,79.82,49,85.34,46.14c10.93-5.56,30.08-6.27,33.81-6.36h.46l.4,0h2.29l.4,0h.46c3.73.09,22.88.8,33.8,6.36,5.53,2.82,9.64,8.24,12.2,16.13a59.77,59.77,0,0,1,2.7,18,50.56,50.56,0,0,1-2.55,16.49c-3.12,8.9-8.44,13.14-12.35,15.13-13.9,7.08-25.53,10.68-34.56,10.68-.42,0-.83,0-1.25,0S120.33,122.61,119.91,122.61Z" transform="translate(-39.98 -11.38)"/><path class="l" d="M122.4,120.38c-.42,0-.83,0-1.25,0s-.82,0-1.24,0c-8.67,0-20-3.51-33.55-10.44-3.55-1.8-8.38-5.68-11.26-13.88a48.24,48.24,0,0,1-2.42-15.75A57.72,57.72,0,0,1,75.27,63c2.37-7.3,6.11-12.3,11.09-14.83,10.49-5.35,29.19-6,32.84-6.12h.38l.35,0h2.45l.35,0h.38c3.64.08,22.35.77,32.84,6.12,5,2.53,8.72,7.53,11.09,14.83a57.72,57.72,0,0,1,2.59,17.35,48.24,48.24,0,0,1-2.42,15.75c-2.88,8.2-7.71,12.08-11.26,13.88-13.59,6.93-24.88,10.44-33.55,10.44Z" transform="translate(-39.98 -11.38)"/><path class="j" d="M152.53,55.22c-9.31-4.74-29.8-5.21-29.8-5.21-.62,0-3,0-3.61,0,0,0-20.48.47-29.8,5.21s-12.1,38.41,0,44.57c11.85,6,23.48,10.25,31.61,9.76,8.12.49,19.75-3.72,31.6-9.76C164.63,93.63,161.84,60,152.53,55.22Z" transform="translate(-39.98 -11.38)"/><path class="b" d="M152.53,60.49c-9.31-4.56-29.8-5-29.8-5-.62,0-3,0-3.61,0,0,0-20.48.46-29.8,5s-12.1,36.95,0,42.88c11.85,5.81,23.48,9.86,31.61,9.39,8.12.47,19.75-3.58,31.6-9.39C164.63,97.44,161.84,65.05,152.53,60.49Z" transform="translate(-39.98 -11.38)"/><ellipse class="l" cx="64.15" cy="63.03" rx="4.8" ry="11.93"/><ellipse class="l" cx="98.28" cy="63.03" rx="4.8" ry="11.93"/><path class="o" d="M196.58,165.59a10.4,10.4,0,0,1-7.83-3.37c-3.91-4.35-3.37-11.3-3.34-11.59l.12-1.42,1.34-.49c.45-.17,3-1.58,9-13.17,3.27-6.33,5.89-12.49,5.92-12.55l.8-1.9,2,.66c13.56,4.57,19.8,18.22,20.06,18.8l.51,1.12-.68,1c-8.25,12.41-26,22.21-26.74,22.62l-.53.28Z" transform="translate(-39.98 -11.38)"/><path class="f" d="M187.63,150.82s-1,12.32,9,12.54c0,0,17.92-9.8,26-21.89,0,0-6-13.28-18.74-17.6C203.84,123.87,193.28,148.76,187.63,150.82Z" transform="translate(-39.98 -11.38)"/><path class="b" d="M99.81,118.21" transform="translate(-39.98 -11.38)"/><path class="o" d="M192.56,162.39h0a9.1,9.1,0,0,0,4.23,1.05s17.92-9.8,25.95-21.89c0,0-.28-.62-.85-1.64l-6.22.78S199.08,159.17,192.56,162.39Z" transform="translate(-39.98 -11.38)"/><path class="j" d="M220.45,143.15a4.78,4.78,0,0,1-2.06-.44c-2.18-1-5.11-4.38-7.69-7.44l-.51-.61c-1.92-.63-7.41-2.76-9.52-7.18-1.93-4-.41-9.7.69-13.85.32-1.18.62-2.3.72-3a40,40,0,0,0-1.08-14,5.62,5.62,0,0,1,4-7.11,5.76,5.76,0,0,1,2.87-.37c7.37,2.32,7.72,11.8,8,13.72l2.58-4.18c.71-1.69,2.6-4.25,5.65-4.25a6.39,6.39,0,0,1,3.28,1,10.63,10.63,0,0,1,4.65,5.24h.2a4.79,4.79,0,0,1,4.07,2.32c3,4.69,3.32,7.77,2.54,9.79a9,9,0,0,1,2.28,3.59c1.06,3.08.52,6.69-1.6,10.73l0,.07,0,.06c-.49.8-4.87,7.85-7.92,10.26C226.86,141.26,223.11,143.15,220.45,143.15Z" transform="translate(-39.98 -11.38)"/><path class="b" d="M226.3,97.4c-4-2.38-5.8,2.38-5.8,2.38L219.09,102c-.24.4-.52.85-.87,1.36h0l-1.35,2.11a27.1,27.1,0,0,0-2.81,6.17,3.67,3.67,0,0,0,.3,2.81l.73,1.34a1.74,1.74,0,0,0,2.6.55l12.13-15.26A8.59,8.59,0,0,0,226.3,97.4Z" transform="translate(-39.98 -11.38)"/><path class="b" d="M234.47,104.24a2.55,2.55,0,0,0-2.26-1.3l-12.8,14.35c-.78,3.53,2.7,5.38,3.58,5.72.22.09,1-.38,2.13-1.16,3.68-2.58,10.69-8.53,10.69-8.53C238.49,111.23,236.11,106.77,234.47,104.24Z" transform="translate(-39.98 -11.38)"/><path class="b" d="M223.83,126.14c-1.15.71.42,4.35,2.35,3.75,1.47-.45,8-2.46,10.66-3.47a2.85,2.85,0,0,0,1.6-1.54c3.45-8.21-1.55-10.3-1.55-10.3C229.61,122.24,225.62,125,223.83,126.14Z" transform="translate(-39.98 -11.38)"/><path class="b" d="M222.58,130.66c-2.64-4.39,0-5.64,0-5.64-6.88-3.72-5.42-6.63-5.42-6.63h0a3.45,3.45,0,0,1-3.47-.72,10.24,10.24,0,0,1-1.95-3.77c-.4-2.1.7-5.39,2.72-8.6a42.22,42.22,0,0,0-1.89-7.41c-2.12-5.84-4-6.87-7-6.13A3.39,3.39,0,0,0,203.13,96,42.28,42.28,0,0,1,204.29,111c-.45,3.15-3.72,11.13-1.61,15.55s8.74,6.2,8.74,6.2c.45.35,5.39,6.79,7.92,8s8-2.68,10.86-4.91c1.74-1.37,4.13-4.72,5.72-7.09C232,130.3,224.34,133.59,222.58,130.66Z" transform="translate(-39.98 -11.38)"/><path class="p" d="M72.11,240C72,238.34,67,228.23,67,228.23s-8.77,12-9.07,18.14c0,0,5.43,9.83,4.76,20.27,0,0,2-1.67,2.57-5.8s-3.46-13.61-3.46-13.61c.56-3.9,4.68-12.38,4.68-12.38a46.43,46.43,0,0,1,1,6.81L65,247.9a11.64,11.64,0,0,0,3.26,1.44h0S72.26,241.61,72.11,240Z" transform="translate(-39.98 -11.38)"/><path class="p" d="M235.92,128.69c-3.94,1.61-11.58,4.9-13.34,2-2.64-4.39,0-5.64,0-5.64-6.88-3.72-5.42-6.63-5.42-6.63h0a3.45,3.45,0,0,1-3.47-.72,10.24,10.24,0,0,1-1.95-3.77c-.4-2.1.7-5.39,2.72-8.6-1-6.52-2.75-9-3.21-10.49h0a27.82,27.82,0,0,1,0,11.35,52.26,52.26,0,0,1-2.16,7.9c-2,5.13,5.57,7,5.57,7s.93,4.89,4.26,6.22c0,0-1.47,4.47,1.43,6,0,0-1.71,4.06-3.52,5.42h0a10.74,10.74,0,0,0,2.48,1.92c2.53,1.19,8-2.68,10.86-4.91C231.94,134.41,234.33,131.06,235.92,128.69Z" transform="translate(-39.98 -11.38)"/><path class="b" d="M129.85,126a20.3,20.3,0,0,1-8.84,2.27h-.18a15.11,15.11,0,0,1-8.56-2.46,2.28,2.28,0,0,1-.52-1.5v-2.57a44,44,0,0,0,8.27.86c.42,0,.83,0,1.25,0s.82,0,1.24,0a43,43,0,0,0,8-.81v2.52A2,2,0,0,1,129.85,126Z" transform="translate(-39.98 -11.38)"/><path class="p" d="M129.15,203.65l1.36-4.34c-9.63,5.07-18.59-.12-18.59-.12l1.39,4.46a1.58,1.58,0,0,0,.5.7c.84.72,3.06,2.18,7.36,2.21h.13c4.29,0,6.52-1.49,7.36-2.21A1.55,1.55,0,0,0,129.15,203.65Z" transform="translate(-39.98 -11.38)"/><path class="l" d="M131.39,97.81c0,2.18-4.53,6-10.13,6s-10.13-3.8-10.13-6,4.53-1.92,10.13-1.92S131.39,95.63,131.39,97.81Z" transform="translate(-39.98 -11.38)"/><path class="j" d="M114.21,35.33c0,1.74,2.91,3.2,6.58,3.27s6.68-1.27,6.71-3-2.91-3.2-6.58-3.27S114.25,33.6,114.21,35.33Z" transform="translate(-39.98 -11.38)"/><polygon class="b" points="80.11 24.29 81.45 24.32 81.57 18.17 87.65 16.28 79.11 13.67 81.68 12.32 81.81 5.78 80.48 5.76 80.36 11.51 75.63 14 83.13 16.29 80.25 17.19 80.11 24.29"/><path class="f" d="M118.29,14.21a2.89,2.89,0,1,0,2.94-2.83A2.89,2.89,0,0,0,118.29,14.21Z" transform="translate(-39.98 -11.38)"/><polygon class="r" points="74.04 152.36 66.92 148.13 66.92 130.92 74.04 126.64 74.04 152.36"/><polygon class="r" points="87.85 152.36 94.98 148.13 94.98 130.92 87.85 126.64 87.85 152.36"/><polygon class="s" points="87.86 141.85 87.86 144.12 94.54 148.25 87.86 141.85"/><polygon class="s" points="74.04 141.87 74.04 144.14 67.37 148.21 74.04 141.87"/><polygon class="s" points="87.85 137.27 87.85 135 94.53 130.88 87.85 137.27"/><polygon class="s" points="74.04 137.2 74.04 134.94 67.37 130.81 74.04 137.2"/><polygon class="t" points="67.2 148.3 74.08 152.44 80.95 148.22 87.82 152.44 94.66 148.32 80.96 139.95 67.2 148.3"/><polygon class="u" points="67.21 130.74 74.08 126.61 80.96 130.83 87.82 126.61 94.66 130.73 80.96 139.17 67.21 130.74"/></g></svg>