<?xml version="1.0" encoding="utf-8"?>
<!-- Generator: Adobe Illustrator 25.0.0, SVG Export Plug-In . SVG Version: 6.00 Build 0)  -->
<svg version="1.1" id="_x31__x2C_5" xmlns="http://www.w3.org/2000/svg" xmlns:xlink="http://www.w3.org/1999/xlink" x="0px"
	 y="0px" viewBox="0 0 512 512" style="enable-background:new 0 0 512 512;" xml:space="preserve">
<style type="text/css">
	.st0{fill:#EFEFEF;}
	.st1{fill:#EF2929;}
	.st2{fill:#F3F3F1;}
	.st3{fill:#941E1E;}
	.st4{fill:#D5DBE1;}
</style>
<g>
	<path class="st0" d="M452.7,119.1c0,98.4,51,165.9,51,213.3s-27.2,147-245.3,147S8.3,345.5,8.3,293.4
		C8.3,49.2,452.7-55.1,452.7,119.1L452.7,119.1z"/>
</g>
<g>
	<path class="st1" d="M84.9,47.2L105,27.1l10.1,10.1L95,57.3L84.9,47.2z"/>
</g>
<g>
	<path class="st1" d="M27.1,105l20.1-20.1L57.3,95l-20.1,20.1L27.1,105z"/>
</g>
<g>
	<path class="st1" d="M29.6,37.2l10.1-10.1l20.1,20.1L49.7,57.3L29.6,37.2z"/>
</g>
<g>
	<path class="st2" d="M387.6,401.8H124.4c-15.7,0-28.4-12.7-28.4-28.4V160h320v213.3C416,389,403.3,401.8,387.6,401.8z"/>
</g>
<g>
	<path class="st1" d="M416,160H96v-21.3c0-15.7,12.7-28.4,28.4-28.4h263.1c15.7,0,28.4,12.7,28.4,28.4V160z"/>
</g>
<g>
	<path class="st1" d="M138.7,209.8h49.8v49.8h-49.8V209.8z"/>
</g>
<g>
	<path class="st1" d="M138.7,309.3h49.8v49.8h-49.8V309.3z"/>
</g>
<g>
	<path class="st3" d="M156.4,110.2h-32c-15.7,0-28.4,12.7-28.4,28.4V160h32v-21.3C128,123,140.7,110.2,156.4,110.2z"/>
</g>
<g>
	<path class="st3" d="M138.7,209.8h32v49.8h-32V209.8z"/>
</g>
<g>
	<path class="st3" d="M138.7,309.3h32v49.8h-32V309.3z"/>
</g>
<g>
	<path class="st4" d="M128,373.3V160H96v213.3c0,15.7,12.7,28.4,28.4,28.4h32C140.7,401.8,128,389,128,373.3z"/>
</g>
<g>
	<path class="st4" d="M263.1,373.3V160h-32v213.3c0,15.7,12.7,28.4,28.4,28.4h32C275.8,401.8,263.1,389,263.1,373.3z"/>
</g>
<g>
	<path d="M188.4,270.2h-49.8c-5.9,0-10.7-4.8-10.7-10.7v-49.8c0-5.9,4.8-10.7,10.7-10.7h49.8c5.9,0,10.7,4.8,10.7,10.7v49.8
		C199.1,265.4,194.3,270.2,188.4,270.2z M149.3,248.9h28.4v-28.4h-28.4V248.9z"/>
</g>
<g>
	<path d="M188.4,369.8h-49.8c-5.9,0-10.7-4.8-10.7-10.7v-49.8c0-5.9,4.8-10.7,10.7-10.7h49.8c5.9,0,10.7,4.8,10.7,10.7v49.8
		C199.1,365,194.3,369.8,188.4,369.8z M149.3,348.4h28.4V320h-28.4V348.4z"/>
</g>
<g>
	<path d="M284.4,213.3H384v21.3h-99.6V213.3z"/>
</g>
<g>
	<path d="M284.4,270.2H384v21.3h-99.6V270.2z"/>
</g>
<g>
	<path d="M284.4,327.1H384v21.3h-99.6V327.1z"/>
</g>
<g>
	<path d="M387.6,412.4H124.4c-21.6,0-39.1-17.5-39.1-39.1V138.7c0-21.6,17.5-39.1,39.1-39.1h263.1c21.6,0,39.1,17.5,39.1,39.1v234.7
		C426.7,394.9,409.1,412.4,387.6,412.4z M124.4,120.9c-9.8,0-17.8,8-17.8,17.8v234.7c0,9.8,8,17.8,17.8,17.8h263.1
		c9.8,0,17.8-8,17.8-17.8V138.7c0-9.8-8-17.8-17.8-17.8H124.4z"/>
</g>
<g>
	<path d="M96,149.3h320v21.3H96V149.3z"/>
</g>
<g>
	<path d="M220.4,163.6h21.3v241.8h-21.3V163.6z"/>
</g>
<g>
	<path d="M28.4,391.1h455.1v21.3H28.4V391.1z"/>
</g>
</svg>
