<?xml version="1.0" encoding="utf-8"?>
<!-- Generator: Adobe Illustrator 25.0.0, SVG Export Plug-In . SVG Version: 6.00 Build 0)  -->
<svg version="1.1" id="Layer_1" xmlns="http://www.w3.org/2000/svg" xmlns:xlink="http://www.w3.org/1999/xlink" x="0px" y="0px"
	 viewBox="0 0 512 512" style="enable-background:new 0 0 512 512;" xml:space="preserve">
<style type="text/css">
	.st0{fill:#EFEFEF;}
	.st1{fill:#F3F3F1;}
	.st2{fill:#EF2929;}
	.st3{fill:#D5DBE1;}
	.st4{fill:#941E1E;}
</style>
<path class="st0" d="M389.9,55.7c-98.3,1.8-166.9-47.9-214.2-47c-47.4,0.9-146.4,30-142.4,248s138.6,247.5,190.7,246.6
	C468.2,498.7,564.1,52.4,389.9,55.7z"/>
<path class="st1" d="M416,243.6v24.7c0,7.3-5.3,13.2-12.4,14.2l-34.6,4.6c-2.6,9.5-6.3,18.5-11.1,26.9l21.2,27.6
	c4.4,5.7,3.8,13.7-1.3,18.8l-17.5,17.5c-5.1,5.1-13.1,5.7-18.8,1.3L314,358c-8.4,4.8-17.4,8.5-26.9,11.1l-4.6,34.6
	c-1,7.1-7,12.4-14.2,12.4h-24.7c-7.3,0-13.2-5.3-14.2-12.4l-4.6-34.6c-9.5-2.6-18.5-6.3-26.9-11.1l-27.6,21.2
	c-5.7,4.4-13.7,3.8-18.8-1.3l-17.5-17.5c-5.1-5.1-5.7-13.1-1.3-18.8L154,314c-4.8-8.4-8.5-17.4-11.1-26.9l-34.6-4.6
	c-7.1-1-12.4-7-12.4-14.2v-24.7c0-7.3,5.3-13.2,12.4-14.2l34.6-4.6c2.6-9.5,6.3-18.5,11.1-26.9l-21.2-27.6
	c-4.4-5.7-3.8-13.7,1.3-18.8l17.5-17.5c5.1-5.1,13.1-5.7,18.8-1.3L198,154c8.4-4.8,17.4-8.5,26.9-11.1l4.6-34.6
	c1-7.1,7-12.4,14.2-12.4h24.7c7.3,0,13.2,5.3,14.2,12.4l4.6,34.6c9.5,2.6,18.5,6.3,26.9,11.1l27.6-21.2c5.7-4.4,13.7-3.8,18.8,1.3
	l17.5,17.5c5.1,5.1,5.7,13.1,1.3,18.8L358,198c4.8,8.4,8.5,17.4,11.1,26.9l34.6,4.6C410.7,230.4,416,236.4,416,243.6L416,243.6z"/>
<circle class="st2" cx="256" cy="256" r="60.4"/>
<g>
	<path class="st3" d="M230,154c8.4-4.8,17.4-8.5,26.9-11.1l4.6-34.6c0.8-5.9,5.1-10.3,10.6-11.7c-1.2-0.3-2.3-0.7-3.6-0.7h-24.7
		c-7.3,0-13.2,5.3-14.2,12.4l-4.6,34.6c-2.2,0.6-4.3,1.5-6.5,2.2L230,154z"/>
	<path class="st3" d="M346,154l19.4-14.9l-5-5c-5.1-5.1-13.1-5.7-18.8-1.3l-16,12.3C332.7,147.5,339.6,150.3,346,154L346,154z"/>
	<path class="st3" d="M166.1,360.4c-5.1-5.1-5.7-13.1-1.3-18.8L186,314c-4.8-8.4-8.5-17.4-11.1-26.9l-34.6-4.6
		c-7.1-1-12.4-7-12.4-14.2v-24.7c0-7.3,5.3-13.2,12.4-14.2l34.6-4.6c2.6-9.5,6.3-18.5,11.1-26.9l-21.2-27.6
		c-4.4-5.7-3.8-13.7,1.3-18.8l12.5-12.5l-8.2-6.3c-5.7-4.4-13.7-3.8-18.8,1.3l-17.5,17.5c-5.1,5.1-5.7,13.1-1.3,18.8L154,198
		c-4.8,8.4-8.5,17.4-11.1,26.9l-34.6,4.6c-7.1,1-12.4,7-12.4,14.2v24.7c0,7.3,5.3,13.2,12.4,14.2l34.6,4.6
		c2.6,9.5,6.3,18.5,11.1,26.9l-21.2,27.6c-4.4,5.7-3.8,13.7,1.3,18.8l17.5,17.5c5.1,5.1,13.1,5.7,18.8,1.3l8.2-6.3L166.1,360.4z"/>
	<path class="st3" d="M346,358c-6.4,3.7-13.3,6.5-20.4,8.9l16,12.3c5.7,4.4,13.7,3.8,18.8-1.3l5-5L346,358z"/>
	<path class="st3" d="M261.4,403.6l-4.6-34.6c-9.5-2.6-18.5-6.3-26.9-11.1l-11.6,8.9c2.2,0.7,4.3,1.6,6.5,2.2l4.6,34.6
		c1,7.1,7,12.4,14.2,12.4h24.7c1.3,0,2.4-0.4,3.6-0.7C266.5,413.9,262.2,409.5,261.4,403.6z"/>
</g>
<path class="st4" d="M227.6,256c0-27.8,18.9-51,44.4-58c-5.1-1.4-10.4-2.4-16-2.4c-33.4,0-60.4,27.1-60.4,60.4s27.1,60.4,60.4,60.4
	c5.6,0,10.9-1,16-2.4C246.4,307,227.6,283.8,227.6,256z"/>
<g>
	<path class="st2" d="M362.5,76.3l10.1-10.1l20.1,20.1l-10.1,10.1L362.5,76.3z"/>
	<path class="st2" d="M420.4,134.1l10.1-10.1l20.1,20.1l-10.1,10.1L420.4,134.1z"/>
	<path class="st2" d="M417.9,86.4L438,66.3L448,76.3l-20.1,20.1L417.9,86.4z"/>
	<path class="st2" d="M75.5,437.3c-11.8,0-21.3-9.6-21.3-21.3s9.6-21.3,21.3-21.3s21.3,9.6,21.3,21.3S87.3,437.3,75.5,437.3z
		 M75.5,408.9c-3.9,0-7.1,3.2-7.1,7.1s3.2,7.1,7.1,7.1c3.9,0,7.1-3.2,7.1-7.1S79.4,408.9,75.5,408.9z"/>
</g>
<path d="M268.4,426.7h-24.7c-12.6,0-23-9.1-24.8-21.6l-3.7-27.8c-5.6-1.8-11-4.1-16.2-6.7l-22.1,17c-9.8,7.6-24,6.7-32.8-2.2
	l-17.5-17.5c-8.9-8.9-9.8-23-2.2-32.8l17-22.1c-2.6-5.2-4.8-10.6-6.7-16.2l-27.7-3.6c-12.6-1.8-21.7-12.2-21.7-24.8v-24.7
	c0-12.6,9.1-23,21.6-24.8l27.8-3.7c1.8-5.6,4.1-11,6.7-16.2l-17-22.1c-7.6-9.8-6.7-24,2.2-32.8l17.5-17.5c8.9-8.9,23-9.8,32.9-2.2
	l22.1,17c5.2-2.6,10.6-4.8,16.2-6.7l3.6-27.7c1.8-12.6,12.2-21.6,24.8-21.6h24.7c12.6,0,23,9.1,24.8,21.6l3.7,27.8
	c5.6,1.8,11,4.1,16.2,6.7l22.1-17c9.8-7.6,24-6.7,32.8,2.2l17.5,17.5c8.9,8.9,9.8,23,2.2,32.8l-17,22.1c2.6,5.2,4.8,10.6,6.7,16.2
	l27.7,3.6c12.6,1.8,21.7,12.2,21.7,24.8v24.7c0,12.6-9.1,23-21.6,24.8l-27.8,3.7c-1.8,5.6-4.1,11-6.7,16.2l17,22.1
	c7.6,9.8,6.7,24-2.2,32.8l-17.5,17.5c-8.9,8.9-23,9.8-32.8,2.2l-22.1-17c-5.2,2.6-10.6,4.8-16.2,6.7l-3.6,27.7
	C291.4,417.6,281,426.7,268.4,426.7L268.4,426.7z M198,347.3c1.8,0,3.7,0.5,5.3,1.4c7.6,4.4,15.7,7.7,24.3,10
	c4.2,1.1,7.2,4.6,7.8,8.9l4.6,34.6c0.3,1.8,1.8,3.1,3.6,3.1h24.7c1.9,0,3.4-1.3,3.7-3.2l4.5-34.5c0.6-4.3,3.6-7.8,7.8-8.9
	c8.6-2.3,16.8-5.7,24.3-10c3.7-2.1,8.4-1.8,11.8,0.8l27.6,21.2c1.5,1.2,3.4,1,4.7-0.4l17.5-17.5c1.3-1.3,1.5-3.3,0.4-4.7l-21.2-27.6
	c-2.6-3.4-2.9-8.1-0.8-11.8c4.4-7.6,7.7-15.7,10-24.3c1.1-4.2,4.6-7.2,8.9-7.8l34.6-4.6c1.8-0.3,3.1-1.8,3.1-3.6v-24.7
	c0-1.9-1.3-3.4-3.2-3.7l-34.5-4.5c-4.3-0.6-7.8-3.6-8.9-7.8c-2.3-8.6-5.7-16.8-10-24.3c-2.1-3.7-1.8-8.4,0.8-11.8l21.2-27.6
	c1.1-1.5,1-3.4-0.4-4.7l-17.5-17.5c-1.4-1.3-3.3-1.5-4.7-0.4l-27.6,21.2c-3.4,2.6-8.1,2.9-11.8,0.8c-7.6-4.4-15.7-7.7-24.3-10
	c-4.2-1.1-7.2-4.6-7.8-8.9l-4.6-34.6c-0.2-1.8-1.7-3.1-3.6-3.1h-24.7c-1.9,0-3.4,1.3-3.7,3.2l-4.5,34.5c-0.6,4.3-3.6,7.8-7.8,8.9
	c-8.6,2.3-16.8,5.7-24.3,10c-3.8,2.1-8.4,1.8-11.8-0.8l-27.6-21.2c-1.5-1.1-3.4-1-4.7,0.4l-17.5,17.5c-1.3,1.3-1.5,3.3-0.4,4.7
	l21.2,27.6c2.6,3.4,2.9,8.1,0.8,11.8c-4.4,7.6-7.7,15.7-10,24.3c-1.1,4.2-4.6,7.2-8.9,7.8l-34.6,4.6c-1.8,0.2-3.1,1.7-3.1,3.6v24.7
	c0,1.9,1.3,3.4,3.2,3.7l34.5,4.5c4.3,0.6,7.8,3.6,8.9,7.8c2.3,8.6,5.7,16.8,10,24.3c2.1,3.7,1.8,8.4-0.8,11.8l-21.2,27.6
	c-1.1,1.5-1,3.4,0.4,4.7l17.5,17.5c1.3,1.3,3.3,1.5,4.7,0.4l27.6-21.2C193.4,348,195.7,347.3,198,347.3L198,347.3z"/>
<path d="M256,327.1c-39.2,0-71.1-31.9-71.1-71.1s31.9-71.1,71.1-71.1s71.1,31.9,71.1,71.1S295.2,327.1,256,327.1z M256,206.2
	c-27.4,0-49.8,22.3-49.8,49.8s22.3,49.8,49.8,49.8s49.8-22.3,49.8-49.8S283.4,206.2,256,206.2z"/>
</svg>
