<?xml version="1.0" encoding="utf-8"?>
<!-- Generator: Adobe Illustrator 25.0.0, SVG Export Plug-In . SVG Version: 6.00 Build 0)  -->
<svg version="1.1" id="Layer_1" xmlns="http://www.w3.org/2000/svg" xmlns:xlink="http://www.w3.org/1999/xlink" x="0px" y="0px"
	 viewBox="0 0 512 512" style="enable-background:new 0 0 512 512;" xml:space="preserve">
<style type="text/css">
	.st0{fill:#EFEFEF;}
	.st1{fill:#EF2929;}
	.st2{fill:#941E1E;}
</style>
<path class="st0" d="M383.7,55.7c-98.4,1.8-166.9-47.9-214.3-47c-47.4,0.9-146.4,30-142.4,248s138.6,247.5,190.7,246.6
	C462,498.7,557.9,52.4,383.7,55.7z"/>
<g>
	<path class="st1" d="M174.2,216.9h-64c-7.9,0-14.2-6.4-14.2-14.2v-21.3c0-7.9,6.4-14.2,14.2-14.2h64c7.9,0,14.2,6.4,14.2,14.2v21.3
		C188.4,210.5,182.1,216.9,174.2,216.9z"/>
	<path class="st1" d="M401.8,216.9h-64c-7.9,0-14.2-6.4-14.2-14.2v-21.3c0-7.9,6.4-14.2,14.2-14.2h64c7.9,0,14.2,6.4,14.2,14.2v21.3
		C416,210.5,409.6,216.9,401.8,216.9z"/>
	<path class="st1" d="M288,309.3h-64c-7.9,0-14.2,6.4-14.2,14.2v21.3c0,7.9,6.4,14.2,14.2,14.2h64c7.9,0,14.2-6.4,14.2-14.2v-21.3
		C302.2,315.7,295.9,309.3,288,309.3z"/>
</g>
<path class="st2" d="M128,202.7v-21.3c0-7.9,6.4-14.2,14.2-14.2h-32c-7.9,0-14.2,6.4-14.2,14.2v21.3c0,7.9,6.4,14.2,14.2,14.2h32
	C134.4,216.9,128,210.5,128,202.7z"/>
<path class="st2" d="M355.6,202.7v-21.3c0-7.9,6.4-14.2,14.2-14.2h-32c-7.9,0-14.2,6.4-14.2,14.2v21.3c0,7.9,6.4,14.2,14.2,14.2h32
	C361.9,216.9,355.6,210.5,355.6,202.7z"/>
<path class="st2" d="M241.8,344.9v-21.3c0-7.9,6.4-14.2,14.2-14.2h-32c-7.9,0-14.2,6.4-14.2,14.2v21.3c0,7.9,6.4,14.2,14.2,14.2h32
	C248.1,359.1,241.8,352.7,241.8,344.9z"/>
<g>
	<path class="st1" d="M87.1,417.8h28.4V432H87.1V417.8z"/>
	<path class="st1" d="M168.9,417.8h28.4V432h-28.4V417.8z"/>
	<path class="st1" d="M133.3,453.3h14.2v28.4h-14.2V453.3z"/>
	<path class="st1" d="M426.7,92c-11.8,0-21.3-9.6-21.3-21.3s9.6-21.3,21.3-21.3c11.8,0,21.3,9.6,21.3,21.3S438.4,92,426.7,92z
		 M426.7,63.5c-3.9,0-7.1,3.2-7.1,7.1c0,3.9,3.2,7.1,7.1,7.1c3.9,0,7.1-3.2,7.1-7.1C433.8,66.7,430.6,63.5,426.7,63.5z"/>
</g>
<path d="M174.2,227.6h-64c-13.7,0-24.9-11.2-24.9-24.9v-21.3c0-13.7,11.2-24.9,24.9-24.9h64c13.7,0,24.9,11.2,24.9,24.9v21.3
	C199.1,216.4,187.9,227.6,174.2,227.6z M110.2,177.8c-2,0-3.6,1.6-3.6,3.6v21.3c0,2,1.6,3.6,3.6,3.6h64c2,0,3.6-1.6,3.6-3.6v-21.3
	c0-2-1.6-3.6-3.6-3.6H110.2z"/>
<path d="M131.6,216.9h21.3V416h-21.3V216.9z"/>
<path d="M131.6,96h21.3v71.1h-21.3V96z"/>
<path d="M401.8,227.6h-64c-13.7,0-24.9-11.2-24.9-24.9v-21.3c0-13.7,11.2-24.9,24.9-24.9h64c13.7,0,24.9,11.2,24.9,24.9v21.3
	C426.7,216.4,415.5,227.6,401.8,227.6z M337.8,177.8c-2,0-3.6,1.6-3.6,3.6v21.3c0,2,1.6,3.6,3.6,3.6h64c2,0,3.6-1.6,3.6-3.6v-21.3
	c0-2-1.6-3.6-3.6-3.6H337.8z"/>
<path d="M359.1,216.9h21.3V416h-21.3V216.9z"/>
<path d="M359.1,96h21.3v71.1h-21.3V96z"/>
<path d="M288,369.8h-64c-13.7,0-24.9-11.2-24.9-24.9v-21.3c0-13.7,11.2-24.9,24.9-24.9h64c13.7,0,24.9,11.2,24.9,24.9v21.3
	C312.9,358.6,301.7,369.8,288,369.8z M224,320c-2,0-3.6,1.6-3.6,3.6v21.3c0,2,1.6,3.6,3.6,3.6h64c2,0,3.6-1.6,3.6-3.6v-21.3
	c0-2-1.6-3.6-3.6-3.6H224z"/>
<path d="M245.3,96h21.3v213.3h-21.3V96z"/>
<path d="M245.3,359.1h21.3V416h-21.3V359.1z"/>
</svg>
