<?xml version="1.0" encoding="utf-8"?>
<!-- Generator: Adobe Illustrator 25.0.0, SVG Export Plug-In . SVG Version: 6.00 Build 0)  -->
<svg version="1.1" id="_x31__x2C_5" xmlns="http://www.w3.org/2000/svg" xmlns:xlink="http://www.w3.org/1999/xlink" x="0px"
	 y="0px" viewBox="0 0 512 512" style="enable-background:new 0 0 512 512;" xml:space="preserve">
<style type="text/css">
	.st0{fill:#EFEFEF;}
	.st1{fill:#EF2929;}
	.st2{fill:#F3F3F1;}
	.st3{fill:#941E1E;}
	.st4{fill:#D5DBE1;}
</style>
<g>
	<path class="st0" d="M59.3,119.1c0,98.4-51,165.9-51,213.3s27.2,147,245.3,147s250.1-133.9,250.1-186.1
		C503.7,49.2,59.3-55.1,59.3,119.1L59.3,119.1z"/>
</g>
<g>
	<path class="st1" d="M106.7,71.1c-11.8,0-21.3-9.6-21.3-21.3s9.6-21.3,21.3-21.3S128,38,128,49.8S118.4,71.1,106.7,71.1z
		 M106.7,42.7c-3.9,0-7.1,3.2-7.1,7.1s3.2,7.1,7.1,7.1c3.9,0,7.1-3.2,7.1-7.1S110.6,42.7,106.7,42.7z"/>
</g>
<g>
	<path class="st2" d="M387.6,401.8H124.4c-15.7,0-28.4-12.7-28.4-28.4V160h320v213.3C416,389,403.3,401.8,387.6,401.8z"/>
</g>
<g>
	<path class="st1" d="M416,160H96v-21.3c0-15.7,12.7-28.4,28.4-28.4h263.1c15.7,0,28.4,12.7,28.4,28.4V160z"/>
</g>
<g>
	<circle class="st2" cx="256" cy="284.4" r="74.7"/>
</g>
<g>
	<path class="st1" d="M239.6,211.6c-33.4,7.4-58.3,37.3-58.3,72.8c0,11.4,2.6,22.2,7.3,31.7h1.3c5.5,0,10.5-2.3,14.2-6.1
		s6-9.1,6.1-14.9c0-5.3,1.8-10.2,4.8-14.1c3.1-3.8,7.3-6.7,12.2-7.7c12.7-2.8,21.6-14.5,21.6-28.2v-7.7
		C248.9,227.8,245.5,218.6,239.6,211.6L239.6,211.6z"/>
</g>
<g>
	<path class="st1" d="M328.7,291.6c-2-1.1-4.1-1.7-6.3-1.7c-3.8,0-7.5,1.8-9.8,5.3c-4.4,6.5-13.1,9.2-20.5,6.3l-4-1.6
		c-3.6-1.4-7.3-2.1-11-2.1c-7.7,0-15.2,3-20.8,8.5c-11.8,11.9-12.8,30.7-2.3,43.7l7.3,9c36.1-2.4,65.1-30.7,68.8-66.4L328.7,291.6z"
		/>
</g>
<g>
	<path class="st1" d="M286.7,216.5c-1.1,10.8,1,21.9,6.3,31.4c4.3,7.7,11.7,12.4,19.8,12.4c1,0,2-0.1,2.8-0.3l10.4-1.4
		C319.1,239.8,304.9,224.6,286.7,216.5z"/>
</g>
<g>
	<path class="st1" d="M286.7,216.5c-1.1,10.8,1,21.9,6.3,31.4c4.3,7.7,11.7,12.4,19.8,12.4c1,0,2-0.1,2.8-0.3l10.4-1.4
		C319.1,239.8,304.9,224.6,286.7,216.5z"/>
</g>
<g>
	<path class="st3" d="M156.4,110.2h-32c-15.7,0-28.4,12.7-28.4,28.4V160h32v-21.3C128,123,140.7,110.2,156.4,110.2z"/>
</g>
<g>
	<path class="st3" d="M246.1,222.8c-1.6-4.1-3.7-7.9-6.5-11.2c-33.4,7.4-58.3,37.3-58.3,72.8c0,11.4,2.6,22.2,7.3,31.7h1.3
		c5.5,0,10.5-2.3,14.2-6.1s6-9.1,6.1-14.9c0-4,1.3-7.7,3.2-11C213.5,258.6,226.5,236.2,246.1,222.8L246.1,222.8z"/>
</g>
<g>
	<path class="st4" d="M213.3,284.4c0-0.1,0-0.2,0-0.3c-1.8,3.3-3.2,7-3.2,11c-0.1,5.8-2.4,11.1-6.1,14.9c-3.7,3.8-8.7,6.1-14.2,6.1
		h-1.2c11.9,25.3,37.5,43,67.4,43c5.5,0,10.8-0.7,16-1.8C238.5,350,213.3,320.2,213.3,284.4z"/>
</g>
<g>
	<path class="st3" d="M286.2,349.9c-10.5-12.9-9.5-31.7,2.3-43.7c1.7-1.7,3.8-3.2,5.8-4.4c-0.7-0.2-1.5-0.2-2.1-0.5l-4-1.6
		c-3.6-1.4-7.3-2.1-11-2.1c-7.7,0-15.2,3-20.8,8.5c-11.8,11.9-12.8,30.7-2.3,43.7l7.3,9c9.4-0.6,18.3-3.1,26.4-6.9L286.2,349.9z"/>
</g>
<g>
	<path class="st4" d="M128,373.3V160H96v213.3c0,15.7,12.7,28.4,28.4,28.4h32C140.7,401.8,128,389,128,373.3z"/>
</g>
<g>
	<path d="M256,369.8c-47.1,0-85.3-38.3-85.3-85.3s38.3-85.3,85.3-85.3s85.3,38.3,85.3,85.3S303.1,369.8,256,369.8z M256,220.4
		c-35.3,0-64,28.7-64,64s28.7,64,64,64s64-28.7,64-64S291.3,220.4,256,220.4z"/>
</g>
<g>
	<path d="M189.9,326.8l-1.3-21.3c4.4,0,6.6-1.6,7.8-2.8c1.9-2,3.1-4.8,3.1-7.8c0-7.2,2.5-14.5,7.1-20.4c5.1-6.2,11.4-10.2,18.6-11.6
		c7.6-1.7,13-9,13-17.7v-7.7c0-7-2.5-13.9-6.8-19.1l16.4-13.7c7.6,9,11.7,20.7,11.7,32.7v7.7c0,18.7-12.3,34.6-29.9,38.6
		c-2.5,0.5-4.5,1.8-6.3,4c-1.5,2-2.4,4.6-2.4,7.4c-0.2,8.6-3.4,16.5-9.1,22.3C205.9,323.5,198.2,326.8,189.9,326.8L189.9,326.8z"/>
</g>
<g>
	<path d="M253.1,365.5l-7.3-9c-13.9-17.1-12.7-42,3-57.9c11-11,28.3-14.8,43.3-8.8l3.9,1.5c2.8,1.1,6.1,0.1,7.7-2.3
		c6.4-9.5,20-12.7,30.2-6.8l1.3,0.7l-10.1,18.8l-1.6-0.9c0,0-2.1,0.1-2.1,0.1c-7.3,10.8-21.3,15-33.3,10.2l-3.9-1.5
		c-7.3-3-15.2-1.1-20.3,4c-8,8-8.6,20.7-1.6,29.4l7.3,9L253.1,365.5z"/>
</g>
<g>
	<path d="M312.7,270.9c-12,0-22.9-6.7-29.1-17.9c-6.2-11.3-8.9-24.7-7.5-37.7l21.2,2.2c-0.9,8.7,0.9,17.7,5,25.2
		c2.4,4.3,6.3,6.9,10.4,6.9l11.8-1.6l2.9,21.1l-10.4,1.4C315.9,270.7,314.3,270.9,312.7,270.9L312.7,270.9z"/>
</g>
<g>
	<path d="M387.6,412.4H124.4c-21.6,0-39.1-17.5-39.1-39.1V138.7c0-21.6,17.5-39.1,39.1-39.1h263.1c21.6,0,39.1,17.5,39.1,39.1v234.7
		C426.7,394.9,409.1,412.4,387.6,412.4z M124.4,120.9c-9.8,0-17.8,8-17.8,17.8v234.7c0,9.8,8,17.8,17.8,17.8h263.1
		c9.8,0,17.8-8,17.8-17.8V138.7c0-9.8-8-17.8-17.8-17.8H124.4z"/>
</g>
<g>
	<path d="M96,149.3h320v21.3H96V149.3z"/>
</g>
<g>
	<path d="M28.4,391.1h455.1v21.3H28.4V391.1z"/>
</g>
</svg>
