<?xml version="1.0" encoding="utf-8"?>
<!-- Generator: Adobe Illustrator 25.0.0, SVG Export Plug-In . SVG Version: 6.00 Build 0)  -->
<svg version="1.1" id="Layer_1" xmlns="http://www.w3.org/2000/svg" xmlns:xlink="http://www.w3.org/1999/xlink" x="0px" y="0px"
	 viewBox="0 0 512 512" style="enable-background:new 0 0 512 512;" xml:space="preserve">
<style type="text/css">
	.st0{fill:#EFEFEF;}
	.st1{fill:#F3F3F1;}
	.st2{fill:#EF2929;}
	.st3{fill:#D5DBE1;}
	.st4{fill:#941E1E;}
</style>
<path class="st0" d="M496.4,289.5c-53.8-82.4-48.1-166.8-74-206.5C396.5,43.3,319.2-25.1,136.6,94.1S0.5,343,29,386.7
	C162.6,591.1,591.7,435.4,496.4,289.5z"/>
<path class="st1" d="M387.6,145.4v114.2c0,15.6-12.8,28.4-28.4,28.4H117.3c-11.8,0-21.3-9.5-21.3-21.3V145.4l133.8,66.3
	c7.4,3.7,16.5,3.7,23.9,0L387.6,145.4z"/>
<path class="st2" d="M387.6,131.6v13.8l-133.8,66.3c-7.4,3.7-16.5,3.7-23.9,0L96,145.4v-13.8c0-11.8,9.5-21.3,21.3-21.3h248.9
	C378,110.2,387.6,119.8,387.6,131.6z"/>
<path class="st3" d="M128,266.7V161.2l-32-15.8v121.3c0,11.8,9.5,21.3,21.3,21.3h32C137.5,288,128,278.5,128,266.7z"/>
<path class="st4" d="M128,138.4v-6.8c0-11.8,9.5-21.3,21.3-21.3h-32c-11.8,0-21.3,9.5-21.3,21.3v13.8l133.8,66.3
	c7.4,3.7,16.5,3.7,23.9,0l4.1-9L128,138.4z"/>
<path class="st2" d="M238.2,323.6v49.8H352V416l64-67.6l-64-67.6v42.7H238.2z"/>
<g>
	<path class="st4" d="M384,314.7l-32-33.8v42.7h32V314.7z"/>
	<path class="st4" d="M384,373.3h-32V416l32-33.8V373.3z"/>
	<path class="st4" d="M238.2,323.6h32v49.8h-32V323.6z"/>
</g>
<g>
	<path class="st2" d="M227.6,462.1c-11.8,0-21.3-9.6-21.3-21.3c0-11.8,9.6-21.3,21.3-21.3s21.3,9.6,21.3,21.3
		C248.9,452.5,239.3,462.1,227.6,462.1z M227.6,433.6c-3.9,0-7.1,3.2-7.1,7.1s3.2,7.1,7.1,7.1c3.9,0,7.1-3.2,7.1-7.1
		S231.5,433.6,227.6,433.6z"/>
	<path class="st2" d="M53.4,323.2l10.1-10.1l20.1,20.1l-10.1,10.1L53.4,323.2z"/>
	<path class="st2" d="M111.1,381.1l10.1-10.1l20.1,20.1l-10.1,10.1L111.1,381.1z"/>
	<path class="st2" d="M50.8,391.2l20.1-20.1L81,381.1l-20.1,20.1L50.8,391.2z"/>
	<path class="st2" d="M108.6,333.4l20.1-20.1l10.1,10.1l-20.1,20.1L108.6,333.4z"/>
</g>
<path d="M352,426.7c-1.3,0-2.7-0.3-4-0.8c-4.1-1.6-6.7-5.5-6.7-9.9v-32H238.2c-5.9,0-10.7-4.8-10.7-10.7v-49.8
	c0-5.9,4.8-10.7,10.7-10.7h103.1v-32c0-4.4,2.7-8.3,6.7-9.9c4.1-1.6,8.7-0.6,11.7,2.6l64,67.6c3.9,4.1,3.9,10.6,0,14.7l-64,67.6
	C357.7,425.5,354.9,426.7,352,426.7z M248.9,362.7H352c5.9,0,10.7,4.8,10.7,10.7v15.9l38.6-40.8l-38.6-40.8v15.9
	c0,5.9-4.8,10.7-10.7,10.7H248.9V362.7z"/>
<path d="M302.2,298.7H117.3c-17.6,0-32-14.4-32-32V131.6c0-17.6,14.4-32,32-32h248.9c17.6,0,32,14.4,32,32v113.8h-21.3V131.6
	c0-5.9-4.8-10.7-10.7-10.7H117.3c-5.9,0-10.7,4.8-10.7,10.7v135.1c0,5.9,4.8,10.7,10.7,10.7h184.9V298.7z"/>
<path d="M241.8,225.1c-5.7,0-11.5-1.3-16.7-3.9L91.3,154.9l9.5-19.1l133.8,66.3c4.5,2.2,10,2.2,14.4,0l133.9-66.3l9.5,19.1
	l-133.8,66.3C253.3,223.8,247.5,225.1,241.8,225.1z"/>
</svg>
