<?xml version="1.0" encoding="utf-8"?>
<!-- Generator: Adobe Illustrator 25.0.0, SVG Export Plug-In . SVG Version: 6.00 Build 0)  -->
<svg version="1.1" id="Layer_1" xmlns="http://www.w3.org/2000/svg" xmlns:xlink="http://www.w3.org/1999/xlink" x="0px" y="0px"
	 viewBox="0 0 512 512" style="enable-background:new 0 0 512 512;" xml:space="preserve">
<style type="text/css">
	.st0{fill:#EFEFEF;}
	.st1{fill:#F3F3F1;}
	.st2{fill:#D5DBE1;}
	.st3{fill:#EF2929;}
	.st4{fill:#941E1E;}
</style>
<path class="st0" d="M115.4,79.1C89.7,174.1,22.9,226,10.5,271.8s-12,149,198.5,205.9s276.4-64,290-114.4
	C562.7,127.6,160.9-89.1,115.4,79.1L115.4,79.1z"/>
<circle class="st1" cx="213.3" cy="170.7" r="60.4"/>
<path class="st1" d="M305.7,288.7l0.1-0.2c-1.7-1-3.4-1.8-5.2-2.6c-0.5-0.2-1-0.5-1.5-0.7c-2.9-1.2-5.9-2.1-9-2.8
	c-0.9-0.2-1.7-0.4-2.6-0.5c-3.3-0.6-6.6-1-10.1-1c0,0,0,0,0,0h0H152.9h0c0,0,0,0,0,0c-3.5,0-6.8,0.4-10.1,1
	c-0.9,0.2-1.7,0.3-2.6,0.5c-3.1,0.7-6.1,1.6-9,2.8c-0.5,0.2-1,0.5-1.5,0.7c-1.8,0.8-3.5,1.6-5.2,2.6l0.1,0.2
	c-17,9.8-28.5,28-28.5,49.1v49.8h71.1h96h71.1v-49.8C334.2,316.7,322.7,298.6,305.7,288.7L305.7,288.7z"/>
<path class="st2" d="M184.9,170.7c0-27.8,18.9-51,44.4-58c-5.1-1.4-10.4-2.4-16-2.4c-33.4,0-60.4,27.1-60.4,60.4
	s27.1,60.4,60.4,60.4c5.6,0,10.9-1,16-2.4C203.8,221.7,184.9,198.5,184.9,170.7z"/>
<path class="st2" d="M156.5,288.7l-0.1-0.2c1.7-1,3.4-1.8,5.2-2.6c0.5-0.2,1-0.5,1.5-0.7c2.9-1.2,5.9-2.1,9-2.8
	c0.9-0.2,1.7-0.4,2.6-0.5c3.3-0.6,6.6-1,10.1-1h0h-32h0c0,0,0,0,0,0c-3.5,0-6.8,0.4-10.1,1c-0.9,0.2-1.7,0.3-2.6,0.5
	c-3.1,0.7-6.1,1.6-9,2.8c-0.5,0.2-1,0.5-1.5,0.7c-1.8,0.8-3.5,1.6-5.2,2.6l0.1,0.2c-17,9.8-28.5,28-28.5,49.1v49.8h32v-49.8
	C128,316.7,139.5,298.6,156.5,288.7L156.5,288.7z"/>
<path class="st3" d="M401.8,416h-78.2c-7.9,0-14.2-6.4-14.2-14.2V352c0-7.9,6.4-14.2,14.2-14.2h78.2c7.9,0,14.2,6.4,14.2,14.2v49.8
	C416,409.6,409.6,416,401.8,416z"/>
<path class="st4" d="M341.3,401.8V352c0-7.9,6.4-14.2,14.2-14.2h-32c-7.9,0-14.2,6.4-14.2,14.2v49.8c0,7.9,6.4,14.2,14.2,14.2h32
	C347.7,416,341.3,409.6,341.3,401.8z"/>
<g>
	<path class="st3" d="M373.2,65.6l10.1-10.1l20.1,20.1l-10.1,10.1L373.2,65.6z"/>
	<path class="st3" d="M431,123.4l10.1-10.1l20.1,20.1l-10.1,10.1L431,123.4z"/>
	<path class="st3" d="M370.7,133.5l20.1-20.1l10.1,10.1l-20.1,20.1L370.7,133.5z"/>
	<path class="st3" d="M428.5,75.7l20.1-20.1l10.1,10.1l-20.1,20.1L428.5,75.7z"/>
</g>
<path d="M213.3,241.8c-39.2,0-71.1-31.9-71.1-71.1s31.9-71.1,71.1-71.1s71.1,31.9,71.1,71.1S252.5,241.8,213.3,241.8z M213.3,120.9
	c-27.4,0-49.8,22.3-49.8,49.8s22.3,49.8,49.8,49.8s49.8-22.3,49.8-49.8S240.8,120.9,213.3,120.9z"/>
<path d="M401.8,426.7h-78.2c-13.7,0-24.9-11.2-24.9-24.9V352c0-13.7,11.2-24.9,24.9-24.9h78.2c13.7,0,24.9,11.2,24.9,24.9v49.8
	C426.7,415.5,415.5,426.7,401.8,426.7z M323.6,348.4c-2,0-3.6,1.6-3.6,3.6v49.8c0,2,1.6,3.6,3.6,3.6h78.2c2,0,3.6-1.6,3.6-3.6V352
	c0-2-1.6-3.6-3.6-3.6H323.6z"/>
<path d="M387.6,348.4h-49.8c-5.9,0-10.7-4.8-10.7-10.7v-32c0-19.6,15.9-35.6,35.6-35.6c19.6,0,35.6,16,35.6,35.6v32
	C398.2,343.7,393.4,348.4,387.6,348.4z M348.4,327.1h28.4v-21.3c0-7.8-6.4-14.2-14.2-14.2c-7.9,0-14.2,6.4-14.2,14.2V327.1z"/>
<path d="M263.1,398.2H96c-5.9,0-10.7-4.8-10.7-10.7v-49.8c0-37.2,30.3-67.6,67.6-67.6h124.4c11.9,0,23.6,3.2,33.8,9.1l-10.7,18.4
	c-7-4.1-15-6.2-23.1-6.2H152.9c-25.5,0-46.2,20.7-46.2,46.2v39.1h156.4V398.2z"/>
</svg>
