<?xml version="1.0" encoding="utf-8"?>
<!-- Generator: Adobe Illustrator 25.0.0, SVG Export Plug-In . SVG Version: 6.00 Build 0)  -->
<svg version="1.1" id="Layer_1" xmlns="http://www.w3.org/2000/svg" xmlns:xlink="http://www.w3.org/1999/xlink" x="0px" y="0px"
	 viewBox="0 0 512 512" style="enable-background:new 0 0 512 512;" xml:space="preserve">
<style type="text/css">
	.st0{fill:#EFEFEF;}
	.st1{fill:#F3F3F1;}
	.st2{fill:#EF2929;}
	.st3{fill:#941E1E;}
	.st4{fill:#D5DBE1;}
</style>
<g id="bg">
	<g>
		<path class="st0" d="M389.9,55.7c-98.3,1.8-166.9-47.9-214.2-47c-47.4,0.9-146.4,30-142.4,248s138.6,247.5,190.7,246.6
			C468.2,498.7,564.1,52.4,389.9,55.7z"/>
	</g>
</g>
<g id="color">
	<g>
		<path class="st1" d="M389.4,167.8L326.3,231c5.8,16.1,5.8,34,0,50.1l63.1,63.1C424.8,290.8,424.8,221.2,389.4,167.8L389.4,167.8z
			 M231.1,326.3l-63.3,63.1c53.3,35.4,123,35.4,176.4,0L281,326.3C265,332.1,247.2,332.1,231.1,326.3z M185.7,231.1l-63.1-63.3
			c-35.4,53.3-35.4,123,0,176.4l63.1-63.3C179.9,264.8,179.9,247.2,185.7,231.1z M167.8,122.6l63.3,63.1c16.1-5.8,33.8-5.8,49.9,0
			l63.1-63.1C290.8,87.2,221.2,87.2,167.8,122.6L167.8,122.6z"/>
	</g>
	<g>
		<path class="st2" d="M389.4,344.2c-5.7,8.8-12.5,17.2-20.3,24.9c-7.7,7.8-16.1,14.6-24.9,20.3L281,326.3
			c10.1-3.6,19.6-9.4,27.7-17.5s13.9-17.6,17.5-27.7L389.4,344.2z"/>
	</g>
	<g>
		<path class="st2" d="M231.1,185.7c-10.2,3.4-19.8,9.4-27.9,17.5c-8.1,8.1-14.1,17.6-17.5,27.9l-63.1-63.3
			c5.7-8.8,12.5-17.2,20.3-24.9c7.7-7.8,16.1-14.6,24.9-20.3L231.1,185.7z"/>
	</g>
	<g>
		<path class="st2" d="M389.4,167.8L326.3,231c-3.6-10.1-9.4-19.6-17.5-27.7c-8.1-8.1-17.6-13.9-27.7-17.5l63.1-63.1
			c8.8,5.7,17.2,12.5,24.9,20.3C376.9,150.6,383.7,159,389.4,167.8L389.4,167.8z"/>
	</g>
	<g>
		<path class="st2" d="M231.1,326.3l-63.3,63.1c-8.8-5.7-17.2-12.5-24.9-20.3c-7.8-7.7-14.6-16.1-20.3-24.9l63.1-63.3
			c3.4,10.2,9.4,19.8,17.5,27.9C211.3,316.9,220.9,322.8,231.1,326.3L231.1,326.3z"/>
	</g>
	<g>
		<path class="st3" d="M174.9,369.1c-7.8-7.7-14.6-16.1-20.3-24.9c-4.4-6.6-8.2-13.5-11.5-20.5l-20.5,20.5
			c5.7,8.8,12.5,17.2,20.3,24.9c7.7,7.8,16.1,14.6,24.9,20.3l14-14C179.5,373.3,177.2,371.3,174.9,369.1L174.9,369.1z"/>
	</g>
	<g>
		<path class="st3" d="M154.6,167.8c5.7-8.8,12.5-17.2,20.3-24.9c2.2-2.3,4.6-4.2,6.9-6.3l-14-14c-8.8,5.7-17.2,12.5-24.9,20.3
			c-7.8,7.7-14.6,16.1-20.3,24.9l20.5,20.5C146.4,181.3,150.2,174.4,154.6,167.8L154.6,167.8z"/>
	</g>
	<g>
		<path class="st4" d="M199.8,122.6c22-14.6,46.9-23.1,72.2-25.7c-36-3.6-72.9,4.9-104.2,25.7l14,14
			C187.6,131.5,193.6,126.6,199.8,122.6L199.8,122.6z"/>
	</g>
	<g>
		<path class="st4" d="M143.1,188.3l-20.5-20.5c-35.4,53.3-35.4,123,0,176.4l20.5-20.5C123,280.9,123,231.1,143.1,188.3L143.1,188.3
			z"/>
	</g>
	<g>
		<path class="st4" d="M199.8,389.4c-6.3-4.1-12.2-8.9-18-14l-14,14c31.3,20.8,68.2,29.3,104.2,25.7
			C246.7,412.5,221.9,404,199.8,389.4z"/>
	</g>
	<g>
		<g>
			<path class="st2" d="M364.5,72.7l10.1-10.1l20.1,20.1l-10.1,10.1L364.5,72.7z"/>
		</g>
		<g>
			<path class="st2" d="M422.3,130.5l10.1-10.1l20.1,20.1l-10.1,10.1L422.3,130.5z"/>
		</g>
		<g>
			<path class="st2" d="M419.8,82.8l20.1-20.1L450,72.8l-20.1,20.1L419.8,82.8z"/>
		</g>
	</g>
	<g>
		<path class="st2" d="M75.1,458.7c-11.8,0-21.3-9.6-21.3-21.3S63.4,416,75.1,416s21.3,9.6,21.3,21.3S86.9,458.7,75.1,458.7z
			 M75.1,430.2c-3.9,0-7.1,3.2-7.1,7.1s3.2,7.1,7.1,7.1s7.1-3.2,7.1-7.1S79.1,430.2,75.1,430.2z"/>
	</g>
</g>
<g id="regular">
	<g>
		<path d="M256,426.6c-43.7,0-87.4-16.6-120.7-49.9c-66.5-66.5-66.5-174.8,0-241.4c66.5-66.5,174.8-66.5,241.4,0
			c24.9,24.9,41.2,56.3,47.4,90.8l-21,3.7c-5.3-30.2-19.7-57.7-41.4-79.4c-58.2-58.2-153-58.2-211.2,0c-58.2,58.2-58.2,153,0,211.2
			c58.2,58.2,153,58.2,211.2,0c28.2-28.2,43.7-65.7,43.7-105.6h21.3c0,45.6-17.7,88.4-50,120.7C343.4,410,299.7,426.6,256,426.6
			L256,426.6z"/>
	</g>
	<g>
		<path d="M256,341.3c-21.9,0-43.7-8.3-60.3-25c-33.3-33.3-33.3-87.4,0-120.7c33.3-33.3,87.4-33.3,120.7,0
			c33.3,33.3,33.3,87.4,0,120.7C299.7,333,277.9,341.3,256,341.3z M256,192c-16.4,0-32.8,6.2-45.3,18.7c-24.9,25-24.9,65.6,0,90.5
			c25,25,65.6,25,90.5,0c24.9-25,24.9-65.6,0-90.5C288.8,198.3,272.4,192,256,192z"/>
	</g>
	<g>
		<path d="M115,175.4l15.1-15.1l63.2,63.2l-15.1,15.1L115,175.4z"/>
	</g>
	<g>
		<path d="M273.4,333.8l15.1-15.1l63.1,63.1L336.6,397L273.4,333.8z"/>
	</g>
	<g>
		<path d="M160.2,130.1l15.1-15.1l63.2,63.2l-15.1,15.1L160.2,130.1z"/>
	</g>
	<g>
		<path d="M318.7,288.6l15.1-15.1l63.1,63.1l-15.1,15.1L318.7,288.6z"/>
	</g>
	<g>
		<path d="M160.2,381.9l63.2-63.2l15.1,15.1L175.3,397L160.2,381.9z"/>
	</g>
	<g>
		<path d="M318.7,223.4l63.1-63.1l15.1,15.1l-63.1,63.1L318.7,223.4z"/>
	</g>
	<g>
		<path d="M115,336.6l63.2-63.2l15.1,15.1L130,351.7L115,336.6z"/>
	</g>
	<g>
		<path d="M273.5,178.2l63.1-63.1l15.1,15.1l-63.1,63.1L273.5,178.2z"/>
	</g>
</g>
</svg>
